<svg id="expand" xmlns="http://www.w3.org/2000/svg" viewBox="0 0 78 84"><defs><style>.cls-1{fill:#f2552c;}.cls-2{fill:#084464;}</style></defs><title>icons-54</title><g id="small_copy_2" data-name="small copy 2"><path class="cls-1" d="M52,5A25,25,0,1,0,77,30,25,25,0,0,0,52,5ZM34,30A18,18,0,0,1,49.59,12.17L35.35,36.84A17.9,17.9,0,0,1,34,30ZM52,48a17.94,17.94,0,0,1-14.24-7H66.24A17.94,17.94,0,0,1,52,48ZM68.77,36.54,54.71,12.21A18,18,0,0,1,68.77,36.54Z"/><path class="cls-2" d="M22.51,59.45a1,1,0,0,0-.87-.5H20V25h1.64a1,1,0,0,0,.87-.5L29.15,13a1,1,0,0,0,0-1L26,6.43a1,1,0,0,0-.74-.5,1,1,0,0,0-.84.29L17,13.57,11.38,7.91l6.26-6.26A1,1,0,0,0,16.93,0H8.36a1,1,0,0,0-.87.5L.85,12a1,1,0,0,0,0,1l6.64,11.5a1,1,0,0,0,.87.5H10V59H8.36a1,1,0,0,0-.87.5L.85,71a1,1,0,0,0,0,1L4,77.47a1,1,0,0,0,1.58.2L13,70.33,18.62,76l-6.26,6.26A1,1,0,0,0,13.07,84h8.57a1,1,0,0,0,.87-.5L29.15,72a1,1,0,0,0,0-1ZM21.06,82H15.49l5.25-5.26a1,1,0,0,0,0-1.41L13.67,68.2a1,1,0,0,0-1.41,0L5.12,75.34,2.88,71.45,8.94,61H11a1,1,0,0,0,1-1V24a1,1,0,0,0-1-1H8.94L2.88,12.45,8.94,2h5.57L9.26,7.2a1,1,0,0,0,0,1.42l7.07,7.07a1,1,0,0,0,1.41,0l7.14-7.14,2.25,3.9L21.06,23H19a1,1,0,0,0-1,1V60a1,1,0,0,0,1,1h2.06l6.07,10.5ZM16.5,33h-3a.5.5,0,0,0-.5.5v18a.5.5,0,0,0,.5.5h3a.5.5,0,0,0,.5-.5v-18A.5.5,0,0,0,16.5,33ZM16,51H14V34h2ZM50.42,11.61a1,1,0,0,0-1-.43,19,19,0,0,0-15,26,1,1,0,0,0,.86.62h.07a1,1,0,0,0,.87-.5L50.46,12.67A1,1,0,0,0,50.42,11.61ZM35,30a16.93,16.93,0,0,1,1-5.71v9.42l-.42.72A17.26,17.26,0,0,1,35,30Zm3,.25V20.41h0a17,17,0,0,1,9.62-6.82ZM67.9,37a1,1,0,0,0,.87.5h.08a1,1,0,0,0,.85-.64A18.79,18.79,0,0,0,68,19.77a1,1,0,0,0-.36-.56,19,19,0,0,0-12.73-8,1,1,0,0,0-1,1.49Zm.6-3-.5-.87V24.32a16.74,16.74,0,0,1,.5,9.76ZM66,20.43v9.32L56.71,13.67A17,17,0,0,1,66,20.43Zm1,21.18a1,1,0,0,0,.11-1,1,1,0,0,0-.9-.56H37.76a1,1,0,0,0-.9.56,1,1,0,0,0,.11,1,19,19,0,0,0,30.06,0ZM64,42A17,17,0,0,1,40,42ZM48.5,30A3.5,3.5,0,1,0,52,26.5,3.5,3.5,0,0,0,48.5,30ZM52,27.5A2.5,2.5,0,1,1,49.5,30,2.5,2.5,0,0,1,52,27.5ZM70,61H68V50.47A26,26,0,0,0,68,9.53V1a1,1,0,0,0-2,0V8.11a25.9,25.9,0,0,0-28,0V1a1,1,0,0,0-2,0V9.53a26,26,0,0,0,0,40.94V61H34a3,3,0,0,0-3,3v6a3,3,0,0,0,3,3h2V83a1,1,0,0,0,2,0V73H66V83a1,1,0,0,0,2,0V73h2a3,3,0,0,0,3-3V64A3,3,0,0,0,70,61ZM28,30A24,24,0,1,1,52,54,24,24,0,0,1,28,30ZM38,51.89a25.9,25.9,0,0,0,28,0V61H38ZM71,70a1,1,0,0,1-1,1H34a1,1,0,0,1-1-1V64a1,1,0,0,1,1-1H70a1,1,0,0,1,1,1Z"/></g></svg>