<svg id="expand" xmlns="http://www.w3.org/2000/svg" viewBox="0 0 20 17"><defs><style>.cls-1{fill:#084464;}</style></defs><title>icons</title><g id="icons"><path class="cls-1" d="M6.93,16.27H5.69l-.35,0A10.45,10.45,0,0,1,3.77,16,11.43,11.43,0,0,1,.05,14.47l0,0a8.29,8.29,0,0,0,6.06-1.71A4.13,4.13,0,0,1,2.23,9.87,4,4,0,0,0,4.09,9.8,4.1,4.1,0,0,1,.8,5.73a4.88,4.88,0,0,0,.89.36,3.77,3.77,0,0,0,1,.14A4.06,4.06,0,0,1,.93,3.74a4,4,0,0,1,.45-3,11.77,11.77,0,0,0,8.47,4.3V5a4,4,0,0,1,0-1.71A4,4,0,0,1,11.71.61,4,4,0,0,1,13.38,0l.27,0h.46l.47,0a4.09,4.09,0,0,1,2.25,1.21.06.06,0,0,0,.07,0,8.06,8.06,0,0,0,2.51-1l.05,0a4.1,4.1,0,0,1-1.79,2.26,7.72,7.72,0,0,0,1.2-.23A11.6,11.6,0,0,0,20,2L20,2A8.31,8.31,0,0,1,18,4s-.05,0-.05.09a10.11,10.11,0,0,1,0,1.65,11.41,11.41,0,0,1-.3,1.65,12.06,12.06,0,0,1-1.79,3.95,11.18,11.18,0,0,1-3.24,3.15,11.27,11.27,0,0,1-5.43,1.74Z"/></g></svg>