<svg id="expand" xmlns="http://www.w3.org/2000/svg" viewBox="0 0 83 79"><defs><style>.cls-1{fill:#f2552c;}.cls-2{fill:#084464;}</style></defs><title>icons</title><g id="small_copy" data-name="small copy"><path class="cls-1" d="M54,30V68a9.8,9.8,0,0,1-.71,3.68C51.63,73,47.2,74,42,74s-9.63-1-11.29-2.32A9.8,9.8,0,0,1,30,68V30a11.29,11.29,0,0,1,.16-1.94C31.08,29.73,36,31,42,31s10.92-1.27,11.84-2.94A11.29,11.29,0,0,1,54,30Z"/><path class="cls-2" d="M21,63.5v-16a.5.5,0,0,0-.5-.5H7.5a.5.5,0,0,0-.5.5v16a.5.5,0,0,0,.5.5h13A.5.5,0,0,0,21,63.5ZM20,63H8V48H20ZM17,17.36V16h1a1,1,0,0,0,1-1V12a1,1,0,0,0-1-1H17V10h1a1,1,0,0,0,1-1V5a1,1,0,0,0-1-1H11V1A1,1,0,0,0,9,1V8H7V1A1,1,0,0,0,5,1V8H4a4,4,0,0,0,0,8h7v1.36A12.94,12.94,0,0,0,1,30V68A11,11,0,0,0,12,79h4A11,11,0,0,0,27,68V30A12.94,12.94,0,0,0,17,17.36ZM17,14H11V13h6Zm-2-3H13V10h2ZM11,6h6V8H11Zm-1,4h1v1H10a1,1,0,0,0-1,1v2H6.86a3.45,3.45,0,0,0,0-4ZM2,12a2,2,0,0,1,2-2H5.48a2.47,2.47,0,0,1,0,4H4A2,2,0,0,1,2,12Zm13,4v2a1,1,0,0,1-2,0V16Zm-3.67,3.34a3,3,0,0,0,5.34,0,10.9,10.9,0,0,1,8.13,8.58C23.31,29,19.47,30,14,30S4.69,29,3.2,27.92A10.9,10.9,0,0,1,11.33,19.34ZM3,68V32c2.25,1.33,6.72,2,11,2s8.75-.7,11-2V68a8.87,8.87,0,0,1-.86,3.81c-1.81.9-5.35,1.69-10.14,1.69s-8.33-.79-10.14-1.69A8.87,8.87,0,0,1,3,68ZM25,30v.78C23.67,31.87,19.73,33,14,33S4.33,31.87,3,30.78V30c0-.34,0-.67,0-1,2.27,1.31,6.71,2,11,2s8.69-.69,11-2C25,29.33,25,29.66,25,30ZM16,77H12a9,9,0,0,1-7.31-3.78A30.66,30.66,0,0,0,14,74.5a30.66,30.66,0,0,0,9.31-1.28A9,9,0,0,1,16,77ZM49,63.5v-16a.5.5,0,0,0-.5-.5h-13a.5.5,0,0,0-.5.5v16a.5.5,0,0,0,.5.5h13A.5.5,0,0,0,49,63.5ZM48,63H36V48H48ZM45,17.36V16h1a1,1,0,0,0,1-1V12a1,1,0,0,0-1-1H45V10h1a1,1,0,0,0,1-1V5a1,1,0,0,0-1-1H39V1a1,1,0,0,0-2,0V8H35V1a1,1,0,0,0-2,0V8H32a4,4,0,0,0,0,8h7v1.36A12.94,12.94,0,0,0,29,30V68A11,11,0,0,0,40,79h4A11,11,0,0,0,55,68V30A12.94,12.94,0,0,0,45,17.36ZM45,14H39V13h6Zm-2-3H41V10h2ZM39,6h6V8H39Zm-1,4h1v1H38a1,1,0,0,0-1,1v2H34.86a3.44,3.44,0,0,0,0-4Zm-8,2a2,2,0,0,1,2-2h1.48a2.47,2.47,0,0,1,0,4H32A2,2,0,0,1,30,12Zm13,4v2a1,1,0,0,1-2,0V16Zm-3.67,3.34a3,3,0,0,0,5.34,0,10.9,10.9,0,0,1,8.13,8.58C51.31,29,47.47,30,42,30s-9.31-1-10.8-2.08A10.9,10.9,0,0,1,39.33,19.34ZM31,68V32c2.25,1.33,6.72,2,11,2s8.75-.7,11-2V68a8.87,8.87,0,0,1-.86,3.81c-1.81.9-5.35,1.69-10.14,1.69s-8.33-.79-10.14-1.69A8.87,8.87,0,0,1,31,68ZM53,30v.78C51.67,31.87,47.73,33,42,33s-9.67-1.13-11-2.22V30c0-.34,0-.67,0-1,2.27,1.31,6.71,2,11,2s8.69-.69,11-2C53,29.33,53,29.66,53,30ZM44,77H40a9,9,0,0,1-7.31-3.78A30.66,30.66,0,0,0,42,74.5a30.66,30.66,0,0,0,9.31-1.28A9,9,0,0,1,44,77ZM77,63.5v-16a.5.5,0,0,0-.5-.5h-13a.5.5,0,0,0-.5.5v16a.5.5,0,0,0,.5.5h13A.5.5,0,0,0,77,63.5ZM76,63H64V48H76ZM73,17.36V16h1a1,1,0,0,0,1-1V12a1,1,0,0,0-1-1H73V10h1a1,1,0,0,0,1-1V5a1,1,0,0,0-1-1H67V1a1,1,0,0,0-2,0V8H63V1a1,1,0,0,0-2,0V8H60a4,4,0,0,0,0,8h7v1.36A12.94,12.94,0,0,0,57,30V68A11,11,0,0,0,68,79h4A11,11,0,0,0,83,68V30A12.94,12.94,0,0,0,73,17.36ZM81,30v.78C79.67,31.87,75.73,33,70,33s-9.67-1.13-11-2.22V30c0-.34,0-.67,0-1,2.27,1.31,6.71,2,11,2s8.69-.69,11-2C81,29.33,81,29.66,81,30ZM59,68V32c2.25,1.33,6.72,2,11,2s8.75-.7,11-2V68a8.87,8.87,0,0,1-.86,3.81c-1.81.9-5.35,1.69-10.14,1.69s-8.33-.79-10.14-1.69A8.87,8.87,0,0,1,59,68ZM73,14H67V13h6Zm-2-3H69V10h2ZM67,6h6V8H67Zm-1,4h1v1H66a1,1,0,0,0-1,1v2H62.86a3.44,3.44,0,0,0,0-4Zm-8,2a2,2,0,0,1,2-2h1.48a2.47,2.47,0,0,1,0,4H60A2,2,0,0,1,58,12Zm13,4v2a1,1,0,0,1-2,0V16Zm-3.67,3.34a3,3,0,0,0,5.34,0,10.9,10.9,0,0,1,8.13,8.58C79.31,29,75.47,30,70,30s-9.31-1-10.8-2.08A10.9,10.9,0,0,1,67.33,19.34ZM72,77H68a9,9,0,0,1-7.31-3.78A30.66,30.66,0,0,0,70,74.5a30.66,30.66,0,0,0,9.31-1.28A9,9,0,0,1,72,77Z"/></g></svg>