<svg id="expand" xmlns="http://www.w3.org/2000/svg" viewBox="0 0 164 93"><defs><style>.cls-1{fill:#f2552c;}.cls-2{fill:#084464;}</style></defs><title>icons</title><g id="big_copy" data-name="big copy"><path class="cls-1" d="M43.65,42.9,30.91,49.65H31V85l-9-2.92V47.19l-.22-.06,13.37-6.86Zm97,4.63-13.5-6.92L119,42.91,132.31,50l-.31.09V85.12l9-2.6V47.42ZM33.37,39.63,32.5,16.15l-7.52,4,.46,14.8ZM32.31,16.15l-13.68-4.7-7.58,3.79L25,20.12Zm70.76-6.69-.37-.06L102,36.93l8.56,1L111,10.81l-.51-.09.55.09L114,3.4l-7.59-1.12Z"/><path class="cls-2" d="M163.88,28.54c0-16-36-28.54-81.94-28.54S0,12.54,0,28.54V63.35H0c0,.09,0,.19,0,.29,0,16,36,28.54,81.94,28.54s81.94-12.54,81.94-28.54c0-.1,0-.2,0-.29h0ZM18.7,12.53l11.13,3.82L24.9,19l-11.29-4ZM161.88,49.79c-1.81,5.53-8.7,10.74-19.88,15V56.61c10.18-3.81,17-8.52,19.88-13.58ZM30.26,41.65C19.87,37.72,14.15,32.78,14.15,27.7c0-2.91,1.84-5.73,5.44-8.41l3.89,1.36c-2.35,2.19-3.63,4.56-3.63,7.05,0,4.82,4.8,9.2,12.91,12.66Zm99.06-1c8.49-3.5,13.52-8,13.52-12.92,0-7.66-12.08-14.21-30.4-17.71L113,8.68c21.64,3.74,35.58,11.17,35.58,19,0,5.2-5.95,10.22-16.75,14.18Zm-8.5.74c-10.59,3-24.49,4.77-39.47,4.77-14.39,0-27.77-1.68-38.19-4.43L40.75,41A210.51,210.51,0,0,1,81.94,37.1c7.41,0,14.69.35,21.7,1l6.81.75h.11c4.15.53,8.15,1.2,12,2l-1.15.34Zm-94.39-6.7L26,21.07a26.72,26.72,0,0,1,2.48-1.68l3.07-1.61L32.31,38A32.84,32.84,0,0,1,26.43,34.66Zm-4.58-7a7.29,7.29,0,0,1,2.22-4.87l.14,4.54a14.22,14.22,0,0,0-2.05,2.17A5.87,5.87,0,0,1,21.85,27.7ZM126.37,39.59c-4.69-1-9.65-1.9-14.8-2.59l.09-5.46a81.33,81.33,0,0,1,19.76,6A51.66,51.66,0,0,1,126.37,39.59Zm-22.5-3.46L103,36l.65-25.37.14,0,6.18,1-.42,25.09Q106.77,36.41,103.87,36.13Zm-2.5-13.83a178.28,178.28,0,0,0-20-1.11c-18.61,0-35.77,2.67-47.39,7.32L33.75,23c11.35-4.69,29-7.49,47.6-7.49a177,177,0,0,1,20.17,1.13ZM34,29.57c11.51-4.69,28.69-7.38,47.35-7.38a177.92,177.92,0,0,1,20,1.11L101.2,29A180.39,180.39,0,0,0,81.35,27.9c-18.45,0-35.52,2.63-47.15,7.22Zm98.54,7.36c-5.28-2.65-12.45-4.85-20.86-6.41l.09-5.68C123.15,27,132,30.24,137,34.11A27,27,0,0,1,132.54,36.93Zm5.21-3.49c-5.1-4-14.24-7.43-26-9.62l.09-5.67c14.35,2.71,24.74,7.31,28.18,12.45A10.9,10.9,0,0,1,137.75,33.44Zm2.79-3.92c-3.95-5.23-14.22-9.68-28.64-12.39L112,12c17.15,3.28,28.86,9.16,28.86,15.71A5.74,5.74,0,0,1,140.54,29.52Zm-39-13.92a179.84,179.84,0,0,0-20.19-1.12c-18.79,0-36,2.7-47.64,7.43l-.19-5C44.47,12.31,62,9.27,81.35,9.27a177,177,0,0,1,20.32,1.15ZM24.25,28.69l.13,4.21a10.24,10.24,0,0,1-1.75-2.3A12,12,0,0,1,24.25,28.69ZM34.34,38.84l-.1-2.66c11.52-4.63,28.6-7.28,47.11-7.28A179.88,179.88,0,0,1,101.18,30l-.15,5.9c-6.21-.51-12.6-.78-19.09-.78a207.61,207.61,0,0,0-45.12,4.65l-.39-.12C35.71,39.37,35,39.11,34.34,38.84Zm76.1-29.22c-1.67-.29-3.38-.55-5.14-.8l-.78-.13L107,3.38l5.6.83Zm-8-1.19,0,0a180.73,180.73,0,0,0-21-1.19c-20.12,0-37.69,3.06-48.84,7.88h0l-3.11-1.07c12.87-5.07,31.63-8,52-8A197.25,197.25,0,0,1,103,7.28ZM81.35,48.13c14.25,0,27.22-1.53,37.54-4.14L121,45.08a174.64,174.64,0,0,1-39.61,4.21,174.75,174.75,0,0,1-39.66-4.22L43.76,44C54.09,46.59,67.07,48.13,81.35,48.13Zm-41-2.34a174.33,174.33,0,0,0,41,4.5,174,174,0,0,0,41-4.5l2.63,1.4A192.16,192.16,0,0,1,81.35,51.8a192.18,192.18,0,0,1-43.63-4.63Zm-3.94,2.09c13,3.22,28.56,4.92,45,4.92s31.9-1.7,44.91-4.91l3.49,1.85C116,53.2,99.4,55.08,81.94,55.08c-17.82,0-34.73-2-48.65-5.56ZM23,48.53c2.2.79,4.54,1.53,7,2.23V83.62l-7-2.28ZM32,59.8c14.19,3.79,31.87,5.87,50,5.87,17.93,0,34.85-1.94,49.06-5.62v8.19c-14.16,3.7-31.1,5.66-49.06,5.66-18.13,0-35.82-2.1-50-5.9ZM131,59c-14.18,3.7-31.11,5.65-49.06,5.65-18.13,0-35.82-2.1-50-5.9V51.3c13.74,3.64,31,5.78,50,5.78,18.55,0,35.47-2,49.06-5.53Zm1.42-10.13-10.7-5.67c.81-.23,1.59-.46,2.36-.71l2.94-.83,10.91,5.6ZM133,42.5c10.68-4.07,16.54-9.29,16.54-14.8,0-8.46-13.84-16.07-36.21-20l.45-1.13C139,10.61,155.25,19,155.25,28c0,5.92-6.88,11.58-19.36,16ZM103.41,6.32A197.7,197.7,0,0,0,81.35,5.11c-21,0-40.41,3.09-53.4,8.48l-2.87-1C39.2,7.23,59.52,4.16,81.35,4.16a220.89,220.89,0,0,1,22.53,1.15Zm-85,12.57c-3.51,2.77-5.3,5.72-5.3,8.81,0,5.38,5.64,10.52,15.91,14.56l-2.91,1.49C14.09,39.36,7.44,33.78,7.44,28c0-3.56,2.57-7.12,7.43-10.34ZM35.22,41.35l.09,0c1.75.65,3.63,1.26,5.62,1.83L30.8,48.58l-6.25-1.76ZM21,64.42C10.33,60.26,3.76,55.17,2,49.79V43c2.75,4.91,9.25,9.48,19,13.23ZM2,52.26c2.75,4.91,9.25,9.48,19,13.23v8.16C10.33,69.49,3.76,64.4,2,59ZM32,69c14.19,3.79,31.87,5.87,50,5.87,17.94,0,34.87-2,49.06-5.63v8.2c-14.16,3.7-31.1,5.66-49.06,5.66-18.13,0-35.82-2.1-50-5.9ZM139.85,81.81l-6.85,2V51q2.63-.72,5.06-1.51L140,49v32.8Zm2.15-16c10.23-3.83,17.05-8.51,19.88-13.58V59c-1.81,5.54-8.7,10.75-19.88,15Zm19.88-25.26c-1.82,5.51-8.77,10.75-19.88,15V48.13c9.71-3.61,16.67-8.14,19.88-13.21Zm0-12c0,6.51-7.72,13-21.23,17.88l-3.54-1.81C149.46,40.07,156.25,34.2,156.25,28c0-9.66-16.1-18.17-42.1-22.33l.51-1.3A142.17,142.17,0,0,1,138.85,10C153.49,15,161.88,21.75,161.88,28.54ZM81.94,2c7.89,0,15.59.39,22.94,1.12l-.56,1.23a220.65,220.65,0,0,0-23-1.19c-22.52,0-43.47,3.26-57.73,9l-2.22-.77c1.17-.45,2.37-.9,3.63-1.33C40.22,4.85,60.43,2,81.94,2ZM11.19,16.35l2.51.88C8.89,20.56,6.44,24.17,6.44,28c0,6.1,6.56,11.89,18.5,16.39l-3,1.56C9.21,41.09,2,34.83,2,28.54,2,24.32,5.24,20.12,11.19,16.35ZM21,47.79v7.4C10.33,51,3.76,45.94,2,40.56V34.92C5.11,39.84,11.73,44.24,21,47.79ZM2,63.64a9,9,0,0,1,.17-1.72l-.17,0v-.39C4.75,66.4,11.25,71,21,74.72v5.94C8.86,75.87,2,69.77,2,63.64ZM32,84.26v-6c14.19,3.79,31.87,5.87,50,5.87,17.94,0,34.87-1.95,49.06-5.63v6c-14,3.68-31.06,5.68-49.06,5.68C63.55,90.18,46.13,88.09,32,84.26ZM142,81v-6c10.23-3.82,17.05-8.5,19.88-13.57V62l-.16,0a8.31,8.31,0,0,1,.16,1.65C161.88,69.93,154.68,76.18,142,81Z"/></g></svg>