<svg id="expand" xmlns="http://www.w3.org/2000/svg" viewBox="0 0 100 144"><defs><style>.cls-1{fill:#f2552c;}.cls-2{fill:#084464;}</style></defs><title>icons</title><g id="big_copy" data-name="big copy"><path class="cls-1" d="M20.23,11l.21-.32C23.82,5.08,34.37,1,46.86,1,59.58,1,70.28,5.22,73.46,11l0,0,1,29.62,1.66,3.49,2,11.57s0,.46,0,.69c0,3.8-14.21,6.89-31.75,6.89s-31.74-3.09-31.74-6.89c0-.23,0-.69,0-.69l2-11.57,1.32-3.49Zm1.31,87.38A1.49,1.49,0,1,0,23,99.91,1.49,1.49,0,0,0,21.54,98.42Z"/><path class="cls-2" d="M21.54,101.89a2,2,0,0,0,2-2,2.06,2.06,0,0,0,0-.26l5.26-2.77A9.24,9.24,0,0,1,29.3,100a8.82,8.82,0,0,1-2.86,6.63.5.5,0,0,0,0,.71.49.49,0,0,0,.37.16.5.5,0,0,0,.33-.12A9.85,9.85,0,0,0,30.3,100a10.13,10.13,0,0,0-.65-3.55l.74-.39a.55.55,0,0,0,.25-.31.49.49,0,0,0-.05-.39L29.82,94a.49.49,0,0,0-.31-.24.54.54,0,0,0-.39.06l-.61.39a8.28,8.28,0,0,0-6.75-3.7c-4.71,0-8.54,4.24-8.54,9.46a10.47,10.47,0,0,0,.62,3.52l-1,.61a.5.5,0,0,0,.26.92.69.69,0,0,0,.24,0l.89-.47a9.26,9.26,0,0,0,.85,1.41.5.5,0,1,0,.8-.59,8.74,8.74,0,0,1-.76-1.29l5.06-2.66A2,2,0,0,0,21.54,101.89Zm0-1a1,1,0,0,1,0-2,1,1,0,1,1,0,2ZM29.21,95l.26.43L23.92,98.3Zm-15,5c0-4.67,3.38-8.46,7.54-8.46a7.23,7.23,0,0,1,5.9,3.24L22.35,98.1a2,2,0,0,0-.81-.18,2,2,0,0,0-2,2l-4.85,3.07A9.29,9.29,0,0,1,14.22,100ZM100,66.36a1,1,0,0,0-.46-.86.94.94,0,0,0-.69-.11L79.32,62l-.21-4.78a2.4,2.4,0,0,0,.16-.83c0-.27,0-.78-.06-.86L77.17,44a1.12,1.12,0,0,0-.08-.26l-1.57-3.3L74.5,11a1,1,0,0,0-.22-.58c-.09-.16-.21-.32-.32-.49s-.25-.4-.39-.6-.29-.34-.43-.51-.31-.39-.48-.58-.34-.33-.51-.49-.37-.37-.57-.55-.39-.32-.59-.47-.41-.35-.64-.52l-.66-.45L69,5.29l-.73-.42c-.26-.15-.51-.3-.78-.44s-.54-.27-.81-.4l-.83-.4-.89-.37c-.29-.12-.57-.25-.87-.36s-.64-.23-1-.34-.59-.22-.9-.32l-1-.31c-.31-.09-.62-.19-.94-.27s-.73-.18-1.1-.27-.63-.17-1-.24L57,.92,56,.73,54.78.54l-1-.14c-.45-.06-.91-.1-1.36-.15L51.56.16C51,.11,50.5.09,50,.06l-.74,0c-.78,0-1.57,0-2.37,0C34.21,0,23.25,4.08,19.6,10.17l-.21.33a1,1,0,0,0-.16.48l-2,29.47L15.93,43.8a1.21,1.21,0,0,0,0,.18L13.83,55.63s-.05.51-.05.78a2.75,2.75,0,0,0,.14.8l.91,13.62L8,69.86l-1-.13c-3.29-.42-5.76,5.1-6.44,10.5S.94,91.57,4.22,92l5.94.84a15.66,15.66,0,0,0-1.47,8,14.68,14.68,0,0,0,9,12.68v.1A18.07,18.07,0,0,0,36,130h0v9.19c0,3.3,5.67,5.09,11,5.09s11-1.79,11-5.09V130h-1a18.7,18.7,0,0,0,11.19-3.73l2.47.55h0a.82.82,0,0,0,.22,0,1.12,1.12,0,0,0,.31,0l.09,0,.15-.07,28.08-18.38a1,1,0,0,0,.42-.84ZM49,80l21,3.67v40.94L49,120Zm23,3.28L82.68,77,72,87.77Zm0,16.11L98,73.31v8.8L72,108.19ZM98,71.89,72,98v-8.8L86.06,75.07l12-7ZM72,109.61,98,83.52v8.8L72,118.4ZM96.06,66.94,70.6,81.75l-16.69-3C67.14,75.89,75.48,70.92,78.78,64ZM46.86,2c.76,0,1.5,0,2.24,0,.23,0,.46,0,.69,0,.5,0,1,.05,1.5.09l.84.08c.43,0,.87.08,1.3.14s.58.08.86.12.82.11,1.22.18l.88.16L57.52,3l.85.2,1.08.26.82.23,1,.29.79.27c.32.11.65.21,1,.33s.5.19.75.29l.9.36.7.33.83.4.65.35c.25.14.52.28.76.43l.59.38.69.45c.18.13.35.27.52.41s.43.32.62.48l.46.43c.18.17.36.33.53.51s.26.3.39.45.31.35.45.53l.31.47c.11.17.23.34.33.51v.28C70.37,13.13,61,14.8,46.87,14.8s-23.56-1.67-25.68-3.14l0-.29.09-.14C24.56,5.77,35.08,2,46.86,2ZM21.12,12.68c4.14,2.26,16.75,3.12,25.75,3.12s21.49-.86,25.69-3.09L73.5,40c-2,2.74-12.54,5.45-27,5.45-15.34,0-26.25-3.06-27.25-6ZM19.11,41c3.41,3.52,15.72,5.4,27.41,5.4C58,46.44,70,44.64,73.7,41.26l1.52,3.2.11.6C73.24,47.81,62,50.54,46.52,50.54s-26.71-2.73-28.8-5.48l.11-.64Zm-3.3,14.85,1.69-9.6c3.83,3.43,16.75,5.25,29,5.25s25.2-1.82,29-5.25l1.68,9.53s0,.39,0,.59c0,2.4-12,5.89-30.75,5.89s-30.74-3.49-30.74-5.89C15.78,56.23,15.81,55.89,15.81,55.89ZM7.49,90.41A6,6,0,0,1,6.38,88a19.6,19.6,0,0,1-.28-7.12c.56-4.45,2.14-7.69,3.6-8.79l2.74.39c-1.53,1.69-2.79,4.9-3.27,8.78s-.06,7.51,1.08,9.51Zm4.19-.07c-.1.13-.18.27-.28.4-1.08-1.44-1.8-4.81-1.24-9.32s2.08-7.58,3.52-8.73l1.29.18.92,13.85A13,13,0,0,0,11.68,90.34ZM4.47,90c-1.25-.16-2.62-4-1.92-9.53s3-8.92,4.2-8.76L8.43,72c-1.55,1.68-2.83,4.92-3.32,8.84a20.6,20.6,0,0,0,.31,7.51,8.19,8.19,0,0,0,.74,1.92l-.68-.1Zm6.22,10.68a13.24,13.24,0,0,1,2.58-9.13,10.41,10.41,0,0,1,7.5-4.23l.79,0a10.54,10.54,0,0,1,7.29,3,13.33,13.33,0,0,1,4,8.62c.54,6.89-4,12.88-10.09,13.36S11.23,107.57,10.69,100.68Zm24.13-1.9a15.22,15.22,0,0,0-4.59-9.9,12.51,12.51,0,0,0-8-3.56l1.07-.62a11.59,11.59,0,0,1,8.94-1.13,12,12,0,0,1,7.22,5.6l.28.49a12,12,0,0,1,1.24,9,11.6,11.6,0,0,1-5.47,7.2L33,107.53A15.52,15.52,0,0,0,34.82,98.78ZM56,136c-1.36,1.27-4.7,2.37-9,2.37s-7.53-1-9-2.28v-2.85c1.9,1.24,5.17,2,9,2s7.17-.83,9-2.11Zm-9,6.27c-5.49,0-9-1.83-9-3.09v-1.85c1.9,1.23,5.17,2,9,2s7.17-.84,9-2.11v1.92C56,140.45,52.49,142.28,47,142.28Zm9-10.35c-1.36,1.27-4.7,2.36-9,2.36s-7.53-1-9-2.27v-2H56Zm1-3.93H36a16.09,16.09,0,0,1-16.22-13.89,11.77,11.77,0,0,0,2.22.22l.94,0a12.43,12.43,0,0,0,8.65-4.68L36,106.75A12.59,12.59,0,0,0,41.94,99a13,13,0,0,0-1.35-9.79l-.28-.49a13,13,0,0,0-7.81-6.06,12.61,12.61,0,0,0-9.71,1.22l-2.7,1.56a12.21,12.21,0,0,0-2.25.5L16.08,59.54c5.56,3.44,20,4.76,30.44,4.76,10.59,0,25.32-1.36,30.69-4.91l.12,2.94c-3,7.52-13,12.85-29,15.45l-.1,0a1,1,0,0,0-1.17,1v42a1,1,0,0,0,.78,1l17.66,4A16.8,16.8,0,0,1,57.05,128ZM72,119.82,98,93.73v8.8L85.31,115.26,72,124ZM98,106.93l-8.64,5.65L98,104Z"/></g></svg>