<svg id="expand" xmlns="http://www.w3.org/2000/svg" viewBox="0 0 15 15"><defs><style>.cls-1{fill:#f2552c;}</style></defs><title>icons</title><g id="icons"><path class="cls-1" d="M2.36,0a.54.54,0,0,0-.31,0C.93.47.23,2.07.06,3.18-.46,6.75,2.36,9.85,5,11.89c2.3,1.81,6.72,4.79,9.33,1.92a2.16,2.16,0,0,0,.71-1.4c-.06-.87-.87-1.5-1.49-2S12,9.1,11.41,9.12s-.91.61-1.27,1l-.62.63c-.1.1-1.43-.77-1.57-.88A11,11,0,0,1,6.43,8.65,9.56,9.56,0,0,1,5.21,7.23c-.11-.14-1-1.41-.87-1.52s.72-.79.93-1.1c.44-.66.77-1.18.27-2a4.8,4.8,0,0,0-.66-.76A13,13,0,0,0,3.51.66,3,3,0,0,0,2.36,0Z"/></g></svg>