<svg id="expand" xmlns="http://www.w3.org/2000/svg" viewBox="0 0 183 110"><defs><style>.cls-1{fill:#f2552c;}.cls-2{fill:#084464;}</style></defs><title>icons</title><g id="big_copy" data-name="big copy"><path class="cls-1" d="M81.41,16.09C72.64,6.56,57.33,1,40.5,1a70.3,70.3,0,0,0-9.62.66L29,2C15.11,3.85,3.25,12.77,1.58,26.15L1.5,27a7.84,7.84,0,0,0,2.43,5.4l1,.19c4,3.41,11.18,5.69,19.35,5.69,8.52,0,15.94-2.47,19.84-6.13l.91-.22A7.55,7.55,0,0,0,47,27V18c5,1,15,5,15,5C77,30,85,20,81.41,16.09ZM40.17,31a3.76,3.76,0,1,1,2.93-4.63A3.88,3.88,0,0,1,40.17,31Z"/><path class="cls-2" d="M181.94,49.31l-.92-5A4.17,4.17,0,0,0,182.18,41l-1.52-7.45a10.17,10.17,0,0,0-4.93-7C161,18,128.2,12.71,98.42,33.18L46,70.44V32.29A8.37,8.37,0,0,0,48,27V19.25a141.37,141.37,0,0,1,13.58,4.66C71.35,28.47,78.85,26.24,82,22c1.68-2.3,1.76-4.88.19-6.58C73.27,5.76,57.7,0,40.5,0a71.3,71.3,0,0,0-9.8.68L28.87,1C13.56,3.05,2.2,13.1.59,26.05L.5,27A8.7,8.7,0,0,0,3,32.82l0,.68V87.25c-1,.61-3,2.07-3,4.2L.08,98a.76.76,0,0,0,0,.15C1.18,104.91,11.67,110,24.5,110c13.31,0,24.06-5.52,24.49-12.63V91.59a18.66,18.66,0,0,0-.36-2.16L96.57,54.82c17-11.71,33.53-15.58,49.05-11.52a2.09,2.09,0,0,1,1.36.86h0l.62,2.68c.28,1.69,1.78,2.87,4,3.61l.61,4c.46,2.76,4.72,4,9.75,4a37.43,37.43,0,0,0,6.1-.53,31.94,31.94,0,0,0,9.89-3.2c3.45-1.93,4.11-3.74,4-5A.86.86,0,0,0,181.94,49.31ZM29.18,3,31,2.65A69.25,69.25,0,0,1,40.5,2C57.15,2,72.17,7.52,80.67,16.77a1.91,1.91,0,0,1,.29.41l-.35.14C76,19.19,72,20.8,62.19,17.54c-.41-.17-10.1-4-15.06-5-1.07-.28-24.1-6.23-36.57-1.24A34.12,34.12,0,0,1,29.18,3ZM2.5,27.1l.08-.83A23.83,23.83,0,0,1,8.39,13.51c11.09-7.11,38.2-.1,38.51,0,4.9,1,14.81,4.93,14.94,5a31.91,31.91,0,0,0,10.08,2A22.38,22.38,0,0,0,81,18.25l.26-.11a4.07,4.07,0,0,1-.91,2.68c-2,2.67-7.91,5.94-18,1.25C62,21.91,52.23,18,47.2,17a1,1,0,0,0-.83.21A1,1,0,0,0,46,18v9a6.56,6.56,0,0,1-1.76,4.28h0c-3.74,4-11.48,6.49-20,6.49S8.32,35.38,4.47,31.5A6.65,6.65,0,0,1,2.5,27.1ZM46.56,90.66c-2,5.61-10.5,9.84-20.65,9.84-11.48,0-20.82-5.4-21.09-12.09A1,1,0,0,0,5,87.84V68c4.28,3.41,11.42,5.47,19.25,5.47,1.16,0,2.31,0,3.44-.13,6.82-.54,12.74-2.65,16.31-5.74v4.2l-4.51,2.81c-.08,0-2.09,1.24-2.73,1.68l.56.82-.57-.82a6.94,6.94,0,0,0-.86.7L25.68,86.56A7.5,7.5,0,0,0,36,97.5l2.29-2.29ZM44,66.27c-3.27,3.24-9.43,5.55-16.39,6.1-1.1.09-2.23.13-3.36.13C16.24,72.5,9,70.31,5,66.74V49c4.28,3.41,11.42,5.47,19.25,5.47,8.1,0,15.56-2.27,19.75-5.88Zm0-19c-3.83,3.81-11.43,6.24-19.75,6.24C16.24,53.5,9,51.31,5,47.73V33.3c4.28,3.41,11.43,5.48,19.26,5.48,8.1,0,15.56-2.27,19.75-5.89ZM2,91.45c0-1,1.06-1.86,1.84-2.37C4.68,96,14.25,101.5,25.91,101.5c9.87,0,18.24-3.94,21.08-9.35h0V94.4c-2.22,5.19-11.46,9.1-22.49,9.1S4.32,99.63,2,94.48l0-1.93ZM24.5,108c-11.61,0-21.43-4.43-22.42-10.09l0-1.48c3.45,4.71,12.2,8.07,22.44,8.07S43.59,101.11,47,96.36v1C46.64,103.21,36.55,108,24.5,108ZM149.56,46.44l-.64-2.79a3.66,3.66,0,0,0-2.79-2.28C130,37.15,113,41.12,95.42,53.19L47,88.11h0v0l0,0-9.82,5.37-2.6,2.54A5.5,5.5,0,1,1,27,88l10.21-9.54a7.67,7.67,0,0,1,.64-.52h0c.49-.33,2-1.27,2.64-1.61l5-3.12h0l0,0,54-38.38c29-19.93,60.83-14.82,75.16-6.52a8.18,8.18,0,0,1,4,5.61l1.51,7.44c.19,1.1-1.15,2.58-3.58,3.95a34.45,34.45,0,0,1-10.91,3.55C157,50.33,150,48.83,149.56,46.44ZM177,52.87a29.67,29.67,0,0,1-9.25,3c-7.86,1.32-13.28-.17-13.55-1.77L153.7,51A40.65,40.65,0,0,0,177.62,47,15.92,15.92,0,0,0,179.28,46l.65,3.52a1.22,1.22,0,0,0,0,.27C180.05,50.39,179.33,51.56,177,52.87ZM36.92,31.1a4.58,4.58,0,0,0,2.18.55,4.91,4.91,0,0,0,1.19-.15,4.57,4.57,0,0,0,2.76-2,4.07,4.07,0,0,0,.53-3.25,4.39,4.39,0,0,0-5.41-3,4.61,4.61,0,0,0-2.76,2,4.09,4.09,0,0,0,1.51,5.84Zm-.67-5.31a3.68,3.68,0,0,1,2.17-1.55,3.77,3.77,0,0,1,.93-.12,3.31,3.31,0,0,1,3.27,2.39A3.14,3.14,0,0,1,42.21,29a3.7,3.7,0,0,1-4.82,1.24,3.09,3.09,0,0,1-1.14-4.43Z"/></g></svg>