<svg id="expand" xmlns="http://www.w3.org/2000/svg" viewBox="0 0 165 130"><defs><style>.cls-1{fill:#f2552c;}.cls-2{fill:#084464;}</style></defs><title>icons</title><g id="big_copy" data-name="big copy"><path class="cls-1" d="M44.42,38.49l-6.91.71v4.94L53.3,48.08,76,46.55l3.46-.23c3.75-.28,6.75-2.78,8.7-6,0,0,15.07-21.67,15.44-22a11.23,11.23,0,0,1,6.16-3.4c2.48-.41,4.11-.65,4.11-.65l46.4-6A3.22,3.22,0,0,0,163.41,5h0c-.15-1.6-1-2.48-2.83-3L147.75,1a6.28,6.28,0,0,0-1,0L97.7,6.89c-7.11.08-11.84,5.67-11.84,5.67L71.8,32.17c-2.08,2.83-4.15,4.73-7.65,5v2l-4,1H48.36l-3.94-1Z"/><path class="cls-2" d="M160.88,1a.85.85,0,0,0-.22,0L147.82,0a6.45,6.45,0,0,0-1.16,0l-49,5.87C90.18,6,85.3,11.67,85.05,12L71,31.58c-1.75,2.38-3.42,4-6,4.46V32.3a1.11,1.11,0,0,0-.09-.4,1.11,1.11,0,0,0,.09-.4c0-1.66-3.7-2.5-11-2.5s-11,.84-11,2.5a1.11,1.11,0,0,0,.09.4,1.11,1.11,0,0,0-.09.4v5.33l-5.59.58a1,1,0,0,0-.9,1v4.94a1,1,0,0,0,.76,1L42,46.29V61l-5.08.08a13.58,13.58,0,0,0-5.07-1,14.31,14.31,0,0,0-8.06,2.58l.05.06-10,.37a1.09,1.09,0,0,0-.61.23h0l-8.84,7.4a1,1,0,0,0-.35.65l-1,8h0A48.88,48.88,0,0,0,.25,98.16c.4,14.26,5.64,25.62,12.39,27.73l0,0,6,3.44h0a.93.93,0,0,0,.49.14H31.23a2.75,2.75,0,0,0,.56-.07l.13,0a17.33,17.33,0,0,0,7.26-1.35l36.7-5a1,1,0,0,0,.59-.3c.19-.21.37-.39.54-.56a15.07,15.07,0,0,0,1.42-1.6l6.17,1.75a.92.92,0,0,0,.37,0h0L98,121.11a1,1,0,0,0,.72-.41l9.12-12.58a1,1,0,0,0,.19-.54l1.24-23.8a1.18,1.18,0,0,0-.09-.46L100.45,64a1,1,0,0,0-.66-.56L87.67,60.27a1,1,0,0,0-.3,0L75.2,60.9h0a.94.94,0,0,0-.44.13l-2.48,1.41a10.12,10.12,0,0,0-3-1.4A.8.8,0,0,0,69,61H66V48.23l13.52-.92c3.75-.27,7.12-2.57,9.45-6.43,5.9-8.49,14.87-21.35,15.33-21.93a10.39,10.39,0,0,1,5.61-3.1c2.46-.41,4.08-.65,4.07-.65l46.37-6a4.75,4.75,0,0,0,3-1.38,3.67,3.67,0,0,0,1.09-2.94A4.39,4.39,0,0,0,160.88,1ZM72.61,32.75l14-19.54c0-.06,4.51-5.25,11.09-5.32h.11l49-5.87a4.49,4.49,0,0,1,.82,0l10.84.8L109.8,9.55s-1.63.24-4.12.66a11.52,11.52,0,0,0-6.36,3.5c-.37.38-13,18.48-15.49,22.12-2.13,3.52-5.12,5.59-8.41,5.83l-22.09,1.6L40.06,40l3-.32a1,1,0,0,0,.65.54l4,1a1,1,0,0,0,.24,0H60a1,1,0,0,0,.24,0l4-1a1,1,0,0,0,.76-1V38.05C68.4,37.56,70.53,35.58,72.61,32.75ZM48,39.16l-3-.74V33.57l2.76.68a1,1,0,0,0,.24,0Zm1-4.88H60v4.88l-.12,0H49Zm12-.21,2-.5v4.85l-2,.49ZM54,31a46.28,46.28,0,0,1,7.36.5A46.28,46.28,0,0,1,54,32a46.28,46.28,0,0,1-7.36-.5A46.28,46.28,0,0,1,54,31ZM38.51,40.33,52.8,43.9v3L38.51,43.36ZM43,63a1,1,0,0,0,.59-.23c1.53,1.58,5.18,2.51,9,2.72,6.22,5.84,10.08,17.3,10.08,30,0,11.59-3.34,22.41-8.76,28.57l-12.53,1.71c7.05-5.32,11.19-16.49,11.19-30.64,0-14.35-5.57-27-13.8-32ZM30.1,64.53l8.33,6.86L26.58,72.51,16.74,65Zm13,52.61-.11.09-12.71,1,3-21.14,12.44-1.46ZM33.2,96.07l-6.13-22.6,12.44-1.18,6.15,22.32ZM6,72l7.92-6.63,11.18,8.52,6.19,22.82-3,21.57-9.34,9L16.75,126c3.24-.83,6.13-3.83,8.26-8.65,2.39-5.39,3.59-12.48,3.39-20s-1.8-14.5-4.48-19.75c-2.79-5.48-6.51-8.47-10.38-8.34-3,.08-5.65,1.93-7.81,5.06ZM2.25,98.1c0-.85,0-1.69,0-2.52L21.11,76.71c.35.58.7,1.18,1,1.84a32.75,32.75,0,0,1,1.67,3.92L2.68,103.59A53.78,53.78,0,0,1,2.25,98.1ZM3.71,84.24,16.12,71.83a11.32,11.32,0,0,1,4.43,4L2.29,94.12A48.76,48.76,0,0,1,3.71,84.24Zm.56-2c2.05-6.51,5.45-10.86,9.33-11h.15a5.43,5.43,0,0,1,1.32.17Zm19.88,1.27a46.1,46.1,0,0,1,1.6,6.85L4.42,111.72a48.09,48.09,0,0,1-1.57-6.89Zm1.78,8.09a57.39,57.39,0,0,1,.47,5.81c0,.73,0,1.45,0,2.16l-19,19a30.45,30.45,0,0,1-2.65-5.81Zm-11,32.61A5.52,5.52,0,0,1,13.3,124l11.27-11.27a32.9,32.9,0,0,1-1.38,3.82c-2.17,4.88-5.05,7.62-8.14,7.7ZM8,119.45l18.4-18.39a49.29,49.29,0,0,1-1.29,9.73l-12.79,12.8A11.92,11.92,0,0,1,8,119.45Zm13.61,8,8.34-8a1,1,0,0,0,.2-.29l11.6-.9L30.83,127.5Zm12.59-.2,10.56-8.89a1,1,0,0,0,.35-.64L47.79,95.1a1,1,0,0,0,0-.38L41.35,71.44a1,1,0,0,0-.33-.51l-10-8.19a.93.93,0,0,0-.67-.23l-1.69.07a11.43,11.43,0,0,1,7.64.45,1,1,0,0,0,.29.07c8.81,4,14.92,17.05,14.92,32s-4.65,26.42-12.45,31l-.35,0a1.12,1.12,0,0,0-.31.1A13.89,13.89,0,0,1,34.17,127.3ZM73.22,64.2C82.59,65.84,89.8,78,89.8,92.43c0,11.24-4.35,21.28-11,25.86,3.76-6.28,5.9-15,5.9-24.21,0-12.86-4.49-24.39-11.53-29.85Zm24.18,55-10.5,1,8-11.69a.73.73,0,0,0,.05-.09l10.51-.29ZM96.58,85l10.7-.73-1.18,22.76-11,.31ZM107,83.31,96.44,84,87.79,66.12l11-.87ZM95.93,64.47l-8.77.69A.72.72,0,0,0,87,65l-6.7-2.41,7.07-.38ZM75.35,63l10.54,3.79,8.7,18-1.51,22.77-8.63,12.63-4.72-1.34C86.43,114,90.8,103.78,90.8,92.43c0-14.34-7-26.52-16.29-29Zm-6.49,0a9.6,9.6,0,0,1,2.83,1.44,1.23,1.23,0,0,0,.26.12c7,5,11.76,16.78,11.76,29.52,0,9.41-2.28,18.33-6.26,24.5a1.07,1.07,0,0,0-.28.28,11,11,0,0,1-1.59,1.9l-.32.33-19.88,2.72c5.14-6.45,8.28-17.06,8.28-28.36,0-12.4-3.66-23.7-9.63-29.91h.21c4.21,0,8.6-.9,10.47-2.6A.94.94,0,0,0,65,63ZM64,62.18c-1.37,1.26-5,2.36-9.8,2.36-5.47,0-9.45-1.44-10.24-2.91V46.79l9,2.26a1,1,0,0,0,.25,0h.06L64,48.36V62A.58.58,0,0,0,64,62.18ZM161.89,6.44a2.82,2.82,0,0,1-1.76.79l-46.42,6s-1.64.24-4.13.66a12.14,12.14,0,0,0-6.71,3.68c-.37.38-9.9,14.06-15.58,22.24-1.17,1.93-3.75,5.22-7.91,5.52L53.8,47.05V44L72,42.64l3.45-.24c3.55-.25,6.74-2.45,9-6.16,4.15-6,15-21.52,15.41-22a10.8,10.8,0,0,1,6-3.28c2.47-.42,4.1-.66,4.1-.66l51.15-7.08a2.07,2.07,0,0,1,1.36,1.88A1.71,1.71,0,0,1,161.89,6.44Z"/></g></svg>