<svg id="expand" xmlns="http://www.w3.org/2000/svg" viewBox="0 0 83 85"><defs><style>.cls-1{fill:#f2552c;}.cls-2{fill:#084464;}</style></defs><title>icons-55</title><g id="small_copy_2" data-name="small copy 2"><path class="cls-1" d="M17,15v3c0,1.66-3.58,3-8,3s-8-1.34-8-3V15c0-1.66,3.58-3,8-3S17,13.34,17,15ZM44,1c-4.42,0-8,1.34-8,3V7c0,1.66,3.58,3,8,3s8-1.34,8-3V4C52,2.34,48.42,1,44,1Z"/><path class="cls-2" d="M82.47,65.25a1,1,0,0,0-1.22-.72L75.78,66,64.17,61.62l.59-.15a1,1,0,1,0-.52-1.94l-3.3.88-3.59-1.35a1,1,0,0,0-.7,1.88l1,.36-8.38,2.22-3.88-1.46a1,1,0,0,0-.7,1.88l1.25.47L30.31,68.55l-4-1.49a1,1,0,1,0-.7,1.88l1.32.49L15.28,72.54l-3.93-1.48a1,1,0,1,0-.7,1.88l1.3.48L5.33,75.18l-3-1.12a1,1,0,1,0-.7,1.88l.35.13-1.76.46a1,1,0,0,0,.26,2l.26,0,4.47-1.19L16.6,81.54,14.75,82A1,1,0,0,0,14,83.25,1,1,0,0,0,15,84a1.07,1.07,0,0,0,.25,0l4.59-1.21,5.81,2.18A1,1,0,0,0,26,85a1,1,0,0,0,.35-1.94l-3.16-1.18,6.64-1.75,4.82,1.81A1,1,0,0,0,35,82a1,1,0,0,0,.35-1.94l-2.17-.81,11.74-3.09,4.73,1.78A1,1,0,0,0,50,78a1,1,0,0,0,.35-1.94l-2.09-.78,15.66-4.12,4.73,1.78A1,1,0,0,0,69,73a1,1,0,0,0,.35-1.94l-2.09-.78,8.41-2.21,5,1.87A1,1,0,0,0,81,70a1,1,0,0,0,.35-1.94L79,67.19l2.73-.72A1,1,0,0,0,82.47,65.25ZM20,80.66,8.56,76.39l6.62-1.75,11.41,4.28Zm10-2.63L18.52,73.75,30.2,70.64,41.67,75Zm15.08-4L33.54,69.76l15.59-4.14L60.67,70Zm19-5L52.47,64.73l8.37-2.22,11.59,4.34ZM12.17,15c0-1-1.64-1.5-3.17-1.5S5.83,14,5.83,15,7.47,16.5,9,16.5,12.17,16,12.17,15ZM9,14.5a3.59,3.59,0,0,1,2.15.5A3.59,3.59,0,0,1,9,15.5,4.07,4.07,0,0,1,6.83,15,3.15,3.15,0,0,1,9,14.5ZM4,21.37V60a1,1,0,0,0,.1.44L6,64.4s0,.06,0,.1v1.39a4.5,4.5,0,0,0,4.49,4.5,4.71,4.71,0,0,0,1.18-.15l48.9-13.18,3.86.78a4.92,4.92,0,0,0,2.32-.1l.2-.05a3.18,3.18,0,0,0,1.19.7l6,1.8a3,3,0,0,0,.88.13,2.83,2.83,0,0,0,1.53-.44l0,0L80,58.14a3,3,0,0,0,2-2.83V35.49a3,3,0,0,0-2.14-2.88l-6-1.8a3,3,0,0,0-2.63.47L68,32.88h0a2.2,2.2,0,0,0-.51.25,2.92,2.92,0,0,0-1.37,1.95,2.43,2.43,0,0,0-.08.61v1.5l-1,.28V25h4.5A4.51,4.51,0,0,0,74,20.5V12.19a2.5,2.5,0,0,0-1-2,9.82,9.82,0,0,0,.76-4C73.78,2.69,72.27,0,70.26,0H67.74c-2,0-3.52,2.69-3.52,6.25s1.51,6.25,3.52,6.25H69V20H65V13.5a2.5,2.5,0,0,0-5,0v5.27A2.5,2.5,0,0,0,58.26,18H55.74c-2,0-3.52,2.69-3.52,6.25s1.51,6.25,3.52,6.25h2.52A2.5,2.5,0,0,0,60,29.73v7.52l-.45-.09a5,5,0,0,0-2.24.07L46,40.24V39.5s0-.07,0-.1l1.92-4A1,1,0,0,0,48,35V10.61C50.82,10,53,8.82,53,7V4c0-2.63-4.53-4-9-4s-9,1.37-9,4V7c0,1.6,1.68,2.73,4,3.37V24.84c-.54.33-1.21.76-2,1.33A27.44,27.44,0,0,1,34,28a2.83,2.83,0,0,1-.63-.12,4.53,4.53,0,0,0-.68-5.63,3.82,3.82,0,0,0-2.52-1.17,3.77,3.77,0,0,0-2.88,1.21,73.86,73.86,0,0,0-6.17,6.83c-2.09.58-2.57.91-2.83,1.17l-1.77,1.78L13,32.65v-11c2.82-.57,5-1.79,5-3.61V15c0-2.63-4.53-4-9-4s-9,1.37-9,4v3C0,19.6,1.68,20.73,4,21.37ZM69.79,2h.47c.54,0,1.52,1.61,1.52,4.25s-1,4.25-1.52,4.25h-.47a8.73,8.73,0,0,0,1-4.25A8.73,8.73,0,0,0,69.79,2Zm-1.21,8.5h-.84c-.54,0-1.52-1.61-1.52-4.25S67.2,2,67.74,2h.84a6.78,6.78,0,0,1,1.18,4.25A6.78,6.78,0,0,1,68.58,10.5ZM65,22h4.5A1.5,1.5,0,0,0,71,20.5V12.37a2.64,2.64,0,0,0,.86-.51.5.5,0,0,1,.14.33V20.5A2.5,2.5,0,0,1,69.5,23H65Zm-8.42,6.5h-.84c-.54,0-1.52-1.61-1.52-4.25S55.2,20,55.74,20h.84a6.78,6.78,0,0,1,1.18,4.25A6.78,6.78,0,0,1,56.58,28.5Zm1.68,0h-.47a8.73,8.73,0,0,0,1-4.25,8.73,8.73,0,0,0-1-4.25h.47c.54,0,1.52,1.61,1.52,4.25S58.8,28.5,58.26,28.5ZM6,59.52V44.6a7.57,7.57,0,0,0,2.5.4,7.57,7.57,0,0,0,2.5-.4V59.52A6.24,6.24,0,0,1,8.5,60,6.24,6.24,0,0,1,6,59.52ZM39.1,35.44l1.92,4s0,.06,0,.1v1.39a4.46,4.46,0,0,0,4,4.46s0,.11,0,.16v4.84a3,3,0,0,0,2.41,2.94c.48.1,2.06.59,3.73,1.14L43.5,56.49v-1a2.49,2.49,0,0,0-.44-1.38,9.93,9.93,0,0,0,.72-3.87c0-3.56-1.51-6.25-3.52-6.25H37.74c-2,0-3.52,2.69-3.52,6.25s1.51,6.25,3.52,6.25h.76v1.33L32,59.58V54.5a2.48,2.48,0,0,0-.78-1.79,10.12,10.12,0,0,0,.56-3.46c0-3.56-1.51-6.25-3.52-6.25H25.74c-2,0-3.52,2.69-3.52,6.25s1.51,6.25,3.52,6.25H27v5.43L11,65.24V64.5s0-.07,0-.1l1.92-4A1,1,0,0,0,13,60V41.62L18.24,39H20c2.09,0,11.25-2.73,12.29-3a1.12,1.12,0,0,0,.42-.25A7.55,7.55,0,0,1,35,34a33.17,33.17,0,0,0,4-.22V35A1,1,0,0,0,39.1,35.44Zm2.37.3a8.05,8.05,0,0,0,4.06,0L44.43,38H42.57Zm17.34,8.52a3,3,0,0,0-1.38-.57c-.48-.19-1.21-.48-2-.78l3.17-.85,3.88.78a4.94,4.94,0,0,0,2.32-.1L66,42.39V52.77l-.58.16-3.87-.77a4.91,4.91,0,0,0-1.62,0,3.18,3.18,0,0,0,.07-.62V46.65A3,3,0,0,0,58.81,44.26Zm-2.09,1.43.24,0,.64.26h.07a1,1,0,0,1,.33.72v4.84a1,1,0,0,1-.72,1l-3,.86a1,1,0,0,1-.88-.16,1,1,0,0,1-.4-.8V47.51a1,1,0,0,1,.72-1Zm-3.54-1.07A3,3,0,0,0,51,47.51v4.77c-1.26-.41-2.65-.84-3.19-1a1,1,0,0,1-.81-1V45.51a.89.89,0,0,1,.09-.39l4.7-1.25c.6.14,1.29.35,2,.58ZM40.26,54.5h-.47a9.8,9.8,0,0,0,0-8.5h.47c.54,0,1.52,1.61,1.52,4.25S40.8,54.5,40.26,54.5Zm1.24,1.62V57l-1,.27v-.82A2.33,2.33,0,0,0,41.5,56.12Zm-1.74-5.87a6.78,6.78,0,0,1-1.18,4.25h-.84c-.54,0-1.52-1.61-1.52-4.25S37.2,46,37.74,46h.84A6.78,6.78,0,0,1,39.76,50.25ZM27.79,45h.47c.54,0,1.52,1.61,1.52,4.25s-1,4.25-1.52,4.25h-.47a9.8,9.8,0,0,0,0-8.5ZM29,55.37a2.66,2.66,0,0,0,1-.64v5.39l-1,.27Zm-1.24-6.12a6.78,6.78,0,0,1-1.18,4.25h-.84c-.54,0-1.52-1.61-1.52-4.25S25.2,45,25.74,45h.84A6.78,6.78,0,0,1,27.76,49.25ZM7.57,63l-1.1-2.26a8.05,8.05,0,0,0,4.06,0L9.43,63ZM66.2,55.82a2.89,2.89,0,0,1-1.37.06L61,55.1a1.87,1.87,0,0,0-.88,0L11.15,68.3A2.45,2.45,0,0,1,9,67.87a2.48,2.48,0,0,1-1-2V65H9v.89a1.48,1.48,0,0,0,.58,1.18,1.45,1.45,0,0,0,1.31.27l16.63-4.48A1,1,0,0,0,28,63a1,1,0,0,0,.84-.49l2-.54A.76.76,0,0,0,31,62a1,1,0,0,0,.64-.25l28.18-7.58a2.85,2.85,0,0,1,1.33-.05l3.87.77a2,2,0,0,0,.91,0L72.36,53a.52.52,0,0,1,.38,0,.51.51,0,0,1,.24.3.52.52,0,0,1,0,.38.51.51,0,0,1-.3.24ZM72.2,33l.19-.12a.92.92,0,0,1,.89-.18l6,1.8a1,1,0,0,1,.72,1V55.31a1,1,0,0,1-.41.79h0L77,57.4s0-.06,0-.09V37.49a2.5,2.5,0,0,0-1.79-2.4l-4.48-1.34ZM68,35.69a1,1,0,0,1,.48-.84l.93-.46,5.51,1.66A1.5,1.5,0,0,1,76,37.49V57.31a1.38,1.38,0,0,1-.16.67l-.22.11,0,0-.06,0a.93.93,0,0,1-.81.11l-4.79-1.43,3.26-.94a2.5,2.5,0,1,0-1.38-4.8L68,52.19V41.81l3.19-.91a2.5,2.5,0,0,0,1.5-1.2,2.44,2.44,0,0,0,.21-1.89,2.5,2.5,0,0,0-3.09-1.71L68,36.62Zm-3.29,4L70.37,38a.52.52,0,0,1,.37,0,.51.51,0,0,1,.24.31.51.51,0,0,1,0,.37.51.51,0,0,1-.31.24l-6.42,1.84a2.93,2.93,0,0,1-1.06.08A2.47,2.47,0,0,0,64.71,39.64ZM62,13.5a.5.5,0,0,1,1,0v25a.5.5,0,0,1-1,0ZM57.84,39.16a2.89,2.89,0,0,1,1.31,0l1,.2a2.49,2.49,0,0,0,.89,1.2l-2.13-.43a2.07,2.07,0,0,0-.83,0L46.16,43.3A2.47,2.47,0,0,1,44,42.88a2.51,2.51,0,0,1-1-2V40h1v.89a1.51,1.51,0,0,0,1.49,1.5,1.83,1.83,0,0,0,.4,0ZM46,34.52a6.75,6.75,0,0,1-5,0V33.41a6.79,6.79,0,0,0,1.45-.52A4.94,4.94,0,0,0,45,28c0-1.57-2.43-4-4-4V22.6a8,8,0,0,0,5,0Zm0-13a6.75,6.75,0,0,1-5,0V10.79A21.08,21.08,0,0,0,44,11a19,19,0,0,0,2-.1ZM37,4c0-.58,2.45-2,7-2s7,1.42,7,2v.83c-1.06.89-3.71,1.67-7,1.67s-5.94-.78-7-1.67Zm0,3V6A15,15,0,0,0,44,7.5,15,15,0,0,0,51,6V7c0,.58-2.45,2-7,2S37,7.58,37,7ZM34,30c.73,0,1.69-.59,4-2.17A26.12,26.12,0,0,1,41,26a4.36,4.36,0,0,1,2,2c0,1.21-.11,2.44-1.45,3.11-.67.33-2.4.89-6.55.89-1.17,0-2.75,1.36-3.52,2.11-1.69.51-3.86,1.13-5.87,1.66l.1-.06,6.21-6.22A6.21,6.21,0,0,0,34,30Zm-5.29-6.29a1.8,1.8,0,0,1,1.37-.63,1.86,1.86,0,0,1,1.2.58,2.51,2.51,0,0,1,0,3.63l-.3.31h0l-.54.55a7.8,7.8,0,0,0-3.26-2.89C27.65,24.77,28.16,24.26,28.71,23.71ZM26.45,26a6.54,6.54,0,0,1,1.71,1,5.61,5.61,0,0,1,1.54,1.83l-5,5c-.87-.32-2.53-1.13-2.71-2.59A48.15,48.15,0,0,1,26.45,26Zm-9.29,8a1.11,1.11,0,0,0,.55-.28l2-2a2.91,2.91,0,0,1,.37-.18c.43,3.3,4.53,4.36,4.72,4.41h.06A31.31,31.31,0,0,1,20,37H18a1,1,0,0,0-.45.11l-6,3-.11.08a1.15,1.15,0,0,0-.17.14s-.07.1-.11.15a1.4,1.4,0,0,0-.09.17.78.78,0,0,0,0,.21A.7.7,0,0,0,11,41v2.52A6.24,6.24,0,0,1,8.5,44,6.24,6.24,0,0,1,6,43.52V31.6a7.57,7.57,0,0,0,2.5.4,7.57,7.57,0,0,0,2.5-.4v2.23a.24.24,0,0,0,0,.08S11,34,11,34s0,.09.05.13a.88.88,0,0,0,0,.15,1.13,1.13,0,0,0,.12.18.52.52,0,0,0,.1.11l.19.13.11.07a1.16,1.16,0,0,0,.37.07h.16ZM6,30.52V21.79A21.08,21.08,0,0,0,9,22a19,19,0,0,0,2-.1v8.62A6.24,6.24,0,0,1,8.5,31,6.24,6.24,0,0,1,6,30.52ZM2,15c0-.58,2.45-2,7-2s7,1.42,7,2v.83c-1.06.89-3.71,1.67-7,1.67s-5.94-.78-7-1.67Zm0,2A15,15,0,0,0,9,18.5,15,15,0,0,0,16,17v1c0,.58-2.45,2-7,2s-7-1.42-7-2ZM47.17,4c0-1-1.64-1.5-3.17-1.5S40.83,3,40.83,4,42.47,5.5,44,5.5,47.17,5,47.17,4ZM44,3.5a3.59,3.59,0,0,1,2.15.5A3.59,3.59,0,0,1,44,4.5,4.07,4.07,0,0,1,41.83,4,3.15,3.15,0,0,1,44,3.5ZM67.74,4C67,4,66.4,5,66.4,6.25S67,8.5,67.74,8.5s1.34-1,1.34-2.25S68.52,4,67.74,4Zm0,3.5a1.64,1.64,0,0,1-.37-1.25A1.89,1.89,0,0,1,67.74,5a1.89,1.89,0,0,1,.34,1.24A2.15,2.15,0,0,1,67.77,7.5ZM24.4,49.25c0,1.3.56,2.25,1.34,2.25s1.34-1,1.34-2.25S26.52,47,25.74,47,24.4,48,24.4,49.25Zm1.37,1.25a1.64,1.64,0,0,1-.37-1.25A1.89,1.89,0,0,1,25.74,48a1.89,1.89,0,0,1,.34,1.24A2.15,2.15,0,0,1,25.77,50.5Zm10.63-.25c0,1.3.56,2.25,1.34,2.25s1.34-1,1.34-2.25S38.52,48,37.74,48,36.4,49,36.4,50.25Zm1.37,1.25a1.64,1.64,0,0,1-.37-1.25A1.89,1.89,0,0,1,37.74,49a1.89,1.89,0,0,1,.34,1.24A2.15,2.15,0,0,1,37.77,51.5Zm18-29.5C55,22,54.4,23,54.4,24.25S55,26.5,55.74,26.5s1.34-.95,1.34-2.25S56.52,22,55.74,22Zm0,3.5a1.64,1.64,0,0,1-.37-1.25A1.89,1.89,0,0,1,55.74,23a1.89,1.89,0,0,1,.34,1.24A2.15,2.15,0,0,1,55.77,25.5Z"/></g></svg>