<svg id="expand" xmlns="http://www.w3.org/2000/svg" viewBox="0 0 95 123"><defs><style>.cls-1{fill:#f2552c;}.cls-2{fill:#084464;}</style></defs><title>icons</title><g id="medium_copy" data-name="medium copy"><path class="cls-1" d="M66.9,4.24c-.91-1.62-7.05-2.8-14.48-2.7-7.24.1-13.23,1.39-14.33,3L33,11l0,18.54c0,2.54,8.57,4.49,19.07,4.34S71.05,31.57,71,29V10.26Z"/><path class="cls-2" d="M86.08,70.85a8.49,8.49,0,0,0-1.73-.19h0l-2.45-.1c-3.17-.57-6.52.94-9.57,4l-1.58-.17V73c2.94-1.35,4.81-3.1,4.86-5.23V63.81L79.42,62a1,1,0,0,0,.58-.9V40a1,1,0,0,0-.43-.82,1,1,0,0,0-.32-.14h0L73.39,37.5a1,1,0,0,0-.61,0l-2.78,1V32h-.49c1.54-.79,2.51-1.76,2.49-3V10.25a1.12,1.12,0,0,0-.18-.56l-3.4-5a.43.43,0,0,0,0-.05A1.36,1.36,0,0,0,68.23,4L68,4.12l-.28-.42C66.16,1.06,57.39.48,52.39.54,46,.63,38.81,1.71,37.29,3.9l-5.07,6.51A1,1,0,0,0,32,11V29.57c0,1,.7,1.86,2,2.6V54.64l-3.34,4a10,10,0,0,0-4.88-2.8L22.39,55l-.22,0C14,53.1,4.8,62.69,1.64,76.37s.91,26.33,9.07,28.22l3.61.83c3.24.75,6.67-.22,10-2.8A58,58,0,0,0,36,107.18a45.55,45.55,0,0,0,12.3,1.8c3.63,0,6.32-.55,7.51-1.26a5.76,5.76,0,0,0,2.93-3.62,7.63,7.63,0,0,0,.22-3.85c1-.23,1.93-.5,2.83-.8a38.48,38.48,0,0,0,.57,12.79c1.33,5.61,4.09,9.16,7.76,10l.16,0,3.22.17a8.52,8.52,0,0,0,1.24.09c7.48,0,15.64-9.84,18.65-22.86C96.74,85.23,93.52,72.57,86.08,70.85Zm6.06,24.82-22,22a16.48,16.48,0,0,1-2.11-4.92l24.6-24.6A45.33,45.33,0,0,1,92.14,95.67ZM67.88,96,89,74.94a13.4,13.4,0,0,1,2.42,4.6l-24.29,24.3A47.28,47.28,0,0,1,67.88,96ZM91.7,80.63a30,30,0,0,1,.92,6.11L67.79,111.58a33.29,33.29,0,0,1-.71-6.33ZM85.63,72.8a5.83,5.83,0,0,1,2.62,1.42l-20,20c0-.12.05-.23.08-.34A47.71,47.71,0,0,1,72,83.42L82.84,72.6l2.16.09A4.62,4.62,0,0,1,85.63,72.8ZM81,73l-7.14,7.14C76,76.77,78.48,74.27,81,73ZM64.13,88.75A31.6,31.6,0,0,1,54,90.65V82H53v8.69c-1.92,0-3.92,0-6-.13-8.86-.64-16.71-3.2-19-6.1L31.2,76.3C33.36,79.61,41,82,50.41,82s17.14-2.41,19.25-5.76l1,.11A39,39,0,0,0,64.13,88.75ZM27.21,83.87,18.61,82l-2.3-7.13c.15-.16.29-.31.45-.46,2.09-1.89,4.44-2.66,6.62-2.16a6.81,6.81,0,0,1,4.2,3.25.5.5,0,0,0,.42.23h2.34Zm41.66-8.19c-1.78,3-9.51,5.32-18.46,5.32-10.21,0-18.84-3-18.84-6.62V72.74c4.67,2.32,12.4,3.53,19.84,3.53a55.61,55.61,0,0,0,17.34-2.49v1.47A.93.93,0,0,0,68.87,75.68ZM51.41,74.27c-13.08,0-22.2-3.48-22.2-6.61V65.18c3.06,3.23,11.79,5.5,22.36,5.5,10.23,0,18.73-2.13,22-5.19v2.17C73.61,70.79,64.5,74.27,51.41,74.27ZM78,60.5l-3.56,1.65-.06,0-4.38,2V44.5l8-3Zm-4.82-21,2.56.68-6.91,2.62-2.58-.7ZM64,63.45V43.57l4,1.09V64.51ZM52.4,2.54C61,2.42,65.56,3.93,66,4.73l0,.07.49.71a12.3,12.3,0,0,1-3,1,48.77,48.77,0,0,1-10.3,1.1,49.69,49.69,0,0,1-10.32-.81c-3.11-.66-4-1.44-4-1.8V5C39.84,4,44.85,2.64,52.4,2.54ZM38.25,5.9c.6.79,2.09,1.43,4.43,1.93a49.55,49.55,0,0,0,9.63.84h.92A50.3,50.3,0,0,0,63.75,7.54,12.86,12.86,0,0,0,67.1,6.33L70,10.56v1.28c-3,1.5-9.68,2.54-17.22,2.65a66.8,66.8,0,0,1-13.51-1c-3.38-.7-4.87-1.56-5.2-2.18ZM34,12.6a13.46,13.46,0,0,0,5.07,1.82A64.85,64.85,0,0,0,51.61,15.5H52.8c7.29-.1,13.86-1.1,17.2-2.55V29.05c0,1.08-6.09,3.69-18,3.86a59.36,59.36,0,0,1-13.21-1.14c-3.93-.9-4.83-1.93-4.83-2.21Zm4.39,21.12A58.61,58.61,0,0,0,51,34.92h1.13c4.47-.06,11.52-.65,15.92-2.26v6.67l-5.35,2a1,1,0,0,0-.65.94V56.88a63.24,63.24,0,0,1-9.44.68A52.73,52.73,0,0,1,36,55.2a.71.71,0,0,0,0-.2V33A20.53,20.53,0,0,0,38.39,33.72Zm-3,22.34a53,53,0,0,0,17.14,2.5A64.84,64.84,0,0,0,62,57.89v6.33a1,1,0,0,0,.74,1l5.87,1.56,0,0a1,1,0,0,0,.37.08,1,1,0,0,0,.42-.09L72,65.48c-3.41,2.32-10.78,4.2-20.44,4.2-12.39,0-21-3.09-22.34-6.24ZM3.58,76.82c2.69-11.6,9.79-20.09,16.49-20.06-6.18,2.3-12,10.29-14.34,20.55s-.68,20,3.9,24.79C3.6,99.25.89,88.47,3.58,76.82Zm11.19,26.65-2.7-.62c-5.65-3.62-8-14.09-5.36-25.31s9.32-19.67,16-20.39l2.62.62a8.12,8.12,0,0,1,4,2.39l-1.92,2.3a1,1,0,0,0-.24.64v4.56c0,1.78,1.27,3.29,3.36,4.54v2.55H28.28a7.68,7.68,0,0,0-4.68-3.45c-2.51-.58-5.18.27-7.51,2.39a16.69,16.69,0,0,0-4.79,8.63c-1.68,7.25,1.11,14.11,6.22,15.29a6.77,6.77,0,0,0,1.55.18l.31,0a5.48,5.48,0,0,0,.78,1.29,10.69,10.69,0,0,0,2.85,2C20.22,103.23,17.38,104.08,14.77,103.47Zm6.05-12.64a4.33,4.33,0,0,0-1.74,2.44,6.89,6.89,0,0,0,0,3.49,5.59,5.59,0,0,1-1.29-.13c-3.54-.82-5.8-4.79-5.93-9.65l9.38,1.77C21,89.71,20.9,90.37,20.82,90.83Zm36,12.74a3.79,3.79,0,0,1-2,2.41c-1.77,1-8.94,1.92-18.27-.72a54.75,54.75,0,0,1-11.75-4.63l-.16-.07-.17-.07a1.17,1.17,0,0,0-.49,0,12.77,12.77,0,0,1-3-2,5.59,5.59,0,0,1-.9-4.88,3.45,3.45,0,0,1,.8-1.42c3.92,5.72,17.87,7.72,23.72,8.32,1.2.12,2.4.18,3.55.18a50.67,50.67,0,0,0,8.6-.83.66.66,0,0,0,0,.15A4.74,4.74,0,0,1,56.82,103.57Zm.84-5.09-.2,0a1,1,0,0,0-.44.2,44.23,44.23,0,0,1-12.36.72c-12-1.22-20.31-4.06-22.95-7.82.08-.52.37-2.15.56-3.18a.49.49,0,0,0-.39-.58L11.82,86a18.15,18.15,0,0,1,.45-3.43,16.7,16.7,0,0,1,3.26-6.8l2.22,6.86a.53.53,0,0,0,.37.34l9,1.94c2.34,3.29,10.28,6,19.84,6.68,1.48.11,2.94.16,4.36.16A38.31,38.31,0,0,0,63.74,90c-.34,1.12-.65,2.28-.92,3.46s-.53,2.55-.72,3.81A27.71,27.71,0,0,1,57.66,98.48Zm12.85,21.81c-2.86-.71-5.06-3.72-6.19-8.51-1.21-5.08-1-11.44.45-17.91C67.46,82.23,74.13,73.07,80,72.48c-5.31,3-10.32,11.15-12.64,21.18a48.57,48.57,0,0,0-1.28,11.2l-.1.1.1.1c.09,6.92,1.94,12.56,5.17,15.27l-.65,0Zm7.44-.57,8.92-8.92C84.2,115.25,81,118.35,78,119.72Zm10.53-12L75.85,120.4a6.11,6.11,0,0,1-2.08.07h-.1l-.49,0a7.47,7.47,0,0,1-2.4-2l21.06-21c-.12.61-.25,1.22-.39,1.84A40.79,40.79,0,0,1,88.48,107.77Z"/></g></svg>