<svg id="expand" xmlns="http://www.w3.org/2000/svg" viewBox="0 0 113 137"><defs><style>.cls-1{fill:#f2552c;}.cls-2{fill:#084464;}</style></defs><title>icons</title><g id="big_copy" data-name="big copy"><path class="cls-1" d="M111.13,51.17c0,24.38-18.19,44.7-42.32,49.22l-1.3.39c17.58-7.65,30-26.27,30-48,0-27-19.14-49.2-43.54-51.54l1.21-.1C56.32,1,57.48,1,58.65,1,87.64,1,111.13,23.46,111.13,51.17ZM50.5,48A5.5,5.5,0,1,0,56,53.5,5.5,5.5,0,0,0,50.5,48Z"/><path class="cls-2" d="M112.13,51.17C112.13,23,88.14,0,58.65,0c-1.14,0-2.3,0-3.56.11L54,.21C52.55.07,51.11,0,49.67,0,22.74,0,.83,23.66.83,52.75.83,79,18.7,100.86,42,104.84V111a1,1,0,0,0,.65.94L47,113.57v20.68c0,2.39,6.89,2.75,11,2.75s11-.36,11-2.75V113.12l4.45-2.23A1,1,0,0,0,74,110v-9.82C96.37,93.79,112.13,73.91,112.13,51.17ZM2.83,52.75c0-28,21-50.75,46.84-50.75a41.39,41.39,0,0,1,4.19.21h0C77.77,4.5,96.5,26.7,96.5,52.75,96.5,73.6,85,92.09,67.11,99.86h0a43.27,43.27,0,0,1-17.43,3.64C23.84,103.5,2.83,80.73,2.83,52.75ZM64.76,113H52v-7.56a45.18,45.18,0,0,0,13-2.61v10ZM44,105.13a44.26,44.26,0,0,0,5.67.37l1.33,0v7.46l-7-2.62Zm5,19.4c2.7.93,8.19,1,9,1s6.3,0,9-1v4.95c-1.15.46-4.15,1-9,1s-7.87-.56-9-1Zm18-1c-1.15.46-4.15,1-9,1s-7.87-.56-9-1v-5c2.7.93,8.19,1,9,1s6.3,0,9-1ZM58,135c-5.12,0-8.21-.65-9-1.06v-3.41c2.7.93,8.19,1,9,1s6.3,0,9-1v3.41C66.21,134.35,63.12,135,58,135Zm9-17.52c-1.15.46-4.15,1-9,1s-7.87-.56-9-1v-3.2l1.65.62A1,1,0,0,0,51,115H65a1,1,0,0,0,.45-.11l1.55-.77Zm5-8.1-6,3v-9.91c.6-.23,1.2-.47,1.8-.73l1.25-.38c1-.19,2-.41,3-.65ZM98.5,52.75A55,55,0,0,0,85.64,17.08,48.54,48.54,0,0,0,64.88,2.64c21.55,5,37.42,25.94,37.42,50.11,0,17.08-8,33.07-20.94,42.55a54.07,54.07,0,0,1-6.14,2.43C89.58,88.25,98.5,71.4,98.5,52.75ZM85.82,92.93A54.21,54.21,0,0,0,103.3,52.75c0-22.46-13.46-42.18-32.49-49.36,22.54,5.23,39.32,24.67,39.32,47.78C110.13,68.53,100.56,84.16,85.82,92.93ZM91,53.5C91,27.86,72.16,7,49,7S7,27.86,7,53.5,25.84,100,49,100,91,79.14,91,53.5Zm-82,0c0-17.76,9.41-33.12,23-40.25-12.27,8.08-20.4,23-20.4,39.5,0,21.94,14.33,40.8,33.39,45C24.79,95.51,9,76.52,9,53.5ZM52.1,97.85c-.75,0-1.62-.15-2.37-.23H49.6V97.5c-20.77-1.94-37-21.6-37-44.75,0-19.73,11.77-37,28.27-42.82A36.13,36.13,0,0,1,49,9C71.06,9,89,29,89,53.5,89,76.87,72.71,96.08,52.1,97.85ZM79.24,51.08C77.4,34,62.93,21.52,47,23.23s-27.43,17-25.59,34.08a33,33,0,0,0,3.09,10.84L20.33,70.8a.49.49,0,0,0-.16.67.5.5,0,0,0,.43.25.59.59,0,0,0,.23,0l4.31-2.24a32.61,32.61,0,0,0,2.68,4.18.5.5,0,1,0,.8-.6A31.13,31.13,0,0,1,26,69L46.29,58.44A6.49,6.49,0,0,0,57,53.5q0-.3,0-.6l10.45-5.43a.5.5,0,0,0,.25-.3.48.48,0,0,0,0-.39l-2.34-4.06a.49.49,0,0,0-.7-.17L54.9,48.73A6.49,6.49,0,0,0,44,53.5a6.57,6.57,0,0,0,.31,2l-19,12.12A32.19,32.19,0,0,1,22.38,57.2c-1.78-16.52,9.3-31.31,24.7-33s29.38,10.43,31.17,27A31,31,0,0,1,72,73.66a.5.5,0,0,0,.09.7.48.48,0,0,0,.3.11.51.51,0,0,0,.4-.2A32,32,0,0,0,79.24,51.08ZM64.68,43.67l1.82,3.15-9.72,5a6.52,6.52,0,0,0-1.19-2.4ZM50.5,49A4.5,4.5,0,1,1,46,53.5,4.51,4.51,0,0,1,50.5,49Zm-5.8,7.43a7.22,7.22,0,0,0,.85,1.27L30.31,65.62Z"/></g></svg>