<svg id="expand" xmlns="http://www.w3.org/2000/svg" viewBox="0 0 110 96"><defs><style>.cls-1{fill:#084464;}</style></defs><title>icons</title><g id="icons"><path class="cls-1" d="M14.31,41.21s8.68,0,8.24,8.84A3.91,3.91,0,0,1,26.3,46.8c-1.73,1-3.69,6.56-.35,10.57,1.2,1.45,3.06,3,5.23,2.88a11.52,11.52,0,0,1-10.45-4.33C15.5,49.51,21.54,44.36,14.31,41.21Zm70.3,16.16c-1.2,1.45-3.07,3-5.24,2.88a11.52,11.52,0,0,0,10.45-4.33c5.23-6.41-.81-11.56,6.42-14.71,0,0-8.68,0-8.23,8.84a3.93,3.93,0,0,0-3.76-3.25C86,47.8,87.94,53.36,84.61,57.37ZM55.35,64.26a1.73,1.73,0,1,0-1.7-1.72A1.72,1.72,0,0,0,55.35,64.26Zm0-9.55c-.44,1.79-1.06,2.28-1.86,2.7a3.86,3.86,0,0,1,1.86,2.71,3.92,3.92,0,0,1,1.86-2.71C56.42,57,55.8,56.5,55.35,54.71Zm1.86,12.9a4.7,4.7,0,0,1-1.86-2.7,4.7,4.7,0,0,1-1.86,2.7,4.79,4.79,0,0,1,1.86,2.71A4.89,4.89,0,0,1,57.21,67.61Zm-4.34-4.94a4.12,4.12,0,0,1-2.71-1.86,3.9,3.9,0,0,1-2.7,1.86,4,4,0,0,1,2.7,1.86C50.66,63.3,51.71,63.07,52.87,62.67Zm7.67,1.86a4,4,0,0,1,2.71-1.86,3.89,3.89,0,0,1-2.71-1.86,4.1,4.1,0,0,1-2.7,1.86C59,63.07,60,63.3,60.54,64.53Zm-9.77,6.31c-.14,2.39-2.13,5.36-4.52,6-2.76.8-4.09-.36-5.87-.73a2.16,2.16,0,0,0-2.69,2.74c.56,2.48,3.76,2,3.89.76s-1.36-1.1-1.36-1.1c.71,1.21-1.54,1.42-1.61,0,0-.73.73-1.9,2.89-.68a10.33,10.33,0,0,0,4.65,1.2c6.65.24,8.73-7.56,8.73-7.56A14.17,14.17,0,0,1,50.77,70.84Zm18.43,7c2.17-1.22,2.85,0,2.9.68-.07,1.42-2.33,1.21-1.62,0,0,0-1.5-.25-1.35,1.1s3.33,1.72,3.88-.76a2.16,2.16,0,0,0-2.68-2.74c-1.79.37-3.12,1.53-5.87.73-2.39-.69-4.39-3.66-4.53-6a14.08,14.08,0,0,1-4.11.68s2.09,7.8,8.74,7.56A10.28,10.28,0,0,0,69.2,77.88ZM45,76.09c4.13-.55,5-5.54,5-5.54a6.5,6.5,0,0,1-3.5-2.32,14.19,14.19,0,0,1-.36,3.66c-.66,2.86-3.44,2.79-3.37,1.56.06-.94,1.28-.77,1.49-.47a1.44,1.44,0,0,0-2.4-.13C41.14,73.7,41.2,76.59,45,76.09Zm20.79,0c3.75.5,3.81-2.39,3.17-3.24a1.44,1.44,0,0,0-2.4.13c.2-.3,1.43-.47,1.48.47.08,1.23-2.71,1.3-3.37-1.56a15.33,15.33,0,0,1-.36-3.66,6.41,6.41,0,0,1-3.49,2.32S61.62,75.54,65.75,76.09ZM29.41,51.79c5.65,2.13,1.23,6.3,5.47,11A8.81,8.81,0,0,0,43,65.69a7.06,7.06,0,0,1-4.11-2c-2.89-2.76-1.42-7.27-.14-8.1a3,3,0,0,0-2.74,2.63C36.05,51.45,29.41,51.79,29.41,51.79Zm46.41,11c4.24-4.7-.17-8.87,5.48-11,0,0-6.64-.34-6.64,6.44a3,3,0,0,0-2.75-2.63c1.29.83,2.76,5.34-.13,8.1a7.06,7.06,0,0,1-4.12,2A8.8,8.8,0,0,0,75.82,62.79Zm-1,3.49a16.78,16.78,0,0,1,8-1.46c7.17.58,10.52,5.69,9.74,7.51,3.12-2.4.66-4.7.66-4.7,8,6.37,16.67.67,16.67.67-10.24,2.58-9.12-4.92-20.46-5.9C79.77,61.56,74.82,66.28,74.82,66.28ZM16.67,67.63s-2.46,2.3.66,4.7c-.78-1.82,2.57-6.93,9.73-7.51a16.8,16.8,0,0,1,8,1.46s-5-4.72-14.58-3.88C9.12,63.38,10.24,70.88,0,68.3,0,68.3,8.68,74,16.67,67.63Zm38.68,7.23s-.52,2.19-2,2.89a6.35,6.35,0,0,1,2,4.39,6.31,6.31,0,0,1,2-4.39C55.87,77.05,55.35,74.86,55.35,74.86Zm-14.76-3c3.28-.6,6.26-2.77,5.19-5.4s-2.93-7.13.13-7.62a1.37,1.37,0,0,0-.33.88A1.33,1.33,0,0,0,46.92,61c1.29,0,2.1-1.57,1.16-3.06s-2.92-1.23-3.86-.74c-1.63.86-1.7,3.07-1.18,4.29a8.72,8.72,0,0,1,1,2.79,5.5,5.5,0,0,1-4.4,6s-2.41.42-2.07-1.23a1.05,1.05,0,0,1,1.47-.54,1.4,1.4,0,0,0-2.61-.32C35.38,69.9,37.11,72.44,40.59,71.81Zm33.64-3.58a1.39,1.39,0,0,0-2.6.32,1.05,1.05,0,0,1,1.47.54c.34,1.65-2.07,1.23-2.07,1.23a5.48,5.48,0,0,1-4.4-6,8.67,8.67,0,0,1,1-2.79c.53-1.22.46-3.43-1.18-4.29-.94-.49-2.92-.74-3.85.74S62.5,61,63.78,61a1.33,1.33,0,0,0,1.34-1.34,1.31,1.31,0,0,0-.33-.88c3.07.49,1.18,5.05.13,7.62s1.92,4.8,5.2,5.4C73.6,72.44,75.32,69.9,74.23,68.23ZM57.09,2.81,55.56.71,54,2.81l1.54,1.93ZM35.22,20.42C39,22,41.16,18.26,41.16,18.26c-.42,1,.89,2.16.89,2.16,0-1.16,1-3.24,5.59-4.09s4.6-4.67,4.6-4.67c-.66,1.88-2.11,3.24-7,2.31-5.46-1-5.6,1.74-8.37,3.71s-5.14-1.16-5.14-1.16A7.13,7.13,0,0,0,35.22,20.42Zm39-2.74c-2.78-2-2.91-4.74-8.38-3.71-4.88.93-6.33-.43-7-2.31,0,0,0,3.82,4.59,4.67s5.56,2.93,5.59,4.09c0,0,1.32-1.2.89-2.16,0,0,2.16,3.7,6,2.16a7.09,7.09,0,0,0,3.47-3.9S77,19.65,74.24,17.68Zm-40.7-4.39h0c2,1.56,4.74-.25,5.14-.72-.59.42-2.87,1.11-3.89.64a.91.91,0,0,0,.26-.64.93.93,0,1,0-1.52.71Zm42.51-.71a.91.91,0,0,0,.26.64c-1,.47-3.3-.22-3.89-.64.4.47,3.15,2.28,5.15.72h0a.92.92,0,1,0-1.52-.71ZM55.56,18.64a1,1,0,0,0,0-1.93,1,1,0,0,0,0,1.93ZM39.38,9.52a1.05,1.05,0,1,0-2,.47h0a1.56,1.56,0,0,1-2.06-1c-.42-1.43.85-3.74,5-2.78s4.88,5.11,7.1,6c5,2.07,6.39-4.86,2.92-4.86a1.06,1.06,0,1,0,0,2.12,1,1,0,0,0,.78-.34.94.94,0,0,1,.14.88c-.25,1.35-2.74,2.31-4.2,1s-5.74-7.51-11-5.15c0,0-2.86,1.42-1.93,4.05C34.94,12.24,39.38,12.44,39.38,9.52ZM63.7,12.27c2.22-.91,3-5,7.1-6s5.41,1.35,5,2.78a1.56,1.56,0,0,1-2.06,1h0a1.05,1.05,0,1,0-2-.47c0,2.92,4.44,2.72,5.25.44.92-2.63-1.93-4.05-1.93-4.05-5.25-2.36-9.4,3.72-11,5.15s-3.95.36-4.21-1A1,1,0,0,1,60,9.19a1.09,1.09,0,0,0,.79.34,1.06,1.06,0,1,0,0-2.12C57.32,7.41,58.69,14.34,63.7,12.27Zm-8.14-3.8A3.26,3.26,0,0,0,58.6,7c1.15-1.78-.14-3.35-1.38-3.06-.93.21-.76,1.09-.15,1.39a.63.63,0,0,1,1.12-.26c.69.68-.12,2.79-2.63,2.77s-3.33-2.09-2.63-2.77a.63.63,0,0,1,1.12.26c.61-.3.77-1.18-.15-1.39C52.66,3.69,51.37,5.26,52.52,7A3.24,3.24,0,0,0,55.56,8.47ZM50,10.07a2.26,2.26,0,0,1-2-3,3,3,0,0,1,1.59-1.66S48,5.71,47.4,4.53C46.67,3,48,1,50.33,0c0,0-6.14,1.48-5.27,6.19C45.71,9.76,49,10.56,50,10.07ZM63.71,4.53c-.58,1.18-2.17.84-2.17.84A3,3,0,0,1,63.13,7a2.26,2.26,0,0,1-2,3c1,.49,4.27-.31,4.92-3.88C66.92,1.48,60.79,0,60.79,0,63.16,1,64.45,3,63.71,4.53ZM55.56,22.34a3.83,3.83,0,0,1,1.53-1.54,3.48,3.48,0,0,1-1.53-1.53A3.55,3.55,0,0,1,54,20.8,3.92,3.92,0,0,1,55.56,22.34Zm0-6.12a4,4,0,0,1,1.57-1.57,4.1,4.1,0,0,1-1.57-1.58A4.12,4.12,0,0,1,54,14.65,4,4,0,0,1,55.56,16.22Zm-3.66,0a3.63,3.63,0,0,1-1.57,1.58,3,3,0,0,1,1.57,1.58,3.22,3.22,0,0,1,1.58-1.58A3.88,3.88,0,0,1,51.9,16.22Zm8.89,1.58a3.71,3.71,0,0,1-1.58-1.58,3.91,3.91,0,0,1-1.57,1.58,3.21,3.21,0,0,1,1.57,1.58A3,3,0,0,1,60.79,17.8Zm-3.66-7.06a3.83,3.83,0,0,1-1.57-1.57A3.85,3.85,0,0,1,54,10.74a4,4,0,0,1,1.58,1.58A4,4,0,0,1,57.13,10.74ZM78.12,21l-.26.19-.26.19-.29.19.21.28a27.51,27.51,0,0,1,3.1,27.85l-.22.48h1.1l.09-.2a28.54,28.54,0,0,0-3.27-28.71ZM29.4,50.13H30l.54,0-.22-.49a27.46,27.46,0,0,1,3.17-27.95l.21-.28-.28-.2-.27-.19-.26-.19-.2.26a28.53,28.53,0,0,0-3.35,28.81Zm7.48-27.65-.59-.08a6.14,6.14,0,0,1-1.35-.32L34.71,22l-.14.19a26.36,26.36,0,0,0-2.7,28.1l.07.13.14,0a8.17,8.17,0,0,1,1.87.77l1.08.61-.63-1.07a24.4,24.4,0,0,1,2.1-27.83ZM76,51.6l1-.52a8.32,8.32,0,0,1,1.81-.67l.15,0,.07-.14a26.31,26.31,0,0,0-2.68-28l-.14-.19-.22.07a6.42,6.42,0,0,1-1.38.29l-.62.06.4.48a24.42,24.42,0,0,1,2.17,27.66ZM26.4,90.37h.86a6.54,6.54,0,0,0,2.88-.55,3.45,3.45,0,0,0,1.54-1.38,3.54,3.54,0,0,0,.46-1.71A2.84,2.84,0,0,0,31.63,85a3.2,3.2,0,0,0-1.52-1.12,6.68,6.68,0,0,0-2.49-.41l-1.1,0-1.45,0c-1.1,0-1.93,0-2.47,0v.32a2.47,2.47,0,0,1,.78.13.59.59,0,0,1,.34.38,3.22,3.22,0,0,1,.09.89V93.3a3.17,3.17,0,0,1-.09.89.57.57,0,0,1-.34.38,2.47,2.47,0,0,1-.78.13V95l2.56,0c.66,0,1.65,0,3,0v-.35A5.27,5.27,0,0,1,27,94.56a.73.73,0,0,1-.49-.41,2.39,2.39,0,0,1-.14-1Zm.7-.33h-.7V85.22a3.65,3.65,0,0,1,.08-.87.61.61,0,0,1,.29-.41,1.32,1.32,0,0,1,.64-.12,1.68,1.68,0,0,1,1.55.75,5.74,5.74,0,0,1,0,4.62A1.93,1.93,0,0,1,27.1,90Zm13.38,4-2.85-7.36h-.82l-2.68,6.88c-.28.75-.62,1.16-1,1.23V95q.36,0,.9,0l1.45,0v-.23a1.59,1.59,0,0,1-.78-.19.68.68,0,0,1-.25-.61,3.75,3.75,0,0,1,.32-1.31l.31-.81h2.56l.7,1.93a1.72,1.72,0,0,1,.15.56.33.33,0,0,1-.2.32,1.65,1.65,0,0,1-.63.11V95c.39,0,1,0,1.79,0s1.31,0,1.78,0v-.23a.65.65,0,0,1-.39-.19A1.38,1.38,0,0,1,40.48,94Zm-2.94-2.4H35.16l1.22-3.18ZM51,86.94V86.7c-.4,0-1,0-1.86,0s-1.36,0-1.78,0v.24a1.71,1.71,0,0,1,.54.08.41.41,0,0,1,.26.22,1.5,1.5,0,0,1,.08.51l-3.35,5.67V88a2.44,2.44,0,0,1,.07-.65.41.41,0,0,1,.24-.27,1.77,1.77,0,0,1,.57-.09V86.7c-.41,0-1,0-1.77,0s-1.46,0-1.86,0v.24a1.72,1.72,0,0,1,.57.09.45.45,0,0,1,.25.27A2.53,2.53,0,0,1,43,88v5.83a2.44,2.44,0,0,1-.06.64.44.44,0,0,1-.25.28,1.72,1.72,0,0,1-.57.09V95q.6,0,1.86,0c.76,0,1.36,0,1.77,0v-.23a1.92,1.92,0,0,1-.54-.08.4.4,0,0,1-.25-.24,1.54,1.54,0,0,1-.09-.53l3.36-5.67v5.51a2,2,0,0,1-.07.64.39.39,0,0,1-.25.28,1.77,1.77,0,0,1-.57.09V95c.42,0,1,0,1.78,0s1.46,0,1.86,0v-.23a1.79,1.79,0,0,1-.58-.09.4.4,0,0,1-.24-.28,2.35,2.35,0,0,1-.07-.64V88a2.44,2.44,0,0,1,.07-.65A.41.41,0,0,1,50.4,87,1.79,1.79,0,0,1,51,86.94Zm-2.59-3a1.06,1.06,0,0,0-.68.21.71.71,0,0,0-.27.57.69.69,0,0,0,.19.48,1.12,1.12,0,0,0,.52.27,2.89,2.89,0,0,1-.75.22,6.35,6.35,0,0,1-.85.07,6.49,6.49,0,0,1-.86-.07,2.92,2.92,0,0,1-.75-.2,1.05,1.05,0,0,0,.52-.28.64.64,0,0,0,.21-.49.69.69,0,0,0-.28-.57,1.06,1.06,0,0,0-.68-.21,1,1,0,0,0-.67.21.73.73,0,0,0-.26.56c0,.34.24.63.7.87a5.43,5.43,0,0,0,4.14,0c.47-.24.7-.53.7-.87a.7.7,0,0,0-.26-.56A1.05,1.05,0,0,0,48.39,83.92Zm3.9,5.67h.27A6.34,6.34,0,0,1,53,88a1.84,1.84,0,0,1,.68-.82,1.72,1.72,0,0,1,1-.25h.26v6.72a2,2,0,0,1-.1.71.55.55,0,0,1-.36.3,2.57,2.57,0,0,1-.8.09V95l2.15,0,2.23,0v-.23a2.61,2.61,0,0,1-.8-.09.51.51,0,0,1-.35-.3,1.81,1.81,0,0,1-.1-.71V87h.27a1.7,1.7,0,0,1,1,.25,2,2,0,0,1,.68.82,6.87,6.87,0,0,1,.47,1.55h.27c0-.26,0-.55,0-.89,0-.54,0-1.2.09-2-.71,0-1.92,0-3.62,0s-2.92,0-3.64,0c.06.8.09,1.46.09,2A7.85,7.85,0,0,1,52.29,89.59Zm12.46-1.43V85a2.72,2.72,0,0,1,.08-.76.5.5,0,0,1,.31-.31,2.12,2.12,0,0,1,.73-.09h.48a2.39,2.39,0,0,1,1.23.3,2.34,2.34,0,0,1,.86,1A6.62,6.62,0,0,1,69,87h.39a7.26,7.26,0,0,1-.06-1.1c0-.73,0-1.54.12-2.41-.64,0-1.71,0-3.21,0-2.37,0-4.13,0-5.3,0v.32a2.47,2.47,0,0,1,.78.13.59.59,0,0,1,.34.38,3.22,3.22,0,0,1,.09.89V93.3a3.17,3.17,0,0,1-.09.89.57.57,0,0,1-.34.38,2.47,2.47,0,0,1-.78.13V95c.55,0,1.34,0,2.37,0h1.42l1.05,0a6.66,6.66,0,0,0,2.64-.45A3.25,3.25,0,0,0,70,93.35a3.21,3.21,0,0,0,.49-1.74,3.1,3.1,0,0,0-2-3,6.69,6.69,0,0,0-2.73-.47Zm0,5.14V88.49h.64a2.31,2.31,0,0,1,1.41.39A2.07,2.07,0,0,1,67.52,90a6.08,6.08,0,0,1,.21,1.72,6.39,6.39,0,0,1-.18,1.65,1.9,1.9,0,0,1-.63,1,2,2,0,0,1-1.24.36,1.16,1.16,0,0,1-.59-.12.65.65,0,0,1-.27-.41A4.42,4.42,0,0,1,64.75,93.3ZM81,86.94V86.7c-.4,0-1,0-1.86,0s-1.36,0-1.78,0v.24a1.61,1.61,0,0,1,.54.08.41.41,0,0,1,.26.22,1.5,1.5,0,0,1,.08.51l-3.34,5.67V88A2.53,2.53,0,0,1,75,87.3a.41.41,0,0,1,.24-.27,1.77,1.77,0,0,1,.57-.09V86.7c-.41,0-1,0-1.77,0s-1.46,0-1.85,0v.24a1.65,1.65,0,0,1,.56.09.45.45,0,0,1,.25.27A2.53,2.53,0,0,1,73,88v5.83a2.44,2.44,0,0,1-.06.64.44.44,0,0,1-.25.28,1.65,1.65,0,0,1-.56.09V95c.39,0,1,0,1.85,0s1.36,0,1.77,0v-.23a2,2,0,0,1-.54-.08.4.4,0,0,1-.25-.24,1.36,1.36,0,0,1-.08-.53l3.35-5.67v5.51a2,2,0,0,1-.07.64.4.4,0,0,1-.24.28,1.9,1.9,0,0,1-.58.09V95c.42,0,1,0,1.78,0s1.46,0,1.86,0v-.23a1.79,1.79,0,0,1-.58-.09.43.43,0,0,1-.24-.28,2.35,2.35,0,0,1-.07-.64V88a2.44,2.44,0,0,1,.07-.65.43.43,0,0,1,.24-.27A1.79,1.79,0,0,1,81,86.94Zm2-.27h-.27c0,.54,0,1.44,0,2.72h.27a3.94,3.94,0,0,1,.29-1.28,2,2,0,0,1,.68-.9,1.74,1.74,0,0,1,1.08-.33,1.19,1.19,0,0,1,1,.39,2,2,0,0,1,.33,1.25,2.86,2.86,0,0,1-.25,1.26,1.56,1.56,0,0,1-.85.78,3.16,3.16,0,0,0-.5-.08c-.18,0-.27.07-.27.19s.08.2.25.2a1.05,1.05,0,0,0,.5-.15,1.44,1.44,0,0,1,.88.31,1.9,1.9,0,0,1,.53.76,3,3,0,0,1,.17,1,2.09,2.09,0,0,1-.55,1.57,2,2,0,0,1-1.52.55,3.68,3.68,0,0,1-.92-.11,1.76,1.76,0,0,1-.63-.3,1.32,1.32,0,0,0,.66-.36.92.92,0,0,0,.24-.63.85.85,0,0,0-.93-.94,1.08,1.08,0,0,0-.5.12.9.9,0,0,0-.36.34.93.93,0,0,0-.14.51,1.06,1.06,0,0,0,.18.6,1.62,1.62,0,0,0,.47.47,3.48,3.48,0,0,0,2.11.56,5.61,5.61,0,0,0,1.8-.28,3.41,3.41,0,0,0,1.37-.83,1.8,1.8,0,0,0,.52-1.29,1.65,1.65,0,0,0-.47-1.18,2.91,2.91,0,0,0-1.2-.74,4.84,4.84,0,0,0-1.52-.25,5.9,5.9,0,0,0,1.28-.45,3.28,3.28,0,0,0,1-.77,1.6,1.6,0,0,0,.42-1.09,1.38,1.38,0,0,0-.34-.94,2.07,2.07,0,0,0-.94-.62,4.24,4.24,0,0,0-1.4-.22,3.37,3.37,0,0,0-.84.09,2.64,2.64,0,0,0-.57.21c-.15.08-.33.2-.54.34l-.18.1a.19.19,0,0,1-.1,0,.22.22,0,0,1-.2-.15A2.27,2.27,0,0,1,83.06,86.67ZM50.61,34.58h1.12a8.35,8.35,0,0,0,3.72-.71,4.52,4.52,0,0,0,2-1.78A4.61,4.61,0,0,0,58,29.86a3.67,3.67,0,0,0-.65-2.18,4.23,4.23,0,0,0-2-1.46,9,9,0,0,0-3.23-.52l-1.43,0-1.87,0c-1.43,0-2.5,0-3.21-.07v.43a3.16,3.16,0,0,1,1,.16.75.75,0,0,1,.44.49,4,4,0,0,1,.12,1.16V38.37a4,4,0,0,1-.12,1.16.75.75,0,0,1-.44.49,3.16,3.16,0,0,1-1,.16v.43L49,40.55c.84,0,2.13,0,3.86.06v-.47A5.59,5.59,0,0,1,51.42,40a1,1,0,0,1-.63-.52,3.12,3.12,0,0,1-.18-1.23Zm.91-.43h-.91V27.92a5.16,5.16,0,0,1,.1-1.14.82.82,0,0,1,.37-.53,2,2,0,0,1,.84-.14,2.21,2.21,0,0,1,2,1,5.89,5.89,0,0,1,.61,3,5.84,5.84,0,0,1-.65,3A2.52,2.52,0,0,1,51.52,34.15Zm6.33,8.41V38.51a3.69,3.69,0,0,1,.1-1,.64.64,0,0,1,.4-.42,3.12,3.12,0,0,1,.95-.1h.62a3,3,0,0,1,1.58.38,3,3,0,0,1,1.13,1.27,8.84,8.84,0,0,1,.74,2.41h.49a10,10,0,0,1-.07-1.43q0-1.43.15-3.12c-.83,0-2.21.06-4.15.06q-4.59,0-6.87-.06v.42a3.11,3.11,0,0,1,1,.17.77.77,0,0,1,.44.49,4,4,0,0,1,.12,1.16V49.21a4,4,0,0,1-.12,1.15.79.79,0,0,1-.44.5,3.16,3.16,0,0,1-1,.16v.43c.71-.05,1.74-.07,3.08-.07l1.84,0c.6,0,1.06,0,1.36,0a8.57,8.57,0,0,0,3.41-.58,4.17,4.17,0,0,0,2-1.57A4.08,4.08,0,0,0,65.21,47a4.29,4.29,0,0,0-.6-2.24,4.14,4.14,0,0,0-2-1.61,8.74,8.74,0,0,0-3.54-.62Zm0,6.65V43h.82a3,3,0,0,1,1.83.49,2.72,2.72,0,0,1,.94,1.41,7.83,7.83,0,0,1,.27,2.22,8,8,0,0,1-.24,2.14,2.42,2.42,0,0,1-.82,1.32,2.5,2.5,0,0,1-1.6.46,1.52,1.52,0,0,1-.76-.15.84.84,0,0,1-.35-.53A5.25,5.25,0,0,1,57.85,49.21Z"/></g></svg>