<svg id="expand" xmlns="http://www.w3.org/2000/svg" viewBox="0 0 145 130"><defs><style>.cls-1{fill:#f2552c;}.cls-2{fill:#084464;}</style></defs><title>icons</title><g id="big_copy" data-name="big copy"><path class="cls-1" d="M104.5,13.75C89.31,13.75,77,11,77,7.5v8c0,1,1.08,2,3,2.84V31.5c0,3,11,5.5,24.5,5.5S129,34.54,129,31.5V18.34c1.92-.85,3-1.82,3-2.84V7.6C131.75,11,119.54,13.75,104.5,13.75Z"/><path class="cls-2" d="M144.74,48.33l-.25-.28a.43.43,0,0,0,0,0h-.06L130,32.11V19c2-1,3-2.16,3-3.47V7.61s0-.07,0-.11,0-.08,0-.12h0C132.74,2.15,115.87.25,104.5.25,93.41.25,77.09,2.06,76.05,7h0v8.5C76,16.81,77,18,79,19V32.3L64.56,48H64.5s0,0,0,.06l-.25.26A1,1,0,0,0,64,49V89H61.71c-.36-.85-1-2-2.21-2h-4c-1.17,0-1.85,1.15-2.22,2H4.5c-3,0-3.75,6.91-3.75,11s.79,11,3.75,11H53.29c.36.85,1,2,2.21,2h4c1.17,0,1.85-1.15,2.22-2H64v11c0,5.87,24.22,8,40.5,8,14.28,0,34.65-1.64,39.46-6h1V49A1,1,0,0,0,144.74,48.33ZM104.5,55.5c16.29,0,33.43-1.86,38.5-5.34V58c-2.85,2.79-17.86,5.55-38.5,5.55S68.85,60.74,66,58V50.16C71.07,53.64,88.21,55.5,104.5,55.5ZM143,75c-2.85,2.79-17.86,5.55-38.5,5.55S68.85,77.74,66,75V72.16c5.07,3.48,22.21,5.34,38.5,5.34s33.43-1.86,38.5-5.34Zm0-4c-2.85,2.79-17.86,5.55-38.5,5.55S68.85,73.74,66,71V68.16c5.07,3.48,22.21,5.34,38.5,5.34s33.43-1.86,38.5-5.34Zm0-4c-2.85,2.79-17.86,5.55-38.5,5.55S68.85,69.74,66,67V59.16c5.07,3.48,22.21,5.34,38.5,5.34s33.43-1.86,38.5-5.34ZM66,76.16c5.07,3.48,22.21,5.34,38.5,5.34s33.43-1.86,38.5-5.34V83c-2.85,2.79-17.86,5.55-38.5,5.55S68.85,85.74,66,83ZM143,102c-2.85,2.79-17.86,5.55-38.5,5.55-11.76,0-22.74-.91-30.24-2.51a15.62,15.62,0,0,0,.61-2.85c7.54,1.5,18.25,2.36,29.63,2.36,16.29,0,33.43-1.86,38.5-5.34Zm0-4c-2.85,2.79-17.86,5.55-38.5,5.55-11.37,0-22.06-.86-29.54-2.37,0-.37,0-.75,0-1.13a16.1,16.1,0,0,0-1.13-6.07c7.8,1.69,19.41,2.57,30.63,2.57,16.29,0,33.43-1.86,38.5-5.34Zm-69.08,8c7.57,1.63,18.68,2.56,30.58,2.56,16.29,0,33.43-1.86,38.5-5.34V106c-2.85,2.79-17.86,5.55-38.5,5.55-12.75,0-24.69-1.09-32.07-2.93A10.74,10.74,0,0,0,73.92,105.94ZM131,7.46v.08c-.07,1-3,2.56-8.65,3.7l5.83-5.84C130,6.14,131,6.88,131,7.46ZM104.5,12.75c-1.25,0-2.45,0-3.62-.06L111.14,2.43c2.93.17,5.53.43,7.83.76l-9.45,9.45C107.92,12.71,106.27,12.75,104.5,12.75Zm15.69-9.37a42.76,42.76,0,0,1,7,1.64l-6.54,6.54a87.23,87.23,0,0,1-9.6,1Zm-10.4-1L99.52,12.64c-3-.12-5.6-.34-8-.63l9.72-9.72c1,0,2.11,0,3.22,0C106.37,2.25,108.12,2.3,109.79,2.37Zm-26.62,8,7.27-7.27c2.7-.37,5.83-.65,9.37-.78l-9.5,9.5A52.51,52.51,0,0,1,83.17,10.4Zm5.61-7L82.1,10.06C79.39,9.16,78,8.21,78,7.5,78,6.34,81.67,4.54,88.78,3.38ZM78,15.5V10.38c4.83,3.15,17.42,4.37,26.5,4.37s21.66-1.22,26.49-4.37V15.5c0,.41-.63,1.14-2.41,1.93a1,1,0,0,0-.57.77c-4.88,1.89-13.74,3.05-23.52,3.05S85.86,20.09,81,18.2a1,1,0,0,0-.57-.77C78.63,16.64,78,15.91,78,15.5Zm26.5,6.75c9.64,0,18.43-1.13,23.5-3v3.16c-2.16,2.07-11.21,4.06-23.5,4.06s-21.34-2-23.5-4.06V19.28C86.07,21.12,94.86,22.25,104.5,22.25ZM128,27.44c-2.16,2.07-11.21,4.06-23.5,4.06s-21.34-2-23.5-4.06V23.66c3.73,2.51,13.85,3.84,23.5,3.84s19.77-1.33,23.5-3.84ZM81,28.66c3.73,2.51,13.85,3.84,23.5,3.84s19.77-1.33,23.5-3.84v3.78c-2.16,2.07-11.21,4.06-23.5,4.06s-21.34-2-23.5-4.06Zm-.32,4.77c3.44,2.66,13.88,4.07,23.82,4.07s20.59-1.44,23.92-4.15l14.36,15.8c-3.34,2.72-18.13,5.35-38.28,5.35s-34.93-2.63-38.28-5.35ZM66,84.16c5.07,3.48,22.21,5.34,38.5,5.34s33.43-1.86,38.5-5.34V90c-2.85,2.79-17.86,5.55-38.5,5.55-13.33,0-24.31-1.15-31.19-2.72C72,90.45,70.15,89,68,89H66ZM36.25,109c1-1.94,1.5-5.48,1.5-9s-.51-7.06-1.5-9h3.88c.8,1.18,1.62,4.44,1.62,9s-.82,7.81-1.62,9Zm-5,0c1-1.94,1.5-5.48,1.5-9s-.51-7.06-1.5-9h3.88c.8,1.18,1.62,4.44,1.62,9s-.82,7.81-1.62,9Zm-5,0c1-1.94,1.5-5.48,1.5-9s-.51-7.06-1.5-9h3.88c.8,1.18,1.62,4.44,1.62,9s-.82,7.81-1.62,9Zm-5,0c1-1.94,1.5-5.48,1.5-9s-.51-7.06-1.5-9h3.88c.8,1.18,1.62,4.44,1.62,9s-.82,7.81-1.62,9Zm-5,0c1-1.94,1.5-5.48,1.5-9s-.51-7.06-1.5-9h3.88c.8,1.18,1.62,4.44,1.62,9s-.82,7.81-1.62,9Zm-5,0c1-1.94,1.5-5.48,1.5-9s-.51-7.06-1.5-9h3.88c.8,1.18,1.62,4.44,1.62,9s-.82,7.81-1.62,9ZM6.8,109c1.1-2.36,1.45-6.29,1.45-9S7.9,93.36,6.8,91h3.33c.8,1.19,1.62,4.44,1.62,9s-.82,7.81-1.62,9Zm-4-9c0-1.18.06-2.24.15-3.19L5.68,94a28.24,28.24,0,0,1,.57,6q0,1.13-.06,2.1l-3,3A29.68,29.68,0,0,1,2.75,100Zm2.64-7.1L3.1,95.2c.39-2.49,1-3.87,1.4-4.17A4.34,4.34,0,0,1,5.39,92.9Zm-2,13.41,2.67-2.66c-.36,3.22-1.13,5-1.56,5.32A5.92,5.92,0,0,1,3.39,106.31ZM54,109H41.25c1-1.94,1.5-5.48,1.5-9s-.51-7.06-1.5-9H53l1,0a1,1,0,0,0,1-.68A3.49,3.49,0,0,1,55.6,89H56c.77,1.28,1.71,5,1.71,11,0,5.63-.88,9.65-1.71,11h-.45l0,0,0,0,0,0-.08-.12h0l-.09-.14,0-.07a1.07,1.07,0,0,1-.07-.15.36.36,0,0,1,0-.09l-.08-.19a1,1,0,0,1,0-.1c-.05-.11-.09-.22-.14-.36A1,1,0,0,0,54,109Zm5.42,2H57.15c1.09-2.28,1.6-6.81,1.6-11s-.51-8.72-1.6-11H59.4a3.38,3.38,0,0,1,.67,1.32,1,1,0,0,0,.38.49,37,37,0,0,1,.84,8,47.32,47.32,0,0,1-.78,10.33,1,1,0,0,0-.42.53A3.49,3.49,0,0,1,59.4,111Zm2.17-2a51.34,51.34,0,0,0,.72-10.21A38.79,38.79,0,0,0,61.51,91H68c2.71,0,5,4.12,5,9s-2.29,9-5,9h-6ZM68,111a5.45,5.45,0,0,0,4-1.89l-.09.35c7.43,1.91,19.62,3,32.62,3,16.29,0,33.43-1.86,38.5-5.34V114c-2.85,2.79-17.86,5.55-38.5,5.55S68.85,116.74,66,114v-3Zm36.5,17c-25.28,0-38.5-3.91-38.5-6v-6.84c5.07,3.48,22.21,5.34,38.5,5.34s33.43-1.86,38.5-5.34V122C143,124.09,129.78,128,104.5,128Z"/></g></svg>