<svg id="expand" xmlns="http://www.w3.org/2000/svg" viewBox="0 0 63 54"><defs><style>.cls-1{fill:#084464;}</style></defs><title>icons</title><g id="icons"><path class="cls-1" d="M8.1,23.33s4.91,0,4.66,5a2.22,2.22,0,0,1,2.13-1.84c-1,.56-2.09,3.71-.2,6a4,4,0,0,0,3,1.62,6.53,6.53,0,0,1-5.92-2.45C8.78,28,12.19,25.11,8.1,23.33Zm39.79,9.15a4,4,0,0,1-3,1.62,6.51,6.51,0,0,0,5.91-2.45c3-3.63-.46-6.54,3.64-8.32,0,0-4.92,0-4.67,5a2.21,2.21,0,0,0-2.12-1.84C48.67,27.05,49.78,30.2,47.89,32.48ZM31.33,36.37a1,1,0,1,0-1-1A1,1,0,0,0,31.33,36.37Zm0-5.4a2,2,0,0,1-1,1.53,2.19,2.19,0,0,1,1,1.53,2.19,2.19,0,0,1,1.05-1.53A2,2,0,0,1,31.33,31Zm1.05,7.3a2.69,2.69,0,0,1-1.05-1.53,2.65,2.65,0,0,1-1,1.53,2.73,2.73,0,0,1,1,1.53A2.73,2.73,0,0,1,32.38,38.27Zm-2.46-2.8a2.36,2.36,0,0,1-1.53-1,2.15,2.15,0,0,1-1.53,1,2.25,2.25,0,0,1,1.53,1.06C28.68,35.83,29.27,35.7,29.92,35.47Zm4.35,1.06a2.27,2.27,0,0,1,1.53-1.06,2.16,2.16,0,0,1-1.53-1,2.36,2.36,0,0,1-1.53,1C33.39,35.7,34,35.83,34.27,36.53ZM28.74,40.1a4.12,4.12,0,0,1-2.56,3.42c-1.56.46-2.32-.2-3.32-.41a1.22,1.22,0,0,0-1.52,1.55c.31,1.41,2.12,1.12,2.2.43s-.77-.62-.77-.62c.4.69-.88.8-.92,0,0-.42.42-1.08,1.64-.38a5.86,5.86,0,0,0,2.63.67c3.76.14,4.95-4.28,4.95-4.28A8.16,8.16,0,0,1,28.74,40.1Zm10.43,4c1.23-.7,1.61,0,1.64.38,0,.8-1.32.69-.91,0,0,0-.85-.14-.77.62s1.88,1,2.2-.43a1.22,1.22,0,0,0-1.52-1.55c-1,.21-1.76.87-3.32.41a4.08,4.08,0,0,1-2.56-3.42,8.26,8.26,0,0,1-2.33.38s1.18,4.42,4.94,4.28A5.84,5.84,0,0,0,39.17,44.09Zm-13.72-1c2.33-.31,2.81-3.13,2.81-3.13a3.77,3.77,0,0,1-2-1.32,8,8,0,0,1-.2,2.07c-.37,1.62-1.95,1.58-1.91.89,0-.54.73-.44.84-.27a.81.81,0,0,0-1.36-.07C23.29,41.72,23.32,43.35,25.45,43.07Zm11.77,0c2.12.28,2.15-1.35,1.79-1.83a.81.81,0,0,0-1.36.07c.12-.17.81-.27.84.27,0,.69-1.53.73-1.91-.89a8.5,8.5,0,0,1-.2-2.07,3.72,3.72,0,0,1-2,1.32S34.88,42.76,37.22,43.07ZM16.65,29.31c3.2,1.21.7,3.57,3.09,6.23a5,5,0,0,0,4.62,1.65A4.15,4.15,0,0,1,22,36.06,3.36,3.36,0,0,1,22,31.47,1.71,1.71,0,0,0,20.4,33,3.49,3.49,0,0,0,16.65,29.31Zm26.27,6.23c2.4-2.66-.1-5,3.1-6.23A3.5,3.5,0,0,0,42.26,33a1.7,1.7,0,0,0-1.56-1.49,3.35,3.35,0,0,1-.07,4.59,4.11,4.11,0,0,1-2.33,1.13A5,5,0,0,0,42.92,35.54Zm-.57,2a9.53,9.53,0,0,1,4.51-.83c4.06.33,6,3.22,5.52,4.25,1.76-1.36.37-2.66.37-2.66,4.52,3.61,9.43.38,9.43.38C56.39,40.12,57,35.88,50.6,35.32,45.16,34.84,42.35,37.52,42.35,37.52Zm-32.91.76s-1.4,1.3.37,2.66c-.44-1,1.45-3.92,5.51-4.25a9.57,9.57,0,0,1,4.52.83s-2.81-2.68-8.26-2.2C5.16,35.88,5.8,40.12,0,38.66,0,38.66,4.91,41.89,9.44,38.28Zm21.89,4.09A2.66,2.66,0,0,1,30.18,44a3.57,3.57,0,0,1,1.15,2.48A3.57,3.57,0,0,1,32.48,44,2.71,2.71,0,0,1,31.33,42.37ZM23,40.65c1.85-.34,3.54-1.57,2.93-3.06s-1.66-4,.08-4.31a.71.71,0,0,0-.19.49.75.75,0,0,0,.76.76c.73,0,1.19-.88.65-1.73A1.7,1.7,0,0,0,25,32.38a2,2,0,0,0-.67,2.43A4.93,4.93,0,0,1,25,36.39a3.11,3.11,0,0,1-2.49,3.41s-1.37.24-1.17-.69a.59.59,0,0,1,.83-.31.79.79,0,0,0-1.47-.18C20,39.56,21,41,23,40.65Zm19-2a.79.79,0,0,0-1.48.18.59.59,0,0,1,.83.31c.2.93-1.16.69-1.16.69a3.12,3.12,0,0,1-2.5-3.41,5.18,5.18,0,0,1,.59-1.58,1.94,1.94,0,0,0-.67-2.43,1.71,1.71,0,0,0-2.18.42c-.53.85-.07,1.72.65,1.73a.76.76,0,0,0,.58-1.25c1.73.27.66,2.86.07,4.31s1.08,2.72,2.94,3.06S42.64,39.56,42,38.62Zm-9.7-37L31.45.4l-.87,1.19.87,1.09Zm-12.39,10a2.78,2.78,0,0,0,3.37-1.23c-.24.55.5,1.23.5,1.23,0-.66.55-1.84,3.17-2.32a2.82,2.82,0,0,0,2.6-2.64c-.37,1.06-1.19,1.83-4,1.31-3.09-.59-3.16,1-4.74,2.1S18,9.35,18,9.35A4,4,0,0,0,19.93,11.56ZM42,10c-1.57-1.12-1.65-2.69-4.74-2.1-2.76.52-3.58-.25-4-1.31a2.8,2.8,0,0,0,2.6,2.64c2.62.48,3.14,1.66,3.16,2.32,0,0,.75-.68.51-1.23A2.76,2.76,0,0,0,43,11.56a4.07,4.07,0,0,0,2-2.21S43.59,11.12,42,10ZM19,7.52h0c1.13.88,2.69-.15,2.91-.41a3.14,3.14,0,0,1-2.2.36.51.51,0,0,0,.15-.36.52.52,0,0,0-.53-.52.52.52,0,0,0-.52.52.5.5,0,0,0,.19.4Zm24.06-.4a.51.51,0,0,0,.14.36A3.16,3.16,0,0,1,41,7.12c.23.26,1.78,1.29,2.91.41h0a.52.52,0,0,0-.34-.92A.52.52,0,0,0,43.05,7.12Zm-11.6,3.43a.55.55,0,0,0,0-1.09.55.55,0,0,0,0,1.09ZM22.29,5.39a.58.58,0,0,0-.59-.59.59.59,0,0,0-.6.59.76.76,0,0,0,.06.26h0A.87.87,0,0,1,20,5.11c-.24-.81.48-2.12,2.82-1.57s2.76,2.89,4,3.41c2.83,1.17,3.61-2.76,1.65-2.76a.61.61,0,0,0,0,1.21.61.61,0,0,0,.44-.2.56.56,0,0,1,.08.5,1.52,1.52,0,0,1-2.38.56c-.9-.81-3.24-4.25-6.22-2.92,0,0-1.61.81-1.09,2.3C19.78,6.93,22.29,7,22.29,5.39ZM36.06,7c1.25-.52,1.68-2.86,4-3.41s3.06.76,2.81,1.57a.87.87,0,0,1-1.16.54h0a.58.58,0,0,0,.06-.26.6.6,0,0,0-1.19,0c0,1.65,2.52,1.54,3,.25.53-1.49-1.09-2.3-1.09-2.3-3-1.33-5.32,2.11-6.22,2.92a1.53,1.53,0,0,1-2.38-.56A.56.56,0,0,1,34,5.2a.61.61,0,0,0,.45.2.61.61,0,0,0,0-1.21C32.44,4.19,33.22,8.12,36.06,7ZM31.45,4.79A1.84,1.84,0,0,0,33.17,4c.65-1-.08-1.9-.78-1.74-.53.12-.43.62-.09.79a.36.36,0,0,1,.64-.15c.39.39-.07,1.58-1.49,1.57S29.57,3.28,30,2.89a.36.36,0,0,1,.63.15c.35-.17.44-.67-.08-.79-.7-.16-1.43.73-.78,1.74A1.83,1.83,0,0,0,31.45,4.79Zm-3.16.91A1.28,1.28,0,0,1,27.16,4a1.69,1.69,0,0,1,.9-.94s-.9.19-1.23-.48c-.42-.84.32-2,1.66-2.56,0,0-3.48.84-3,3.5A2.44,2.44,0,0,0,28.29,5.7Zm7.77-3.14c-.32.67-1.23.48-1.23.48a1.69,1.69,0,0,1,.9.94A1.28,1.28,0,0,1,34.6,5.7a2.43,2.43,0,0,0,2.79-2.2c.49-2.66-3-3.5-3-3.5C35.75.54,36.48,1.72,36.06,2.56ZM31.45,12.65a2.08,2.08,0,0,1,.87-.87,2,2,0,0,1-.87-.87,2.08,2.08,0,0,1-.87.87A2.13,2.13,0,0,1,31.45,12.65Zm0-3.47a2.24,2.24,0,0,1,.89-.89,2.23,2.23,0,0,1-.89-.89,2.37,2.37,0,0,1-.89.89A2.31,2.31,0,0,1,31.45,9.18Zm-2.07,0a2.15,2.15,0,0,1-.89.9,1.68,1.68,0,0,1,.89.89,1.78,1.78,0,0,1,.89-.89A2.2,2.2,0,0,1,29.38,9.18Zm5,.9a2.09,2.09,0,0,1-.89-.9,2.17,2.17,0,0,1-.9.9,1.76,1.76,0,0,1,.9.89A1.65,1.65,0,0,1,34.41,10.08Zm-2.07-4a2.18,2.18,0,0,1-.89-.89,2.24,2.24,0,0,1-.89.89,2.31,2.31,0,0,1,.89.89A2.24,2.24,0,0,1,32.34,6.08Zm11.88,5.78-.15.11-.15.11-.16.11.12.16a15.55,15.55,0,0,1,1.75,15.76l-.12.27h.62l0-.12A16.14,16.14,0,0,0,44.33,12ZM16.64,28.37h.63l-.13-.28a15.6,15.6,0,0,1,1.8-15.82l.12-.15L18.9,12l-.15-.1-.15-.11-.11.15a16.11,16.11,0,0,0-1.9,16.3Zm4.24-15.65-.34,0a3.49,3.49,0,0,1-.76-.18l-.13-.05-.08.11A14.88,14.88,0,0,0,18,28.47l0,.07.08,0a4.74,4.74,0,0,1,1.06.44l.61.34-.36-.6A13.82,13.82,0,0,1,20.66,13ZM43,29.21l.57-.3a4.86,4.86,0,0,1,1-.38l.08,0,0-.08a14.92,14.92,0,0,0-1.51-15.84l-.09-.1-.12,0a3.73,3.73,0,0,1-.78.16l-.35,0,.22.27a13.8,13.8,0,0,1,1.23,15.65ZM15,51.15h.48a3.59,3.59,0,0,0,1.63-.31,1.91,1.91,0,0,0,1.13-1.75,1.62,1.62,0,0,0-.29-1A1.75,1.75,0,0,0,17,47.5a3.85,3.85,0,0,0-1.41-.23H14.19c-.62,0-1.09,0-1.4,0v.19a1.51,1.51,0,0,1,.45.07.35.35,0,0,1,.19.22,1.91,1.91,0,0,1,.05.5v4.57a2.05,2.05,0,0,1-.05.51.36.36,0,0,1-.19.21,1.51,1.51,0,0,1-.45.07v.19l1.45,0,1.69,0v-.2a2.73,2.73,0,0,1-.63-.07.41.41,0,0,1-.28-.23,1.4,1.4,0,0,1-.07-.53Zm.39-.18H15V48.24a2.12,2.12,0,0,1,0-.5.36.36,0,0,1,.16-.23.86.86,0,0,1,.37-.06,1,1,0,0,1,.87.42,2.5,2.5,0,0,1,.27,1.32,2.53,2.53,0,0,1-.28,1.3A1.11,1.11,0,0,1,15.34,51Zm7.57,2.26L21.3,49.06h-.46L19.32,53c-.16.42-.35.66-.57.69v.14a3.63,3.63,0,0,1,.5,0c.26,0,.53,0,.83,0v-.14a.84.84,0,0,1-.44-.1.39.39,0,0,1-.15-.35,2.22,2.22,0,0,1,.18-.74l.18-.46H21.3l.4,1.1a1.07,1.07,0,0,1,.08.31.18.18,0,0,1-.11.18.78.78,0,0,1-.36.06v.14c.22,0,.56,0,1,0s.75,0,1,0v-.14a.39.39,0,0,1-.22-.1A.93.93,0,0,1,22.91,53.23Zm-1.66-1.36H19.9l.69-1.8Zm7.61-2.66v-.13l-1.06,0-1,0v.13a1.55,1.55,0,0,1,.3,0,.28.28,0,0,1,.15.13,1.29,1.29,0,0,1,.05.29l-1.9,3.21v-3.1a1,1,0,0,1,0-.36.24.24,0,0,1,.13-.16,1.14,1.14,0,0,1,.33,0v-.13l-1,0-1.05,0v.13a1.14,1.14,0,0,1,.33,0,.24.24,0,0,1,.13.16,1,1,0,0,1,0,.36v3.3a1.14,1.14,0,0,1,0,.37.24.24,0,0,1-.13.15.87.87,0,0,1-.33,0v.14c.23,0,.58,0,1.05,0s.77,0,1,0v-.14a1.05,1.05,0,0,1-.31,0,.23.23,0,0,1-.14-.13,1,1,0,0,1-.05-.31L27.3,50v3.11a1.14,1.14,0,0,1,0,.37.23.23,0,0,1-.14.15.82.82,0,0,1-.32,0v.14c.23,0,.57,0,1,0s.83,0,1.06,0v-.14a.87.87,0,0,1-.33,0,.26.26,0,0,1-.14-.15,1.52,1.52,0,0,1,0-.37v-3.3a1.36,1.36,0,0,1,0-.36.25.25,0,0,1,.14-.16A1.14,1.14,0,0,1,28.86,49.21ZM27.39,47.5a.62.62,0,0,0-.39.12.41.41,0,0,0-.15.32.37.37,0,0,0,.11.27.55.55,0,0,0,.29.16,1.93,1.93,0,0,1-.42.12,2.74,2.74,0,0,1-.48,0,2.77,2.77,0,0,1-.49,0,1.61,1.61,0,0,1-.42-.11.59.59,0,0,0,.29-.16.35.35,0,0,0,.12-.28.39.39,0,0,0-.16-.32.6.6,0,0,0-.38-.12.58.58,0,0,0-.38.12.41.41,0,0,0-.15.32c0,.19.13.35.4.49a3.09,3.09,0,0,0,2.34,0c.27-.14.4-.3.4-.49a.41.41,0,0,0-.15-.32A.6.6,0,0,0,27.39,47.5Zm2.21,3.21h.15a4.43,4.43,0,0,1,.27-.88,1.2,1.2,0,0,1,.38-.46,1,1,0,0,1,.55-.14h.15V53a1,1,0,0,1-.06.4.3.3,0,0,1-.2.18,1.76,1.76,0,0,1-.46,0v.14c.54,0,.94,0,1.22,0s.71,0,1.27,0v-.14a1.76,1.76,0,0,1-.46,0,.32.32,0,0,1-.2-.18,1,1,0,0,1-.06-.4v-3.8h.16a1,1,0,0,1,.54.14,1.12,1.12,0,0,1,.38.46,3.41,3.41,0,0,1,.27.88h.15c0-.14,0-.31,0-.5s0-.68,0-1.13l-2.05,0-2.06,0c0,.45.05.82.05,1.13S29.61,50.57,29.6,50.71Zm7-.81V48.13a1.43,1.43,0,0,1,.05-.43.28.28,0,0,1,.17-.18,1.47,1.47,0,0,1,.42,0h.27a1.35,1.35,0,0,1,.69.16,1.3,1.3,0,0,1,.49.56,3.64,3.64,0,0,1,.32,1h.22a4.57,4.57,0,0,1,0-.62,13.66,13.66,0,0,1,.07-1.37c-.37,0-1,0-1.82,0q-2,0-3,0v.19a1.38,1.38,0,0,1,.44.07.3.3,0,0,1,.19.22,1.49,1.49,0,0,1,.06.5v4.57a1.6,1.6,0,0,1-.06.51.31.31,0,0,1-.19.21,1.38,1.38,0,0,1-.44.07v.19c.31,0,.76,0,1.34,0h1.4a3.72,3.72,0,0,0,1.49-.26,1.79,1.79,0,0,0,.87-.68,1.84,1.84,0,0,0,.27-1,1.94,1.94,0,0,0-.26-1,1.91,1.91,0,0,0-.86-.7,3.81,3.81,0,0,0-1.55-.27Zm0,2.91V50.09H37a1.36,1.36,0,0,1,.8.22,1.19,1.19,0,0,1,.41.62,3.33,3.33,0,0,1,.12,1,3.48,3.48,0,0,1-.1.93,1,1,0,0,1-1.06.78.77.77,0,0,1-.34-.06.42.42,0,0,1-.15-.24A2.72,2.72,0,0,1,36.65,52.81Zm9.2-3.6v-.13l-1.05,0-1,0v.13a1.68,1.68,0,0,1,.3,0,.28.28,0,0,1,.15.13,1,1,0,0,1,0,.29L42.4,52.88v-3.1a1,1,0,0,1,0-.36.21.21,0,0,1,.13-.16,1.14,1.14,0,0,1,.33,0v-.13l-1,0-1,0v.13a1,1,0,0,1,.32,0,.23.23,0,0,1,.14.16,1,1,0,0,1,0,.36v3.3a1.14,1.14,0,0,1,0,.37.23.23,0,0,1-.14.15.78.78,0,0,1-.32,0v.14c.23,0,.58,0,1,0s.77,0,1,0v-.14a1.05,1.05,0,0,1-.31,0,.2.2,0,0,1-.14-.13.8.8,0,0,1-.05-.31L44.3,50v3.11a1.52,1.52,0,0,1,0,.37.26.26,0,0,1-.14.15.85.85,0,0,1-.32,0v.14c.23,0,.57,0,1,0s.83,0,1.05,0v-.14a.82.82,0,0,1-.32,0,.26.26,0,0,1-.14-.15,1.52,1.52,0,0,1,0-.37v-3.3a1.36,1.36,0,0,1,0-.36.25.25,0,0,1,.14-.16A1.06,1.06,0,0,1,45.85,49.21ZM47,49.06h-.16c0,.3,0,.82,0,1.54H47a2.24,2.24,0,0,1,.17-.72,1,1,0,0,1,.38-.51,1,1,0,0,1,.61-.19.66.66,0,0,1,.55.22,1.08,1.08,0,0,1,.19.71,1.73,1.73,0,0,1-.14.71.86.86,0,0,1-.49.44,1.31,1.31,0,0,0-.27,0c-.11,0-.16,0-.16.1s0,.12.14.12a.6.6,0,0,0,.29-.09.81.81,0,0,1,.49.18.89.89,0,0,1,.3.43,1.54,1.54,0,0,1,.1.58,1.21,1.21,0,0,1-.31.89,1.19,1.19,0,0,1-.86.31,2,2,0,0,1-.52-.07.86.86,0,0,1-.36-.17.77.77,0,0,0,.38-.2.52.52,0,0,0,.13-.36.53.53,0,0,0-.14-.39.54.54,0,0,0-.38-.14.57.57,0,0,0-.29.07.46.46,0,0,0-.2.19.55.55,0,0,0-.08.29.59.59,0,0,0,.1.34,1.15,1.15,0,0,0,.27.27,2,2,0,0,0,1.19.31,3.11,3.11,0,0,0,1-.16,1.8,1.8,0,0,0,.77-.47,1,1,0,0,0,.3-.73.94.94,0,0,0-.27-.67,1.62,1.62,0,0,0-.67-.41,3.17,3.17,0,0,0-.87-.15,3.32,3.32,0,0,0,.73-.25,1.86,1.86,0,0,0,.59-.44A1,1,0,0,0,50,50a.8.8,0,0,0-.2-.54,1.15,1.15,0,0,0-.53-.35,2.39,2.39,0,0,0-.79-.12A2.14,2.14,0,0,0,48,49a1.19,1.19,0,0,0-.32.12l-.31.19-.1.06h-.06s-.08,0-.11-.08A1.08,1.08,0,0,1,47,49.06ZM28.65,19.57h.63a4.7,4.7,0,0,0,2.11-.4,2.51,2.51,0,0,0,1.13-1,2.58,2.58,0,0,0,.33-1.26,2.06,2.06,0,0,0-.37-1.23,2.4,2.4,0,0,0-1.11-.83,5.16,5.16,0,0,0-1.83-.29H27.67c-.81,0-1.41,0-1.81,0v.24a1.84,1.84,0,0,1,.58.09.4.4,0,0,1,.24.28,2.08,2.08,0,0,1,.07.65v5.92a2,2,0,0,1-.07.65.4.4,0,0,1-.24.28,2.11,2.11,0,0,1-.58.1V23l1.88,0,2.19,0v-.26a3.13,3.13,0,0,1-.82-.08.52.52,0,0,1-.36-.29,1.75,1.75,0,0,1-.1-.7Zm.51-.24h-.51V15.8a3.21,3.21,0,0,1,.05-.64.49.49,0,0,1,.21-.3,1,1,0,0,1,.48-.08,1.25,1.25,0,0,1,1.14.54A3.43,3.43,0,0,1,30.87,17a3.22,3.22,0,0,1-.37,1.68A1.41,1.41,0,0,1,29.16,19.33Zm3.59,4.76V21.8a2.41,2.41,0,0,1,0-.56A.37.37,0,0,1,33,21a1.73,1.73,0,0,1,.54-.06h.35a1.75,1.75,0,0,1,.89.21,1.82,1.82,0,0,1,.64.72,5.32,5.32,0,0,1,.42,1.37h.28a5.5,5.5,0,0,1,0-.81c0-.54,0-1.13.08-1.77-.47,0-1.25,0-2.35,0-1.73,0-3,0-3.88,0v.24a1.77,1.77,0,0,1,.57.09.49.49,0,0,1,.25.28,2.52,2.52,0,0,1,.07.66v5.92a2.49,2.49,0,0,1-.07.65.46.46,0,0,1-.25.28,1.77,1.77,0,0,1-.57.09v.24q.6,0,1.74,0h1.81a4.88,4.88,0,0,0,1.93-.33,2.43,2.43,0,0,0,1.12-.89,2.34,2.34,0,0,0-1.11-3.46,4.93,4.93,0,0,0-2-.34Zm0,3.77V24.33h.46a1.66,1.66,0,0,1,1,.28,1.5,1.5,0,0,1,.54.79,5.52,5.52,0,0,1,0,2.47,1.41,1.41,0,0,1-.47.75,1.44,1.44,0,0,1-.9.26.85.85,0,0,1-.44-.09.42.42,0,0,1-.19-.3A2.55,2.55,0,0,1,32.75,27.86Z"/></g></svg>