<svg id="expand" xmlns="http://www.w3.org/2000/svg" viewBox="0 0 139 92"><defs><style>.cls-1{fill:#f2552c;}.cls-2{fill:#084464;}</style></defs><title>icons</title><g id="medium_copy" data-name="medium copy"><path class="cls-1" d="M102.58,9.05H53.79S50.56,11,50.56,20.13c0,8,2.43,11.72,2.43,11.72L61,32v8.28l0,0h.16l44.64,1.59v4h4.8v11.2L106.7,61l2.31.08v21h0a35.73,35.73,0,0,0,28.8-35.3V45C137.81,25.12,122,9.05,102.58,9.05Zm16,20.68a2.4,2.4,0,0,1-.86,1.85l-.16.15-2.85,2.86h0a2.41,2.41,0,0,1-1.85.74l-11.2-.56a2.41,2.41,0,0,1-2.28-2.4V21.18a2.35,2.35,0,0,1,.55-1.51h0a2.19,2.19,0,0,1,.34-.34l3.14-3.1.11-.15a2.38,2.38,0,0,1,1.57-.49l11.2.56a2.4,2.4,0,0,1,2.28,2.4Z"/><path class="cls-2" d="M133.18,24.58l.15.23,3.19-2.2.35-.23c1.1-.69,2.13-1.36,2.13-3V3.4A3.41,3.41,0,0,0,135.6,0H101.2a2.72,2.72,0,0,0-.63.08,2.4,2.4,0,0,0-.72.3L94,3.3h0A3.39,3.39,0,0,0,92,6.4V8H62V5.27C62,3,60.85,1.37,58.81.94l-4-.76a4.44,4.44,0,0,0-1.92,0L45.24,2A4.18,4.18,0,0,0,42,6.08v2H21.54a2.69,2.69,0,0,0-2.35-1L8,6.3c-4.51,0-8,5.93-8,13.5S3.47,33.3,8,33.3l11.5.27h0a.76.76,0,0,0,.21,0l.16,0a2,2,0,0,0,1.51-1.27L21.5,32H42v4.63A4.34,4.34,0,0,0,43.62,40l.28.15,3.62,1.27a4.68,4.68,0,0,0,2,.4A7.34,7.34,0,0,0,52,41.4l7.58-3.57a3.11,3.11,0,0,0,.4-.22v2.2l-3.61,3H56a1,1,0,0,0-1,1V65.4a.9.9,0,0,0,.09.4.9.9,0,0,0-.09.4V89.4a1,1,0,0,0,1,1L101,92h0a1,1,0,0,0,1-.85l7.67-6.39A1,1,0,0,0,110,84V82.82a36.73,36.73,0,0,0,28.81-36.11V44.89A37.1,37.1,0,0,0,133,24.83,2.62,2.62,0,0,0,133.18,24.58ZM2,19.8c0-6.23,2.76-11.5,6-11.5l8.47.59c-2.11,2.06-3.54,6.37-3.54,11.45,0,4.81,1.31,9,3.26,11.15L8,31.3C4.71,31.3,2,26,2,19.8ZM19.46,31.55h-.08l-1.78,0c-2.17-1.51-3.76-6-3.76-11.18,0-5.34,1.75-10,4-11.34l1.2.08h.08a2.88,2.88,0,0,1,.48,0c-2.2,1.5-3.76,5.86-3.76,11.14s1.53,9.57,3.7,11.1A1.87,1.87,0,0,1,19.46,31.55ZM21,30a1,1,0,0,0-.72.31,1.68,1.68,0,0,0-.18.21c-1.84-1.31-3.23-5.48-3.23-10.27,0-5.07,1.56-9.46,3.56-10.48a1,1,0,0,0,.68.28H42V30ZM137,19.4c0,.47-.13.62-1.21,1.3L134,21.93V6.4a3.29,3.29,0,0,0-.43-1.62l3.34-1.85a1.27,1.27,0,0,1,.09.47ZM100.88,2.1a.38.38,0,0,1,.17-.08l.15,0h33.27l-2.42,1.34A3.36,3.36,0,0,0,130.6,3H99.07ZM75.26,10c-1,1.6-2.08,4.5-2.17,9.49a.52.52,0,0,0,.14.36.51.51,0,0,0,.36.15H98.22A3.34,3.34,0,0,0,98,21.18V32.37a3.4,3.4,0,0,0,3.23,3.4l11.2.56h.18a3.35,3.35,0,0,0,2.33-.94,3.21,3.21,0,0,0,.58-.75l2.18-2.21.09-.09A3.4,3.4,0,0,0,119,29.73V25.57a26.16,26.16,0,0,1,9.51,20.18v1.81A25.87,25.87,0,0,1,113.66,71.1L110,72.28V61.05a1,1,0,0,0-.66-.92l2.37-2.37a1,1,0,0,0,.29-.71V45.85s0,0,0,0a.68.68,0,0,0,0-.14l0-.15a.06.06,0,0,1,0,0s0,0-.05-.08,0-.1-.08-.14l-.09-.1a.58.58,0,0,0-.12-.1l-.12-.08-.09,0h0l-.14,0-.16,0h-4.23v-3a1,1,0,0,0-1-1L62,39.29v-5.1s0-.1,0-.16V10ZM117,18.54V29.73a1.49,1.49,0,0,1-.57,1.15l-.43.43V21.74a3.35,3.35,0,0,0-.76-2.12l1.6-1.7A1.3,1.3,0,0,1,117,18.54Zm-3.54,15.34.08.08a1.33,1.33,0,0,1-1,.37l-11.2-.56a1.4,1.4,0,0,1-1.33-1.4V21.18a1.37,1.37,0,0,1,.29-.85l.25-.25a1.32,1.32,0,0,1,.93-.3l11.2.56a1.4,1.4,0,0,1,1.33,1.4V32.93a1.39,1.39,0,0,1-.1.5Zm1.05-15a3.36,3.36,0,0,0-1.74-.59l-10-.5.92-.91.1-.12v0a1.36,1.36,0,0,1,.8-.21l11.08.56a1.43,1.43,0,0,1,.42.1ZM102,46.33,104.81,44v1.53L102,47.77Zm0,15.72h4.09L102,65.46Zm4-2.1-4-.15V50.85h4Zm2,3.12v1.35l-6,5.2V68.07ZM102,71l6-5.2V72l-6,6Zm6-12.31V50.27l2-2v8.37Zm-1.57-9.79h-2.58l2.5-2h2.16Zm-6.43,1V66.42L57,64.89V45.29l43,1.53Zm2,29.54,6-6v7.06l-6,5.15ZM59.45,30.91a25.7,25.7,0,0,1-2-10.78c0-6.38,1.6-9.12,2.45-10.13H60V30.92Zm-1.11,0-4.75-.08c-.59-1.18-2-4.69-2-10.73,0-7.09,2-9.52,2.57-10.08h4.54c-1,1.5-2.21,4.48-2.21,10.13A27.19,27.19,0,0,0,58.34,30.89ZM45.7,3.89l7.63-1.8a2.34,2.34,0,0,1,1,0l.09,0h0l3,.56L49.89,4.33A3.65,3.65,0,0,0,47.3,6.24L44.18,5.18A2.16,2.16,0,0,1,45.7,3.89Zm-1,34.51A2.28,2.28,0,0,1,44,36.71V6.18l3,1c0,.12,0,.25,0,.38V36.81a6,6,0,0,0,1.08,2.77Zm14-2.33-7.52,3.54a5,5,0,0,1-1.35.28C49.35,39.36,48,38,48,36.81V7.59a2.44,2.44,0,0,1,2.11-2.28l8.06-1.82c.12,0,.71-.1,1.23-.16A2.5,2.5,0,0,1,60,5.19V8H53.79a1,1,0,0,0-.51.14c-.38.22-3.72,2.46-3.72,11.94,0,8.2,2.48,12.1,2.59,12.26a1,1,0,0,0,.82.46l7,.12v1.24A2.2,2.2,0,0,1,58.74,36.07Zm2.62,5.2,41.8,1.49-2,1.67-.12,0L59.38,42.92ZM100,89.62,57,88.09V66.89l43,1.53Zm2-1.1v-1.6l6-5.15v1.75Zm34.81-41.81A34.72,34.72,0,0,1,110,80.77V73.33l4-1.3a26.89,26.89,0,0,0,15.49-24.47V45.75A27.18,27.18,0,0,0,119,24.28V18.54a3.39,3.39,0,0,0-3.21-3.4l-11.08-.56a3.35,3.35,0,0,0-2.22.7.73.73,0,0,0-.19.2l-3.15,3.16-.09.07a1.15,1.15,0,0,0-.14.17l-.09.08h0l0,0H74.1c.17-5.12,1.49-7.78,2.37-9h26.11c18.88,0,34.23,15.65,34.23,34.89ZM102.58,8H94V6.4A1.4,1.4,0,0,1,95.4,5h35.2A1.4,1.4,0,0,1,132,6.4v16a1.28,1.28,0,0,1-.21.7A36,36,0,0,0,102.58,8Z"/></g></svg>