<svg id="expand" xmlns="http://www.w3.org/2000/svg" viewBox="0 0 117 60"><defs><style>.cls-1{fill:#f2552c;}.cls-2{fill:#084464;}</style></defs><title>icons-57</title><g id="small_copy_2" data-name="small copy 2"><path class="cls-1" d="M116,45c0,7-2,17-3,13s-8-6-15-5-11.44,6.59-15,6c-12-2-31-1-38-2s-18-4-18-8,10-7,10-7S37,18,52,8c13.77-9.18,35-10,48,2s13,19,14,33Z"/><path class="cls-2" d="M117,45.41c0-.25,0-.4,0-.41a1,1,0,0,0-.29-.71L115,42.56l-.09-1.23c-.91-13.06-1.41-20.26-14.2-32.06-13.75-12.7-35.83-11-49.23-2.1a28.37,28.37,0,0,0-8,8.26c-7.59-.93-17.68-2.11-19.87-2.37l-.26,0-.18,0H23A3.8,3.8,0,0,0,20,15L9.81,13.13A2.68,2.68,0,0,0,9.18,13h0L9,13c-2.85,0-5,4.3-5,10a14.93,14.93,0,0,0,1.94,8H5c-2.85,0-5,4.3-5,10S2.15,51,5,51h.09C5.21,51,16.7,49.94,26,49h0c0,6.22,18.09,8.88,18.86,9a134.48,134.48,0,0,0,13.57.58c8.17.12,17.43.25,24.41,1.42a4.12,4.12,0,0,0,.7,0c1.85,0,3.74-1.13,5.9-2.41,2.47-1.48,5.26-3.15,8.7-3.64,6.71-1,13.07,1,13.89,4.25.3,1.21.87,1.77,1.65,1.67,2.56-.32,3.18-11.46,3.3-14.27A.59.59,0,0,0,117,45.41Zm-4-2.35A30.47,30.47,0,0,0,101.5,41c-7.16,0-10.3,1.52-15,3.82-2,1-4.21,2-7.15,3.22-8.38,3.35-18,3.72-25.93,2.71.48-4.24,4.85-35.19,29.21-39.76C95.39,8.6,105.71,18.76,109,22.48c3,5.62,3.34,11.12,3.89,19ZM77,2.11A36.94,36.94,0,0,1,90.42,5a25,25,0,0,0-10-1C55,6.83,52.56,45.42,52.35,50.61a37.83,37.83,0,0,1-12-3.52C40.25,31.59,44,19.88,51.54,12.3,57.66,6.13,66.2,2.72,77,2.11Zm29.59,16.47C101.58,14,92.8,8.06,82.41,10c-17.49,3.28-24.95,19.68-28,30.76C56.44,27.77,62.56,7,80.56,5c7.29-.82,13.69,2.21,17.49,4.63.43.35.86.72,1.27,1.1A55.45,55.45,0,0,1,106.54,18.58Zm-54-9.75a39.51,39.51,0,0,1,8.82-4.32A32.78,32.78,0,0,0,50.83,11.6C43.22,19.27,39.36,31,39.34,46.5c-.19-.13-.37-.26-.53-.39a3.14,3.14,0,0,1-1.31-3.25A1,1,0,0,0,38,42C38,41.77,38.17,18.42,52.55,8.83ZM37.28,31.06A.88.88,0,0,0,37,31H26.06A14.93,14.93,0,0,0,28,23a15.52,15.52,0,0,0-1.69-7.6l16,1.9A48.27,48.27,0,0,0,37.28,31.06ZM23,15l.22,0c1.21.29,2.81,3.33,2.81,8,0,4.88-1.78,8-3,8s-3-3.12-3-8S21.75,15.05,23,15Zm-3,16H12.06A14.93,14.93,0,0,0,14,23a16.06,16.06,0,0,0-1.55-7.36L19,16.84A17.72,17.72,0,0,0,18,23,14.93,14.93,0,0,0,19.94,31ZM6,23C6,18.18,7.73,15.08,9,15l.37.06C10.51,15.55,12,18.53,12,23c0,4.88-1.78,8-3,8S6,27.88,6,23ZM2,41c0-4.88,1.78-8,3-8s3,3.12,3,8-1.71,7.88-2.93,8H5C3.76,49,2,45.86,2,41Zm6.26,7.7A15.47,15.47,0,0,0,10,41a14.93,14.93,0,0,0-1.94-8H36.9A60.52,60.52,0,0,0,36,41.26c-2,.68-7.45,2.71-9.34,5.66C20.26,47.57,12.57,48.3,8.26,48.7ZM28,49c0-2.08,4.69-4.51,8.45-5.77a4.11,4.11,0,0,0,1.74,3.66c3.44,2.75,12.57,5.4,22.87,5.4A50.56,50.56,0,0,0,79.69,49c3-1.18,5.22-2.27,7.2-3.24C91.51,43.48,94.57,42,101.5,42a29.82,29.82,0,0,1,10.62,1.81c-4.14-.66-10.44-1.46-13.72-.8-2.52.5-5.25,2-8.43,3.69A71.94,71.94,0,0,1,78.34,52a103.45,103.45,0,0,1-21.77,4.51A110.23,110.23,0,0,1,45.14,56C36.86,54.83,28,51.73,28,49Zm85.58,7.7c-2-4.08-9.28-5.61-15.72-4.69-3.84.55-7,2.41-9.45,3.9-2.09,1.25-3.89,2.33-5.25,2.1a146.37,146.37,0,0,0-19.69-1.36A103.76,103.76,0,0,0,78.66,53a72.36,72.36,0,0,0,11.79-5.39c3.1-1.67,5.78-3.12,8.15-3.59,4-.8,13.22.75,16.28,1.31l.12.11A51.55,51.55,0,0,1,113.58,56.7Z"/></g></svg>