<svg id="expand" xmlns="http://www.w3.org/2000/svg" viewBox="0 0 174 114"><defs><style>.cls-1{fill:#f2552c;}.cls-2{fill:#084464;}</style></defs><title>icons</title><g id="big_copy" data-name="big copy"><path class="cls-1" d="M128,11H67s-4,2.38-4,13.84c0,10,3,14.66,3,14.66l10,.17V50l0,0h.2L132,52v5h6V71l-4.9,4.9,2.9.1v26.25h0c20.48-3.85,36-22.14,36-44.12V55.87C172,31.09,152.28,11,128,11Zm20,25.85a3,3,0,0,1-1.08,2.3l-.2.2-3.56,3.57h0a3,3,0,0,1-2.31.93l-14-.7a3,3,0,0,1-2.85-3v-14a2.94,2.94,0,0,1,.68-1.88h0l0,0a3.33,3.33,0,0,1,.42-.42L129,20l.14-.19a2.94,2.94,0,0,1,2-.61l14,.7a3,3,0,0,1,2.85,3Z"/><path class="cls-2" d="M170,1H127a2.84,2.84,0,0,0-.72.09,2.66,2.66,0,0,0-.85.36l-7.11,3.92h0A4,4,0,0,0,116,9v1H76V6.67c0-2.73-1.34-4.57-3.71-5.07l-5-.93A5.15,5.15,0,0,0,65.1.7L55.85,2.88A5,5,0,0,0,52,7.74V10H26.56a3.12,3.12,0,0,0-2.85-1.21l-14-1c-5.49,0-9.79,7.3-9.79,16.62s4.3,16.63,9.76,16.63l14.38.33h0l.22,0,.2,0a2.61,2.61,0,0,0,1.81-1.1l.18-.22H52v5.08A5.07,5.07,0,0,0,53.87,49a1.08,1.08,0,0,0,.3.16l4.44,1.56a5.63,5.63,0,0,0,2.39.47,8.65,8.65,0,0,0,2.9-.51l9.23-4.35A4.93,4.93,0,0,0,75,44.84v4.72l-5.61,4.67h0s-.05,0-.06,0A1,1,0,0,0,69,55v56a1,1,0,0,0,1,1l56,2h0a1,1,0,0,0,.63-.24h0l10-8.33a1,1,0,0,0,.36-.77v-1.61c20.91-4.33,36-23.09,36-44.93V55.87a46.14,46.14,0,0,0-6.52-23.74,3.69,3.69,0,0,0,.62-.63L171,28.8l.43-.28c1.31-.84,2.55-1.63,2.55-3.52V5A4,4,0,0,0,170,1ZM126.46,3.16a1,1,0,0,1,.3-.13A1,1,0,0,1,127,3h42.56l-4.12,2.28A3.85,3.85,0,0,0,164,5H123.13ZM91.37,24.85a.47.47,0,0,0,.35.15h31.46a.24.24,0,0,1,0,.08l-.09.34a4.4,4.4,0,0,0-.07.73v14a4,4,0,0,0,3.8,4l14,.7H141a3.94,3.94,0,0,0,2.75-1.11s0-.05.07-.08,0,0,0,0l3.56-3.57.13-.13A4,4,0,0,0,149,36.85v-5a32.87,32.87,0,0,1,11.5,25v2.26a32.49,32.49,0,0,1-18.65,29.55L137,90.24V76a1,1,0,0,0-1-1l-.61,0,3.28-3.27A1,1,0,0,0,139,71V57s0,0,0,0a.68.68,0,0,0,0-.14l0-.15s0,0,0,0h0v0l0-.05-.08-.13-.07-.09a.12.12,0,0,1,0,0l-.09-.07-.13-.08-.05,0h0l0,0-.14,0L138,56h-5V52a1,1,0,0,0-1-1L77,49V39.67a1,1,0,0,0-1-1l-1.93,0c-.76-1.51-2.62-6-2.62-13.79,0-8.2,2.1-11.63,3.17-12.84H94.37c-1.27,1.77-3,5.46-3.15,12.49A.49.49,0,0,0,91.37,24.85Zm51.63,2v14a2,2,0,0,1-.54,1.35l0,0a2,2,0,0,1-1.54.62l-14-.7a2,2,0,0,1-1.9-2v-14a2,2,0,0,1,.43-1.22l.39-.38a2,2,0,0,1,1.28-.39l14,.7A2,2,0,0,1,143,26.85Zm2,12.81V26.85a4,4,0,0,0-.86-2.44l2.53-2.65a2,2,0,0,1,.33,1.09v14a2.07,2.07,0,0,1-.79,1.6ZM129.84,20.55l0-.06a2,2,0,0,1,1.16-.33h0l14,.7a1.94,1.94,0,0,1,.83.23l-2.49,2.61a3.92,3.92,0,0,0-2.24-.84l-13-.65,1.55-1.54ZM127,57.47l4-3.33v2.39l-4,3.33Zm5,17.39-5-.18V63h5ZM127,77h6.05L127,82Zm8,1v1.6l-8,8V84.64Zm-8,11,8-8v8.59l-8,8Zm7-26.57,3-3V70.59l-3,3ZM132.59,61h-3.83l3.6-3h3.23ZM76.35,51l53,1.9L125.65,56l-53-1.9ZM71,56,125,58V83L71,81ZM127,99l8-8v8.59l-8,8ZM72.94,38.62l-6.38-.11c-.69-1.36-2.62-5.83-2.62-13.67,0-9.19,2.66-12.21,3.37-12.84h6c-1.25,1.76-2.9,5.48-2.89,12.84S72,36.66,72.94,38.62ZM56.31,4.82l9.25-2.17a3.2,3.2,0,0,1,1.27,0h.09l0,0h0l3.28.61-8.74,2a4.36,4.36,0,0,0-3.26,2.56l.11-.32L54.5,6.1A3,3,0,0,1,56.31,4.82ZM1.92,24.43C1.92,16.5,5.48,9.81,9.64,9.8l11,.77c-2.79,2.39-4.71,8-4.71,14.54,0,6.26,1.77,11.63,4.37,14.19L9.71,39.06C5.48,39.06,1.92,32.36,1.92,24.43ZM24.11,39.36l-.12,0-2.09,0c-2.86-1.76-5-7.53-5-14.23,0-7,2.28-12.93,5.31-14.43l1.28.09.17,0c.54,0,.76,0,1,.18-2.9,1.6-5,7.18-5,14s2.09,12.45,5,14A.7.7,0,0,1,24.11,39.36ZM26,38a1,1,0,0,0-.66.27C22.76,37.11,20.7,31.51,20.7,25s2.09-12.18,4.73-13.29a1,1,0,0,0,.69.29H52V38Zm29,9.36a3,3,0,0,1-1-2.28V7.74A2.84,2.84,0,0,1,54.1,7L58,8.4l.19-.56A3.87,3.87,0,0,0,58,9.17V46.33a5,5,0,0,0,.74,2.34Zm17.27-2.82-9.15,4.31a6.29,6.29,0,0,1-2.81.32A5,5,0,0,1,59,46.33V9.17a3.17,3.17,0,0,1,2.73-3L71.81,3.93a3.68,3.68,0,0,1,.82-.1h0A2.89,2.89,0,0,1,74,6.67V10H67a1,1,0,0,0-.51.14c-.46.27-4.53,3-4.52,14.7,0,10.18,3.06,15,3.19,15.2a1,1,0,0,0,.82.46l8,.13v1.2A3,3,0,0,1,72.28,44.54ZM125,112,71,110V83L125,85l0,0Zm10-7.76-8,6.66V109l8-8v3.22Zm36-46.07c0,20.76-14.23,38.6-34,42.9V91.3l5.21-1.69A33.5,33.5,0,0,0,161.5,59.13V56.87A33.84,33.84,0,0,0,149,30.61V22.85a4,4,0,0,0-3.8-4l-14-.7h0a4,4,0,0,0-2.63.81,1.19,1.19,0,0,0-.19.2l-4,3.95-.17.14c-.08.08-.15.17-.23.26l0,0h0l0,0,0,.06,0,0a2.43,2.43,0,0,0-.24.32H92.23c.23-7.41,2.36-10.77,3.42-12H128c23.73,0,43,19.68,43,43.87ZM128,10H118V9a2,2,0,0,1,2-2h44a2,2,0,0,1,2,2V29a1.94,1.94,0,0,1-.6,1.4A44.83,44.83,0,0,0,128,10Zm44,15c0,.73-.29,1-1.62,1.84L168,28.46V9a4,4,0,0,0-.82-2.4l4.58-2.53A2,2,0,0,1,172,5Z"/></g></svg>