<svg id="expand" xmlns="http://www.w3.org/2000/svg" viewBox="0 0 151 104"><defs><style>.cls-1{fill:#f2552c;}.cls-2{fill:#084464;}</style></defs><title>icons</title><g id="medium_copy" data-name="medium copy"><path class="cls-1" d="M96.2,17.3l-4.33-.42v1.77H82.55V15.39a10.77,10.77,0,0,1-3-3.05L77.8,10.11s-3.72-4.4-9.32-4.47L14.11,1a5,5,0,0,0-.77,0l-10.1.75C1.83,2.2,1.13,2.89,1,4.15A2.54,2.54,0,0,0,3.49,6.7l52.27,4.71s1.29.19,3.24.51a7.89,7.89,0,0,1,4.75,2.76,38.52,38.52,0,0,1,2.93,4.07c1.53,2.54,3.89,4.51,6.85,4.73l2.72.19,13.2,1.2,12.43-3.11V17.88Z"/><path class="cls-2" d="M140,30.92l-5.75-.68c-4-.46-8.13,3-11.64,9.75-.67,1.29-1.3,2.7-1.9,4.17a6.42,6.42,0,0,0-2.06-.51l-.35,0-3.61-.81a7.16,7.16,0,0,0-4.4-2.48L95,39.08V24.51l7.12-1.78a1,1,0,0,0,.76-1V17.88a1,1,0,0,0-.9-1L96.3,16.3h0L92.74,16V14.54a1,1,0,0,0-1-1h-8.8a1,1,0,0,0-.74.34,14.5,14.5,0,0,1-1.87-2.15L78.56,9.47c-.16-.2-4.08-4.76-10-4.82L14.19,0a4.71,4.71,0,0,0-.92,0L3.16.76a.87.87,0,0,0-.22.05A3.65,3.65,0,0,0,0,4.06,3.53,3.53,0,0,0,3.4,7.69l52.22,4.7s1.28.19,3.21.52A6.86,6.86,0,0,1,63,15.34a28,28,0,0,1,2.19,3l.62.93c1.9,3.14,4.61,5,7.64,5.2l2.7.19,2.84.26V38l-8.3-.27a16.73,16.73,0,0,0-2.74.08c-3-6.44-7.8-10.48-13.22-11.12a30.9,30.9,0,0,0-4,0H50.5C39.53,25.41,29,38.17,27,55.16c-1,8.17.14,16.1,3.12,22.34,3.06,6.39,7.72,10.26,13.13,10.9a13.49,13.49,0,0,0,2.21.08c.78,0,1.75-.1,2-.08a12.89,12.89,0,0,0,1.64.1c5.15,0,10.13-2.89,14.21-8.29l43.58,7,.19,0a7.33,7.33,0,0,0,4.37-1.78l3.25,0a6.49,6.49,0,0,0,.77.11h.23a48.58,48.58,0,0,0,1,5.07c1.82,7.39,5,11.73,9,12.2l5.75.69c.24,0,.48,0,.72,0,7.78,0,15.54-14.89,17.89-34.62C152.41,48.55,148,31.87,140,30.92ZM116.11,45.19c-4.71,2.16-8.54,9.6-9.25,18.75-.67,8.57,1.69,16.3,5.65,19.5l-1.5,0a1,1,0,0,0-.47.14c-5-1.28-8.33-10-7.54-20.18a31,31,0,0,1,4.08-13.73c2-3.17,4.36-4.92,6.71-5.06a.61.61,0,0,0,.17.07Zm-3.31-1.42c-2.38.48-4.66,2.33-6.57,5.4A32.25,32.25,0,0,0,102,63.35c-.78,10.18,2.52,18.95,7.57,21a5,5,0,0,1-2.52.91l-.38-.06c-5.21-2.31-8.46-11.46-7.65-22,.86-11.08,6-19.89,11.74-20.7A5.24,5.24,0,0,1,112.8,43.77ZM90,23.71V21.76L100.88,19V21Zm.79-6.17h-2.9v-2h2.9Zm-6.8-2h2.9v2h-2.9ZM13.42,2H14L68.47,6.64c5,.06,8.53,4.08,8.54,4.09l1.73,2.21a13.5,13.5,0,0,0,2.81,3v2.72a1,1,0,0,0,1,1h9.32a1,1,0,0,0,1-1V18l5.78.58-9.23,2.31-10.81-1.2-2.72-.19c-3.4-.24-5.5-2.91-6.45-4.48-2-3.35-4.17-6.42-8-7.07l-3.27-.52L7.3,2.46ZM73.6,22.48c-3.18-.23-5.17-2.76-6.09-4.29l-.65-1A28.6,28.6,0,0,0,64.5,14a8.86,8.86,0,0,0-5.34-3.07c-2-.33-3.25-.52-3.31-.53L3.59,5.7C2.66,5.61,1.94,5,2,4.25A1.38,1.38,0,0,1,2.77,3L58,8.4s1.28.19,3.23.52c3.43.58,5.43,3.45,7.33,6.6,1.81,3,4.38,4.75,7.24,5l2.7.19L89,21.82v2L76.32,22.67Zm15.76,3.38h.09a1,1,0,0,0,.24,0L93,25V40s0,0,0,0a4.74,4.74,0,0,1-1,.54,12.57,12.57,0,0,1-4.89.88h0c-3.14,0-5.52-.87-6.36-1.85A1,1,0,0,0,81,39V25.1ZM43.46,86.42c-4.7-.56-8.8-4-11.55-9.78C29.08,70.74,28,63.2,29,55.4c1.77-15,10.32-26.45,19.56-26.83C40.86,32.34,34.68,42.78,33.2,55.22c-1.68,14.18,3.16,27,11.3,31.27C44.15,86.48,43.81,86.46,43.46,86.42Zm4.17,0c-.17,0-.46,0-.78,0C37.94,83.5,32.43,70.2,34.2,55.34c1.57-13.27,8.55-24.16,16.87-26.71a28,28,0,0,1,3.43,0C59.32,29.21,63.63,33,66.34,39a13.83,13.83,0,0,0-3.84,3.45,8,8,0,0,0-3.73,1.09,7.85,7.85,0,0,0-3.59-1.42c-5.68-.68-11.11,5.36-12.07,13.45a18.4,18.4,0,0,0,1.74,10.66c1.62,3,4,4.91,6.85,5.24a8.46,8.46,0,0,0,.87,0A8.05,8.05,0,0,0,56,70.77c.06.33.12.66.2,1,1,4,2.87,6.65,5.29,7.52C57.41,84.46,52.54,87,47.63,86.42ZM55.2,70a6.85,6.85,0,0,1-3.39.49c-2.45-.3-4.61-2-6.07-4.72A17.41,17.41,0,0,1,44.1,55.72c.9-7.55,5.81-13.19,11-12.57a6.55,6.55,0,0,1,2.78,1C54.62,46.49,52.13,51,51.5,56.3S52.3,67,55.2,70Zm.45-1c-2.52-2.85-3.75-7.62-3.16-12.61.81-6.78,4.73-12.12,9.2-12.86a36.5,36.5,0,0,0-5.41,13.1A37,37,0,0,0,55.65,69ZM63,78.14a1,1,0,0,0-.88.3c-2.21-.62-4-3.12-5-6.93a33.39,33.39,0,0,1,.14-14.64C59,48.67,62.9,42,67.05,39.79a1,1,0,0,0,.42.05,19.73,19.73,0,0,1,3.11-.15l9.23.3c1,1.46,3.79,2.47,7.32,2.47h0a13.57,13.57,0,0,0,5.28-1,6.18,6.18,0,0,0,1.12-.61,1,1,0,0,0,.38.11l14.54,1.19C103.18,44.64,98.81,53,98,63.13c-.74,9.5,1.82,18,6.19,21.65Zm52,5.29-.23,0h-.47c-4.38-2.25-7.1-10.32-6.4-19.4.75-9.68,5.23-17.6,10.21-18.4l.44,0A5,5,0,0,1,120,46a84.38,84.38,0,0,0-4.35,18.8,85.17,85.17,0,0,0-.24,18.68Zm3.59,6.68c-1.69-6.85-2-15.75-.91-25.06s3.5-17.88,6.76-24.14c2.89-5.58,6.2-8.72,9.15-8.72l.48,0,1.73.21c-6.23,3.68-11.91,16.71-13.86,33.13S122.41,96,127.62,101l-1.75-.2C122.8,100.44,120.13,96.54,118.54,90.11ZM148,68.66c-2.21,18.59-9.72,33.66-16.38,32.83l-2.15-.25c-5.7-3.52-8.62-18.44-6.59-35.56s8.35-31,14.74-33l2.15.26C146.44,33.7,150.21,50.07,148,68.66Zm-8.1-25.44c-5.44-.75-11.11,9.24-13,22.75s.87,24.69,6.27,25.45a5.46,5.46,0,0,0,.57,0c5.23,0,10.6-9.77,12.42-22.8C148.06,55.15,145.3,44,139.9,43.22Zm5.28,25.3c-1.75,12.53-7.21,22.57-11.86,21.91s-7.17-11.79-5.42-24.32c1.69-12.14,6.84-21.93,11.43-21.93a3.11,3.11,0,0,1,.43,0C144.45,44.86,146.93,56,145.18,68.52ZM134,54.37a39.94,39.94,0,0,0-3.45,12h0a39.64,39.64,0,0,0,0,12.49c.74,3.85,2.21,6,4.24,6.31a3,3,0,0,0,.43,0c4.2,0,7.65-8.57,8.82-16.94a39.64,39.64,0,0,0,0-12.49c-.74-3.85-2.21-6-4.23-6.31S135.77,50.87,134,54.37Zm5.53-2.93a1.38,1.38,0,0,1,.74.39L135,57.16c.27-.67.54-1.3.84-1.89C137.06,52.76,138.48,51.28,139.53,51.44Zm2.87,13.8L132.17,75.47a40.2,40.2,0,0,1,.1-6.45l10.17-10.17A39.12,39.12,0,0,1,142.4,65.24Zm-7.3,18a1.56,1.56,0,0,1-.9-.57l5.71-5.7C138.31,81.12,136.37,83.36,135.1,83.19Zm5.54-8.42-7,7a12.48,12.48,0,0,1-1.07-3.31c-.1-.54-.19-1.12-.26-1.72l10-10c0,.39-.08.78-.14,1.17A45.72,45.72,0,0,1,140.64,74.77Zm1.44-18.62c.09.45.16.93.22,1.42l-9.86,9.87.09-.79h0a44.42,44.42,0,0,1,1.63-7.29l6.72-6.72A11.23,11.23,0,0,1,142.08,56.15Z"/></g></svg>