<svg id="expand" xmlns="http://www.w3.org/2000/svg" viewBox="0 0 80 116"><defs><style>.cls-1{fill:#f2552c;}.cls-2{fill:#084464;}</style></defs><title>icons</title><g id="medium_copy" data-name="medium copy"><path class="cls-1" d="M16.39,9.09l.18-.26C19.27,4.31,27.71,1,37.7,1,47.88,1,56.44,4.43,59,9.07l0,0,.81,23.69,1.33,2.79,1.63,9.26s0,.36,0,.55c0,3-11.37,5.51-25.4,5.51S12,48.42,12,45.38c0-.19,0-.55,0-.55l1.63-9.26,1.06-2.79Z"/><path class="cls-2" d="M79.59,52.55l0-.13L63.86,49.7l-.15-3.62a2.39,2.39,0,0,0,.12-.7c0-.22,0-.64,0-.72L62.15,35.4a1.34,1.34,0,0,0-.09-.26l-1.23-2.6L60,9.05a.87.87,0,0,0-.15-.46h0a.36.36,0,0,0,0-.09c-.09-.15-.19-.29-.29-.43s-.18-.31-.29-.46-.26-.31-.39-.47-.22-.28-.35-.42L58,6.25l-.4-.39c-.17-.15-.36-.29-.54-.44l-.45-.36c-.19-.15-.41-.28-.61-.42s-.32-.23-.49-.33-.45-.27-.68-.4-.35-.21-.53-.3-.5-.25-.75-.37L53,3l-.82-.34-.59-.25c-.28-.11-.58-.21-.88-.31l-.62-.22-.93-.28-.64-.19-1-.24L46.88,1l-1-.2L45.16.64,44.08.48,43.37.37,42.16.24,41.53.18c-.44,0-.89-.06-1.34-.08l-.55,0C39,0,38.36,0,37.7,0c-10.18,0-19,3.33-22,8.26l-.17.26A.92.92,0,0,0,15.4,9L13.77,32.57l-1,2.65a1.21,1.21,0,0,0,0,.18l-1.64,9.34s0,.42,0,.64a2.25,2.25,0,0,0,.11.68l.71,10.62-5.22-.74-.8-.1c-.76-.1-2.22.12-3.59,2.6a17,17,0,0,0-1.79,6C-.1,68.93.78,73.69,3.57,74l4.49.63A12.54,12.54,0,0,0,7,80.94a11.9,11.9,0,0,0,7.25,10.29A14.66,14.66,0,0,0,29,104H45.85a15.23,15.23,0,0,0,8.59-2.67l2.05.46,0,0a1,1,0,0,0,.47.12,1,1,0,0,0,.56-.17l22-14.71a1,1,0,0,0,.44-.83V53.34A1,1,0,0,0,79.59,52.55ZM78,74.61l-20,20V87.85l20-20ZM40,64.51l16,2.9V99.62L40,96ZM58,67l7.67-4.56L58,70.1Zm20-8.72-20,20V71.51L69.15,60.36,78,55.1Zm0,8.17-20,20V79.68l20-20ZM76.19,53.85,56.62,65.48l-12.18-2.2c10-2.33,16.31-6.23,18.92-11.64ZM17.29,10.61C21.06,12.46,31.59,13,37.71,13s16.55-.53,20.36-2.36l.75,21.72C57,34.46,48.72,36.5,37.43,36.5,25.54,36.5,17,34.23,15.82,32ZM15.62,33.32c3,2.73,12.65,4.18,21.81,4.18,9,0,18.42-1.39,21.63-4l1.14,2.39.09.5c-1.85,2.13-10.71,4.21-22.86,4.21s-21-2.08-22.85-4.21l.09-.54ZM37.7,2c.6,0,1.19,0,1.78,0l.59,0,1.14.07.66.07,1,.1.66.1,1,.14.68.13c.3,0,.61.1.91.17s.45.1.67.15l.86.2.65.19.81.23.63.2.76.26.59.24.71.28.57.26.65.31.53.29.58.32c.17.1.33.21.49.32s.36.22.52.34.3.23.45.34l.46.36.39.36c.13.12.27.25.39.38s.23.25.33.37.24.27.34.4l.26.39c.08.12.17.24.24.37v.16c-1.78,1-8.68,2.4-20.32,2.4S19.13,10.61,17.36,9.58V9.42l.05-.08C20,5,28.34,2,37.7,2ZM13.06,45l1.32-7.47c3.36,2.65,13.45,4.06,23,4.06s19.7-1.41,23.06-4.06l1.31,7.4s0,.3,0,.45c0,1.53-8.61,4.51-24.4,4.51S13,46.91,13,45.38C13,45.24,13.06,45,13.06,45ZM6.17,72.38a5,5,0,0,1-.75-1.72A15.31,15.31,0,0,1,5.2,65a15.6,15.6,0,0,1,1.6-5.43,5.24,5.24,0,0,1,1.08-1.42l2,.28a7,7,0,0,0-.7,1.06,16.46,16.46,0,0,0-1.72,5.79,14,14,0,0,0,.73,7.38Zm3.23,0-.13.18C8.5,71.33,8,68.68,8.44,65.4A15.39,15.39,0,0,1,10.05,60a5.09,5.09,0,0,1,1-1.37l.92.13.71,10.78A10.67,10.67,0,0,0,9.4,72.4Zm-5.59-.35c-.79-.1-1.91-3-1.36-7.39A14.91,14.91,0,0,1,4,59.4c.63-1.14,1.28-1.62,1.59-1.58L6.67,58a6.79,6.79,0,0,0-.74,1.1,16.52,16.52,0,0,0-1.73,5.8,14,14,0,0,0,.7,7.31l-.28,0ZM9,80.78a10.41,10.41,0,0,1,2-7.17,8.15,8.15,0,0,1,5.86-3.3c.2,0,.41,0,.61,0a8.17,8.17,0,0,1,5.69,2.38,10.72,10.72,0,0,1,1.1,13.93,8.16,8.16,0,0,1-5.86,3.31C13.62,90.28,9.39,86.19,9,80.78Zm19.31-1.52a12.39,12.39,0,0,0-3.74-8.05,10.24,10.24,0,0,0-6.06-2.86l.43-.25A9.14,9.14,0,0,1,26,67.21a9.46,9.46,0,0,1,5.71,4.43l.23.39a9.4,9.4,0,0,1-3.35,12.86l-1.52,1A12.72,12.72,0,0,0,28.27,79.26ZM45.85,102H29A12.71,12.71,0,0,1,16.3,91.79a9.15,9.15,0,0,0,1.48.13c.26,0,.51,0,.77,0a10.13,10.13,0,0,0,7.27-4.06l3.26-2.09a10.39,10.39,0,0,0,3.69-14.21l-.22-.39a10.45,10.45,0,0,0-6.31-4.89,10.13,10.13,0,0,0-7.84,1l-1.92,1.1a10.09,10.09,0,0,0-1.82.35L13.31,48.27c5,2.8,17,3.62,24.12,3.62S57,51,61.79,48.13l.09,1.95c-2.41,6-10.37,10.22-23,12.26l-.14,0h0a.94.94,0,0,0-.31.17,1,1,0,0,0-.36.76V96.81a1,1,0,0,0,.78,1l12.8,2.9A13.3,13.3,0,0,1,45.85,102ZM58,96,78,76v6.75l-8.79,8.79L58,99.07Zm15.48-7.3L78,84.2v1.5ZM45,105.75c-1,1-3.63,1.83-7,1.83s-6-.85-7-1.83v-1.5H29v7.36c0,2.8,4.53,4.27,9,4.27s9-1.47,9-4.27v-7.36H45Zm-7,2.83A13.68,13.68,0,0,0,45,107v2c-1,1-3.63,1.83-7,1.83S32,110,31,109v-2A13.68,13.68,0,0,0,38,108.58Zm0,5.3c-4.53,0-7-1.5-7-2.27v-1.34a13.57,13.57,0,0,0,7,1.58,13.57,13.57,0,0,0,7-1.58v1.34C45,112.38,42.53,113.88,38,113.88Zm-20.55-32a1.69,1.69,0,0,0,1.68-1.69c0-.05,0-.1,0-.15l4.05-2.13a7.44,7.44,0,0,1,.38,2.33,7,7,0,0,1-2.25,5.23.5.5,0,0,0,0,.71.49.49,0,0,0,.37.16.5.5,0,0,0,.33-.12,8,8,0,0,0,2.59-6,8.32,8.32,0,0,0-.48-2.8l.5-.27a.5.5,0,0,0,.25-.3.49.49,0,0,0-.05-.39l-.61-1.07a.48.48,0,0,0-.32-.23.46.46,0,0,0-.38.06l-.41.25a6.69,6.69,0,0,0-5.43-2.92c-3.82,0-6.93,3.44-6.93,7.67A8.36,8.36,0,0,0,11.17,83l-.72.45a.5.5,0,0,0,.27.92.46.46,0,0,0,.23-.06l.63-.32A7.55,7.55,0,0,0,12.22,85a.5.5,0,1,0,.81-.59,6.25,6.25,0,0,1-.57-.93l3.91-2A1.71,1.71,0,0,0,17.45,81.87Zm-5.76-1.64c0-3.68,2.66-6.67,5.93-6.67A5.71,5.71,0,0,1,22.21,76l-4.12,2.61a1.74,1.74,0,0,0-.64-.13,1.69,1.69,0,0,0-1.68,1.6L12,82.45A7.2,7.2,0,0,1,11.69,80.23Z"/></g></svg>