<svg id="expand" xmlns="http://www.w3.org/2000/svg" viewBox="0 0 84 84"><defs><style>.cls-1{fill:#f2552c;}.cls-2{fill:#084464;}</style></defs><title>icons-56</title><g id="small_copy_2" data-name="small copy 2"><path class="cls-1" d="M58.5,83h0A2.5,2.5,0,0,1,56,80.5V3.5A2.5,2.5,0,0,1,58.5,1h0A2.5,2.5,0,0,1,61,3.5v77A2.5,2.5,0,0,1,58.5,83ZM79,80.5v-67A2.5,2.5,0,0,0,76.5,11h0A2.5,2.5,0,0,0,74,13.5v67A2.5,2.5,0,0,0,76.5,83h0A2.5,2.5,0,0,0,79,80.5Z"/><path class="cls-2" d="M83.47,54.12,80,52.29V26.7c1.78-.33,4-1.06,4-2.7s-2.23-2.37-4-2.7V13.5a3.5,3.5,0,0,0-7,0v2.35a11.23,11.23,0,0,0-2-.55V8.5a3.5,3.5,0,0,0-7,0V9.85a11.23,11.23,0,0,0-2-.55V3.5a3.5,3.5,0,0,0-7,0V9.3c-1.78.33-4,1.06-4,2.7s2.22,2.37,4,2.7V39.13l-9.53-5-.11,0-.07,0a.89.89,0,0,0-.36,0h0l-44,4A1,1,0,0,0,0,39V80a1,1,0,0,0,1,1H55.05A3.48,3.48,0,0,0,62,81h2.1A3.48,3.48,0,0,0,71,81h2.1A3.48,3.48,0,0,0,80,81h3a1,1,0,0,0,1-1V55A1,1,0,0,0,83.47,54.12ZM80,23.34a5.69,5.69,0,0,1,1.86.66,5.69,5.69,0,0,1-1.86.66ZM15,79H2V39.91l13-1.18Zm15,0H16V38.64l14-1.27Zm14,0H31V37.28l13-1.19Zm11,0H46V36.66l9,4.73Zm0-66.34A5.69,5.69,0,0,1,53.14,12,5.69,5.69,0,0,1,55,11.34ZM60,80.5a1.5,1.5,0,0,1-3,0V56.17a4.58,4.58,0,0,1,.61-.11,6.7,6.7,0,0,1,1.79,0,4.71,4.71,0,0,1,.6.11Zm0-25.36-.47-.07a7.89,7.89,0,0,0-2.06,0l-.47.07v-9a4.58,4.58,0,0,1,.61-.11,6.7,6.7,0,0,1,1.79,0,4.71,4.71,0,0,1,.6.11Zm0-10-.47-.07a7.89,7.89,0,0,0-2.06,0l-.47.07v-9a4.58,4.58,0,0,1,.61-.11,6.7,6.7,0,0,1,1.79,0,4.71,4.71,0,0,1,.6.11Zm0-10-.47-.07a7.89,7.89,0,0,0-2.06,0l-.47.07v-9a4.58,4.58,0,0,1,.61-.11,6.7,6.7,0,0,1,1.79,0,4.71,4.71,0,0,1,.6.11Zm0-10-.47-.07a7.89,7.89,0,0,0-2.06,0l-.47.07V11.06a20,20,0,0,1,3,0ZM60,9.06a21.45,21.45,0,0,0-3,0V3.5a1.5,1.5,0,0,1,3,0Zm2,2.28a5.69,5.69,0,0,1,1.86.66,5.69,5.69,0,0,1-1.86.66ZM64,79H62V45.08l2,1.05Zm0-35.13-2-1V20.15a11.23,11.23,0,0,0,2,.55Zm0-25.21A5.69,5.69,0,0,1,62.14,18,5.69,5.69,0,0,1,64,17.34Zm0-3.36a11.23,11.23,0,0,0-2,.55V14.7a11.23,11.23,0,0,0,2-.55Zm5,65.2a1.5,1.5,0,0,1-3,0V62.17a4.58,4.58,0,0,1,.61-.11,6.7,6.7,0,0,1,1.79,0,4.71,4.71,0,0,1,.6.11Zm0-19.36-.47-.07a7.89,7.89,0,0,0-2.06,0l-.47.07v-9a4.58,4.58,0,0,1,.61-.11,6.7,6.7,0,0,1,1.79,0,4.71,4.71,0,0,1,.6.11Zm0-10-.47-.07a7.89,7.89,0,0,0-2.06,0l-.47.07v-9a4.58,4.58,0,0,1,.61-.11,6.7,6.7,0,0,1,1.79,0,4.71,4.71,0,0,1,.6.11Zm0-10-.47-.07a7.89,7.89,0,0,0-2.06,0l-.47.07v-9a4.58,4.58,0,0,1,.61-.11,6.7,6.7,0,0,1,1.79,0,4.71,4.71,0,0,1,.6.11Zm0-10-.47-.07a7.89,7.89,0,0,0-2.06,0l-.47.07V17.06a20,20,0,0,1,3,0Zm0-16.08a21.45,21.45,0,0,0-3,0V8.5a1.5,1.5,0,0,1,3,0Zm2,2.28a5.69,5.69,0,0,1,1.86.66,5.69,5.69,0,0,1-1.86.66ZM73,79H71V49.81l2,1Zm0-30.39-2-1V26.15a11.23,11.23,0,0,0,2,.55Zm0-23.95A5.69,5.69,0,0,1,71.14,24,5.69,5.69,0,0,1,73,23.34Zm0-3.36a11.23,11.23,0,0,0-2,.55V20.7a11.23,11.23,0,0,0,2-.55Zm5,59.2a1.5,1.5,0,0,1-3,0V68.17a4.58,4.58,0,0,1,.61-.11,6.7,6.7,0,0,1,1.79,0,4.71,4.71,0,0,1,.6.11Zm0-13.36-.47-.07a7.89,7.89,0,0,0-2.06,0l-.47.07v-9a4.58,4.58,0,0,1,.61-.11,6.7,6.7,0,0,1,1.79,0,4.71,4.71,0,0,1,.6.11Zm0-10-.47-.07a7.89,7.89,0,0,0-2.06,0l-.47.07v-9a4.58,4.58,0,0,1,.61-.11,6.7,6.7,0,0,1,1.79,0,4.71,4.71,0,0,1,.6.11Zm0-10-.47-.07a7.89,7.89,0,0,0-2.06,0l-.47.07v-9a4.58,4.58,0,0,1,.61-.11,6.7,6.7,0,0,1,1.79,0,4.71,4.71,0,0,1,.6.11Zm0-10-.47-.07a7.89,7.89,0,0,0-2.06,0l-.47.07V23.06a20,20,0,0,1,3,0Zm0-16.08a21.45,21.45,0,0,0-3,0V13.5a1.5,1.5,0,0,1,3,0ZM82,79H80V54.55l2,1.05ZM33.5,58.55h0l8-.37a.5.5,0,0,0,.48-.5V51.11a.48.48,0,0,0-.16-.36.46.46,0,0,0-.37-.14l-8,.48a.51.51,0,0,0-.47.5v6.46a.5.5,0,0,0,.5.5Zm.5-6.49,7-.42V57.2l-7,.33ZM18.5,59.23h0l9-.41a.5.5,0,0,0,.48-.5V52a.48.48,0,0,0-.16-.36.47.47,0,0,0-.37-.14l-9,.53a.51.51,0,0,0-.47.5v6.25a.5.5,0,0,0,.5.5ZM19,53l8-.47v5.36l-8,.37ZM4.5,59.86h0l8-.36A.5.5,0,0,0,13,59V52.84a.48.48,0,0,0-.16-.36.44.44,0,0,0-.37-.14l-8,.48a.51.51,0,0,0-.47.5v6a.5.5,0,0,0,.5.5ZM5,53.79l7-.42v5.15l-7,.32Z"/></g></svg>