<svg id="expand" xmlns="http://www.w3.org/2000/svg" viewBox="0 0 141 126"><defs><style>.cls-1{fill:#f2552c;}.cls-2{fill:#084464;}</style></defs><title>icons</title><g id="big_copy" data-name="big copy"><polygon class="cls-1" points="136.32 13.62 12.95 11.07 15.46 7.33 15.53 4.66 12.59 1.46 136.55 4.73 138.47 7.78 138.39 10.78 136.32 13.62"/><path class="cls-2" d="M141,32a3,3,0,0,0-2.93-2.86L134,29.06l0-4.6a1.84,1.84,0,0,0-.06-.47h.1l0-4.46a2.3,2.3,0,0,0-.79-1.67l3.19-3.25a1,1,0,0,0,.77-.4l2.07-2.84a1,1,0,0,0,.19-.56l.08-3a1,1,0,0,0-.16-.56l-1.92-3a1,1,0,0,0-.82-.47L13.25.48h0l-.59,0h-.05L5.63.3a1,1,0,0,0-.82.39L1.66,4.5l-.1.12-.07.08h0A8.07,8.07,0,0,0,0,9.4C-.08,13,1.79,15.86,4.27,16v.09l4.73.1v77.6a2.16,2.16,0,0,0,.73,1.55,4.84,4.84,0,0,0,3.17,1.16H13v1.86a2.16,2.16,0,0,0,.74,1.57,4.56,4.56,0,0,0,3,1.11H17l.9,0,0,6.22L8.06,108v0a3.76,3.76,0,0,0-2,1,7.71,7.71,0,0,0-2,5.31c-.08,3.64,1.84,6.54,4.36,6.6H8.5l9.31-.64v2.44a3.06,3.06,0,0,0,1,2.24,3,3,0,0,0,2.05.81H21l17.16-1.27a3,3,0,0,0,2.8-3l0-20.35,2-.09v20.21a3.05,3.05,0,0,0,.94,2.25,2.74,2.74,0,0,0,1.89.74H46l17.18-1.23a3,3,0,0,0,2.78-3l0-19.21,1.89-.09,0,19a2.9,2.9,0,0,0,.93,2.14,3.08,3.08,0,0,0,2.08.82h.21l17.1-1.19A3,3,0,0,0,91,118.64V100.55l1.94-.09,0,17.88a2.85,2.85,0,0,0,.92,2.09,3.08,3.08,0,0,0,2.09.82h.21l17.06-1.15A3,3,0,0,0,116,117.2v-17l2-.09v16.74a2.77,2.77,0,0,0,.9,2,3.06,3.06,0,0,0,2.1.82h.21l17-1.12a2.92,2.92,0,0,0,2.79-2.84Zm-25,4.42,2-1.91v8.4l-2,1.91Zm2,16.27-2,1.91v-8.4l2-1.91ZM116,56l2-1.91v8.4l-2,1.91Zm0,9.79,2-1.91v8.4l-2,1.91Zm0,9.78,2-1.91v8.4L116,84Zm0,9.78,2-1.91v8.4l-2,1.91Zm0,9.79,2-1.91v4.89l-2,.09Zm2.86-65.5a2.74,2.74,0,0,0-.85,2v1.52L116,35V31.39a2.93,2.93,0,0,0-2.09-2.75l5.3-5.07,8.58.2-5.26,5-1.47,0A3,3,0,0,0,118.87,29.63ZM93,98.46l-1,0,1-.9Zm-25-7.67L66,92.59v-8.4l1.9-1.81ZM66.11,35.23,68,33.42v8.41l-1.9,1.8Zm0,9.79L68,43.21v8.41l-1.89,1.81Zm0,9.79L68,53v8.41l-1.89,1.81Zm0,19.59L68,72.59V81l-1.89,1.8ZM68,71.2,66.06,73V64.6L68,62.8Zm.93-42.91A2.9,2.9,0,0,0,68,30.38V32l-1.89,1.81V30.16a3,3,0,0,0-2-2.82l5.11-4.88,8.59.19-5,4.82-1.7,0A3,3,0,0,0,68.88,28.29ZM43,95.05l-2,1.87,0-8.41L43,86.65ZM17.87,89.72,15,92.46v-8.4l2.89-2.76ZM15,35.16l3-2.86v8.41l-3,2.85Zm2.89,44.76L15,82.68v-8.4l2.91-2.78Zm0-9.8L15,72.9V64.5l2.93-2.8Zm0-9.8L15,63.12v-8.4L18,51.9Zm0-9.8L15,53.34v-8.4l3-2.84Zm1-23.57A3,3,0,0,0,18,29.13v1.78l-3,2.87v-8.4L19.55,21l8.58.2L23,26.14l-1.92-.05A2.89,2.89,0,0,0,18.92,27ZM15,24V21.61a.47.47,0,0,1,.14-.28A1.68,1.68,0,0,1,16.3,21l1.83,0Zm14.55-2.74,6.15.14c.77,0,1.26.42,1.26.69v.48l-4,3.79-8.58-.19Zm-15-15.59,0,1.34-2.35,3.5a1,1,0,0,0-.14.32L10.28,14a1.73,1.73,0,0,0-.21.17l-2.46-.06A8.25,8.25,0,0,0,9,9.6a8.59,8.59,0,0,0-.88-4.08Zm-.93,6.41,120,2.48L131.26,17a3.11,3.11,0,0,0-.62-.06l-20.2-.46a3.86,3.86,0,0,0-2.41.73,3.9,3.9,0,0,0-2.38-.82l-20.21-.46a3.92,3.92,0,0,0-1.89.41,4,4,0,0,0-1.9-.51l-20.21-.46a3.71,3.71,0,0,0-1.89.42,4,4,0,0,0-1.89-.51l-20.22-.46a4,4,0,0,0-2,.47A3.6,3.6,0,0,0,32.66,14L12.83,13.5ZM36.92,5.2,35.57,3.07l23.85.63L61,6.17l-.06,2.69L59.34,11l-23.82-.49,1.3-1.77a.48.48,0,0,0,.1-.28l.08-3A.54.54,0,0,0,36.92,5.2Zm47.66,6.35,1.23-1.68a.56.56,0,0,0,.1-.28l.07-3a.53.53,0,0,0-.07-.28L84.68,4.36l21.84.58L108,7.24l-.07,2.69L106.39,12ZM85,6.72l-.07,2.69-1.55,2.11-22.81-.47,1.26-1.72a.43.43,0,0,0,.1-.29l.08-3a.54.54,0,0,0-.08-.28l-1.28-2,22.85.6Zm26.36,14.67a3.59,3.59,0,0,0-2.31.71h0L109,19a.43.43,0,0,1,.12-.22,1.94,1.94,0,0,1,1.27-.39l20.21.46c.84,0,1.36.44,1.36.66l0,2.51a3.85,3.85,0,0,0-1.24-.23Zm-24-.53a3.79,3.79,0,0,0-1.81.4A2.61,2.61,0,0,0,85,21l0-2.56a1.88,1.88,0,0,0-.07-.53,2.46,2.46,0,0,1,.49-.05l20.22.46c.84,0,1.36.45,1.36.68l0,2.3-.25,0Zm-23-.51A3.54,3.54,0,0,0,62,21a3.54,3.54,0,0,0-1-.6l0-2.51a2.24,2.24,0,0,0-.08-.57,3.6,3.6,0,0,1,.49,0l20.22.46a2,2,0,0,1,.5.07,2.19,2.19,0,0,0-.11.67l0,2.23Zm-24-.57a3.63,3.63,0,0,0-2.15.59A3.56,3.56,0,0,0,36,19.43v-2a.47.47,0,0,1,.14-.27,1.91,1.91,0,0,1,1.25-.4l20.23.46a2.39,2.39,0,0,1,.49.08A2.14,2.14,0,0,0,58,18l0,2.2ZM63,27,63,23a.41.41,0,0,1,.13-.25,1.77,1.77,0,0,1,1.15-.36l3.54.08ZM87,23.43a2.33,2.33,0,0,0-.07-.53,1.78,1.78,0,0,1,.41,0h.52l-.86.82Zm-50,.51v2.51l-2.58-.05Zm2,2.69,0-4.21a.42.42,0,0,1,.14-.27,1.58,1.58,0,0,1,1.16-.38l7.55.18L41,28.52A3.06,3.06,0,0,0,39,26.63Zm2,52.08L43,76.87v8.4l-1.94,1.85Zm0-19.59L43,57.31V65.7l-1.91,1.83Zm0-19.59L43,37.75v8.39l-1.88,1.8Zm1.86,36-1.93,1.84,0-8.42L43,67.09Zm0-19.57-1.89,1.81V49.32L43,47.53Zm.91-28.3A3,3,0,0,0,43,29.76v6.6l-1.86,1.78V29.73L49.26,22l8.59.19-5,4.75-6.81-.15A2.89,2.89,0,0,0,43.91,27.62ZM59.26,22.2h.44c.76,0,1.26.43,1.27.7l0,4.2L54.29,27Zm20,.48,4.3.1h.33l.24.05a2.31,2.31,0,0,0-.1.64l0,3L82.77,27.7l-8.58-.19ZM87,27.8l0-2.73,2.27-2.17,8.58.2-6.95,6.64a3,3,0,0,0-2.74-1.92Zm6,48.84L91,78.49V70.08L93,68.24ZM91.05,50.51,93,48.66v8.4l-1.93,1.85ZM93,47.28l-1.94,1.84v-8.4L93,38.87ZM91,79.87,93,78v8.41L91,88.28ZM93,87.81v8.4L91,98.06v-8.4Zm0-21L91,68.7V60.3L93,58.45ZM93.87,29A2.8,2.8,0,0,0,93,31v6.5l-1.94,1.85V30.93l8.17-7.8,7.45.17a2,2,0,0,1,.91.23l-4.93,4.72-6.6-.15A3,3,0,0,0,93.87,29ZM108,24.57l0,3.8-3.92-.09ZM110,28.41,110,24a.36.36,0,0,1,.12-.22,1.7,1.7,0,0,1,1.18-.38l6.52.15-5.16,4.93Zm19.21-4.61,1.45,0c.79,0,1.27.43,1.27.65L132,29l-8-.18Zm8.22-15.74-.06,2.38-1.58,2.16L107.61,12l1.19-1.63a.48.48,0,0,0,.1-.28l.08-3a.57.57,0,0,0-.08-.28L107.73,5,136,5.71ZM34.37,3,36,5.6l-.07,2.7-1.61,2.21L14.8,10.1l1.49-2.21a1,1,0,0,0,.17-.54l.07-2.66a1,1,0,0,0-.26-.7L14.92,2.52ZM6.08,2.31l6.06.14,1.09,1.19L6.28,3.48a3.33,3.33,0,0,0-.87-.36ZM2,9.44a5.73,5.73,0,0,1,1.42-3.9A1.64,1.64,0,0,1,4.57,5h0C5.78,5,7.06,6.91,7,9.56a5.73,5.73,0,0,1-1.42,3.9A1.6,1.6,0,0,1,4.4,14C3.22,14,1.94,12.09,2,9.44Zm9,84.34V16.6l.15.08.58-1.09a2.23,2.23,0,0,1,.66-.1L32.62,16c.81,0,1.36.44,1.36.71l0,2.69L16.34,19a3.49,3.49,0,0,0-2.6.95,2.38,2.38,0,0,0-.74,1.7V94.48A2.67,2.67,0,0,1,11,93.78ZM16.86,99A2.3,2.3,0,0,1,15,98.33V93.84l2.87-2.74,0,7.87ZM8.43,119h0c-1.18,0-2.46-1.91-2.4-4.56a5.73,5.73,0,0,1,1.42-3.9A1.64,1.64,0,0,1,8.57,110h0c1.18,0,2.46,1.91,2.4,4.56a5.73,5.73,0,0,1-1.42,3.9A1.64,1.64,0,0,1,8.43,119Zm3.38-.14A8.5,8.5,0,0,0,13,114.6a8,8,0,0,0-1.38-4.88l6.21-.51,0,9.16ZM39,121.54a1,1,0,0,1-.94,1l-17.17,1.26a1,1,0,0,1-.76-.26,1.07,1.07,0,0,1-.33-.78L20,29.13a1,1,0,0,1,.32-.75,1,1,0,0,1,.7-.29h0l17.12.39a1,1,0,0,1,1,1ZM41,99.2v-.9l2-1.87v2.68Zm23,20.88a1,1,0,0,1-.93,1L45.9,122.31h0a.79.79,0,0,1-.6-.2,1.09,1.09,0,0,1-.3-.79V29.76a1,1,0,0,1,.3-.71,1,1,0,0,1,.7-.28h0l17.11.38a1,1,0,0,1,1,1Zm2-21.2V94l1.89-1.81v6.62Zm23,19.76a1,1,0,0,1-.93.94L71,120.77a1,1,0,0,1-.78-.27.93.93,0,0,1-.3-.68L70,30.38a.92.92,0,0,1,.28-.66,1.06,1.06,0,0,1,.72-.29h0l17,.39a1,1,0,0,1,1,.95Zm25-1.44a1,1,0,0,1-.92.89L96,119.24h0a1,1,0,0,1-.79-.27.85.85,0,0,1-.29-.63L95,31a.83.83,0,0,1,.26-.6A1,1,0,0,1,96,30.1h0l17,.38a1,1,0,0,1,1,.91Zm24.08-.35-17,1.11a1,1,0,0,1-.82-.28.79.79,0,0,1-.26-.58l0-85.25a.76.76,0,0,1,.25-.56A1,1,0,0,1,121,31h0l11.84.27,5.14.12a.94.94,0,0,1,1,.86L139,116A.93.93,0,0,1,138.08,116.85Z"/></g></svg>