<svg id="expand" xmlns="http://www.w3.org/2000/svg" viewBox="0 0 118 153"><defs><style>.cls-1{fill:#f2552c;}.cls-2{fill:#084464;}</style></defs><title>icons</title><g id="big_copy" data-name="big copy"><path class="cls-1" d="M83.81,5c-1.15-2-8.91-3.51-18.3-3.38-9.14.13-16.7,1.73-18.1,3.72L41,13.46l0,23.17c0,3.18,10.82,5.61,24.08,5.43S89,39.15,89,36L89,12.5Z"/><path class="cls-2" d="M116.8,100.82c-1.64-6.91-5-11.29-9.52-12.33a9.28,9.28,0,0,0-2.11-.23h0l-3.09-.12c-3.93-.72-8.08,1.17-11.86,4.94l-2.3-.24V90.77c3.68-1.65,6-3.8,6.08-6.41V79l4.41-2A1,1,0,0,0,99,76.1V49.71a1,1,0,0,0-.43-.82.87.87,0,0,0-.31-.14h0L90.92,46.8a.91.91,0,0,0-.61,0L87,48.07V39.45c2-1,3-2.18,3-3.48l0-22.33a1.64,1.64,0,0,0,.22-.85H90v-.3a.94.94,0,0,0-.18-.56L85,5a2.6,2.6,0,0,0-.1-.25l0,0-.22-.32C83,1.64,73.85.51,65.5.61c-8,.11-17,1.44-18.87,4.1l-6.4,8.13a1,1,0,0,0-.21.62l0,23.18a3.56,3.56,0,0,0,2,2.8v28.7l-4,5.08A12.26,12.26,0,0,0,31.9,69.7l-4.21-1-.3,0C17.33,66.34,5.94,78.24,2,95.2s1.09,32.65,11.16,35l4.51,1.05h0c4,.92,8.27-.31,12.36-3.56a72.39,72.39,0,0,0,14.77,5.76,57,57,0,0,0,15.32,2.25c4.48,0,7.78-.68,9.25-1.55a7,7,0,0,0,3.54-4.38,9.17,9.17,0,0,0,.21-4.93,36.62,36.62,0,0,0,4.14-1.16,47.65,47.65,0,0,0,.66,16.27c1.64,6.92,5,11.3,9.52,12.33a.8.8,0,0,0,.15,0l4,.22a10.1,10.1,0,0,0,1.45.1c9.14,0,19.46-12.45,23.14-28.37C118.19,115.8,118.39,107.49,116.8,100.82Zm-1.64,18.38L87.44,146.91a21.06,21.06,0,0,1-2.76-6.38l31.16-31.16A55.82,55.82,0,0,1,115.16,119.2Zm-30.69.43L111,93.07a16.87,16.87,0,0,1,3.19,6L83.46,129.78A58.05,58.05,0,0,1,84.47,119.63Zm30.08-19.52q.17.57.3,1.17a38.06,38.06,0,0,1,.92,6.74L84.4,139.4a40.63,40.63,0,0,1-.93-8.21ZM106,90.3a5.75,5.75,0,0,1,.83.14,7.66,7.66,0,0,1,3.49,1.92l-25.49,25.5c.06-.29.11-.57.18-.85a59.1,59.1,0,0,1,4.65-13.13l13.69-13.69,2.65.11ZM91.38,100.75c3-5,6.59-8.67,10.19-10.2Zm-2.84-5.84a48.25,48.25,0,0,0-8.43,15.85l0-.08A39.7,39.7,0,0,1,67,113.13V102H66v11.16a70.28,70.28,0,0,1-7.49-.16c-11.34-.81-21-4-23.86-7.72L38.7,94.8c2.48,4.21,12.15,7.26,24,7.26S84.42,99,86.84,94.74Zm-54.72,9.75L22.9,102.3,20,93.24l.63-.62c2.64-2.4,5.61-3.37,8.38-2.73A8.62,8.62,0,0,1,34.31,94a.5.5,0,0,0,.43.24h3.11ZM86,94.15c-2,3.88-11.87,6.91-23.27,6.91-12.83,0-23.67-3.84-23.67-8.4V90.29C44.82,93.23,54.6,94.77,64,94.77c7.92,0,16.1-1.09,21.92-3.19v2.16A.92.92,0,0,0,86,94.15ZM64,92.77c-16.5,0-28-4.49-28-8.51V80.7c3.43,4.2,14.59,7.2,28.2,7.2,13.12,0,24-2.78,27.8-6.75v3.11C92,88.28,80.5,92.77,64,92.77ZM97,75.46l-11,4.9V55.15l11-4ZM90.71,48.81l4,1L85,53.38l-3.76-1ZM79,79.19V53.81l5,1.37V80.51Zm2.78-40a74.84,74.84,0,0,1-16.71,1.89c-10.74.15-17.85-1.33-21.07-2.78V38h-.59c-.92-.49-1.4-1-1.41-1.37V15.1q1.7,1.49,6.6,2.49a80.62,80.62,0,0,0,15.59,1.34h1.54c8.88-.12,18.15-1.38,22.27-3.57V36C88,36.53,86.72,37.91,81.78,39.17ZM65.52,2.61c10.23-.15,16.69,1.58,17.42,2.87l0,.07.55.79c-1.87,1.39-8.09,2.92-17.28,3.05a62.08,62.08,0,0,1-12.93-1c-3.71-.78-5-1.76-5-2.36a.68.68,0,0,1,0-.19C49.4,4.57,55.44,2.75,65.52,2.61Zm-18,4.18c.62,1,2.48,1.9,5.58,2.55a60.42,60.42,0,0,0,12,1.05h1.16c7.53-.11,15.11-1.24,17.81-3.24L88,12.82v1.42c-3,1.83-11.28,3.53-22.28,3.68A83.14,83.14,0,0,1,48.8,16.61c-4.58-.94-6.43-2.12-6.67-3ZM63.89,43.07h1.2a77.2,77.2,0,0,0,17.18-2c1-.26,1.92-.53,2.73-.82v8.53l-7.35,2.75a1,1,0,0,0-.65.93V70.94a80.72,80.72,0,0,1-11.57.81c-8.3,0-16-1.15-21.45-3.17a.36.36,0,0,0,0-.1V40.42C48.86,42.33,57.22,43.07,63.89,43.07ZM43.5,69.46C49,71.56,57,72.75,65.43,72.75A80.75,80.75,0,0,0,77,72v8a1,1,0,0,0,.74,1l6.65,1.76.07.06a1,1,0,0,0,.54.16,1,1,0,0,0,.41-.09L91.7,80c-3,3.9-14.39,6.89-27.5,6.89-14.39,0-26.69-3.6-28.15-8.06ZM4,95.65C7.48,80.48,17,69.55,25.79,70.43,17.74,72.81,10.1,83.05,7,96.35s-.69,25.89,5.52,31.54C4.29,124.93.45,110.88,4,95.65Zm14.17,33.62-.23,1,.23-1-3-.71c-7.35-4.35-10.41-17.68-7.1-32S19.94,71.61,28.49,71l3,.7a10.42,10.42,0,0,1,5.26,3.15l-2.49,3.13a1,1,0,0,0-.22.63v5.7c0,2.14,1.53,4,4.08,5.49v3.49H35a9.44,9.44,0,0,0-5.8-4.32c-3.1-.72-6.39.34-9.28,3A20.83,20.83,0,0,0,14,102.59c-2.08,9,1.37,17.51,7.69,19a8.11,8.11,0,0,0,1.91.22l.46,0a7.29,7.29,0,0,0,1,1.66A14.73,14.73,0,0,0,28.84,126C25.24,128.93,21.55,130.06,18.14,129.27Zm7.74-16a5.37,5.37,0,0,0-2.18,3,8.47,8.47,0,0,0,0,4.47,7.32,7.32,0,0,1-1.81-.18c-4.51-1-7.38-6.13-7.51-12.33l12,2.26C26.14,111.84,26,112.71,25.88,113.29ZM71,129.21a5,5,0,0,1-2.6,3.17c-2.24,1.33-11.3,2.44-23-.88a69.59,69.59,0,0,1-14.74-5.81l-.15-.08-.23-.07a.74.74,0,0,0-.36-.05l-.13-.08a16.31,16.31,0,0,1-3.94-2.63,7.06,7.06,0,0,1-1.14-6.21,4.3,4.3,0,0,1,1.13-1.93h0c4.74,7.2,22.31,9.72,29.64,10.47,1.51.15,3,.22,4.44.22a63.64,63.64,0,0,0,10.95-1.07.94.94,0,0,0,.06.24A6.29,6.29,0,0,1,71,129.21Zm.86-6.18-.25,0a.82.82,0,0,0-.37.16v-.06a56.77,56.77,0,0,1-15.69.93c-15-1.53-25.51-5.13-28.8-9.87.09-.6.47-2.7.71-4a.5.5,0,0,0-.4-.58l-12.67-2.39a22.13,22.13,0,0,1,.57-4.42A20.71,20.71,0,0,1,19.2,94.1L22,102.88a.53.53,0,0,0,.37.34l11.3,2.44c2.85,4.1,12.76,7.49,24.73,8.34,1.84.13,3.66.2,5.43.2,6.28,0,11.93-.82,15.88-2.32-.46,1.5-.88,3-1.25,4.63s-.67,3.28-.92,4.9A34.81,34.81,0,0,1,71.86,123Zm16,27.26c-3.68-.89-6.51-4.73-8-10.83-1.51-6.38-1.31-14.37.57-22.5,3.56-15.42,12.3-27,20-27C93.6,93.45,87,103.84,84,116.79a59.9,59.9,0,0,0-1.61,14l-.16.16.16.16c.14,8.89,2.6,16.06,6.88,19.24l-1.37-.07Zm8.47-.27,13.1-13.1C105.64,143.87,100.78,148.47,96.31,150Zm14.5-15.92L94.42,150.49a8.14,8.14,0,0,1-2.51,0h-.1l-.34,0A9.28,9.28,0,0,1,88,147.72l26.85-26.84c-.18,1-.38,1.93-.6,2.9A53.84,53.84,0,0,1,110.81,134.1Z"/></g></svg>