<svg id="expand" xmlns="http://www.w3.org/2000/svg" viewBox="0 0 79 92"><defs><style>.cls-1{fill:#f2552c;}.cls-2{fill:#084464;}</style></defs><title>icons</title><g id="small_copy" data-name="small copy"><path class="cls-1" d="M75.25,53.09a22,22,0,0,0-4.89-10.58h0L69.79,39l-2.9.46a13.09,13.09,0,0,0-9.69-2.27L27,42c-5.39,1-9.43,5.63-11,11.84h0a12.84,12.84,0,0,0-2.4,8.4l-1.55.27a3,3,0,0,0,.51,6,3.17,3.17,0,0,0,.53,0l1.62-.29c1.23,3.42,3.35,6,5.7,7h0C24,79.76,29,82.27,34,81.39a2.44,2.44,0,0,1,.26-.06l0,0,29.55-7.1C71.9,72.81,77.05,63.34,75.25,53.09Z"/><path class="cls-2" d="M71.86,42.78a1,1,0,0,0-1-.37l-.56-3.54a.5.5,0,0,0-.2-.33.49.49,0,0,0-.37-.09L67,38.88a1,1,0,0,0-.48-.89,15.16,15.16,0,0,0-3.92-1.61l5-5.51a4.29,4.29,0,0,0,3.19,1.83,2.65,2.65,0,0,0,.5-.05h.07l3.36-.87a.05.05,0,0,0,0,0C78.16,31,78.88,24.17,77.8,18S73.63,5.58,70.1,6.21a.05.05,0,0,0,0,0s0,0,0,0L67,7V5a1.55,1.55,0,0,0,0-.21,1,1,0,0,0-.64-1.18L57.55.68a1,1,0,0,0-.49,0L42.82,3.19A1,1,0,0,0,42,4.35a.83.83,0,0,0,.08.22A1,1,0,0,0,42,5V7.17a1,1,0,0,0,.7,1l2.3.72v1.22a10.1,10.1,0,0,0-9.24.32l-8.44,4.72A3.18,3.18,0,0,0,26.5,15a4.29,4.29,0,0,0-3.69,2.73C20.46,19.7,19,23.4,19,27.5a15.91,15.91,0,0,0,.89,5.27c-3.53.5-8.26,2.12-10.08,7.14C8.3,44.09,10.67,47.5,13,50.8,13.7,51.86,14.42,52.9,15,54a.43.43,0,0,1,0,0h-8A7.07,7.07,0,0,0,0,61.06v4.88A7.07,7.07,0,0,0,7.06,73h9.81A11.84,11.84,0,0,0,18,74.19a.42.42,0,0,0,.07.13c3.09,4,8.55,7.75,13.54,8.15l9.68,9.25A1,1,0,0,0,42,92a1.05,1.05,0,0,0,.51-.16l7.73-1.92A1,1,0,0,0,51,89V78.62l8.89,8.62a1,1,0,0,0,.69.29,1,1,0,0,0,.38-.08h0a1,1,0,0,0,.24,0l8-2a1,1,0,0,0,.76-1V73.07a1,1,0,0,0-.16-.51c5.08-4,7.81-11.6,6.4-19.64A23.24,23.24,0,0,0,71.86,42.78Zm-1.07,5.63-4.94.78-1-6.42a.5.5,0,0,0-.2-.33.54.54,0,0,0-.37-.09L50.43,44.54a.59.59,0,0,0-.33.2.57.57,0,0,0-.09.38l1,6.42-4.94.78-1.4-8.89,24.69-3.91ZM25,27.64a3.31,3.31,0,0,0,3,0V40.83L26.84,41h0a12.27,12.27,0,0,0-1.83.47Zm4.94-1.92A8.4,8.4,0,0,0,31,21.5c0-.14,0-.27,0-.4a13.62,13.62,0,0,1,1.51,6.4A12.26,12.26,0,0,1,30,35.35V26A.88.88,0,0,0,29.94,25.72ZM15.3,55.94a1,1,0,0,0,.51-.39,7.83,7.83,0,0,1,.48,5.21l-2.18.38A13.45,13.45,0,0,1,15.3,55.94Zm4.8,6.18L20.44,64c-.15,0-.29,0-.44,0a5,5,0,0,0-4.58,3l-2.5.44a2,2,0,1,1-.7-3.94ZM17,69a3,3,0,1,1,3,3A3,3,0,0,1,17,69Zm3.39,5a5,5,0,0,0,2.2-9.21l-.7-4A1,1,0,0,0,20.74,60l-2.33.4a10.67,10.67,0,0,0-1.3-6.76l.07-.25a4.8,4.8,0,0,1,2.28-1.12,5.39,5.39,0,0,1,4,1.06c2.49,1.74,4.39,5.16,5.09,9.14a15.6,15.6,0,0,1-.7,8.55c-1,2.34-2.52,3.81-4.38,4.14a4.84,4.84,0,0,1-2.1-.13C21,74.66,20.7,74.32,20.39,74ZM30,39.28l5.25.38L30,40.5Zm27.28,0a1.29,1.29,0,0,0-.21-.06l-4.61-.33,4.91-.8c.37-.06.73-.1,1.09-.13Zm7.37-.06-5.4.86,1.8-2A12.76,12.76,0,0,1,64.65,39.25ZM57,36.15l-8.42,1.36a9.37,9.37,0,0,0,2.91-3.8.08.08,0,0,0,0,0L64.4,31.4,60.25,36A12.81,12.81,0,0,0,57,36.15ZM50,15a1,1,0,0,0,.79-.41L65.67,12h0c.43-.07,1.19.62,2,2L50.88,16.88c-.29-.65-.6-1.29-.94-1.89ZM51.7,11A1,1,0,0,0,52,11h.17l.14,0a.41.41,0,0,0,.19,0,.49.49,0,0,0,.33-.13L58,10v1.31l-7,1.24V10.73ZM68.33,9c1.93,1.35,3.79,5.45,4.63,10.21s.49,9.25-.86,11.18l0,0-1.2.31a1.53,1.53,0,0,1-1.09-.42,2.92,2.92,0,0,0,.9-.87c1.27-1.8,1.62-5.68.88-9.88-.82-4.67-2.93-9.15-5.49-9.53.3-.54.64-.87,1-.93h.08l.92-.24Zm1.27,10.9c.09.48.15.93.2,1.38l-17,3c-.06-.66-.14-1.31-.26-2,0-.27-.1-.53-.16-.79l17-3C69.42,18.93,69.52,19.38,69.6,19.86ZM52.84,25.25l17-3a19.25,19.25,0,0,1,0,2.83l-17.1,3A22.19,22.19,0,0,0,52.84,25.25ZM62,9.27v1.3l-2,.36V9.62Zm2.45-.43a6.29,6.29,0,0,0-.45.9V8.92ZM65,5.28V6.72L63.17,7A1,1,0,0,0,63,7a1,1,0,0,0-.5.15L53,8.81V7.5a.41.41,0,0,0,0-.16l12-2.09Zm3.1,9.59a18.18,18.18,0,0,1,1,2.65l-16.95,3a23.24,23.24,0,0,0-.85-2.68ZM52.7,29.12l17.08-3a5.5,5.5,0,0,1-.72,2.15.91.91,0,0,1-.45.38h0L52.25,31.51A18.35,18.35,0,0,0,52.7,29.12ZM75.83,18.39C77,25,75.68,29.57,74.26,29.82h0s0,0,0,0l-.76.2c1.09-2.41,1.31-6.57.52-11-.84-4.74-2.62-8.77-4.61-10.52l1.13-.29C71.87,8,74.67,11.8,75.83,18.39ZM57.16,2.66l5.77,1.93L52,6.49l-5.9-1.86ZM44,5l7.85,2.47.15,0V9L46.7,7.29A1,1,0,0,0,46,7a.5.5,0,0,0-.13,0L44,6.44Zm3,4.47,2,.63v2.76l-.41.08A9.39,9.39,0,0,0,47,11.33ZM36.74,12.13a8.07,8.07,0,0,1,8.34.27,1,1,0,0,0,.78.57,7.85,7.85,0,0,1,1.19,1.25l.23.33h0a20.18,20.18,0,0,1,3.26,8.08A18.83,18.83,0,0,1,49.69,33,7.88,7.88,0,0,1,42,37.67l-12-.54v-.36c2.14-1.89,3.5-5.39,3.5-9.27a13.07,13.07,0,0,0-2.89-8.67,6.51,6.51,0,0,0-1.36-2.51ZM26.5,17c1.18,0,2.5,1.85,2.5,4.5S27.68,26,26.5,26,24,24.15,24,21.5,25.32,17,26.5,17ZM21,27.5a13.65,13.65,0,0,1,1-5.28,8.17,8.17,0,0,0,1,3.5A.88.88,0,0,0,23,26v6.57c-.3,0-.66,0-1.06,0A14,14,0,0,1,21,27.5ZM11.69,40.59c1.55-4.28,6-5.54,9.06-5.89A8.77,8.77,0,0,0,23,37.41v5a16.52,16.52,0,0,0-7.26,8.95c-.37-.56-.76-1.12-1.13-1.67C12.42,46.52,10.53,43.8,11.69,40.59ZM2,65.94V61.06A5.07,5.07,0,0,1,7.06,56h7.1a14.94,14.94,0,0,0-1.06,5.32l-1.22.22a4,4,0,0,0,.68,7.94,4.14,4.14,0,0,0,.7-.06l1.32-.24c.23.54.48,1,.74,1.54,0,.09.06.19.1.28H7.06A5.07,5.07,0,0,1,2,65.94ZM22.72,76.21a5.09,5.09,0,0,0,1-.09c2.2-.39,4-2.07,5.12-4.74a16.66,16.66,0,0,0,.76-9.11c-.74-4.23-2.8-7.89-5.5-9.78a6.32,6.32,0,0,0-4.77-1.22,5.91,5.91,0,0,0-1.58.54,14.28,14.28,0,0,1,6.66-7.88l.1-.06a10.41,10.41,0,0,1,2.7-.88l3.34-.54a13.89,13.89,0,0,1,7.62,3.84,23.11,23.11,0,0,1,6.64,12.89c1.55,8.82-1.6,17-7.23,20.34L34,80.38s0,0-.07,0h-.11C30.34,81,26,79,22.7,76.2ZM41,88.66l-6.63-6.33h.05L41,80.74Zm2,1V80.3l5.79-1.43.21-.05v9.35ZM53.07,77.84,60,76.18v8.39ZM68,83.7l-6,1.48V75.83l6-1.49ZM63.51,73.28l-13.7,3.29h-.05l-1.49.37-8.22,2c4.69-4.12,7.12-11.77,5.69-19.91a24.16,24.16,0,0,0-6.93-13.44A16,16,0,0,0,33.11,42L43.9,40.29l9.7.71L44,42.52a.48.48,0,0,0-.33.2.49.49,0,0,0-.09.37L45.18,53a.51.51,0,0,0,.5.42h.08l5.92-.93a.59.59,0,0,0,.33-.2.52.52,0,0,0,.09-.38l-1-6.42,12.84-2,1,6.42a.5.5,0,0,0,.2.33.54.54,0,0,0,.37.09l5.93-.94a.5.5,0,0,0,.41-.57l-.5-3.2a21.63,21.63,0,0,1,2.91,7.71C76,63,71.17,71.92,63.51,73.28Z"/></g></svg>