<svg id="expand" xmlns="http://www.w3.org/2000/svg" viewBox="0 0 168 119"><defs><style>.cls-1{fill:#f2552c;}.cls-2{fill:#084464;}</style></defs><title>icons</title><g id="big_copy" data-name="big copy"><path class="cls-1" d="M159.8,57.68l-.53-.18-6.77-2.59-.7-.23a9.25,9.25,0,0,0-7.07.53l-.29.14s-10.21,5.76-16.88,23.3-3.66,29.65-3.66,29.65,2.89,4.69,5,5.69l.61.26,8,3c7.86,3,19.23-8,25.4-24.45S167.66,60.62,159.8,57.68Zm-.9,33.67c-5.16,13.77-13.79,23.27-19.27,21.21s-5.73-14.88-.57-28.65,13.78-23.26,19.26-21.21S164.06,77.59,158.9,91.35Z"/><path class="cls-2" d="M160.15,56.74l-.53-.17h0L152.82,54l-.67-.22a9.91,9.91,0,0,0-7.21.31c-.11-5.09-1-9-2.5-10.45l-.25-.2a1.16,1.16,0,0,0-.35-.18l-31-9C109.59,22,96.23,17.67,96.11,17.63L44.13.05a1,1,0,0,0-.46,0C28.61,2.13,14.9,11.57,7,25.25A50.63,50.63,0,0,0,1.56,63.42,1,1,0,0,0,2,64l79.74,46.49c.56.37,1.08.66,1.59.94l.31.17,1,.57h0c5.58,3.49,10.22,5.49,14.19,6.1a22.57,22.57,0,0,0,3.36.26c6.72,0,13.19-3.22,20.08-9.91l1.11.5a10.7,10.7,0,0,0,5.08,5.75l8.66,3.28h0a8.76,8.76,0,0,0,3.06.54c3.5,0,7.41-2,11.32-5.71,4.9-4.72,9.27-11.78,12.3-19.87C170.26,75.92,168.66,59.93,160.15,56.74Zm-30.29,56.59-.57-.24a9,9,0,0,1-4.21-5,1.13,1.13,0,0,0-.12-.18c-2.16-6.59-1.31-17.38,2.74-28.17,4.26-11.37,10.88-20.12,17-23.4l.14,0,.28-.13a8.17,8.17,0,0,1,6.34-.5l2.66,1a20.9,20.9,0,0,0-8.37,5.28c-4.9,4.72-9.27,11.78-12.3,19.87-5,13.42-5.17,26.09-1,32.54Zm13.08-59.42-2.89-.79.51-.74a.47.47,0,0,0,.07-.4l-1.17-4.76,1.8-2C141.94,46.16,142.82,49,142.94,53.91ZM108.71,93.53a21.05,21.05,0,0,0,1.1,5.74c-.82-.4-2-1-3-1.41-1.66-1.7-2.74-4.49-3.09-8.17-.51-5.26.52-11.63,2.88-17.94s5.78-11.78,9.62-15.41c2.81-2.67,5.59-4.09,8-4.17L128,53.5c-5.61,2.92-12,10-15.81,20.29C109.56,80.75,108.33,87.76,108.71,93.53Zm-16.3,3.56h0a.39.39,0,0,0-.19-.19L56.32,77.5l3.34-3L99.19,95.18l-4.68,5.49ZM49.58,79.82,88.82,101l1.67,2.84-39.92-22ZM89.06,100,49.3,78.53l2.41-2.39L91.2,97.48ZM60.85,72.86a28.35,28.35,0,0,1,1.29-16c4.92-13.14,17.94-20.45,29-16.3l.36.15v0l30.71,10.83a16.32,16.32,0,0,0-6.74,4.14c-4,3.73-7.45,9.34-9.87,15.79s-3.46,13-2.94,18.38a16.63,16.63,0,0,0,2.26,7.4,7.5,7.5,0,0,1-3.82-3.12,1.33,1.33,0,0,0-.41-.33Zm68-21.17-21-7.41-.39-5.62,31,8.83L139.61,52l-.59.85-4.69-1.27A7.83,7.83,0,0,0,128.88,51.69Zm11.39-6.84-1.52,1.67-31-8.82L109.6,36h0ZM108.9,35.08a.8.8,0,0,0,0,.15l-2.54,2.33a.53.53,0,0,0-.15.49.46.46,0,0,0,.2.27l.4,5.6-15.62-5.5h0c-12-4-25.73,3.77-30.95,17.69A30.21,30.21,0,0,0,59,73.74L55.39,77l-3.53-1.91a.5.5,0,0,0-.59.08l-3.16,3.12a.52.52,0,0,0-.14.43.78.78,0,0,0,.05.14h0l1.57,3.28L45,86.37A48.59,48.59,0,0,1,48.21,43.7C58,26.8,76.74,17,95,19.35l.53.18C95.62,19.57,108.19,23.65,108.9,35.08ZM8.74,26.25A49.2,49.2,0,0,1,43.72,2L88.11,17C71.49,17.59,55.37,27.3,46.48,42.7a50.79,50.79,0,0,0-4.09,42.56l-39-22.74A48.68,48.68,0,0,1,8.74,26.25Zm76.84,84.19-.88-.51L45.62,87.14l4.64-4.26,40.45,22.24L86,110.68l-.29-.18h0Zm13.56,5.89c-3.43-.53-7.47-2.22-12.31-5.13L92,105.14a.5.5,0,0,0,0-.58l-2.27-3.86,2.11-2.5,2.1,3.57a.49.49,0,0,0,.35.24h.08a.5.5,0,0,0,.33-.12l5.2-6.06a8.8,8.8,0,0,0,4.64,3.33,45.38,45.38,0,0,1,5,2.25,9.48,9.48,0,0,0,4.65,3.68v0l6,2.71C112.91,114.79,106.33,117.44,99.14,116.33Zm15.08-13.47v0a7.29,7.29,0,0,1-2.64-2.14,17,17,0,0,1-1.86-7.27c-.38-5.64.83-12.5,3.39-19.33,4.58-12.2,12.61-19.76,18.53-21a5.22,5.22,0,0,1,2.08.32L143.14,56c-6.06,3.77-12.23,12.25-16.38,23.31-4,10.56-4.92,20.9-3.07,27.77Zm47.71-10.41c-2.93,7.82-7.13,14.61-11.82,19.13-4.51,4.33-8.87,6-12.29,4.74h0c-7.2-2.7-8.33-18.19-2.47-33.83,2.93-7.82,7.13-14.61,11.82-19.13,3.52-3.39,7-5.15,9.92-5.15a6.5,6.5,0,0,1,2.37.42C166.66,61.32,167.79,76.81,161.93,92.45Zm-3.26-30.68c-6.08-2.28-15.11,7.29-20.55,21.79s-4.92,27.66,1.16,29.94a5.31,5.31,0,0,0,1.89.34c6,0,13.77-9.07,18.67-22.14C165.27,77.2,164.76,64.05,158.67,61.77Zm2.24,18.75L136.5,104.93a33.8,33.8,0,0,1,.33-8.92L161.55,71.3A37.19,37.19,0,0,1,160.91,80.52Zm-4.15-17.09a3.43,3.43,0,0,1,1.07.17L142.05,79.38C146.79,69.26,152.82,63.43,156.76,63.43ZM140,84.26q.45-1.2.93-2.34l17.85-17.84c1.33,1,2.26,3,2.65,5.93l-24.29,24.3A62.39,62.39,0,0,1,140,84.26Zm1,27.56L154.89,98C150.26,106.93,144.69,112,141,111.82ZM158,91c-.55,1.49-1.14,2.88-1.75,4.22l-16.35,16.35c-1.54-.65-2.64-2.56-3.17-5.41l23.87-23.88A62.38,62.38,0,0,1,158,91Z"/></g></svg>