<svg id="expand" xmlns="http://www.w3.org/2000/svg" viewBox="0 0 114 102"><defs><style>.cls-1{fill:#f2552c;}.cls-2{fill:#084464;}</style></defs><title>icons</title><g id="medium_copy" data-name="medium copy"><polygon class="cls-1" points="110.05 11.15 11.36 9.11 13.37 6.12 13.43 3.98 11.07 1.42 110.24 4.04 111.78 6.48 111.71 8.88 110.05 11.15"/><path class="cls-2" d="M114,25.86a2.54,2.54,0,0,0-2.56-2.49l-3-.07,0-3.48a1.5,1.5,0,0,0-.05-.37h.08l0-3.57a2,2,0,0,0-.55-1.34l2.36-2.41a1,1,0,0,0,.68-.39l1.66-2.27a1,1,0,0,0,.19-.57l.07-2.4a1,1,0,0,0-.16-.56L111.08,3.5a1,1,0,0,0-.82-.46L11.6.44h-.51L5.5.29a1,1,0,0,0-.81.39L2.77,3.16l-.28.22A6.32,6.32,0,0,0,.8,7.77c-.06,3,1.52,5.37,3.61,5.47v.08L8,13.4V75.28a1.89,1.89,0,0,0,.65,1.38,3.93,3.93,0,0,0,2.35,1v1.32a1.91,1.91,0,0,0,.66,1.4,3.78,3.78,0,0,0,2.52.94h.17l.65,0v5.05l-5.91.47a3,3,0,0,0-1.17-.31,3.25,3.25,0,0,0-2.23.93A6.32,6.32,0,0,0,4,91.77C3.94,94.65,5.41,97,7.39,97.21l0,.19,7.43-.61v2.33a2.67,2.67,0,0,0,.85,2,2.59,2.59,0,0,0,1.78.71h.19l13.9-1A2.65,2.65,0,0,0,34,98.1l0-16.69,1.06,0v16a2.63,2.63,0,0,0,.81,1.94,2.38,2.38,0,0,0,1.66.65h.19l13.83-1A2.61,2.61,0,0,0,54,96.32l0-15.17,1-.05,0,15A2.59,2.59,0,0,0,55.86,98a2.68,2.68,0,0,0,1.81.7h.18l13.73-1A2.6,2.6,0,0,0,74,95.17V80.89l1,0V94.92a2.48,2.48,0,0,0,.79,1.82,2.67,2.67,0,0,0,1.83.71h.18l13.75-.93A2.56,2.56,0,0,0,94,94V80.61l1,0V93.74a2.42,2.42,0,0,0,.78,1.77,2.64,2.64,0,0,0,1.84.72h.18l13.77-.9A2.54,2.54,0,0,0,114,92.86ZM94,29.34l1-.95v6.44l-1,1Zm1,13.32-1,1V37.17l1-1ZM94,45l1-1v6.44l-1,1Zm0,7.82,1-1v6.44l-1,.95Zm0,7.83,1-1v6.45l-1,1Zm0,7.83,1-1V74l-1,1Zm0,7.82,1-1v3.21l-1,0Zm1.75-52.49A2.38,2.38,0,0,0,95,25.54V27l-1,1V25.37a2.52,2.52,0,0,0-1.6-2.32l3.91-3.74,6.58.15-3.8,3.63-1.42,0A2.85,2.85,0,0,0,95.76,23.81ZM75,78.84H75l.06-.06ZM55.08,73l-1,1V67.55l1.06-1Zm-1-44.61,1.06-1v6.45l-1.05,1Zm0,7.84,1.06-1v6.45l-1,1Zm0,7.83,1.06-1v6.45l-1,1Zm0,15.67,1.06-1v6.45l-1.05,1Zm1.06-2.4-1.05,1V51.88l1.06-1Zm.81-34.57a2.51,2.51,0,0,0-.77,1.8V26l-1,1V24.38A2.61,2.61,0,0,0,52.56,22l3.76-3.6,6.59.15L59.28,22l-1.47,0A2.78,2.78,0,0,0,55.91,22.75ZM35.09,76.45l-1.06,1,0-6.45,1-1ZM21.54,20.36l3-2.89,4.6.1a.91.91,0,0,1,.8.36v.81l-1.86,1.77Zm-3.85-.09A2.7,2.7,0,0,0,15.8,21a2.66,2.66,0,0,0-.8,1.91v2.3l-2,1.91V20.7l3.57-3.41,6.58.15-3,2.89Zm-2.7,52-2,1.81V67.64l2-1.82ZM13,28.52l2-1.9v6.45L13,35Zm2,35.91-2,1.83V59.82L15,58Zm0-7.84-2,1.85V52l2-1.85Zm0-7.84-2,1.86V44.17l2-1.87Zm0-7.84-2,1.88V36.35l2-1.89Zm-2-21.6V17.54l.06-.08a.92.92,0,0,1,.75-.24l1.34,0ZM12.4,5l0,.81L10.53,8.55a.81.81,0,0,0-.13.3L9.06,11.36,9,11.42l-1.55,0a6.92,6.92,0,0,0,1-3.44,7.21,7.21,0,0,0-.58-3.06ZM12,10.12l95.43,2-1.49,1.51-.41,0L89.35,13.2a3.41,3.41,0,0,0-1.94.54,3.3,3.3,0,0,0-1.88-.62l-16.17-.36a4.05,4.05,0,0,0-1.5.31,3.43,3.43,0,0,0-1.53-.39l-16.17-.37h-.09a3.52,3.52,0,0,0-1.43.31,3.34,3.34,0,0,0-1.51-.38L31,11.87a4,4,0,0,0-1.53.33,3.19,3.19,0,0,0-2.3-1l-15.54-.36ZM30.62,4.36l-.91-1.45,18.84.5,1.14,1.81-.06,2.09L48.49,8.87l-18.8-.38.85-1.17A.47.47,0,0,0,30.63,7l.07-2.4A.54.54,0,0,0,30.62,4.36ZM87.28,6.07l-.06,2.09L86.14,9.65,68.93,9.3l.8-1.09a.47.47,0,0,0,.09-.28l.07-2.4a.54.54,0,0,0-.08-.28L69,4l17.24.45Zm-18.4-.42,0,2.1L67.71,9.27l-18-.37.82-1.13a.48.48,0,0,0,.1-.28l.06-2.4a.48.48,0,0,0-.08-.28l-.86-1.37,18,.48Zm21.2,11.52a3.38,3.38,0,0,0-1.67.4V15.51a1,1,0,0,1,.91-.31l16.16.36a1.18,1.18,0,0,1,.9.33v1.75a3.34,3.34,0,0,0-.78-.12Zm-19.2-.43a3.91,3.91,0,0,0-1.44.31l-.25-.13V15a1.17,1.17,0,0,0,0-.26h.17l16.17.36a1.1,1.1,0,0,1,.9.35v1.62Zm-18.41-.41a3.34,3.34,0,0,0-1.84.51,2.79,2.79,0,0,0-.63-.36l0-1.88a2.4,2.4,0,0,0,0-.28h.16l16.17.37.16,0a1.5,1.5,0,0,0,0,.37v1.58Zm-19.19-.46a3.2,3.2,0,0,0-1.93.59A3,3,0,0,0,30,15.7V14.21a1,1,0,0,1,.91-.34l16.18.37.15,0a1.64,1.64,0,0,0,0,.38v1.55ZM51.6,18.63a.9.9,0,0,1,.82-.3l2.49.06-3.29,3.14Zm19.16.26c0-.05,0-.1,0-.14h.17ZM30,20.11v.44h-.45Zm2.41-1.92a.94.94,0,0,1,.8-.32h0l5.7.13-4.87,4.67a2.67,2.67,0,0,0-1.65-1.9Zm1.66,45,1-1v6.45l-1,1Zm0-15.68,1-1V53l-1,1Zm0-15.67,1-.93v6.44l-1,.94Zm1-7.76V29.5l-1,.93V24l1.39-1.32A2.56,2.56,0,0,0,35.09,24.06Zm0,36.74-1,1V55.33l1-1Zm0-15.65-1,1V39.66l1-.95Zm1.26-23.3,4-3.81,6.58.14-3.56,3.41-5.61-.12A2.89,2.89,0,0,0,36.35,21.85Zm12-3.63h.4c.53,0,.81.27.82.35l0,3.15-4.81-.11Zm16,.38,3.51.08h.1l.07-.83h.15l-.06.63A2.11,2.11,0,0,0,68,19l0,2.47-.74.71-6.59-.15Zm6.47,3.69v-2l1.55-1.48,6.58.15L73.8,23.8a2.63,2.63,0,0,0-2.3-1.49Zm4.26,39.45-1,1V56.27l1-1ZM74,40.61l1-1v6.45l-1,1Zm1-2.36-1,1V32.78l1-1ZM74,64.1l1-1v6.45l-1,1ZM75,71V77.4l-1,1V71.93Zm0-17-1,1V48.44l1-1Zm.78-30.63a2.44,2.44,0,0,0-.76,1.77v5.37l-1,1V25l6.27-6,6,.13a1.49,1.49,0,0,1,.47.1l-3.63,3.46-5.44-.12A2.8,2.8,0,0,0,75.83,23.28Zm11.35-3.05v2.51l-2.58,0Zm2,2.56,0-3.33a.91.91,0,0,1,.83-.29l4.88.11-3.72,3.55Zm15.11-3.3,1.22,0a1,1,0,0,1,.82.32l0,3.41-5.86-.13Zm6.44-12.74,0,1.79-1.17,1.6-22.2-.46.77-1a.48.48,0,0,0,.1-.28L88.28,6a.46.46,0,0,0-.08-.28l-.77-1.23L109.68,5ZM28.51,2.88l1.18,1.89-.05,2.09-1.17,1.6L13.21,8.14l1-1.47a.9.9,0,0,0,.17-.53L14.43,4a1,1,0,0,0-.27-.7l-.75-.83ZM10.62,2.41l.5.55L6.06,2.84a3.17,3.17,0,0,0-.38-.17L6,2.31ZM2.8,7.81a5.21,5.21,0,0,1,.51-2.16l0,0,.83-1.07a1,1,0,0,1,.44-.15v.35l.8,0a4.28,4.28,0,0,1,1,3.07,4.41,4.41,0,0,1-1.07,3,1.26,1.26,0,0,1-.8.37C3.68,11.23,2.76,9.76,2.8,7.81ZM10,75.19V13.64l.1,0,.43-.82a1.17,1.17,0,0,1,.38,0l16.18.37a1,1,0,0,1,.89.37l0,2-14.14-.33a3.1,3.1,0,0,0-2.2.81A2.11,2.11,0,0,0,11,17.54V75.61A1.84,1.84,0,0,1,10,75.19Zm4.25,4.08A2.43,2.43,0,0,1,13,78.92V75.47l2-1.81v5.58ZM6,91.81a4.39,4.39,0,0,1,1.07-3,1.37,1.37,0,0,1,.5-.31l0,.37,1-.08a4.3,4.3,0,0,1,1,3.09,4.41,4.41,0,0,1-1.07,3,1.17,1.17,0,0,1-.8.37C6.88,95.23,6,93.76,6,91.81Zm4.81,3.3a7.17,7.17,0,0,0,.79-3.17,7,7,0,0,0-.72-3.32L15,88.3v6.48ZM32,98.1a.66.66,0,0,1-.59.66l-13.9,1a.64.64,0,0,1-.46-.17.66.66,0,0,1-.21-.49L17,22.93a.67.67,0,0,1,.2-.48.6.6,0,0,1,.43-.18h0l1.58,0,.13.13.13-.13,7.66.18.17.17.17-.16,2.51.05v.11h1.76a.68.68,0,0,1,.37.6Zm2-18.69v-.57l1.06-1v1.53ZM52,96.32a.62.62,0,0,1-.57.6l-13.82,1a.38.38,0,0,1-.34-.11.69.69,0,0,1-.27-.48V24.06c0-.16.15-.31.27-.42a.61.61,0,0,1,.43-.17h0l13.78.31a.6.6,0,0,1,.6.6Zm2-17.18V75.39l1-1V79.1Zm18,16a.58.58,0,0,1-.56.55l-13.73,1a.7.7,0,0,1-.71-.56V24.56c0-.19.25-.32.31-.38a.59.59,0,0,1,.44-.18h0l13.69.31a.59.59,0,0,1,.59.56ZM92,94a.57.57,0,0,1-.56.52l-13.75.92a.72.72,0,0,1-.51-.17.52.52,0,0,1-.18-.36V25.05c0-.16.16-.27.22-.34a.7.7,0,0,1,.46-.18h0l13.72.31a.58.58,0,0,1,.6.53Zm19.44-.67-13.77.89a.68.68,0,0,1-.52-.18.4.4,0,0,1-.15-.31V25.54a.43.43,0,0,1,.15-.3.71.71,0,0,1,.48-.18h0l9.57.21,4.16.1c.33,0,.62.22.62.49v67A.55.55,0,0,1,111.44,93.34Z"/></g></svg>