<svg id="expand" xmlns="http://www.w3.org/2000/svg" viewBox="0 0 140 107"><defs><style>.cls-1{fill:#084464;}</style></defs><title>icons</title><g id="icons"><path class="cls-1" d="M28.35,41.21s8.69,0,8.24,8.84a3.92,3.92,0,0,1,3.76-3.25c-1.73,1-3.69,6.56-.36,10.57,1.2,1.45,3.06,3,5.24,2.88a11.54,11.54,0,0,1-10.46-4.33C29.55,49.51,35.58,44.36,28.35,41.21Zm70.3,16.16c-1.2,1.45-3.06,3-5.23,2.88a11.52,11.52,0,0,0,10.45-4.33c5.22-6.41-.81-11.56,6.42-14.71,0,0-8.68,0-8.24,8.84A3.91,3.91,0,0,0,98.3,46.8C100,47.8,102,53.36,98.65,57.37ZM69.4,64.26a1.73,1.73,0,1,0-1.71-1.72A1.72,1.72,0,0,0,69.4,64.26Zm0-9.55C69,56.5,68.33,57,67.54,57.41a3.92,3.92,0,0,1,1.86,2.71,3.86,3.86,0,0,1,1.86-2.71C70.46,57,69.84,56.5,69.4,54.71Zm1.86,12.9a4.7,4.7,0,0,1-1.86-2.7,4.7,4.7,0,0,1-1.86,2.7,4.79,4.79,0,0,1,1.86,2.71A4.79,4.79,0,0,1,71.26,67.61Zm-4.35-4.94a4.1,4.1,0,0,1-2.7-1.86,3.89,3.89,0,0,1-2.71,1.86,4,4,0,0,1,2.71,1.86C64.71,63.3,65.76,63.07,66.91,62.67Zm7.68,1.86a4,4,0,0,1,2.7-1.86,3.9,3.9,0,0,1-2.7-1.86,4.12,4.12,0,0,1-2.7,1.86C73,63.07,74.09,63.3,74.59,64.53Zm-9.77,6.31c-.14,2.39-2.14,5.36-4.53,6-2.75.8-4.08-.36-5.86-.73a2.16,2.16,0,0,0-2.69,2.74c.55,2.48,3.76,2,3.89.76s-1.36-1.1-1.36-1.1c.71,1.21-1.55,1.42-1.62,0,.05-.73.73-1.9,2.9-.68a10.28,10.28,0,0,0,4.64,1.2c6.65.24,8.74-7.56,8.74-7.56A14.08,14.08,0,0,1,64.82,70.84Zm18.43,7c2.16-1.22,2.84,0,2.89.68-.07,1.42-2.32,1.21-1.61,0,0,0-1.5-.25-1.36,1.1s3.33,1.72,3.89-.76a2.16,2.16,0,0,0-2.69-2.74c-1.78.37-3.11,1.53-5.87.73-2.39-.69-4.38-3.66-4.52-6a14.17,14.17,0,0,1-4.11.68s2.08,7.8,8.74,7.56A10.31,10.31,0,0,0,83.25,77.88ZM59,76.09c4.13-.55,5-5.54,5-5.54a6.46,6.46,0,0,1-3.49-2.32,15.33,15.33,0,0,1-.36,3.66c-.66,2.86-3.44,2.79-3.37,1.56,0-.94,1.28-.77,1.48-.47a1.44,1.44,0,0,0-2.4-.13C55.19,73.7,55.25,76.59,59,76.09Zm20.79,0c3.76.5,3.82-2.39,3.17-3.24a1.44,1.44,0,0,0-2.4.13c.21-.3,1.43-.47,1.49.47.07,1.23-2.71,1.3-3.37-1.56a14.19,14.19,0,0,1-.36-3.66,6.5,6.5,0,0,1-3.5,2.32S75.66,75.54,79.79,76.09ZM43.46,51.79c5.65,2.13,1.23,6.3,5.47,11a8.8,8.8,0,0,0,8.16,2.9,7.1,7.1,0,0,1-4.12-2c-2.89-2.76-1.42-7.27-.13-8.1a3,3,0,0,0-2.75,2.63C50.09,51.45,43.46,51.79,43.46,51.79Zm46.41,11c4.24-4.7-.18-8.87,5.47-11,0,0-6.64-.34-6.64,6.44A3,3,0,0,0,86,55.6c1.28.83,2.75,5.34-.14,8.1a7.06,7.06,0,0,1-4.11,2A8.81,8.81,0,0,0,89.87,62.79Zm-1,3.49a16.84,16.84,0,0,1,8-1.46c7.17.58,10.51,5.69,9.74,7.51,3.11-2.4.65-4.7.65-4.7,8,6.37,16.67.67,16.67.67-10.24,2.58-9.11-4.92-20.46-5.9C93.82,61.56,88.86,66.28,88.86,66.28ZM30.72,67.63s-2.46,2.3.65,4.7c-.77-1.82,2.57-6.93,9.74-7.51a16.84,16.84,0,0,1,8,1.46s-5-4.72-14.58-3.88c-11.35,1-10.22,8.48-20.47,5.9C14,68.3,22.72,74,30.72,67.63ZM69.4,74.86s-.52,2.19-2,2.89a6.31,6.31,0,0,1,2,4.39,6.35,6.35,0,0,1,2-4.39C69.92,77.05,69.4,74.86,69.4,74.86Zm-14.77-3c3.28-.6,6.27-2.77,5.2-5.4s-2.94-7.13.13-7.62a1.31,1.31,0,0,0-.33.88A1.33,1.33,0,0,0,61,61c1.28,0,2.09-1.57,1.15-3.06s-2.91-1.23-3.85-.74c-1.64.86-1.71,3.07-1.18,4.29a8.67,8.67,0,0,1,1,2.79,5.48,5.48,0,0,1-4.4,6s-2.41.42-2.07-1.23a1.05,1.05,0,0,1,1.47-.54,1.39,1.39,0,0,0-2.6-.32C49.43,69.9,51.15,72.44,54.63,71.81Zm33.65-3.58a1.4,1.4,0,0,0-2.61.32,1.05,1.05,0,0,1,1.47.54c.35,1.65-2.07,1.23-2.07,1.23a5.5,5.5,0,0,1-4.4-6,8.72,8.72,0,0,1,1-2.79c.52-1.22.45-3.43-1.18-4.29-.94-.49-2.93-.74-3.86.74s-.13,3,1.16,3.06a1.33,1.33,0,0,0,1.34-1.34,1.37,1.37,0,0,0-.33-.88c3.06.49,1.17,5.05.13,7.62s1.91,4.8,5.19,5.4C87.64,72.44,89.37,69.9,88.28,68.23ZM71.14,2.81,69.6.71l-1.54,2.1L69.6,4.74ZM49.26,20.42C53,22,55.2,18.26,55.2,18.26c-.42,1,.89,2.16.89,2.16,0-1.16,1-3.24,5.6-4.09s4.59-4.67,4.59-4.67c-.65,1.88-2.1,3.24-7,2.31-5.47-1-5.6,1.74-8.38,3.71s-5.13-1.16-5.13-1.16A7.09,7.09,0,0,0,49.26,20.42Zm39-2.74c-2.78-2-2.91-4.74-8.37-3.71-4.89.93-6.33-.43-7-2.31,0,0,0,3.82,4.59,4.67s5.56,2.93,5.6,4.09c0,0,1.31-1.2.89-2.16,0,0,2.16,3.7,5.94,2.16a7.13,7.13,0,0,0,3.48-3.9S91.06,19.65,88.28,17.68ZM47.59,13.29h0c2,1.56,4.75-.25,5.14-.72-.58.42-2.86,1.11-3.88.64a.91.91,0,0,0,.26-.64.93.93,0,0,0-1.86,0,.9.9,0,0,0,.34.71Zm42.51-.71a.9.9,0,0,0,.25.64c-1,.47-3.29-.22-3.88-.64.39.47,3.14,2.28,5.14.72h0a.92.92,0,1,0-1.52-.71ZM69.6,18.64a1,1,0,0,0,0-1.93,1,1,0,0,0,0,1.93ZM53.43,9.52a1.05,1.05,0,0,0-2.1,0,1.2,1.2,0,0,0,.1.47h0a1.56,1.56,0,0,1-2.06-1c-.43-1.43.85-3.74,5-2.78s4.88,5.11,7.1,6c5,2.07,6.38-4.86,2.91-4.86a1.06,1.06,0,0,0,0,2.12,1,1,0,0,0,.78-.34.93.93,0,0,1,.15.88c-.26,1.35-2.75,2.31-4.21,1s-5.73-7.51-11-5.15c0,0-2.86,1.42-1.93,4.05C49,12.24,53.43,12.44,53.43,9.52Zm24.32,2.75c2.21-.91,3-5,7.1-6s5.4,1.35,5,2.78a1.56,1.56,0,0,1-2.06,1h0a1.05,1.05,0,1,0-2-.47c0,2.92,4.45,2.72,5.25.44.93-2.63-1.93-4.05-1.93-4.05-5.25-2.36-9.4,3.72-11,5.15s-4,.36-4.21-1a1,1,0,0,1,.15-.88,1.06,1.06,0,0,0,1.84-.72,1.06,1.06,0,0,0-1.06-1.06C71.36,7.41,72.73,14.34,77.75,12.27ZM69.6,8.47a3.25,3.25,0,0,0,3-1.43C73.79,5.26,72.5,3.69,71.26,4c-.92.21-.76,1.09-.15,1.39a.63.63,0,0,1,1.12-.26c.7.68-.12,2.79-2.63,2.77S66.28,5.79,67,5.11a.63.63,0,0,1,1.12.26c.61-.3.78-1.18-.15-1.39C66.7,3.69,65.41,5.26,66.56,7A3.25,3.25,0,0,0,69.6,8.47ZM64,10.07a2.25,2.25,0,0,1-2-3,3,3,0,0,1,1.59-1.66s-1.6.34-2.18-.84C60.71,3,62,1,64.37,0c0,0-6.13,1.48-5.27,6.19C59.76,9.76,63,10.56,64,10.07ZM77.76,4.53c-.58,1.18-2.18.84-2.18.84A3,3,0,0,1,77.18,7a2.26,2.26,0,0,1-2,3c1,.49,4.26-.31,4.92-3.88C81,1.48,74.83,0,74.83,0,77.2,1,78.49,3,77.76,4.53ZM69.6,22.34a3.85,3.85,0,0,1,1.54-1.54,3.5,3.5,0,0,1-1.54-1.53,3.45,3.45,0,0,1-1.54,1.53A3.85,3.85,0,0,1,69.6,22.34Zm0-6.12a4,4,0,0,1,1.58-1.57,4.12,4.12,0,0,1-1.58-1.58A4.17,4.17,0,0,1,68,14.65,4,4,0,0,1,69.6,16.22Zm-3.65,0a3.71,3.71,0,0,1-1.58,1.58A3,3,0,0,1,66,19.38a3.17,3.17,0,0,1,1.57-1.58A3.85,3.85,0,0,1,66,16.22Zm8.88,1.58a3.63,3.63,0,0,1-1.57-1.58,3.94,3.94,0,0,1-1.58,1.58,3.22,3.22,0,0,1,1.58,1.58A3,3,0,0,1,74.83,17.8Zm-3.65-7.06A3.85,3.85,0,0,1,69.6,9.17,3.89,3.89,0,0,1,68,10.74a4,4,0,0,1,1.57,1.58A4,4,0,0,1,71.18,10.74ZM69.44,106c2.94-.3,3.28-2.56,3.28-2.56A3.73,3.73,0,0,0,69.44,106Zm-3.54-2.56s.33,2.26,3.27,2.56A3.73,3.73,0,0,0,65.9,103.44Zm3.54.52A2.56,2.56,0,0,0,71.93,102,2.6,2.6,0,0,0,69.44,104ZM66.68,102A2.56,2.56,0,0,0,69.17,104,2.59,2.59,0,0,0,66.68,102Zm2.76,0a2.11,2.11,0,0,0,2.24-1.39A2.07,2.07,0,0,0,69.44,102.06Zm-2.51-1.39a2.11,2.11,0,0,0,2.24,1.39A2.07,2.07,0,0,0,66.93,100.67Zm2.38-2.34a1.65,1.65,0,0,0,0,2.49A1.66,1.66,0,0,0,69.31,98.33ZM50,75H0v1H50Zm40,0v1h50V75ZM0,103H64v-1H0Zm74,0h66v-1H74ZM92.17,21l-.27.19-.26.19-.29.19.21.28a27.51,27.51,0,0,1,3.1,27.85l-.21.48h1.09l.09-.2a28.48,28.48,0,0,0-3.27-28.71ZM43.44,50.13H44l.54,0-.22-.49a27.5,27.5,0,0,1,3.18-27.95l.2-.28-.28-.2-.26-.19-.26-.19-.2.26a28.47,28.47,0,0,0-3.35,28.81Zm7.49-27.65-.6-.08A6.28,6.28,0,0,1,49,22.08L48.76,22l-.15.19a26.32,26.32,0,0,0-2.69,28.1l.06.13.14,0a8.44,8.44,0,0,1,1.88.77l1.08.61-.63-1.07a24.36,24.36,0,0,1,2.1-27.83ZM90.06,51.6l1-.52a8.22,8.22,0,0,1,1.82-.67l.15,0,.07-.14a26.36,26.36,0,0,0-2.68-28l-.15-.19-.22.07a6.33,6.33,0,0,1-1.37.29l-.62.06.39.48a24.37,24.37,0,0,1,2.17,27.66ZM40.45,90.37h.86a6.46,6.46,0,0,0,2.87-.55,3.33,3.33,0,0,0,2-3.09,2.91,2.91,0,0,0-.5-1.69,3.25,3.25,0,0,0-1.52-1.12,6.78,6.78,0,0,0-2.5-.41l-1.1,0-1.45,0c-1.1,0-1.92,0-2.47,0v.32a2.61,2.61,0,0,1,.79.13.61.61,0,0,1,.34.38,3.22,3.22,0,0,1,.09.89V93.3a3.17,3.17,0,0,1-.09.89.59.59,0,0,1-.34.38,2.61,2.61,0,0,1-.79.13V95l2.57,0c.65,0,1.64,0,3,0v-.35a5.39,5.39,0,0,1-1.12-.11.75.75,0,0,1-.49-.41,2.43,2.43,0,0,1-.13-1Zm.7-.33h-.7V85.22a3.76,3.76,0,0,1,.07-.87.61.61,0,0,1,.29-.41,1.36,1.36,0,0,1,.65-.12,1.68,1.68,0,0,1,1.55.75,5.74,5.74,0,0,1,0,4.62A2,2,0,0,1,41.15,90Zm13.38,4-2.86-7.36h-.81l-2.68,6.88c-.29.75-.62,1.16-1,1.23V95c.23,0,.53,0,.89,0l1.46,0v-.23a1.53,1.53,0,0,1-.78-.19.68.68,0,0,1-.26-.61,4,4,0,0,1,.32-1.31l.31-.81h2.56l.71,1.93a1.93,1.93,0,0,1,.14.56.32.32,0,0,1-.19.32,1.74,1.74,0,0,1-.63.11V95c.38,0,1,0,1.78,0s1.32,0,1.79,0v-.23a.65.65,0,0,1-.39-.19A1.38,1.38,0,0,1,54.53,94Zm-2.94-2.4H49.2l1.22-3.18ZM65,86.94V86.7c-.4,0-1,0-1.86,0s-1.36,0-1.77,0v.24a1.71,1.71,0,0,1,.54.08.39.39,0,0,1,.25.22,1.46,1.46,0,0,1,.09.51l-3.35,5.67V88A2.53,2.53,0,0,1,59,87.3a.43.43,0,0,1,.24-.27,1.79,1.79,0,0,1,.58-.09V86.7c-.42,0-1,0-1.78,0s-1.45,0-1.85,0v.24a1.77,1.77,0,0,1,.57.09.41.41,0,0,1,.24.27,2.08,2.08,0,0,1,.07.65v5.83a2,2,0,0,1-.07.64.4.4,0,0,1-.24.28,1.77,1.77,0,0,1-.57.09V95c.4,0,1,0,1.85,0s1.36,0,1.78,0v-.23a2.08,2.08,0,0,1-.55-.08.4.4,0,0,1-.25-.24,1.9,1.9,0,0,1-.08-.53l3.35-5.67v5.51a2.44,2.44,0,0,1-.06.64.44.44,0,0,1-.25.28,1.77,1.77,0,0,1-.57.09V95q.61,0,1.77,0T65,95v-.23a1.77,1.77,0,0,1-.57-.09.44.44,0,0,1-.25-.28,2.44,2.44,0,0,1-.06-.64V88a2.53,2.53,0,0,1,.06-.65.45.45,0,0,1,.25-.27A1.77,1.77,0,0,1,65,86.94Zm-2.58-3a1.09,1.09,0,0,0-.69.21.7.7,0,0,0-.26.57.65.65,0,0,0,.19.48,1.13,1.13,0,0,0,.51.27,2.67,2.67,0,0,1-.75.22,5.2,5.2,0,0,1-1.7,0,3,3,0,0,1-.76-.2,1.09,1.09,0,0,0,.53-.28.66.66,0,0,0,.2-.49.71.71,0,0,0-.27-.57,1.08,1.08,0,0,0-.68-.21,1,1,0,0,0-.67.21.73.73,0,0,0-.26.56q0,.51.69.87a5.43,5.43,0,0,0,4.14,0c.47-.24.71-.53.71-.87a.71.71,0,0,0-.27-.56A1,1,0,0,0,62.44,83.92Zm3.89,5.67h.27A6.76,6.76,0,0,1,67.09,88a1.83,1.83,0,0,1,.67-.82,1.72,1.72,0,0,1,1-.25H69v6.72a1.81,1.81,0,0,1-.1.71.51.51,0,0,1-.35.3,2.64,2.64,0,0,1-.81.09V95l2.16,0,2.23,0v-.23a2.61,2.61,0,0,1-.8-.09.55.55,0,0,1-.36-.3,2,2,0,0,1-.1-.71V87h.27a1.72,1.72,0,0,1,1,.25,2,2,0,0,1,.67.82,6.34,6.34,0,0,1,.48,1.55h.27a7.85,7.85,0,0,1,0-.89c0-.54,0-1.2.08-2-.7,0-1.91,0-3.62,0s-2.92,0-3.63,0c.06.8.08,1.46.08,2A7.85,7.85,0,0,1,66.33,89.59ZM78.8,88.16V85a2.38,2.38,0,0,1,.08-.76.47.47,0,0,1,.3-.31,2.19,2.19,0,0,1,.74-.09h.48a2.37,2.37,0,0,1,1.22.3,2.29,2.29,0,0,1,.87,1A7,7,0,0,1,83.06,87h.38a7.26,7.26,0,0,1-.06-1.1c0-.73,0-1.54.12-2.41-.64,0-1.71,0-3.21,0-2.36,0-4.13,0-5.3,0v.32a2.61,2.61,0,0,1,.79.13.64.64,0,0,1,.34.38,3.22,3.22,0,0,1,.09.89V93.3a3.17,3.17,0,0,1-.09.89.62.62,0,0,1-.34.38,2.61,2.61,0,0,1-.79.13V95c.55,0,1.34,0,2.38,0h1.42l1,0a6.64,6.64,0,0,0,2.63-.45A3.28,3.28,0,0,0,84,93.35a3.2,3.2,0,0,0,.48-1.74,3.06,3.06,0,0,0-2-3,6.63,6.63,0,0,0-2.73-.47Zm0,5.14V88.49h.63a2.27,2.27,0,0,1,1.41.39A2,2,0,0,1,81.57,90a6.08,6.08,0,0,1,.21,1.72,6.39,6.39,0,0,1-.18,1.65,2,2,0,0,1-.64,1,1.92,1.92,0,0,1-1.23.36,1.13,1.13,0,0,1-.59-.12.65.65,0,0,1-.27-.41A3.76,3.76,0,0,1,78.8,93.3Zm16.25-6.36V86.7c-.4,0-1,0-1.86,0s-1.36,0-1.77,0v.24A1.71,1.71,0,0,1,92,87a.39.39,0,0,1,.25.22,1.46,1.46,0,0,1,.09.51L89,93.42V88A2.53,2.53,0,0,1,89,87.3a.46.46,0,0,1,.24-.27,1.79,1.79,0,0,1,.58-.09V86.7c-.42,0-1,0-1.78,0s-1.45,0-1.85,0v.24a1.77,1.77,0,0,1,.57.09.41.41,0,0,1,.24.27,2.08,2.08,0,0,1,.07.65v5.83a2,2,0,0,1-.07.64.4.4,0,0,1-.24.28,1.77,1.77,0,0,1-.57.09V95c.4,0,1,0,1.85,0s1.36,0,1.78,0v-.23a2.08,2.08,0,0,1-.55-.08.4.4,0,0,1-.25-.24,1.9,1.9,0,0,1-.08-.53l3.35-5.67v5.51a2.44,2.44,0,0,1-.06.64.44.44,0,0,1-.25.28,1.77,1.77,0,0,1-.57.09V95q.61,0,1.77,0t1.86,0v-.23a1.77,1.77,0,0,1-.57-.09.44.44,0,0,1-.25-.28,2.44,2.44,0,0,1-.06-.64V88a2.53,2.53,0,0,1,.06-.65.45.45,0,0,1,.25-.27A1.77,1.77,0,0,1,95.05,86.94Zm2-.27h-.27c0,.54.06,1.44.06,2.72h.27a3.94,3.94,0,0,1,.28-1.28,2.15,2.15,0,0,1,.68-.9,1.78,1.78,0,0,1,1.08-.33,1.22,1.22,0,0,1,1,.39,2,2,0,0,1,.32,1.25,3,3,0,0,1-.24,1.26,1.58,1.58,0,0,1-.86.78,3.09,3.09,0,0,0-.49-.08c-.18,0-.27.07-.27.19s.08.2.24.2a1.12,1.12,0,0,0,.51-.15,1.44,1.44,0,0,1,.87.31,1.72,1.72,0,0,1,.53.76,2.8,2.8,0,0,1,.17,1,2.12,2.12,0,0,1-.54,1.57,2,2,0,0,1-1.52.55,3.83,3.83,0,0,1-.93-.11,1.85,1.85,0,0,1-.63-.3,1.35,1.35,0,0,0,.67-.36.92.92,0,0,0,.24-.63.94.94,0,0,0-.26-.7.92.92,0,0,0-.67-.24,1.06,1.06,0,0,0-.5.12.87.87,0,0,0-.37.34.92.92,0,0,0-.13.51,1.06,1.06,0,0,0,.18.6,1.62,1.62,0,0,0,.47.47,3.46,3.46,0,0,0,2.11.56,5.55,5.55,0,0,0,1.79-.28,3.34,3.34,0,0,0,1.37-.83,1.81,1.81,0,0,0,.53-1.29,1.65,1.65,0,0,0-.47-1.18,2.91,2.91,0,0,0-1.2-.74,4.9,4.9,0,0,0-1.53-.25,6.18,6.18,0,0,0,1.29-.45,3.4,3.4,0,0,0,1-.77,1.71,1.71,0,0,0,.42-1.09,1.43,1.43,0,0,0-.34-.94,2.1,2.1,0,0,0-1-.62,4.22,4.22,0,0,0-1.39-.22,3.37,3.37,0,0,0-.84.09,2.64,2.64,0,0,0-.57.21c-.15.08-.33.2-.55.34l-.17.1a.23.23,0,0,1-.11,0,.21.21,0,0,1-.19-.15A2.15,2.15,0,0,1,97.1,86.67ZM64.66,34.58h1.11a8.4,8.4,0,0,0,3.73-.71,4.49,4.49,0,0,0,2-1.78,4.62,4.62,0,0,0,.59-2.23,3.74,3.74,0,0,0-.65-2.18,4.26,4.26,0,0,0-2-1.46,8.92,8.92,0,0,0-3.23-.52l-1.43,0-1.87,0c-1.43,0-2.49,0-3.2-.07v.43a3.16,3.16,0,0,1,1,.16.77.77,0,0,1,.44.49,4.53,4.53,0,0,1,.11,1.16V38.37a4.53,4.53,0,0,1-.11,1.16.77.77,0,0,1-.44.49,3.16,3.16,0,0,1-1,.16v.43l3.32-.06c.85,0,2.13,0,3.86.06v-.47A5.45,5.45,0,0,1,65.47,40a1,1,0,0,1-.64-.52,3.36,3.36,0,0,1-.17-1.23Zm.9-.43h-.9V27.92a4.61,4.61,0,0,1,.1-1.14.79.79,0,0,1,.37-.53,2,2,0,0,1,.84-.14,2.18,2.18,0,0,1,2,1,5.78,5.78,0,0,1,.61,3,5.84,5.84,0,0,1-.65,3A2.51,2.51,0,0,1,65.56,34.15Zm6.34,8.41V38.51a3.31,3.31,0,0,1,.1-1,.65.65,0,0,1,.39-.42,3.2,3.2,0,0,1,1-.1H74a3.07,3.07,0,0,1,1.59.38,3,3,0,0,1,1.12,1.27,8.51,8.51,0,0,1,.74,2.41h.5a9.63,9.63,0,0,1-.08-1.43c0-1,.06-2,.16-3.12-.83,0-2.22.06-4.16.06q-4.59,0-6.86-.06v.42a3.09,3.09,0,0,1,1,.17.75.75,0,0,1,.44.49,4,4,0,0,1,.12,1.16V49.21a4,4,0,0,1-.12,1.15.76.76,0,0,1-.44.5A3.14,3.14,0,0,1,67,51v.43c.71-.05,1.74-.07,3.07-.07l1.84,0c.61,0,1.06,0,1.36,0a8.65,8.65,0,0,0,3.42-.58,4.22,4.22,0,0,0,2-1.57A4.07,4.07,0,0,0,79.25,47a4.29,4.29,0,0,0-.6-2.24,4.14,4.14,0,0,0-2-1.61,8.68,8.68,0,0,0-3.54-.62Zm0,6.65V43h.82a3,3,0,0,1,1.82.49,2.66,2.66,0,0,1,.94,1.41,7.8,7.8,0,0,1,.28,2.22,8,8,0,0,1-.24,2.14,2.48,2.48,0,0,1-.82,1.32,2.54,2.54,0,0,1-1.6.46,1.56,1.56,0,0,1-.77-.15.79.79,0,0,1-.34-.53A5.25,5.25,0,0,1,71.9,49.21Z"/></g></svg>