<svg id="expand" xmlns="http://www.w3.org/2000/svg" viewBox="0 0 101 78"><defs><style>.cls-1{fill:#f2552c;}.cls-2{fill:#084464;}</style></defs><title>icons</title><g id="small_copy" data-name="small copy"><polygon class="cls-1" points="69 59 7 36 7 29 21 22 79 41 100 21 100 28.09 69 59"/><path class="cls-2" d="M101,13.86h0a1,1,0,0,0-1-.84.5.5,0,0,0-.13,0L49.16.45a1,1,0,0,0-.69.07l-27.92,14a1,1,0,0,0-.55,1,.09.09,0,0,1,0,0s0,.05,0,.07v4.29l-4.23,2a3.57,3.57,0,0,0-2,2.68L6.56,28A1,1,0,0,0,6,29v6.33L.56,37.94a1,1,0,0,0-.56,1s0,0,0,0S0,39,0,39v9.84a1,1,0,0,0,.6.92l64,27.65h0a1,1,0,0,0,.39.08,1,1,0,0,0,.39-.08,1,1,0,0,0,.32-.22h0l35-36.39a1,1,0,0,0,.28-.69V14A.7.7,0,0,0,101,13.86ZM8,30.35l5.15,1.79L9.5,35.79,8,35.24Zm6.2,2.15,6.37,2.22-3.73,3.74-6.3-2.29Zm7.42,2.58L28,37.3l-3.82,3.82-6.3-2.29ZM29,37.66l6.37,2.22L31.5,43.79,25.21,41.5Zm7.42,2.58,6.37,2.22-4,4-6.29-2.29Zm7.42,2.58L50.25,45l-4.08,4.09-6.3-2.29ZM51.3,45.4l6.37,2.22L53.5,51.8l-6.3-2.3ZM58.72,48l6.37,2.22-4.26,4.26-6.3-2.29Zm7.42,2.58,1.86.65v5.86l-6.13-2.23ZM76.26,36.37a1,1,0,0,0-1.41,0L73.05,38l-3.27-1.07,4.38-4.38L78,33.71v3.58l-1.75,1.76-1-.34,1-.93A1,1,0,0,0,76.26,36.37ZM68,33.89a1,1,0,0,0-1.41-.11L64.82,35.3l-2.57-.84,4.24-4.24,6.59,2-4.37,4.36L67.05,36l.86-.73A1,1,0,0,0,68,33.89Zm-6.65-2a1,1,0,0,0-1.4-.18l-1.8,1.39L54.71,32l4.11-4.1,6.58,2-4.22,4.22-.72-.23.73-.57A1,1,0,0,0,61.37,31.91Zm-8.28-2.49a1,1,0,0,0-1.4-.24l-1.76,1.24-2.75-.9,4-4,6.59,2-4.08,4.08L52.3,31.2l.54-.38A1,1,0,0,0,53.09,29.42Zm-6.62-3a1,1,0,0,0-1.38-.3l-2.78,1.78-2.66-.87,3.82-3.82,6.59,2-3.94,3.94-1.36-.45,1.41-.9A1,1,0,0,0,46.47,26.45Zm-12.26.93,5.92,1.94-3.36,2.15a5,5,0,0,1-4.44.47,1.78,1.78,0,0,1-1.19-1.55,1.83,1.83,0,0,1,.91-1.76ZM38.12,24a1,1,0,0,0-1.36-.36L34,25.2l-1.86-.61,3.68-3.68,6.58,2-3.8,3.8-2-.68,1.23-.72A1,1,0,0,0,38.12,24Zm-6.57-2a1,1,0,0,0-1.35-.41l-2.79,1.47-2.83-.93,3.54-3.54,6.59,2-3.66,3.66-1-.33,1.09-.57A1,1,0,0,0,31.55,22Zm-8.4-2.51A1,1,0,0,0,22,19V16.73l5,1.52-3.52,3.52L22,21.28v-.14l.68-.33A1,1,0,0,0,23.15,19.48Zm-1.87,3.66,3.66,1.2-4.11,2.17a5,5,0,0,1-4.07.25,1.59,1.59,0,0,1-1-1Zm35,11.46-3.59,2.78a5.1,5.1,0,0,1-4.81.73,2,2,0,0,1-.44-3.47l2.84-2Zm15.12,5-2.85,2.67a5,5,0,0,1-5.15,1l-.17-.07a2,2,0,0,1-.6-3.39l2.65-2.26ZM78,38.71v.91l-.69-.23Zm2-5.3L99,16.34v4.32l-19,18Zm19-10v4.25L70,56.12V51s0,0,0-.06ZM49,2.48l48.9,12.13L78.75,31.85,23.69,15.15ZM14,26.67a3.57,3.57,0,0,0,2.07,2,6.79,6.79,0,0,0,2.46.45,7,7,0,0,0,3.26-.81l5.82-3.06,4.07,1.34-.61.36a3.83,3.83,0,0,0,.59,6.91,7.06,7.06,0,0,0,2.44.44,6.92,6.92,0,0,0,3.77-1.11l4.74-3,5.3,1.74L46.26,33a4,4,0,0,0,.91,7,7.1,7.1,0,0,0,2.43.43A6.89,6.89,0,0,0,53.89,39l4.66-3.61L63,36.82l-1.72,1.47a4,4,0,0,0,1.19,6.78l.17.07a7.08,7.08,0,0,0,2.46.45,6.94,6.94,0,0,0,4.76-1.9l3.66-3.42,3.56,1.16-8.36,7.93L9.61,28.79ZM7.05,37l60.18,21.9-2.48,2.44L3.55,38.72ZM18.8,46.49l-6.25,6.25-6-2.59,6-6Zm1,.38,6.27,2.32-6.56,6.57-6-2.59Zm7.3,2.7,6.27,2.32-6.88,6.88-6-2.59Zm7.3,2.71,6.27,2.31-7.2,7.2-6-2.59Zm7.3,2.7L48,57.29l-7.52,7.52-6-2.59Zm7.3,2.7L55.3,60l-7.83,7.83-6-2.59Zm7.3,2.7L62.6,62.7l-8.15,8.14-6-2.59Zm7.3,2.7.37.14v8.07l-2.57,2.57-6-2.59ZM64,72.71V75l-1.58-.68ZM2,40.28l2.2.81L2,43.29Zm0,4.43,3.23-3.24,6.27,2.32L5.57,49.72,2,48.18ZM66,74V63s0,0,0,0L99,30.48V39.7Z"/></g></svg>