<svg id="expand" xmlns="http://www.w3.org/2000/svg" viewBox="0 0 116 105"><defs><style>.cls-1{fill:#f2552c;}.cls-2{fill:#084464;}</style></defs><title>icons</title><g id="medium_copy" data-name="medium copy"><path class="cls-1" d="M103,25.45V14.93c1.53-.69,2.4-1.46,2.4-2.28V6.25c0,2.76-9.85,5-22,5s-22-2.24-22-5v6.4c0,.82.87,1.59,2.4,2.28V25.45c0,2.43,8.78,4.4,19.6,4.4S103,27.88,103,25.45Z"/><path class="cls-2" d="M115.74,38.78,104,25.87V15.57c1.59-.74,3-1.61,3-2.92V6.16h-.11C106.69,1.49,91.47.25,83.4.25s-23.5,1.26-23.5,6a2,2,0,0,0,.1.61v5.79c0,1.31,1.41,2.18,3,2.92V26L51.38,38.65H51.3s0,.05,0,.08l-.05.05a1,1,0,0,0-.26.67v31.8H49.3c-.32-.7-.91-1.6-1.9-1.6H44.2A2.1,2.1,0,0,0,42.33,71H3v.07C.29,71.74.2,79.12.2,80S.29,88.26,3,88.93V89H42.31c.41,1,1,1.85,1.89,1.85h3.2A3,3,0,0,0,49.66,89H51v8.85c0,5.22,21.19,6.6,32.4,6.6,10,0,28-1.09,31.84-5H116v-60A1,1,0,0,0,115.74,38.78Zm-32.34,6c12.77,0,26.2-1.44,30.6-4.15v6.06c-2.36,2-13,4.29-30.6,4.29-17.12,0-27.69-2.2-30.4-4.14V40.73C57.6,43.36,70.82,44.75,83.4,44.75ZM114,60.26c-2.36,2-13,4.29-30.6,4.29-17.12,0-27.69-2.2-30.4-4.14V58.33c4.6,2.63,17.82,4,30.4,4,12.77,0,26.2-1.44,30.6-4.14Zm0-3.2c-2.36,2-13,4.29-30.6,4.29-17.12,0-27.69-2.2-30.4-4.14V55.13c4.6,2.63,17.82,4,30.4,4,12.77,0,26.2-1.44,30.6-4.15Zm0-3.2c-2.36,2-13,4.29-30.6,4.29C66.28,58.15,55.71,56,53,54V47.93c4.6,2.63,17.82,4,30.4,4,12.77,0,26.2-1.44,30.6-4.14ZM53,61.53c4.6,2.63,17.82,4,30.4,4,12.77,0,26.2-1.44,30.6-4.14v5.25c-2.36,2-13,4.29-30.6,4.29-17.12,0-27.69-2.2-30.4-4.14Zm61,20.33c-2.36,2-13,4.29-30.6,4.29a125.71,125.71,0,0,1-24-2,12,12,0,0,0,.5-2.07A130.91,130.91,0,0,0,83.4,84c12.77,0,26.2-1.44,30.6-4.14Zm0-3.2c-2.36,2-13,4.29-30.6,4.29A129.28,129.28,0,0,1,60,81.1c0-.28,0-.56,0-.85a13,13,0,0,0-.84-4.7,127.79,127.79,0,0,0,24.24,2c12.77,0,26.2-1.44,30.6-4.15ZM59,85.12c6.07,1.29,14.93,2,24.42,2,12.77,0,26.2-1.44,30.6-4.15v2.06c-2.36,2-13,4.29-30.6,4.29-10.18,0-19.71-.87-25.6-2.33A9,9,0,0,0,59,85.12ZM104.9,6.25c0,.76-2.37,1.92-6.89,2.8l4.42-4.43C104.05,5.21,104.9,5.8,104.9,6.25Zm-21.5,4c-.88,0-1.74,0-2.57,0l7.83-7.83c2.24.12,4.26.31,6,.54l-7.24,7.24C86.18,10.22,84.83,10.25,83.4,10.25ZM95.94,3.11a41.48,41.48,0,0,1,5.43,1.16L96.29,9.35c-2.08.33-4.54.59-7.33.75Zm-8.63-.78-7.84,7.84c-2.25-.08-4.3-.24-6.14-.45l7.44-7.43c.85,0,1.72,0,2.63,0C84.77,2.25,86.06,2.29,87.31,2.33ZM66.52,8.53l5.61-5.6c2.08-.28,4.48-.48,7.17-.59L72.07,9.57A46.45,46.45,0,0,1,66.52,8.53Zm4-5.37L65.41,8.23C63.49,7.64,62.33,7,62,6.53V6h0C62.49,5.15,65.39,4,70.48,3.16ZM62,12.65V9c4.48,2.54,15.11,3.29,21.4,3.29s17.25-.77,21.61-3.41v3.72c-.06.15-.43.57-2.42,1.45a1,1,0,0,0-.57.77C98.1,16.25,91.1,17.15,83.4,17.15S69,16.28,65,14.86a1,1,0,0,0-.58-.85A7.32,7.32,0,0,1,62,12.65Zm21.4,5.5c7.58,0,14.5-.87,18.6-2.3v2.37c-1.8,1.49-8.54,3.13-18.6,3.13-9.7,0-16.33-1.52-18.4-3V15.92C69.12,17.31,76,18.15,83.4,18.15ZM102,22.22c-1.8,1.49-8.54,3.13-18.6,3.13-9.7,0-16.33-1.52-18.4-3V19.52c3.33,1.85,11,2.83,18.4,2.83,7.52,0,15.39-1,18.6-3Zm-37,1.3c3.33,1.85,11,2.83,18.4,2.83,7.52,0,15.39-1,18.6-3v2.82c-1.8,1.49-8.54,3.13-18.6,3.13-9.7,0-16.33-1.52-18.4-3Zm-.43,3.74c3.05,2,11.13,3.09,18.83,3.09,7.88,0,16.15-1.12,19-3.23l11.36,12.49c-2.72,1.94-13.29,4.14-30.39,4.14-16.85,0-27.36-2.13-30.27-4ZM53,67.93c4.6,2.63,17.82,4,30.4,4,12.77,0,26.2-1.44,30.6-4.14v4.44c-2.36,2-13,4.3-30.6,4.3-9.68,0-18.83-.8-24.76-2.14-1-1.94-2.64-3.16-4.44-3.16H53ZM32.05,87H29.12a19.85,19.85,0,0,0,1-6.75A18.2,18.2,0,0,0,28.9,73h2.85c.59.75,1.35,3.25,1.35,7.25A17.27,17.27,0,0,1,32.05,87Zm-6.93,0a19.85,19.85,0,0,0,1-6.75A18.2,18.2,0,0,0,24.9,73h2.85c.59.75,1.35,3.25,1.35,7.25A17.27,17.27,0,0,1,28.05,87Zm-4,0a19.85,19.85,0,0,0,1-6.75A18.2,18.2,0,0,0,20.9,73h2.85c.59.75,1.35,3.25,1.35,7.25A17.27,17.27,0,0,1,24.05,87Zm-4,0a19.85,19.85,0,0,0,1-6.75A18.2,18.2,0,0,0,16.9,73h2.85c.59.75,1.35,3.25,1.35,7.25A17.27,17.27,0,0,1,20.05,87Zm-4,0a19.85,19.85,0,0,0,1-6.75A18.2,18.2,0,0,0,12.9,73h2.85c.59.75,1.35,3.25,1.35,7.25A17.27,17.27,0,0,1,16.05,87Zm-4,0a19.85,19.85,0,0,0,1-6.75A18.2,18.2,0,0,0,8.9,73h2.85c.59.75,1.35,3.25,1.35,7.25a17.27,17.27,0,0,1-1,6.75ZM5.56,87a22.33,22.33,0,0,0,1-7,22.33,22.33,0,0,0-1-7H7.75c.59.75,1.35,3.25,1.35,7.25a17.27,17.27,0,0,1-1,6.75ZM4,74.56,2.5,76a8.23,8.23,0,0,1,.9-2.91A4.79,4.79,0,0,1,4,74.56ZM2.2,80c0-.86,0-1.63.1-2.34l1.94-1.94A23.33,23.33,0,0,1,4.6,80c0,.74,0,1.4-.08,2l-2,2A23.29,23.29,0,0,1,2.2,80Zm2.16,3.6a8.88,8.88,0,0,1-1,3.27,5.35,5.35,0,0,1-.64-1.67ZM44,87.67A1,1,0,0,0,43,87H33.12a19.85,19.85,0,0,0,1-6.75A18.2,18.2,0,0,0,32.9,73H43a1,1,0,0,0,1-.68c.16-.47.29-.64.28-.67h.41c.58,1.12,1.26,4.07,1.26,8.6s-.69,7.49-1.27,8.6h-.17A5,5,0,0,1,44,87.67Zm3.33,1.18H45.7c.82-1.92,1.2-5.38,1.2-8.6,0-2.41-.28-6.43-1.19-8.6h1.52a3.24,3.24,0,0,1,.44.93.94.94,0,0,0,.43.51,29.72,29.72,0,0,1,.64,6.18,36.59,36.59,0,0,1-.65,8.33l0,.08A2.53,2.53,0,0,1,47.28,88.85Zm2-1.85a44.31,44.31,0,0,0,.5-7.73,31.51,31.51,0,0,0-.59-6H54.2c2.06,0,3.8,3.21,3.8,7,0,4-2.07,6.75-4,6.75ZM54,89a4.79,4.79,0,0,0,3.4-1.55l-.12.47C63.23,89.45,73,90.35,83.4,90.35c12.77,0,26.2-1.44,30.6-4.14v5.25c-2.36,2-13,4.29-30.6,4.29-17.12,0-27.69-2.2-30.4-4.14V89Zm29.4,13.45c-19.67,0-30.4-3-30.4-4.6V92.73c4.6,2.63,17.82,4,30.4,4,12.77,0,26.2-1.44,30.6-4.15v5.25C114,99.42,103.2,102.45,83.4,102.45Z"/></g></svg>