<svg id="expand" xmlns="http://www.w3.org/2000/svg" viewBox="0 0 129 113"><defs><style>.cls-1{fill:#f2552c;}.cls-2{fill:#084464;}</style></defs><title>icons</title><g id="medium_copy" data-name="medium copy"><path class="cls-1" d="M53.6,37.27v3c0,2.18-6.05,3.95-13.52,3.95s-13.52-1.77-13.52-3.95v-3c0-.87,1-1.67,2.62-2.32a25.75,25.75,0,0,1,7.15-1.46v3.42c0,.36.42.69,1.1.92a8.55,8.55,0,0,0,2.65.38c2.08,0,3.76-.58,3.76-1.3V33.49C49.48,34,53.6,35.47,53.6,37.27ZM97.52,2.89V6.32c0,.72-1.68,1.3-3.75,1.3a8.33,8.33,0,0,1-2.66-.38C90.43,7,90,6.68,90,6.32V2.9c-5.64.47-9.76,2-9.76,3.79v3c0,2.18,6,3.94,13.52,3.94s13.51-1.76,13.51-3.94v-3C107.28,4.89,103.16,3.37,97.52,2.89Z"/><path class="cls-2" d="M129,16.86C128.58,12,120.44,8,108.2,6.16c-.73-3.09-7.81-4-10.45-4.25-.64-.78-2.35-1.14-4-1.14s-3.35.36-4,1.14c-2.65.23-9.78,1.17-10.46,4.3C68,7.87,58.47,11.58,58,17V36.92c-1.15-.2-2.35-.37-3.6-.53-1.17-2.8-7.79-3.66-10.33-3.89-.63-.78-2.35-1.15-4-1.15s-3.36.37-4,1.15c-2.5.22-8.94,1-10.27,3.75C6.77,38.35.52,44.53,0,48V93.29l.09.19a13.5,13.5,0,0,0,5.91,6v10a2.24,2.24,0,0,0,.82,1.8l1.5,1.11a1.53,1.53,0,0,0,1.62.16s0,0,0,0l8-.79a1,1,0,0,0,.9-.86s0,0,0,0l2.77-6.83A133.45,133.45,0,0,0,40,105.23a122.87,122.87,0,0,0,17.22-1.08L60,111v0a1,1,0,0,0,.89.86l8.19.81a1.51,1.51,0,0,0,.68.16,1.54,1.54,0,0,0,.93-.32l1.5-1.11a2.22,2.22,0,0,0,.82-1.8v-9.9a18.65,18.65,0,0,0,5.33-3.88,100.71,100.71,0,0,0,15.1,1.11,99.17,99.17,0,0,0,15-1.09l2.8,6.88v0a1,1,0,0,0,.89.85l8.06.8a1.47,1.47,0,0,0,.61.14,1.62,1.62,0,0,0,.93-.31l1.5-1.11a2.22,2.22,0,0,0,.82-1.8V91.12c2.72-1.51,4.47-3.26,5-5.15l0-.12ZM78,72.72c-2,2.54-17.09,5.14-38.16,5.14C19.65,77.86,4.93,75.47,2,73V50.17c5,4.36,21.67,6.89,37.84,6.89,16.53,0,33.54-2.64,38.16-7.19ZM2,74.14c5.08,3.08,21.87,4.72,37.84,4.72,16.32,0,33.51-1.72,38.16-4.93v4c-2,2.53-17.09,5.14-38.16,5.14C19.65,83.12,4.93,80.73,2,78.3ZM80,55.86c4.36.35,9,.53,13.76.53,14,0,28.68-1.62,33.24-4.66V55.8c-2.49,2.44-15.44,4.85-33.24,4.85-4.83,0-9.45-.18-13.76-.53ZM81.25,6.69c0-.59,2.4-2.16,8.26-2.75V6.32c0,.4.25,1,1.43,1.39a9,9,0,0,0,2.83.41c2,0,4.25-.56,4.25-1.8V3.94c5.86.59,8.26,2.16,8.26,2.75v.84c-1.44,1.27-5.94,2.6-12.51,2.6S82.69,8.8,81.25,7.53ZM97,6.31c-.06.23-1.15.81-3.25.81a7.69,7.69,0,0,1-2.49-.35c-.58-.21-.76-.4-.77-.45V3.77a8,8,0,0,0,3.26.6A8,8,0,0,0,97,3.77ZM81.25,8.76c2.46,1.55,7.6,2.37,12.52,2.37s10-.82,12.51-2.37v.93c0,.88-4.26,2.94-12.51,2.94S81.25,10.57,81.25,9.69Zm12.52-7c2.07,0,3.16.57,3.25.8-.09.23-1.18.8-3.25.8s-3.2-.59-3.26-.79S91.67,1.77,93.77,1.77ZM79.25,8.2V9.69c0,3.39,7.53,4.94,14.52,4.94s14.51-1.55,14.51-4.94V8.21C119.84,10,126.71,13.65,127,16.94v.21c-2.45,3.6-15.19,7-33.23,7-19.35,0-32.59-4-33.61-7.82C61.31,13.16,68.2,9.82,79.25,8.2ZM60,18.1c3.79,4.48,19,7.09,33.77,7.09,14.15,0,28.7-2.4,33.23-6.54V50.54c-2.49,2.44-15.44,4.85-33.24,4.85-4.78,0-9.4-.18-13.76-.53V48c-.52-3.49-7-8.19-20-10.69ZM27.56,39.34c2.46,1.55,7.6,2.37,12.52,2.37s10.06-.82,12.52-2.37v.93c0,.88-4.26,2.95-12.52,2.95s-12.52-2.07-12.52-2.95ZM43.34,36.9c-.06.23-1.16.81-3.26.81a8.35,8.35,0,0,1-2.49-.35c-.58-.2-.75-.41-.76-.45V34.36a8,8,0,0,0,3.25.59,7.88,7.88,0,0,0,3.26-.6Zm-3.26-4.55c2.07,0,3.17.57,3.26.8-.09.23-1.18.8-3.26.8s-3.17-.57-3.25-.78v0C36.91,32.93,38,32.35,40.08,32.35Zm-4.25,2.18v2.38c0,.34.19,1,1.44,1.39a8.85,8.85,0,0,0,2.81.41c2.05,0,4.26-.56,4.26-1.8V34.53c5.86.59,8.26,2.16,8.26,2.74v.88c-1.49,1.34-6.22,2.56-12.52,2.56-6.15,0-11-1.24-12.52-2.58v-.86C27.56,36.68,30,35.11,35.83,34.53ZM25.56,38.29v2c0,3.4,7.53,4.95,14.52,4.95S54.6,43.67,54.6,40.27V38.43c16.45,2.15,23,7.63,23.4,9.77v0c-2,3.92-16.79,7.81-38.16,7.81C19.37,56.06,4.9,52.49,2,48.75v-.56C2.42,46,7.71,40.34,25.56,38.29ZM8.05,109.8a.42.42,0,0,1-.05-.23v-9c.31.14.62.29.95.42L9,101v9.51Zm5.26-1.62-2.31.17v-6.61c1.36.46,2.83.88,4.42,1.25ZM11,110.5v-.14l2.47-.19.18.07Zm6.26-1-2-.8,2.16-5.3c.71.14,1.43.27,2.18.39ZM68,108.37l-2.48-.19L63.42,103c1.69-.39,3.21-.82,4.58-1.27Zm-6.57-4.93,2.15,5.28-2,.8-2.32-5.68C60,103.71,60.73,103.58,61.43,103.44Zm3.92,6.73,2.65.2v.15l-2.83-.28ZM40,103.23c-13.52,0-23.71-1.38-30.29-4.1C5.78,97.49,3.25,95.43,2,92.85V79.39c5.08,3.09,21.87,4.73,37.84,4.73,16.32,0,33.51-1.72,38.16-4.93V92.84C76.91,95,70.68,103.23,40,103.23Zm79-3.14-2.28-.18-2.17-5.31c1.59-.39,3.08-.83,4.45-1.3Zm-6.42-5,2.2,5.41-2,.8-2.36-5.79C111.15,95.34,111.88,95.2,112.58,95.05Zm4,6.86,2.45.19v.14l-2.63-.26Zm5.45-.63c0,.12,0,.2,0,.19l-1,.73V92.55l1-.42ZM93.43,94.9a98.77,98.77,0,0,1-13.76-1c.1-.17.18-.33.24-.46l.09-.2V61.13c4.31.34,8.93.52,13.76.52,14,0,28.68-1.62,33.24-4.67v28.6C125.61,90.08,112.48,94.9,93.43,94.9ZM52,67.27V62a1,1,0,0,0-1-1H28a1,1,0,0,0-1,1V72a1,1,0,0,0,1,1H51a1,1,0,0,0,1-1V67.39l.06-.06ZM50,68l-3,3H40.88l8-8H50Zm-8.64-5h6.1l-8,8h-6.1Zm-8.92,0L29,66.44V63ZM29,67.85,33.85,63H40l-8,8H29ZM50,71H48.39L50,69.39ZM82,44h23a1,1,0,0,0,1-1V33a1,1,0,0,0-1-1H82a1,1,0,0,0-1,1V43A1,1,0,0,0,82,44Zm1-6.11L86.89,34H93l-8,8H83ZM92.5,42H86.4l8-8h6.1Zm8.92,0L104,39.42V42ZM104,38l-4,4h-6.1l8-8H104ZM85.47,34,83,36.47V34Z"/></g></svg>