<svg id="expand" xmlns="http://www.w3.org/2000/svg" viewBox="0 0 132 104"><defs><style>.cls-1{fill:#f2552c;}.cls-2{fill:#084464;}</style></defs><title>icons</title><g id="medium_copy" data-name="medium copy"><path class="cls-1" d="M35.75,31.05l-5.53.57v3.94l12.63,3.16L61,37.5l2.76-.19c3-.22,5.4-2.23,7-4.81,0,0,12.06-17.34,12.35-17.64A9,9,0,0,1,88,12.14c2-.33,3.29-.52,3.29-.52l37.12-4.79a2.56,2.56,0,0,0,2.52-2.58h0c-.12-1.29-.82-2-2.26-2.43l-10.27-.76a5.08,5.08,0,0,0-.78,0L78.37,5.76c-5.69.07-9.47,4.54-9.47,4.54L57.65,26c-1.66,2.26-3.32,3.79-6.12,4v1.64l-3.15.79H38.9l-3.15-.79Z"/><path class="cls-2" d="M129,.86l-.22,0L118.49.06a6.46,6.46,0,0,0-1,0L78.31,4.76c-6,.1-10,4.7-10.22,5L56.85,25.4c-1.42,1.92-2.75,3.18-4.85,3.51V26.09s0-.07,0-.1a1.57,1.57,0,0,0,0-.29c0-.6,0-2.19-8.5-2.19S35,25.1,35,25.7A1.57,1.57,0,0,0,35,26s0,.06,0,.1v4l-4.88.5a1,1,0,0,0-.9,1v3.94a1,1,0,0,0,.76,1l4,1V48.79l-4.22.14a11.27,11.27,0,0,0-10.65,1.31l0,0-7.84.29a1.09,1.09,0,0,0-.61.23h0L3.63,56.7a1,1,0,0,0-.35.65l-.79,6.4h0a39.05,39.05,0,0,0-2.31,15c.31,11.46,4.55,20.59,10,22.35l0,0L15,103.92h0a1,1,0,0,0,.5.14H25.2a1.91,1.91,0,0,0,.54-.08,14,14,0,0,0,5.88-1.08l29.32-4a1,1,0,0,0,.6-.3c.15-.17.29-.31.43-.45A12.72,12.72,0,0,0,63,96.93l4.81,1.36a.88.88,0,0,0,.36,0h0l10.46-1a1,1,0,0,0,.72-.41l7.3-10.06a1.07,1.07,0,0,0,.19-.54l1-19a1.09,1.09,0,0,0-.09-.47l-7-15.48a1,1,0,0,0-.66-.56l-9.7-2.5a.77.77,0,0,0-.3,0l-9.74.52h0a1,1,0,0,0-.44.12L58,50a10.5,10.5,0,0,0-2.27-.81L55.27,49A.8.8,0,0,0,55,49H53V39l10.84-.74c3.07-.22,5.82-2.1,7.71-5.22C76.26,26.3,83.42,16,83.8,15.55a8.06,8.06,0,0,1,4.38-2.42c1.95-.33,3.25-.52,3.25-.52l37.08-4.78A4,4,0,0,0,131,6.67a3.14,3.14,0,0,0,.93-2.52A3.69,3.69,0,0,0,129,.86ZM58.46,26.57,69.66,11s3.58-4.13,8.72-4.19h.11l39.23-4.7a4.26,4.26,0,0,1,.62,0l7.39.55L88,7.82s-1.3.19-3.29.53a9.31,9.31,0,0,0-5.14,2.82c-.3.31-10.37,14.79-12.4,17.71-1.69,2.79-4.06,4.43-6.67,4.62L42.88,34.79l-9.83-2.46,2.1-.21a1,1,0,0,0,.6.46l3,.79a1,1,0,0,0,.25,0h9a1,1,0,0,0,.25,0l3-.79a1,1,0,0,0,.75-1v-.7C55.11,30.55,57,28.63,58.46,26.57ZM49,27.65l1-.26v3.45l-1,.27Zm-1,.23v3.49l-.13,0H39.13l-.13,0V27.88ZM38,31.11l-1-.27V27.39l1,.26Zm5.5-5.6a38.38,38.38,0,0,1,4,.19c-1.05.1-2.38.18-4,.18s-2.91-.08-4-.18A38.38,38.38,0,0,1,43.5,25.51ZM31.22,32.65l11.13,2.78v2.13L31.22,34.78ZM34.6,50.77h.29a1.07,1.07,0,0,0,.31-.06c1.33,1.18,4.13,1.88,7,2,5,4.66,8,13.79,8,23.87,0,9.16-2.61,17.72-6.85,22.65l-9.55,1.31c5.38-4.42,8.52-13.21,8.52-24.24C42.36,65,38,55,31.63,50.87ZM24.22,52.08l6.35,5.22-8.93.85,0,0-7.45-5.68ZM34.54,93.86l-.11.09-9.75.76L27,78l9.54-1.12ZM27,77,22.1,59.11l9.55-.91,4.86,17.67ZM11.37,52.83l8.77,6.67,4.92,18.16L22.65,94.81l-7.31,7-1.22-.69c2.47-.83,4.65-3.22,6.29-6.91a38.22,38.22,0,0,0,2.72-16,38.09,38.09,0,0,0-3.6-15.88c-2.27-4.46-5.3-6.85-8.49-6.78-2.19.06-4.23,1.28-5.95,3.52l.12-1Zm-8,14.75L13,57.93A8.88,8.88,0,0,1,16.44,61L2.27,75.19A38,38,0,0,1,3.39,67.58Zm.6-2c.24-.7.49-1.39.78-2,1.67-3.78,4-6,6.33-6h.1a4.15,4.15,0,0,1,.78.09ZM2.22,78.73c0-.7,0-1.39,0-2.07L17,61.86c.25.41.5.85.74,1.32a24.25,24.25,0,0,1,1.31,3.1L2.52,82.82C2.36,81.5,2.25,80.13,2.22,78.73ZM19.41,67.35a37.31,37.31,0,0,1,1.21,5.27L3.89,89.35A37.75,37.75,0,0,1,2.7,84.06Zm1.39,6.51c.18,1.41.29,2.87.33,4.35,0,.6,0,1.19,0,1.79L6.24,94.89a24.3,24.3,0,0,1-2-4.46ZM12.25,99.45a4.25,4.25,0,0,1-1.12-.14L19.49,91a23.49,23.49,0,0,1-.91,2.45C16.91,97.18,14.6,99.38,12.25,99.45Zm-5.46-3.7,14.3-14.29a39.08,39.08,0,0,1-1,7.52l-9.94,9.94A9.23,9.23,0,0,1,6.79,95.75ZM18,102.05l6.3-6a.86.86,0,0,0,.21-.29l8.63-.66-8.32,7Zm10.23-.25,7.92-6.66a1,1,0,0,0,.35-.65l2.17-18.13a1.29,1.29,0,0,0,0-.39L33.49,57.35a1,1,0,0,0-.33-.51l-8-6.55L25,50.18a9.09,9.09,0,0,1,4.21.68.88.88,0,0,0,.42.08h.08c6.88,3.32,11.64,13.6,11.64,25.39s-3.61,20.83-9.68,24.53l-.48.07a1.17,1.17,0,0,0-.32.09A10.06,10.06,0,0,1,28.21,101.8ZM78,95.39l-7.89.75,6.15-9a.36.36,0,0,1,0-.09l7.91-.22Zm-.36-27,8.16-.55-.94,18L76.5,86Zm7.9-1.54-8,.55L70.71,53.23,79,52.57l.11,0Zm-9.52-15-5.92.47a1,1,0,0,0-.29-.18L65.41,50.5l4.64-.25Zm-15.54-.93,8.27,3,6.9,14.28-1.2,18.11-6.79,9.94-3.36-1c5.23-4,8.62-12.06,8.62-21,0-11.34-5.46-21-12.76-23.15Zm3,43.69c2.89-5,4.54-11.85,4.54-19,0-10.12-3.46-19.22-8.93-23.71C66.41,53.37,72,62.89,72,74.2,72,83,68.64,90.81,63.54,94.56ZM54.86,51l.36.1a7.41,7.41,0,0,1,2.23.87,1.1,1.1,0,0,0,.46.16c5.5,4.06,9.17,13.35,9.17,23.39,0,7.41-1.78,14.45-4.88,19.36a.9.9,0,0,0-.42.35,8,8,0,0,1-1.24,1.49l-.21.22-15.5,2.12c4-5.21,6.41-13.56,6.41-22.45,0-9.83-2.87-18.8-7.56-23.82,3.13,0,6.38-.65,8-1.85A.94.94,0,0,0,52,51ZM51,50.19c-1.29.87-4,1.6-7.43,1.6-3.7,0-6.66-.87-7.75-1.85a1,1,0,0,0,0-.18V38l6.72,1.68a1,1,0,0,0,.24,0h.07L51,39.17V50A1.06,1.06,0,0,0,51,50.19ZM129.58,5.27a2.11,2.11,0,0,1-1.29.57L91.15,10.63s-1.31.19-3.31.53a10,10,0,0,0-5.48,3c-.29.3-6.93,9.83-12.49,17.83-.91,1.51-2.93,4.08-6.17,4.32L43.35,37.68V35.51l14.48-1.07,2.77-.19c2.86-.21,5.43-2,7.24-5,3.3-4.75,12-17.18,12.31-17.6a8.72,8.72,0,0,1,4.72-2.6c2-.34,3.28-.53,3.28-.53l40.67-5.63A1.51,1.51,0,0,1,130,4.34,1.19,1.19,0,0,1,129.58,5.27Z"/></g></svg>