<svg id="expand" xmlns="http://www.w3.org/2000/svg" viewBox="0 0 18 18"><defs><style>.cls-1{fill:#f2552c;}</style></defs><title>icons</title><g id="icons"><path class="cls-1" d="M2.84,0a.61.61,0,0,0-.38,0C1.12.57.27,2.49.07,3.81-.55,8.1,2.84,11.82,6,14.27,8.71,16.44,14,20,17.15,16.57A2.63,2.63,0,0,0,18,14.89c-.08-1-1.05-1.79-1.79-2.37-.58-.42-1.77-1.6-2.52-1.57s-1.09.72-1.52,1.15l-.74.75c-.13.12-1.72-.93-1.9-1a14,14,0,0,1-1.81-1.42,11.71,11.71,0,0,1-1.47-1.7,8.7,8.7,0,0,1-1-1.82s.87-1,1.12-1.33c.53-.8.92-1.42.33-2.37a5.8,5.8,0,0,0-.8-.92A15,15,0,0,0,4.21.79,3.47,3.47,0,0,0,2.84,0Z"/></g></svg>