<svg id="expand" xmlns="http://www.w3.org/2000/svg" viewBox="0 0 131 75"><defs><style>.cls-1{fill:#f2552c;}.cls-2{fill:#084464;}</style></defs><title>icons</title><g id="medium_copy" data-name="medium copy"><path class="cls-1" d="M91,3,88.72,8.86l.28,0V30.55l-7-.75v-22l.35.06L85,2.08ZM20,16.35V28.19L27,32V13L15.06,9.41l-6,3,11,3.87Zm92.47,22-11-5.64L95,34.58l10.46,5.56-.5.16V68.35l7-2.08V38.52ZM28.2,32.47,17.55,38l.45.13V65.91l7,2.34V40l-.11,0L35,34.57Z"/><path class="cls-2" d="M131,23.08c0-12.91-28.77-23-65.5-23S0,10.17,0,23.08V50.93H0c0,.08,0,.16,0,.23,0,12.92,28.77,23,65.5,23s65.5-10.11,65.5-23c0-.07,0-.15,0-.23h0ZM85.76,3.2l3.88.58-1.55,4L83.8,7.05l1.77-3.87ZM129,40.39c-1.64,4.49-7.42,8.55-16,11.75V45.75c7.83-2.9,13.48-6.51,16-10.55ZM19,39.45c1.58.55,3.26,1.08,5,1.58V66.86l-5-1.67Zm4.81-5.84c-7.62-3-12.22-6.89-12.22-11.11,0-2.36,1.46-4.61,4.06-6.66l3,1a7.87,7.87,0,0,0-2.78,5.59c0,3.83,3.71,7.33,10,10.11ZM11.57,12.28l3.58-1.8,8.93,2.69c-.61.31-1.19.62-1.74.95L20,15.24ZM90.48,7.12c16.66,3,28,8.75,28,15.38,0,4.31-4.8,8.25-12.72,11.3l-2-1c6.59-2.81,10.49-6.38,10.49-10.31,0-6.19-9.61-11.47-24.17-14.32ZM65,37a121.47,121.47,0,0,1-29.53-3.28,1,1,0,0,0-.21-.1l-1.82-.56a167.55,167.55,0,0,1,32-2.93A168.19,168.19,0,0,1,97.07,33l-2.3.65-.25.11A121.76,121.76,0,0,1,65,37ZM17.83,22.46A5.1,5.1,0,0,1,19,19.41v3.06a12.51,12.51,0,0,0-1,1.09A4.26,4.26,0,0,1,17.83,22.46ZM101,31.74c-3.49-.78-7.17-1.43-11-2v-4a65.07,65.07,0,0,1,14.63,4.45C103.52,30.74,102.31,31.25,101,31.74ZM83,9h0l5,.78V29.44l-5-.54ZM28,18.4c8.88-3.46,22.37-5.66,37-5.66a144.31,144.31,0,0,1,16,.87V18a140.64,140.64,0,0,0-16-.89c-14.48,0-28,2.12-37,5.58Zm53-5.78a142.11,142.11,0,0,0-16-.88c-14.74,0-28.06,2.13-37,5.57V13.59c8.3-3.32,21.21-5.68,37-5.68a140.7,140.7,0,0,1,16,.87ZM28,23.75c8.93-3.49,22.46-5.64,37-5.64A140.38,140.38,0,0,1,81,19v4.35a142.64,142.64,0,0,0-16-.88c-14.5,0-27.88,2.05-37,5.57Zm77.74,5.89A63.16,63.16,0,0,0,90,24.7V20.37c8.38,1.65,15.17,4.1,19.12,7.1A22.48,22.48,0,0,1,105.74,29.64Zm4.15-2.84c-4.07-3.15-11.15-5.73-19.89-7.43V15c10.77,2.1,18.78,5.52,21.64,9.65A8.43,8.43,0,0,1,109.89,26.8Zm2.19-3.24c-3.31-4.1-11.4-7.48-22.08-9.57V10.16c13.88,2.75,22.25,7.63,22.25,12.3A4.26,4.26,0,0,1,112.08,23.56ZM65,5.91c-15.57,0-29.24,2.31-38.19,6l-2.47-.74C34.19,7.4,48.77,5,65,5A153.94,153.94,0,0,1,82.11,6l-.4.87s0,0,0,0A142.55,142.55,0,0,0,65,5.91Zm-46,18V25.5a7.19,7.19,0,0,1-.57-.87A9,9,0,0,1,19,23.91Zm2-6.5a19.22,19.22,0,0,1,1.79-1.25L26,14.6V30.46a25,25,0,0,1-5-3Zm7,11.71c9-3.56,22.46-5.65,37-5.65a141.2,141.2,0,0,1,16,.91v4.4c-5-.42-10.22-.65-15.49-.65a164.94,164.94,0,0,0-35.95,3.72l-1-.31c-.19-.07-.39-.14-.57-.22ZM82.55,5A156,156,0,0,0,65,4C47.83,4,32.75,6.59,22.85,10.71l-2.64-.79C31,5.69,47.08,3,65,3A168.59,168.59,0,0,1,83,4ZM65,39A124.09,124.09,0,0,0,95,35.67l1.71.91A137.78,137.78,0,0,1,65,40a138,138,0,0,1-31.66-3.43l1.7-.9A124.83,124.83,0,0,0,65,39ZM32,37.29A136.21,136.21,0,0,0,65,41a136,136,0,0,0,33-3.7l1.73.92A150,150,0,0,1,65,42a149.68,149.68,0,0,1-34.75-3.79Zm-3,1.57A147,147,0,0,0,65,43,146.77,146.77,0,0,0,101,38.87l2,1.06a159.58,159.58,0,0,1-37.47,4.19,158.63,158.63,0,0,1-38.14-4.36ZM26,48.22c11,2.93,24.65,4.67,39.51,4.67A159.86,159.86,0,0,0,104,48.53v6.39a159.61,159.61,0,0,1-38.49,4.35c-14.91,0-28.62-1.73-39.51-4.62Zm78-.65a160.84,160.84,0,0,1-38.49,4.32c-14.91,0-28.62-1.73-39.51-4.62V41.58c10.91,2.86,24.55,4.54,39.51,4.54A160.64,160.64,0,0,0,104,41.83Zm2-6.26c1.35-.37,2.67-.75,3.93-1.16l1.07-.31V65.52L106,67Zm-.39-2.24L97.77,34.9c.66-.19,1.31-.4,2-.61l1.69-.48,8,4.12ZM107,34.42c7.84-3.2,12.52-7.34,12.52-11.92,0-7.18-11.46-13.27-28.62-16.35l.43-1.09c19.27,3.2,32.54,9.82,32.54,17.44,0,5-5.65,9.49-14.89,12.94ZM83.45,3q-3.69-.42-7.56-.67,3.87.23,7.59.6ZM18.86,9.51l-.77-.23A108.49,108.49,0,0,1,39.5,4,93.38,93.38,0,0,0,18.86,9.51Zm-4.29,6c-2.55,2.16-4,4.53-4,7,0,4.49,4.5,8.55,12,11.72l-2,1C11.68,31.83,6.25,27.37,6.25,22.5c0-2.89,1.93-5.62,5.34-8.09Zm13.71,18.1c1.25.47,2.59.91,4,1.33l-7.49,4L20.4,37.61ZM17,51.76C9,48.62,3.59,44.7,2,40.39V35.15C4.43,39,9.69,42.49,17,45.33Zm-15-4V42.53C4.43,46.38,9.7,49.86,17,52.7v6.44C9,56,3.59,52.09,2,47.77Zm24,7.84c11,2.92,24.65,4.66,39.51,4.66A159.14,159.14,0,0,0,104,55.88V62.3a159.61,159.61,0,0,1-38.49,4.35C50.61,66.65,36.89,64.92,26,62Zm87-2.52c7.83-2.91,13.48-6.53,16-10.56v5.24c-1.65,4.49-7.43,8.55-16,11.75ZM129,33c-1.66,4.52-7.44,8.58-16,11.77V39.23a.85.85,0,0,0,.26-.24c7.49-2.78,13-6.24,15.75-10.13Zm0-9.93c0,5.35-6.4,10.31-16.75,14.07L110,36c9.22-3.6,14.83-8.32,14.83-13.48,0-8-13.53-15-33.19-18.35L91.7,4C113.48,7.38,129,14.76,129,23.08ZM9.17,13.56l1.42.5c-3.41,2.58-5.34,5.43-5.34,8.44,0,5.07,5.41,9.71,14.33,13.29l-1.87,1C8,33,2,28.25,2,23.08,2,19.68,4.62,16.44,9.17,13.56Zm7.66,25.09a1.22,1.22,0,0,0,.17.15v5.58C9,41.24,3.6,37.32,2,33V28.86C4.65,32.59,9.8,35.92,16.83,38.65ZM2,51.16a6.7,6.7,0,0,1,.1-1.09c2.46,3.78,7.68,7.21,14.89,10v4.47C7.7,60.89,2,56.2,2,51.16ZM26,67.48V63c11,2.92,24.66,4.66,39.51,4.66A158.64,158.64,0,0,0,104,63.26v4.49a158.35,158.35,0,0,1-38.49,4.44A156.79,156.79,0,0,1,26,67.48ZM113,65V60.47c7.74-2.87,13.34-6.44,15.92-10.41a6.89,6.89,0,0,1,.09,1.1C129,56.38,122.91,61.22,113,65Z"/></g></svg>