<svg id="expand" xmlns="http://www.w3.org/2000/svg" viewBox="0 0 142 122"><defs><style>.cls-1{fill:#f2552c;}.cls-2{fill:#084464;}</style></defs><title>icons</title><g id="big_copy" data-name="big copy"><path class="cls-1" d="M105.46,28.74h0a26,26,0,0,1,2.93,12c0,17.08-16.94,30.93-37.84,30.93S32.69,57.77,32.69,40.69a26.12,26.12,0,0,1,3-12.12h-.05a35.34,35.34,0,0,0-10.81,25C24.85,75,45.3,92.38,70.54,92.38S116.23,75,116.23,53.62C116.23,44.17,112.08,35.47,105.46,28.74Z"/><path class="cls-2" d="M141.27,61c.07-1.07.11-2.15.11-3.24C141.38,25.92,109.67,0,70.69,0S0,25.92,0,57.77c0,1.48.09,2.94.23,4.4h0c0,.23,0,.52-.09.82A9.59,9.59,0,0,0,0,64.23C0,96.08,31.71,122,70.69,122s70.69-25.92,70.69-57.77c0-.75-.07-2.4-.11-3.22ZM70.69,2c37.88,0,68.69,25,68.69,55.77s-30.81,55.77-68.69,55.77S2,88.52,2,57.77,32.82,2,70.69,2Zm0,118C37.54,120,9.8,100.83,3.39,75.44c9.16,23.23,35.86,40.1,67.3,40.1s58.14-16.87,67.3-40.1C131.58,100.83,103.84,120,70.69,120ZM88.23,96a6.56,6.56,0,1,0,7,6.54A6.79,6.79,0,0,0,88.23,96Zm0,11.08a5,5,0,0,1-4.63-2.84,5.79,5.79,0,0,1,3.56-1.2,5.62,5.62,0,0,1,4.76,2.53A5.18,5.18,0,0,1,88.23,107.08Zm4.33-2.32a6.64,6.64,0,0,0-5.4-2.72,6.79,6.79,0,0,0-3.85,1.18,3.94,3.94,0,0,1-.08-.68,5,5,0,0,1,10,0A4.11,4.11,0,0,1,92.56,104.76Zm31-34.14a6.55,6.55,0,1,0,7,6.53A6.79,6.79,0,0,0,123.54,70.62Zm-4.37,8.7a5.8,5.8,0,0,1,3.06-.87,5.64,5.64,0,0,1,4.5,2.17,5.25,5.25,0,0,1-3.19,1.07A5.09,5.09,0,0,1,119.17,79.32Zm8.29.61a6.66,6.66,0,0,0-5.23-2.48,6.82,6.82,0,0,0-3.48.94,4.18,4.18,0,0,1-.21-1.24,5,5,0,0,1,10,0A4.25,4.25,0,0,1,127.46,79.93Zm-2-32.7a6.79,6.79,0,0,0,7-6.54,7,7,0,0,0-14,0A6.79,6.79,0,0,0,125.42,47.23Zm-3.8-3.63a5.86,5.86,0,0,1,2.9-.76,5.8,5.8,0,0,1,3.88,1.48,5.35,5.35,0,0,1-3,.91A5.17,5.17,0,0,1,121.62,43.6Zm3.8-7.45a4.79,4.79,0,0,1,5,4.54,4.24,4.24,0,0,1-1.26,3,6.74,6.74,0,0,0-4.64-1.83,6.84,6.84,0,0,0-3.5,1,4.14,4.14,0,0,1-.6-2.11A4.79,4.79,0,0,1,125.42,36.15ZM20.45,66a6.79,6.79,0,0,0-7-6.54,6.56,6.56,0,1,0,0,13.08A6.79,6.79,0,0,0,20.45,66Zm-12,0a4.79,4.79,0,0,1,5-4.54,4.79,4.79,0,0,1,5,4.54,4,4,0,0,1-.23,1.29,6.83,6.83,0,0,0-3.22-.8A6.62,6.62,0,0,0,9.74,69,4.3,4.3,0,0,1,8.45,66Zm5,4.54a5.24,5.24,0,0,1-2.94-.9A5.65,5.65,0,0,1,15,67.51a6,6,0,0,1,2.8.7A5.07,5.07,0,0,1,13.45,70.56ZM21,37.5A6.79,6.79,0,0,0,28,31a6.79,6.79,0,0,0-7-6.54A6.79,6.79,0,0,0,14,31,6.79,6.79,0,0,0,21,37.5Zm0-2a5.29,5.29,0,0,1-3.2-1.08,5.73,5.73,0,0,1,4.12-1.73,5.82,5.82,0,0,1,3.14.9A5.17,5.17,0,0,1,21,35.5Zm0-9.08A4.79,4.79,0,0,1,26,31a4.19,4.19,0,0,1-.41,1.79,6.73,6.73,0,0,0-3.67-1.06,6.64,6.64,0,0,0-4.85,2A4.24,4.24,0,0,1,16,31,4.79,4.79,0,0,1,21,26.42ZM41.85,91.5a6.55,6.55,0,1,0-2.4,12.85,7.16,7.16,0,0,0,1.38.13,6.68,6.68,0,0,0,6.7-5.27,6.25,6.25,0,0,0-1.19-4.95A7.18,7.18,0,0,0,41.85,91.5ZM35.74,97a4.8,4.8,0,0,1,5.75-3.54,5.26,5.26,0,0,1,3.25,2,4.33,4.33,0,0,1,.83,3.39,4.06,4.06,0,0,1-.19.62,6.83,6.83,0,0,0-3.62-1.92A6.68,6.68,0,0,0,36,99.22,4.07,4.07,0,0,1,35.74,97Zm4.08,5.38a5.13,5.13,0,0,1-3.4-2.23,5.61,5.61,0,0,1,5.16-1.62,5.71,5.71,0,0,1,3.32,1.89A5,5,0,0,1,39.82,102.38Zm-16-48.76c0,21.92,20.94,39.76,46.69,39.76s46.69-17.84,46.69-39.76c0-9.22-3.9-18.27-11-25.5a31.91,31.91,0,0,0-5.75-7.74,6.42,6.42,0,0,0,2.59-5.07,6.79,6.79,0,0,0-7-6.54,7,7,0,0,0-6.48,4.12A45.27,45.27,0,0,0,70.54,8.77a46.87,46.87,0,0,0-8.63.8,7,7,0,0,0-6.54-4.23,6.79,6.79,0,0,0-7,6.54,6.26,6.26,0,0,0,.47,2.34A34.58,34.58,0,0,0,35,27.89l0,0A36.46,36.46,0,0,0,23.85,53.62ZM70.54,91.38c-24.65,0-44.69-16.94-44.69-37.76a32.29,32.29,0,0,1,1.37-9.26,34.37,34.37,0,0,0-.72,7c0,21.28,19.88,38.59,44.33,38.59S115,72.69,115.15,51.5c0,.71.08,1.41.08,2.12C115.23,74.44,95.18,91.38,70.54,91.38Zm33.35-38A33.69,33.69,0,0,1,88.46,66.82L103.3,52C103.52,52.44,103.7,52.92,103.89,53.39ZM86,67.83a43.34,43.34,0,0,1-10.3,2.48l24-24a28.69,28.69,0,0,1,3.09,4.73ZM74.17,70.47c-1.19.09-2.41.15-3.63.15-1.4,0-2.78-.07-4.14-.2L95.13,41.69a32.14,32.14,0,0,1,4,3.86Zm-9-.18A43,43,0,0,1,58.6,69l31-31a35.64,35.64,0,0,1,4.73,3.09ZM57.5,68.68a42.58,42.58,0,0,1-5.62-2.2L83.14,35.22a38.74,38.74,0,0,1,5.54,2.27ZM50.94,66a37.45,37.45,0,0,1-4.86-3L75.59,33.54a41.22,41.22,0,0,1,6.47,1.34Zm-5.67-3.57a33.08,33.08,0,0,1-4.1-3.71L66.52,33.38c1.23-.11,2.46-.19,3.71-.19s2.74.09,4.08.22ZM40.5,58a29.2,29.2,0,0,1-3.28-4.54L54.31,36.36A40.22,40.22,0,0,1,65,33.53Zm-3.38-5.86A32,32,0,0,1,51.65,37.61ZM70.54,72.62c15.83,0,29.46-7.83,35.51-19l.09,0,0-.08a27,27,0,0,0,3.27-12.81c0-.68,0-1.36-.08-2a21,21,0,0,1,.43,4.12c0,18.43-17.58,33.42-39.19,33.42s-39.19-15-39.19-33.42a21.88,21.88,0,0,1,.47-4.51c-.08.8-.13,1.61-.13,2.43C31.69,58.29,49.12,72.62,70.54,72.62Zm43.61-21.31C114.15,72,94.72,88.9,70.83,88.9S27.5,72,27.5,51.31a33.34,33.34,0,0,1,4.05-15.9,23.36,23.36,0,0,0-1.2,7.36c0,19,18,34.42,40.19,34.42s40.19-15.44,40.19-34.42a23.77,23.77,0,0,0-1.34-7.63A36.67,36.67,0,0,1,112.12,40,33.13,33.13,0,0,1,114.15,51.31ZM96.08,10.77a4.79,4.79,0,0,1,5,4.54A4.39,4.39,0,0,1,99,19a38.38,38.38,0,0,0-7.6-5.21A5,5,0,0,1,96.08,10.77ZM50.37,11.88a4.79,4.79,0,0,1,5-4.54A5.06,5.06,0,0,1,59.91,10a44.17,44.17,0,0,0-9.28,3.3A4,4,0,0,1,50.37,11.88Zm20.17-1.11c20.32,0,36.84,13.42,36.84,29.92a24.9,24.9,0,0,1-2.29,10.4c-5.72-12-19.36-19.9-34.86-19.9-15.05,0-28.61,7.66-34.52,19.25a24.8,24.8,0,0,1-2-9.75C33.69,24.19,50.22,10.77,70.54,10.77Z"/></g></svg>