<svg id="expand" xmlns="http://www.w3.org/2000/svg" viewBox="0 0 90 110"><defs><style>.cls-1{fill:#f2552c;}.cls-2{fill:#084464;}</style></defs><title>icons</title><g id="medium_copy" data-name="medium copy"><path class="cls-1" d="M88.44,41.19c0,19.5-14.55,35.76-33.86,39.38l-1,.31c14.07-6.12,24-21,24-38.43,0-21.61-15.32-39.36-34.84-41.23l1-.08c.92,0,1.85-.09,2.79-.09C69.65,1.05,88.44,19,88.44,41.19Zm-48.5-2.54a4.4,4.4,0,1,0,4.4,4.4A4.4,4.4,0,0,0,39.94,38.65Z"/><path class="cls-2" d="M89.44,41.19c0-22.68-19.28-41.14-43-41.14-.92,0-1.85,0-2.87.09l-.9.08C41.58.11,40.43.05,39.27.05,17.62.05,0,19.07,0,42.45c0,21.08,14.32,38.6,33,41.86V88.6a1,1,0,0,0,.65.94L37.55,91H37v16.65c-.06,1.6,3,2.4,8.94,2.4s9-.8,9.06-2.4V90.42l3.45-1.73A1,1,0,0,0,59,87.8V80.53C76.87,75.33,89.44,59.4,89.44,41.19ZM2,42.45C2,20.18,18.72,2.05,39.27,2.05a33.34,33.34,0,0,1,3.34.17h0c19,1.82,33.93,19.5,33.93,40.23,0,16.61-9.19,31.33-23.4,37.51h0a34.52,34.52,0,0,1-13.87,2.89C18.72,82.85,2,64.73,2,42.45ZM51,90H41V84.81a36.62,36.62,0,0,0,10-1.89ZM35,84.6a37.66,37.66,0,0,0,4.27.25l.73,0v5l-5-1.87Zm4,15.46a30.1,30.1,0,0,0,6.94.69A29.19,29.19,0,0,0,53,100v3.77a23.83,23.83,0,0,1-7.06.77,25.7,25.7,0,0,1-6.94-.72ZM53,99a23.83,23.83,0,0,1-7.06.77A25.7,25.7,0,0,1,39,99V95.26a30.1,30.1,0,0,0,6.94.69A29.19,29.19,0,0,0,53,95.21Zm-7.06,9.07a22.2,22.2,0,0,1-6.94-.77v-2.42a30.1,30.1,0,0,0,6.94.69,29.19,29.19,0,0,0,7.06-.74v2.47A24,24,0,0,1,45.94,108.05ZM53,94.18a23.83,23.83,0,0,1-7.06.77A25.7,25.7,0,0,1,39,94.23V91.54l1,.4.35.06H51.6a1,1,0,0,0,.45-.11l1-.47Zm4-7-5,2.5V82.57c.62-.23,1.23-.47,1.84-.74l1-.29c.74-.14,1.46-.3,2.18-.48ZM78.54,42.45c0-17.62-9.76-32.72-24-39.12,15.6,5.16,26.77,21,26.77,39.12,0,13.47-6.2,26.08-16.34,33.67Q63,77,61,77.77C71.87,70,78.54,56.92,78.54,42.45ZM69.42,73.6A43.62,43.62,0,0,0,82.28,42.45c0-17.19-9.85-32.39-24-38.74C75.12,8.56,87.44,23.52,87.44,41.19A38.77,38.77,0,0,1,69.42,73.6Zm3.12-30.55c0-20.62-15.17-37.4-33.8-37.4S4.94,22.43,4.94,43.05s15.16,37.4,33.8,37.4S72.54,63.68,72.54,43.05Zm-65.6,0c0-12.92,6.25-24.24,15.57-30.42A38.33,38.33,0,0,0,8.69,42.45c0,16.49,10.09,30.81,23.93,35.34C18,74.61,6.94,60.25,6.94,43.05Zm33.7,35.34-1.32-.14h-.1v-.08C22.67,76.6,9.69,60.92,9.69,42.45c0-15.37,9-28.87,21.63-33.81a28.5,28.5,0,0,1,7.42-1c17.53,0,31.8,15.88,31.8,35.4C70.54,61.86,57.29,77.29,40.64,78.39ZM63,41.1a25.76,25.76,0,0,0-8.69-16.83,22.44,22.44,0,0,0-17.23-5.53c-12.82,1.38-22,13.66-20.56,27.37A26.26,26.26,0,0,0,19,54.74l-3.24,2.07a.5.5,0,0,0,.26.92.53.53,0,0,0,.24-.06l3.36-1.74a25.76,25.76,0,0,0,2.11,3.28.5.5,0,0,0,.79-.61,25.7,25.7,0,0,1-2-3.13l16-8.29a5.4,5.4,0,0,0,8.88-4.13,3.71,3.71,0,0,0,0-.47l8.21-4.26a.52.52,0,0,0,.25-.31.49.49,0,0,0-.05-.39l-1.87-3.24a.52.52,0,0,0-.32-.24.5.5,0,0,0-.39.07l-7.59,4.85a5.4,5.4,0,0,0-8.77,5.6L19.84,54.2A25.49,25.49,0,0,1,17.54,46C16.12,32.84,25,21.06,37.21,19.74A21.46,21.46,0,0,1,53.69,25a25.28,25.28,0,0,1,3.4,34.1.5.5,0,0,0,.08.7.53.53,0,0,0,.31.11.51.51,0,0,0,.4-.2A25.69,25.69,0,0,0,63,41.1ZM51.24,35.33l1.35,2.34-7.47,3.88a5.54,5.54,0,0,0-.88-1.75Zm-11.3,4.32a3.4,3.4,0,1,1-3.4,3.4A3.41,3.41,0,0,1,39.94,39.65Zm-4.77,5.94a5.34,5.34,0,0,0,.56.84l-10,5.2Z"/></g></svg>