<svg id="expand" xmlns="http://www.w3.org/2000/svg" viewBox="0 0 27 27"><defs><style>.cls-1{fill:#f2552c;}.cls-2{fill:#084464;}</style></defs><title>icons</title><g id="icons"><rect class="cls-1" x="1" y="11" width="25" height="11"/><path class="cls-2" d="M26,10H23V6.75A1,1,0,0,0,22.7,6L16.88.29a1,1,0,0,0-.7-.29H6.06A2.06,2.06,0,0,0,4,2.06V10H1a1,1,0,0,0-1,1V22a1,1,0,0,0,1,1H4v1.94A2.06,2.06,0,0,0,6.06,27H20.94A2.06,2.06,0,0,0,23,24.94V23h3a1,1,0,0,0,1-1V11A1,1,0,0,0,26,10ZM17,3.22,19.85,6,17,6ZM6,2h9V5.94A2.06,2.06,0,0,0,17.06,8H21v2H6ZM21,25H6V23H21Zm4-4H2V12H25ZM7.5,13H5a1,1,0,0,0-1,1v5a1,1,0,0,0,2,0V18H7.5a2.5,2.5,0,0,0,0-5Zm0,3H6V15H7.5a.5.5,0,0,1,0,1ZM19,13h3.5a1,1,0,0,1,0,2H20v1h1.5a1,1,0,0,1,0,2H20v1a1,1,0,0,1-2,0V14A1,1,0,0,1,19,13Zm-5.5,0H12a1,1,0,0,0-1,1v5a1,1,0,0,0,1,1h1.5a3.5,3.5,0,0,0,0-7Zm0,5H13V15h.5a1.5,1.5,0,0,1,0,3Z"/></g></svg>