<svg id="expand" xmlns="http://www.w3.org/2000/svg" viewBox="0 0 189 129"><defs><style>.cls-1{fill:#f2552c;}.cls-2{fill:#084464;}</style></defs><title>icons</title><g id="big_copy" data-name="big copy"><path class="cls-1" d="M120.57,21.45l-5.4-.52v2.22H103.52V19.07a13.65,13.65,0,0,1-3.76-3.81l-2.18-2.79S92.92,7,85.93,6.88L18,1.1a6.15,6.15,0,0,0-1,0L4.37,2c-1.76.54-2.63,1.41-2.78,3A3.16,3.16,0,0,0,4.69,8.2L70,14.08s1.6.24,4,.65a9.91,9.91,0,0,1,6,3.44,49.48,49.48,0,0,1,3.65,5.1c1.92,3.17,4.87,5.63,8.57,5.9l3.39.24,16.51,1.5L127.67,27V22.17Z"/><path class="cls-2" d="M175.3,38.72l-7.19-.85c-6.07-.71-12.24,6.18-16.78,17.47a8.16,8.16,0,0,0-2.71-.7l-.45,0-4.33-1-.28-.06a8.78,8.78,0,0,0-5.4-3.08L119,49.22v-19L127.92,28a1,1,0,0,0,.75-1V22.17a1,1,0,0,0-.89-1l-7.1-.73h0L116,20V18a1,1,0,0,0-1-1H104a1,1,0,0,0-.88.55,16.09,16.09,0,0,1-2.57-2.91l-2.21-2.82c-.2-.24-5-5.85-12.33-5.93L18,.1a6.86,6.86,0,0,0-1.11,0L4.3,1l-.22,0A4.35,4.35,0,0,0,.59,4.92a4.18,4.18,0,0,0,4,4.28l65.28,5.87s1.6.24,4,.65a8.8,8.8,0,0,1,5.36,3.12A33.38,33.38,0,0,1,82,22.61l.79,1.18c2.33,3.84,5.65,6.11,9.35,6.38l3.37.23,3.46.32V47.88L88.68,47.2a21.91,21.91,0,0,0-3.55.12C81.4,39.25,75.45,34.2,68.72,33.4a36.92,36.92,0,0,0-5,0h-.31c-6.65-.77-13.34,2.54-18.86,9.32S35.51,58.65,34.3,68.81s.17,20,3.88,27.79,9.54,12.69,16.21,13.48a16.3,16.3,0,0,0,2.72.1c1-.07,2.24-.13,2.49-.1a17.23,17.23,0,0,0,2,.12c6.4,0,12.59-3.62,17.66-10.38l54.63,8.79a.59.59,0,0,0,.19,0,9,9,0,0,0,5.38-2.21l4.17-.07a8,8,0,0,0,.95.13h.47c1.7,12.42,6.12,20.85,12.32,21.59l7.19.85a6.51,6.51,0,0,0,.88.06c4.61,0,9.34-4.26,13.42-12.11,4.19-8.06,7.27-19.05,8.68-30.95C190.57,60.63,185.18,39.9,175.3,38.72ZM146,56.19C140,58.53,134.93,68,134,79.76c-.85,11,2.26,20.85,7.43,24.61l-2.36,0a.92.92,0,0,0-.4.11c-2.92-.65-5.5-3.31-7.33-7.62C129.29,92,128.44,85.72,129,79.1c1-13.19,7.18-23.55,13.89-23.63Zm-11.95,50.42C127.24,104,122.93,92.32,124,78.82c.56-7.31,2.62-14,5.79-19,2.74-4.27,6-6.72,9.35-7a7.35,7.35,0,0,1,2.63,1.78C135,55.65,129,66,128,79c-.53,6.78.35,13.27,2.48,18.27,1.8,4.23,4.31,7,7.21,8a6.72,6.72,0,0,1-3.52,1.36ZM112.64,29.76V26.93l14-3.5v2.82ZM114,22h-4V19h4Zm-9-3h4v3h-4ZM17.07,2.09a5.34,5.34,0,0,1,.8,0l68,5.79c6.44.08,10.86,5.18,10.88,5.2L99,15.85a16.13,16.13,0,0,0,3.57,3.76v3.54a1,1,0,0,0,1,1h11.65a1,1,0,0,0,1-1V22l8.55.85L112.1,26l-13.52-1.5-3.4-.24C92,24.07,89.09,22.06,87,18.64c-2.52-4.16-5.17-8-9.94-8.77C74.62,9.46,73,9.22,73,9.22L7.25,2.82ZM92.31,28.18c-4.09-.3-6.63-3.53-7.81-5.47l-.8-1.21a36,36,0,0,0-2.94-4,10.79,10.79,0,0,0-6.52-3.76c-2.45-.42-4.07-.66-4.12-.66L4.79,7.21a2.19,2.19,0,0,1-2.21-2.1,1.94,1.94,0,0,1,1-1.65l69.31,6.75s1.6.24,4,.65c4.35.73,6.86,4.34,9.26,8.3,2.24,3.7,5.42,5.89,9,6.14l3.38.24L111.64,27v2.87L95.7,28.41Zm19.74,3.73h.09a1,1,0,0,0,.24,0l4.7-1.17V49.64a5.85,5.85,0,0,1-1.67,1,16,16,0,0,1-6.16,1.1h0a16.14,16.14,0,0,1-6.15-1.09,4.75,4.75,0,0,1-2-1.43.94.94,0,0,0,0-.41.91.91,0,0,0-.1-.33V30.9ZM54.62,108.1c-6-.71-11.16-5.1-14.64-12.37s-4.86-16.89-3.69-26.68S41,50.35,46.13,44c4.67-5.74,10.19-8.77,15.69-8.68-9.91,4.35-18,17.64-19.87,33.58-2.14,18.07,4.21,34.39,14.76,39.31A14.56,14.56,0,0,1,54.62,108.1Zm5.22,0a5,5,0,0,0-.6,0C47.82,104.68,40.71,87.83,43,69c2-16.9,11-30.74,21.69-33.64a32.32,32.32,0,0,1,3.84,0c6.15.73,11.62,5.55,15,13.24a16.9,16.9,0,0,0-5,4.42,10.12,10.12,0,0,0-4.73,1.4,9.57,9.57,0,0,0-4.49-1.8c-7.05-.83-13.76,6.66-15,16.7A22.75,22.75,0,0,0,56.5,82.59c2,3.77,5,6.08,8.46,6.49a9.77,9.77,0,0,0,1.08.06,10.07,10.07,0,0,0,4.29-1h0c.09.45.17.91.28,1.35,1.28,5.15,3.69,8.47,6.81,9.44C72.33,105.58,66.11,108.85,59.84,108.1Zm9.7-20.71a8.47,8.47,0,0,1-4.46.69c-3.12-.37-5.85-2.48-7.69-6a21.75,21.75,0,0,1-2.06-12.66c1.13-9.5,7.32-16.58,13.84-15.82A8.49,8.49,0,0,1,72.86,55c-4.08,2.86-7.24,8.5-8,15.2C64,77.08,65.85,83.67,69.54,87.39Zm.53-.89c-3.36-3.55-5-9.71-4.25-16.16,1-8.68,6.13-15.53,11.9-16.25A45.19,45.19,0,0,0,70.8,70.68,45.66,45.66,0,0,0,70.07,86.5ZM79,97.75a1,1,0,0,0-.89.31c-2.9-.69-5.27-3.89-6.5-8.82a42,42,0,0,1,.18-18.35C74,60.47,79,52,84.28,49.36a1,1,0,0,0,.35,0,24.5,24.5,0,0,1,3.89-.19l11.14.74a1,1,0,0,0,.63,0h0a5.83,5.83,0,0,0,2.36,1.66,17,17,0,0,0,6.54,1.17h0a17,17,0,0,0,6.56-1.18,7.47,7.47,0,0,0,1.49-.85,1,1,0,0,0,.72.41l18.51,1.23c-2.75,1.06-5.35,3.41-7.6,6.91-3.26,5.07-5.37,12-6,19.45-1,12.25,2.49,23.11,8.25,27.41Zm65.77,6.73a5.32,5.32,0,0,1-.8-.12l-.23,0h-.34c-5.7-2.61-9.27-12.89-8.37-24.5,1-12.57,7-22.79,13.51-23.2a6.1,6.1,0,0,1,2.08.57,103.89,103.89,0,0,0-5.48,23.67,105.64,105.64,0,0,0-.31,23.6Zm2.35-23.37c2.71-22.77,11.81-41.29,20.11-41.29a4.87,4.87,0,0,1,.66,0l2.74.32c-3.17,1.66-6.33,5.35-9.18,10.83-4.15,8-7.22,18.94-8.63,30.78-2.48,20.88.77,38.71,7.53,44.62l-2.71-.33C149.15,125.08,144.34,104.48,147.11,81.11Zm38.47,4.57c-1.39,11.67-4.4,22.42-8.47,30.27-3.87,7.45-8.35,11.46-12.29,11l-2.4-.29c-7.38-4.08-11.2-23-8.61-44.74,1.39-11.73,4.42-22.53,8.52-30.44,3.26-6.27,6.86-10.07,10.34-11l2.39.28C183.54,41.72,188.36,62.31,185.58,85.68ZM175.18,54c-6.68-.95-13.75,11.52-16.1,28.34s1,30.73,7.74,31.66a4.12,4.12,0,0,0,.7,0c6.47,0,13.13-12.15,15.4-28.39C185.26,68.81,181.87,54.9,175.18,54Zm6.75,31.53c-2.19,15.72-9.06,28.3-15,27.48s-9.08-14.81-6.89-30.53c2.13-15.24,8.63-27.53,14.42-27.53a4.91,4.91,0,0,1,.55,0C181,55.79,184.12,69.77,181.93,85.5Zm-6.88-23.6c-5.35-.77-9.8,10.23-11.29,20.93s-.2,22.47,5.13,23.22l.52,0c5.1,0,9.32-10.61,10.77-21C181.67,74.42,180.38,62.64,175.05,61.9Zm-.28,2a2.17,2.17,0,0,1,1.17.65L168.45,72C170.43,66.7,172.91,63.64,174.77,63.88Zm-7.05,10.28,8.84-8.84a16.28,16.28,0,0,1,1.9,6.39l-12.9,12.9c.06-.5.11-1,.18-1.51A55.64,55.64,0,0,1,167.72,74.16Zm10.86,7.14L165.31,94.57a49.41,49.41,0,0,1,.09-8.38L178.6,73A49.17,49.17,0,0,1,178.58,81.3Zm-9.41,22.77a2.36,2.36,0,0,1-1.37-.87l7.94-7.94C173.72,101,171.12,104.33,169.17,104.07Zm7.25-10.9-9.2,9.2a17.63,17.63,0,0,1-1.78-6.52l13-13c-.07.66-.15,1.32-.24,2A57.13,57.13,0,0,1,176.42,93.17Z"/></g></svg>