<svg id="expand" xmlns="http://www.w3.org/2000/svg" viewBox="0 0 100 63"><defs><style>.cls-1{fill:#f2552c;}.cls-2{fill:#084464;}</style></defs><title>icons</title><g id="small_copy" data-name="small copy"><path class="cls-1" d="M50,1C42.82,1,37,4.13,37,8v4c0,3.87,5.82,7,13,7s13-3.13,13-7V8C63,4.13,57.18,1,50,1Zm0,10c-5.79,0-8.83-2.3-9-3,.17-.67,3.21-3,9-3s8.83,2.3,9,3C58.83,8.7,55.79,11,50,11Z"/><path class="cls-2" d="M17,41c0-8.36-2.43-17-6.5-17S4,32.64,4,41c0,7.26,2.07,18,6.5,18S17,48.26,17,41ZM6,41a39,39,0,0,1,.58-6.87l6-6a22.22,22.22,0,0,1,2,6.69L6.11,44.07C6,43.07,6,42.05,6,41Zm8.72-4.89A41.2,41.2,0,0,1,15,41a43.84,43.84,0,0,1-.24,4.54L7.68,52.61a35.79,35.79,0,0,1-1.45-7.19ZM10.5,26c.48,0,1,.44,1.56,1.23L6.94,32.36C7.89,28.36,9.37,26,10.5,26ZM8.05,53.65l6.51-6.5C13.71,52.93,11.84,57,10.5,57,9.76,57,8.86,55.74,8.05,53.65Z"/><path class="cls-2" d="M93.5,24H88c-1.64-2.46-3.8-4-6.51-4H70.25c-3.34,0-5.29,2.16-6.5,4H62V16.16A5.79,5.79,0,0,0,64,12V8c0-4.49-6.15-8-14-8S36,3.51,36,8v4a5.79,5.79,0,0,0,2,4.16V24H28.5a1,1,0,0,0-.43.1C26.43,21.59,24.25,20,21.5,20H10a.8.8,0,0,0-.15,0C3.09,20.67,0,31.2,0,41,0,51.27,3.08,62.29,9.84,63A.76.76,0,0,0,10,63H21.5c2.7,0,4.85-1.6,6.49-4.16a1,1,0,0,0,.51.16H63.75c1.21,1.84,3.16,4,6.5,4H81.5c2.64,0,4.76-1.54,6.38-4H93.5c4.43,0,6.5-10.74,6.5-18C100,32.64,97.57,24,93.5,24ZM60.37,15a.73.73,0,0,0-.09.08c-2.12,1.75-6,3-10.28,3s-8.16-1.21-10.28-3a.73.73,0,0,0-.09-.08A4,4,0,0,1,38,12v-.52c2.22,2.41,6.71,4,12,4s9.78-1.61,12-4V12A4,4,0,0,1,60.37,15ZM50,2c6.5,0,12,2.75,12,6V9.8c-1.51,2.71-6.31,4.7-12,4.7s-10.49-2-12-4.7V8C38,4.75,43.5,2,50,2Zm0,18a20.3,20.3,0,0,0,10-2.35V25a1,1,0,0,0,.49.84C60.22,38.08,54.23,51.5,51,51.5c-1.58,0-3.72-7-5.43-12.69C43.39,31.63,41.79,26.73,40,25.1c0,0,0-.06,0-.1V17.65A20.3,20.3,0,0,0,50,20ZM2,41c0-9.44,2.92-19,8.5-19h2.2c4.47,2.11,6.8,10.6,6.8,19,0,8.66-2.4,17.8-6.89,20H10.5C5,61,2,50.7,2,41ZM21.5,61h-7c4.36-3.64,6-13.14,6-20,0-7.64-1.88-15.73-5.91-19H21.5c5.58,0,8.5,9.56,8.5,19C30,50.7,27,61,21.5,61ZM32,41c0-5.36-.92-10.94-2.87-15H39a1.12,1.12,0,0,0,.41-.09c1.7,1.63,3.62,8,5.2,13.19,2.52,8.31,4.18,13.4,6.39,13.4,4.39,0,10.17-14.81,10.48-26.5h9c1.79,0,4.5,6,4.5,15,0,8.83-2.72,16-4.5,16H29C31,52.73,32,46.75,32,41ZM66.25,59H70.5C74.93,59,77,48.26,77,41c0-8.36-2.43-17-6.5-17H66.25a5.06,5.06,0,0,1,4-2h2.6a7.9,7.9,0,0,1,3.42,3.26c2,3.19,3.23,9.37,3.23,15.74,0,5.53-1,13.13-3.23,16.74A7.9,7.9,0,0,1,72.85,61h-2.6A5.06,5.06,0,0,1,66.25,59ZM81.5,61H74.73a10.3,10.3,0,0,0,2.4-2.74C79.44,54.49,80.5,46.67,80.5,41c0-5-.88-12.21-3.37-16.26A10.3,10.3,0,0,0,74.73,22H81.5c5.58,0,8.5,9.56,8.5,19C90,50.7,87,61,81.5,61Zm12-4H89c2-4.27,3-10.25,3-16,0-5.36-.92-10.94-2.87-15H93.5c1.79,0,4.5,6,4.5,15C98,49.83,95.28,57,93.5,57Z"/><path class="cls-2" d="M50,12c6,0,9.63-2.39,10-3.72a1.16,1.16,0,0,0,0-.49C59.65,6.43,56,4,50,4S40.38,6.39,40,7.72a1.16,1.16,0,0,0,0,.49C40.35,9.57,44,12,50,12Zm0-6c4.17,0,6.75,1.27,7.7,2-.91.69-3.37,2-7.7,2-4.17,0-6.75-1.27-7.7-2C43.21,7.3,45.67,6,50,6Z"/></g></svg>