<svg id="expand" xmlns="http://www.w3.org/2000/svg" viewBox="0 0 88 87"><defs><style>.cls-1{fill:#f2552c;}.cls-2{fill:#084464;}</style></defs><title>icons-58</title><g id="small_copy_2" data-name="small copy 2"><path class="cls-1" d="M50.87,45.18c-2.12,2.13-4.29,1.37-6.41,3.49,0,0-11.89,19.22-16.84,24.17S12.11,91.28,4.78,83.94L3.32,82.48C-4,75.15,9.47,64.59,14.42,59.64S38.59,42.8,38.59,42.8c2.12-2.12,1.37-4.29,3.49-6.41s4.27-2.81,5-2.07l3.27,3.27-.68-.68,3.27,3.27C53.68,40.92,53,43.06,50.87,45.18Z"/><path class="cls-2" d="M78.22,13.79l4.16-1.33A1,1,0,0,0,83,12L87.3,3.38a1,1,0,0,0-.19-1.15L85,.1a1,1,0,0,0-1.16-.18L75.08,4.43a1,1,0,0,0-.51.61L73.42,9a1,1,0,0,0,.26,1l0,0L49,34.78l-1.16-1.17c-1.11-1.11-3.33-.57-5.52,1.25l-15.1-15.1,1.16-1.16a1,1,0,0,0,.26-1L25.16,4.81a1,1,0,0,0-.71-.71L18.29,2.45a1,1,0,0,0-.86.17,1,1,0,0,0-.4.79L17,14H9L9,5a1,1,0,0,0-1.7-.71L1.27,10.31a1,1,0,0,0-.26,1L4.45,24.1a1,1,0,0,0,.7.71L18,28.25a1,1,0,0,0,1-.26l1.16-1.16L36.32,43c-4.88,3.07-18.46,11.75-22.61,15.9-.62.63-1.39,1.35-2.24,2.14C7,65.26.28,71.58.18,77.49a7.7,7.7,0,0,0,2.43,5.7l1.47,1.46a7.69,7.69,0,0,0,5.57,2.43h.12C15.68,87,22,80.25,26.18,75.79c.8-.85,1.52-1.62,2.14-2.24,4.15-4.15,12.83-17.73,15.9-22.61L60.41,67.13l-1.16,1.16a1,1,0,0,0-.26,1l3.44,12.83a1,1,0,0,0,.65.69L69.69,85A1.12,1.12,0,0,0,70,85a1,1,0,0,0,.59-.19A1,1,0,0,0,71,84V73h7v9a1,1,0,0,0,1.68.73l6.61-6.12a1,1,0,0,0,.29-1L83.14,62.79a1,1,0,0,0-.71-.71L69.61,58.65a1,1,0,0,0-1,.25l-1.16,1.16L52.4,45a9.18,9.18,0,0,0,1.51-2.47c.68-1.75.13-2.66-.26-3l-1.16-1.17L77.23,13.56A1,1,0,0,0,78.22,13.79ZM46.37,35l3.28,3.28h0l.72.72h0l1.84,1.83c.14.33-.24,1.82-2,3.63A6,6,0,0,1,47.36,46a11.17,11.17,0,0,0-2,.79L40.5,41.88a11.17,11.17,0,0,0,.79-2,6.12,6.12,0,0,1,1.49-2.81c1.62-1.61,3-2.09,3.46-2.09Zm-7.25,8.63a.86.86,0,0,0,.18-.14,7.31,7.31,0,0,0,.65-.76l4.56,4.56a7.31,7.31,0,0,0-.76.65l-.14.18s-.17.27-.42.67l-4.74-4.74Zm0-3.49L29.3,30.37,30.71,29l9.1,9.1c-.17.43-.3.85-.43,1.24S39.19,39.88,39.09,40.16Zm10.12,7.29L59,57.24l-1.42,1.41L47.11,48.17c.27-.1.56-.2.86-.29S48.78,47.62,49.21,47.45ZM19.4,24.71l-1.46,1.46L6.23,23,3.09,11.32,7,7.38,7,15a1,1,0,0,0,.29.71A1,1,0,0,0,8,16H18a1,1,0,0,0,1-1L19,4.72l4.34,1.16,3.14,11.71-1.46,1.46a1,1,0,0,0,0,1.42l15.8,15.79a6.92,6.92,0,0,0-.57.84l-9.22-9.21a.5.5,0,0,0-.7,0L28.24,30a.5.5,0,0,0,0,.71l10.39,10.4a4.69,4.69,0,0,1-.6.81L20.81,24.71A1,1,0,0,0,19.4,24.71ZM12.84,62.54c.86-.81,1.65-1.55,2.29-2.19a72.6,72.6,0,0,1,8.43-6.52,1.48,1.48,0,0,1-.42,1.1L3.34,74.73a1.42,1.42,0,0,1-.68.37C4.2,70.65,9.28,65.87,12.84,62.54ZM9.74,85.08a5.67,5.67,0,0,1-4.25-1.84L4,81.77a5.68,5.68,0,0,1-1.84-4.25,7.25,7.25,0,0,1,.18-1.37,2.49,2.49,0,0,0,1.69-.72l19.8-19.8a2.5,2.5,0,0,0,.63-2.43c5-3.46,10.5-7,13.1-8.58l5.06,5.06c-1.63,2.6-5.12,8.08-8.58,13.11a2.48,2.48,0,0,0-2.43.62l-19.8,19.8a2.5,2.5,0,0,0-.73,1.69A7.15,7.15,0,0,1,9.74,85.08Zm17.17-13c-.64.64-1.38,1.43-2.19,2.29C21.39,78,16.61,83.06,12.16,84.61a1.41,1.41,0,0,1,.37-.69l19.8-19.8a1.48,1.48,0,0,1,1.1-.42A72.6,72.6,0,0,1,26.91,72.13Zm41.28-9.95,1.46-1.45,11.71,3.14,3.13,11.68L80,79.71V72a1,1,0,0,0-1-1H70a1,1,0,0,0-1,1V82.62l-4.78-1.57L61.07,69.3l1.46-1.46a1,1,0,0,0,0-1.41l-17.2-17.2a4.39,4.39,0,0,1,.82-.6L57.23,59.71a.49.49,0,0,0,.35.15.47.47,0,0,0,.35-.15l2.13-2.12a.51.51,0,0,0,0-.71L50.16,47a8.45,8.45,0,0,0,.84-.58L66.77,62.18A1,1,0,0,0,68.19,62.18ZM51.07,36.9l-.35-.36-.36-.35L75.82,10.73a1,1,0,0,0,0-1.41L75.51,9l.86-3,7.72-4,1.1,1.09-3.82,7.55-3.17,1-.26-.26a1,1,0,0,0-1.41,0ZM30.24,59.52a2.45,2.45,0,0,0-.74-1.76,2.54,2.54,0,0,0-3.53,0L6.17,77.55a2.52,2.52,0,0,0-.73,1.77,2.5,2.5,0,0,0,4.27,1.77L29.5,61.29A2.46,2.46,0,0,0,30.24,59.52ZM28.8,60.58,9,80.38a1.49,1.49,0,0,1-2.12,0,1.5,1.5,0,0,1,0-2.12l19.8-19.8A1.5,1.5,0,0,1,27.74,58a1.5,1.5,0,0,1,1.5,1.5A1.5,1.5,0,0,1,28.8,60.58Z"/></g></svg>