<svg id="expand" xmlns="http://www.w3.org/2000/svg" viewBox="0 0 27 27"><defs><style>.cls-1{fill:#ffe720;}.cls-2{fill:#084464;}</style></defs><title>icons</title><g id="icons"><rect class="cls-1" x="1" y="11" width="25" height="11"/><path class="cls-2" d="M4,14a1,1,0,0,1,1-1h5a1,1,0,0,1,.92.62,1,1,0,0,1-.21,1.09L7.41,18H10a1,1,0,0,1,0,2H5a1,1,0,0,1-.92-.62,1,1,0,0,1,.21-1.09L7.59,15H5A1,1,0,0,1,4,14Zm13,5V14a1,1,0,0,1,1-1h2.5a2.5,2.5,0,0,1,0,5H19v1a1,1,0,0,1-2,0Zm2-3h1.5a.5.5,0,0,0,0-1H19Zm8-5V22a1,1,0,0,1-1,1H23v1.94A2.06,2.06,0,0,1,20.94,27H6.06A2.06,2.06,0,0,1,4,24.94V23H1a1,1,0,0,1-1-1V11a1,1,0,0,1,1-1H4V2.06A2.06,2.06,0,0,1,6.06,0H16.18a1,1,0,0,1,.7.29L22.7,6a1,1,0,0,1,.3.71V10h3A1,1,0,0,1,27,11ZM17,5.94l2.83,0L17,3.19ZM6,10H21l0-2h-4A2.06,2.06,0,0,1,15,5.94V2H6ZM21,23H6l0,2L21,25.06Zm4-11H2v9H25ZM14,20a1,1,0,0,0,1-1V14a1,1,0,0,0-2,0v5A1,1,0,0,0,14,20Z"/></g></svg>