<svg id="expand" xmlns="http://www.w3.org/2000/svg" viewBox="0 0 114 98"><defs><style>.cls-1{fill:#f2552c;}.cls-2{fill:#084464;}</style></defs><title>icons</title><g id="medium_copy" data-name="medium copy"><path class="cls-1" d="M84.58,23.25h0a20.82,20.82,0,0,1,2.35,9.56c0,13.66-13.55,24.74-30.28,24.74S26.37,46.47,26.37,32.81a20.92,20.92,0,0,1,2.41-9.7h0a28.28,28.28,0,0,0-8.65,20c0,17.13,16.37,31,36.55,31s36.56-13.88,36.56-31A28.48,28.48,0,0,0,84.58,23.25Z"/><path class="cls-2" d="M113.52,46.47C113.52,20.88,88.06.05,56.77.05S0,20.88,0,46.47C0,47.65.08,48.82.19,50h0c0,.18,0,.41-.07.64a7.64,7.64,0,0,0-.1,1C0,77.23,25.47,98.05,56.77,98.05s56.75-20.82,56.75-46.41c0-.6-.06-2-.09-2.59Q113.52,47.78,113.52,46.47ZM56.77,2.05C87,2.05,111.52,22,111.52,46.47S87,90.88,56.77,90.88,2,71,2,46.47,26.58,2.05,56.77,2.05Zm0,94c-25.05,0-46.21-13.72-52.7-32.37,8.38,17.09,28.84,29.2,52.7,29.2s44.31-12.11,52.69-29.2C103,82.33,81.81,96.05,56.77,96.05Zm14-19.2a5.44,5.44,0,1,0,5.8,5.43A5.63,5.63,0,0,0,70.8,76.85Zm0,2a3.64,3.64,0,0,1,3.8,3.43,3.13,3.13,0,0,1-.41,1.51,5.45,5.45,0,0,0-4.25-2A5.62,5.62,0,0,0,67,82.6c0-.11,0-.21,0-.32A3.63,3.63,0,0,1,70.8,78.85Zm0,6.86a3.83,3.83,0,0,1-3.5-2.09,4.58,4.58,0,0,1,2.64-.84,4.4,4.4,0,0,1,3.62,1.84A4,4,0,0,1,70.8,85.71ZM99,56.55a5.44,5.44,0,1,0,5.8,5.43A5.63,5.63,0,0,0,99,56.55Zm0,2a3.62,3.62,0,0,1,3.8,3.43,3.24,3.24,0,0,1-.71,2A5.47,5.47,0,0,0,98,62.12a5.56,5.56,0,0,0-2.64.67,3.11,3.11,0,0,1-.12-.81A3.63,3.63,0,0,1,99,58.55Zm-3.27,5.14A4.59,4.59,0,0,1,98,63.12a4.42,4.42,0,0,1,3.39,1.53,4,4,0,0,1-2.35.76A3.88,3.88,0,0,1,95.77,63.69Zm4.78-25.45a5.63,5.63,0,0,0,5.8-5.43,5.81,5.81,0,0,0-11.6,0A5.63,5.63,0,0,0,100.55,38.24Zm-2.78-3.11a4.57,4.57,0,0,1,4.93.5,4.06,4.06,0,0,1-2.15.61A4,4,0,0,1,97.77,35.13Zm2.78-5.75a3.64,3.64,0,0,1,3.8,3.43,3.21,3.21,0,0,1-.88,2.17,5.51,5.51,0,0,0-3.64-1.35,5.61,5.61,0,0,0-2.68.68,3.08,3.08,0,0,1-.4-1.5A3.63,3.63,0,0,1,100.55,29.38ZM16.78,53.07A5.63,5.63,0,0,0,11,47.64,5.44,5.44,0,1,0,11,58.5,5.64,5.64,0,0,0,16.78,53.07ZM11,49.64a3.64,3.64,0,0,1,3.8,3.43,3.09,3.09,0,0,1-.14.86,5.6,5.6,0,0,0-2.43-.57,5.47,5.47,0,0,0-4.15,1.88,3.21,3.21,0,0,1-.88-2.17A3.63,3.63,0,0,1,11,49.64Zm0,6.86a4.1,4.1,0,0,1-2.16-.61,4.42,4.42,0,0,1,3.39-1.53,4.6,4.6,0,0,1,2,.47A3.91,3.91,0,0,1,11,56.5Zm6-26A5.63,5.63,0,0,0,22.81,25,5.63,5.63,0,0,0,17,19.59,5.63,5.63,0,0,0,11.21,25,5.63,5.63,0,0,0,17,30.45Zm0-2a4.05,4.05,0,0,1-2.34-.75A4.57,4.57,0,0,1,20,27.11,4,4,0,0,1,17,28.45Zm0-6.86A3.63,3.63,0,0,1,20.81,25a3.12,3.12,0,0,1-.27,1.25,5.54,5.54,0,0,0-6.6.75,3.19,3.19,0,0,1-.73-2A3.64,3.64,0,0,1,17,21.59ZM33.73,73.25a5.44,5.44,0,1,0-2,10.68,6.27,6.27,0,0,0,1.13.11,5.57,5.57,0,0,0,5.57-4.38,5.25,5.25,0,0,0-1-4.12A6,6,0,0,0,33.73,73.25ZM29,77.89a3.63,3.63,0,0,1,4.36-2.67,4,4,0,0,1,2.48,1.51,3.29,3.29,0,0,1,.63,2.56c0,.1-.06.18-.08.27a5.6,5.6,0,0,0-2.75-1.37,5.47,5.47,0,0,0-4.55,1.19A3.12,3.12,0,0,1,29,77.89ZM32.1,82a3.93,3.93,0,0,1-2.55-1.64,4.44,4.44,0,0,1,3.91-1.15,4.58,4.58,0,0,1,2.48,1.36A3.81,3.81,0,0,1,32.1,82Zm-13-38.81c0,17.65,16.85,32,37.55,32S94.2,60.8,94.2,43.15a29.48,29.48,0,0,0-8.84-20.53,25.21,25.21,0,0,0-4.47-6,5.34,5.34,0,0,0,2-4.08,5.63,5.63,0,0,0-5.8-5.43,5.84,5.84,0,0,0-5.3,3.22A36.47,36.47,0,0,0,56.64,7.07a38.48,38.48,0,0,0-6.77.61,5.85,5.85,0,0,0-5.36-3.36,5.63,5.63,0,0,0-5.8,5.43,5.22,5.22,0,0,0,.33,1.8A27.79,27.79,0,0,0,28,22.42h0A29.35,29.35,0,0,0,19.09,43.15Zm37.55,30c-19.6,0-35.55-13.46-35.55-30a25.61,25.61,0,0,1,.32-4c-.06.72-.1,1.44-.1,2.16,0,17.08,16,31,35.57,31,17.8,0,32.59-11.47,35.16-26.36C90.38,61.17,75.14,73.16,56.64,73.16ZM83.11,43A26.64,26.64,0,0,1,71.66,53.18L82.74,42.09C82.87,42.37,83,42.67,83.11,43Zm-14,11.31a34.1,34.1,0,0,1-8,2L79.91,37.54a22.72,22.72,0,0,1,2.36,3.62Zm-9.55,2.16c-1,.08-2,.13-3,.13s-2,0-3-.13L76.26,33.81a25.53,25.53,0,0,1,3,2.95Zm-7.25-.13a36.54,36.54,0,0,1-5-1L71.84,30.84a27.07,27.07,0,0,1,3.62,2.35ZM46.27,55A31.81,31.81,0,0,1,42,53.33L66.67,28.62a31.23,31.23,0,0,1,4.25,1.73ZM41,52.87a30.68,30.68,0,0,1-3.72-2.26L60.63,27.28a32.17,32.17,0,0,1,5,1ZM36.49,50a26.47,26.47,0,0,1-3.13-2.83l20-20c1-.09,2-.15,3-.15s2,.06,3,.14Zm-3.8-3.57A23.07,23.07,0,0,1,30.19,43L43.52,29.62a32.54,32.54,0,0,1,8.26-2.29Zm-2.23-5.16A25.27,25.27,0,0,1,40.72,31ZM56.64,58.55c16.72,0,30.42-10.86,31.24-24.45,0,.12,0,.25,0,.37,0,14.69-14,26.64-31.26,26.64s-31.25-12-31.25-26.64c0-.12,0-.23,0-.34C26.25,47.71,39.94,58.55,56.64,58.55ZM91.44,41.3c0,16.53-15.51,30-34.56,30s-34.57-13.45-34.57-30a26.43,26.43,0,0,1,2.76-11.73,18.3,18.3,0,0,0-.68,4.9c0,15.24,14.47,27.64,32.25,27.64S88.9,49.71,88.9,34.47a18.64,18.64,0,0,0-.77-5.12,29.42,29.42,0,0,1,2.12,4.14A26.51,26.51,0,0,1,91.44,41.3ZM77.08,9.07a3.64,3.64,0,0,1,3.8,3.43,3.3,3.3,0,0,1-1.46,2.7,30.67,30.67,0,0,0-5.84-4A3.81,3.81,0,0,1,77.08,9.07Zm-36.37.68a3.64,3.64,0,0,1,3.8-3.43,3.9,3.9,0,0,1,3.33,1.8,34.56,34.56,0,0,0-7,2.49A3.09,3.09,0,0,1,40.71,9.75Zm15.93-.68c16.15,0,29.28,10.65,29.28,23.74a19.76,19.76,0,0,1-1.65,7.85C79.55,31.21,68.71,25,56.4,25c-11.95,0-22.74,6-27.6,15.12a19.52,19.52,0,0,1-1.43-7.32C27.37,19.72,40.5,9.07,56.64,9.07Z"/></g></svg>