<svg id="expand" xmlns="http://www.w3.org/2000/svg" viewBox="0 0 98 62"><defs><style>.cls-1{fill:#f2552c;}.cls-2{fill:#084464;}</style></defs><title>icons</title><g id="small_copy" data-name="small copy"><path class="cls-1" d="M50,31a4,4,0,0,0,4,4h3.12C58,49.68,63.38,61,72,61h8c9.39,0,17-13.43,17-30S89.39,1,80,1H72C63.38,1,58,12.32,57.12,27H54a4,4,0,0,0-4,4Zm38.89,3.24L85.55,12.89A46.55,46.55,0,0,1,89,31C89,32.09,89,33.18,88.89,34.24ZM67.49,38l21.21,12C86.23,54.4,83,57,80,57,74.83,57,69.17,49.46,67.49,38ZM67,29.42C67.48,15,74.06,5,80,5a5.88,5.88,0,0,1,2.38.52Z"/><path class="cls-2" d="M80,0H72C64.07,0,58.15,9,56.48,22.8c-1.25-2.94-3.17-4.72-5.34-4.79L50,17.82V15.53a4,4,0,0,0-3.32-3.95L21.15,7.19A4.3,4.3,0,0,0,20.2,7h0L20,7H15a4,4,0,0,0-4,4H10A4,4,0,0,0,6,7H4a4,4,0,0,0-4,4V51a4,4,0,0,0,4,4H6a4,4,0,0,0,4-4h1a4,4,0,0,0,4,4h5l.16,0h0a3.85,3.85,0,0,0,.91-.16l25.57-4.4a4,4,0,0,0,3.32-4V44.18L51.14,44c2.17-.07,4.09-1.85,5.34-4.79C58.15,53,64.07,62,72,62h8c9.92,0,18-13.91,18-31S89.92,0,80,0ZM56.06,28Q56,29.47,56,31t.06,3H54a3,3,0,1,1,0-6ZM33.56,44.89l-.12,0A1.65,1.65,0,0,1,33,45c-2.36,0-5-5.75-5-14s2.64-14,5-14a1.65,1.65,0,0,1,.44.08l.12,0,14.77,2.46C46.06,21.49,44.5,25.83,44.5,31s1.56,9.51,3.83,11.43ZM13.28,52A2,2,0,0,1,13,51V43.71l9-9v8.58ZM22,33.29l-9,9V33.71l9-9Zm0-10-9,9V23.71l9-9ZM22,11v2.29l-9,9V13.71L17.71,9h2.21l.79.14A2,2,0,0,1,22,11Zm-9,0a2,2,0,0,1,2-2h1.29L13,12.29ZM2,24.71l6-6v8.58l-6,6Zm0,10,6-6v8.58l-6,6ZM8,17.29l-6,6V14.71L7.25,9.45A2,2,0,0,1,8,11ZM4,9H6l.27,0L2,13.29V11A2,2,0,0,1,4,9ZM2,44.71l6-6v8.58L2.75,52.55A2,2,0,0,1,2,51ZM8,51a2,2,0,0,1-2,2H4l-.27,0L8,48.71Zm2-2V13h1V49Zm4,3.72,8-8V51a2,2,0,0,1-1.26,1.85l-.83.15H15A2,2,0,0,1,14,52.72Zm34-6.25a2,2,0,0,1-1.66,2L23.75,52.33A3.88,3.88,0,0,0,24,51V11a4,4,0,0,0-.25-1.34l22.59,3.9a2,2,0,0,1,1.66,2v2L34,15.14A3.7,3.7,0,0,0,33,15c-4,0-7,6.88-7,16s3,16,7,16a3.7,3.7,0,0,0,1-.14l14-2.35ZM51,42l-.08,0h-.08l-1.06.18C47.36,41,45.5,36.36,45.5,31s1.86-10,4.28-11.19l1.06.18h.08L51,20c1.82,0,3.56,2.42,4.42,6H54a5,5,0,0,0,0,10h1.42C54.56,39.58,52.82,42,51,42Zm7.11-7v0s0,0,0,0C58,33.67,58,32.35,58,31s0-2.67.11-3.95c0,0,0,0,0-.05s0,0,0,0C59,12.08,64.42,2,72,2h2.59c-7,4-12.09,15.47-12.09,29s5.08,25,12.09,29H72C64.42,60,59,49.92,58.11,35ZM80,60H77C69.33,57.46,63.5,45.43,63.5,31S69.33,4.54,77,2h3c8.82,0,16,13,16,29S88.82,60,80,60Zm0-35.5c-1.69,0-3.5,2.61-3.5,6.5s1.81,6.5,3.5,6.5,3.5-2.61,3.5-6.5S81.69,24.5,80,24.5Zm0,12c-1,0-2.5-2.14-2.5-5.5S79,25.5,80,25.5s2.5,2.14,2.5,5.5S81,36.5,80,36.5ZM85.24,6.12a1,1,0,0,0-1.62.93l6,38.64a1,1,0,0,0,.9.85h.09a1,1,0,0,0,.94-.66A44.91,44.91,0,0,0,94,31C94,20.23,90.56,10.47,85.24,6.12ZM91,40.91l-1.06-6.73c.07-1,.11-2,.11-3.18a47.52,47.52,0,0,0-3.48-18.36L86.09,9.9C89.28,14.05,92,21.48,92,31A46,46,0,0,1,91,40.91Zm-1.76,8.15L68,37.1a1,1,0,0,0-1.06,0,1,1,0,0,0-.42,1C68.16,49.45,74,58,80,58c3.42,0,6.91-2.77,9.58-7.59A1,1,0,0,0,89.19,49.06ZM68.83,39.87l15.77,8.9A25.18,25.18,0,0,1,80,56h0C75.91,56,70.82,50,68.83,39.87ZM83.77,54.49a30,30,0,0,0,2.58-4.74l1,.55A15.63,15.63,0,0,1,83.77,54.49ZM67,30.42a1,1,0,0,0,.84-.46L83.22,6.05a1,1,0,0,0,.12-.83,1,1,0,0,0-.57-.63A7.15,7.15,0,0,0,80,4c-6.34,0-13.48,9.71-14,25.39a1,1,0,0,0,.7,1A1,1,0,0,0,67,30.42ZM80,6h0l.5.55-12.22,19C69.65,13.86,75.2,6,80,6Z"/></g></svg>