<svg id="expand" xmlns="http://www.w3.org/2000/svg" viewBox="0 0 147 89"><defs><style>.cls-1{fill:#f2552c;}.cls-2{fill:#084464;}</style></defs><title>icons</title><g id="medium_copy" data-name="medium copy"><path class="cls-1" d="M65.53,13.13C58.51,5.5,46.26,1.05,32.8,1.05a57.1,57.1,0,0,0-7.7.53l-1.5.27C12.49,3.34,3,10.47,1.67,21.17l-.07.68a6.24,6.24,0,0,0,1.94,4.32l.78.16c3.21,2.73,8.94,4.55,15.48,4.55,6.81,0,12.75-2,15.87-4.9l.73-.19A6,6,0,0,0,38,21.85v-7.2c4,.8,12,4,12,4C62,24.25,68.4,16.25,65.53,13.13ZM32.07,24.91a2.47,2.47,0,0,1-1.9-.24,2.38,2.38,0,0,1-1.1-1.49,2.61,2.61,0,0,1,1.86-3.09A2.57,2.57,0,0,1,31.6,20a2.44,2.44,0,0,1,1.23.33,2.38,2.38,0,0,1,1.1,1.49A2.61,2.61,0,0,1,32.07,24.91Z"/><path class="cls-2" d="M145.24,35.79a3.43,3.43,0,0,0,.91-2.79l-1.21-5.95a8.32,8.32,0,0,0-4-5.71c-11.86-6.87-38.17-11.13-62.06,5.3L37,56.23v-30a12.37,12.37,0,0,0,2-4.07.84.84,0,0,0,0-.27V15.91c4,1.05,10.41,3.59,10.44,3.6,7.83,3.65,13.86,1.84,16.36-1.58,1.39-1.9,1.45-4,.14-5.47C58.88,4.79,46.52.21,32.86.21a56.18,56.18,0,0,0-7.78.53L23.64,1C11.44,2.63,2.38,10.65,1.09,21L1,21.76a7.08,7.08,0,0,0,2,4.69l0,.45V38.52H3V53.72H3V70.1L.31,72.69a1,1,0,0,0-.31.72l0,5.28a.77.77,0,0,0,0,.15c.87,5.42,9.23,9.51,19.44,9.51S40.64,84.29,41,78.19V73.83a1.21,1.21,0,0,0,.08-.63,3.07,3.07,0,0,0-1.16-1.73L77.58,44.28c13.58-9.34,26.72-12.43,39.08-9.19a1.4,1.4,0,0,1,1,.61l.48,2c.23,1.39,1.43,2.37,3.2,3l.48,3.07c.18,1.06,1.11,2.46,4.53,3.06a19.9,19.9,0,0,0,3.41.27,30.18,30.18,0,0,0,5-.43,25.83,25.83,0,0,0,8-2.59c2.84-1.58,3.4-3.1,3.31-4.16a1,1,0,0,0,0-.3ZM23.94,3l1.45-.26a54.5,54.5,0,0,1,7.47-.51C46,2.21,57.78,6.55,64.47,13.82a1.66,1.66,0,0,1,.16.21C61,15.51,57.77,16.78,50,14.19c-.33-.13-8.09-3.23-12.06-4C37.13,10,20.63,5.7,10.37,8.61A27.14,27.14,0,0,1,23.94,3ZM3.08,21.21A18.91,18.91,0,0,1,8.4,10.37c9.53-4.34,29.08.71,29.31.77,3.91.79,11.84,3.95,11.95,4a25.79,25.79,0,0,0,8.09,1.56A17.73,17.73,0,0,0,64.87,15a3.22,3.22,0,0,1-.68,1.74c-1.51,2.06-6.13,4.57-14,.92-.32-.13-8-3.2-12-4a1,1,0,0,0-1.2,1v7.06a9.32,9.32,0,0,1-1.7,3.37,1,1,0,0,0-.28.64c-3.14,2.85-9,4.66-15.41,4.66-5.94,0-11.36-1.52-14.64-4l0-.39a1,1,0,0,0-.27-.63A5.17,5.17,0,0,1,3,21.86ZM35,38.31C31.86,41.16,26,43,19.61,43,13.69,43,8.28,41.45,5,39V27.6c3.49,2.37,8.82,3.78,14.61,3.78,6.21,0,12-1.67,15.39-4.35ZM19.61,44c6.21,0,12-1.66,15.39-4.34v13.9c-2.67,2.41-7.39,4.12-12.71,4.54-.88.07-1.78.1-2.68.1-5.92,0-11.32-1.5-14.61-4v-14C8.5,42.55,13.82,44,19.61,44Zm0,15.2c.93,0,1.86,0,2.76-.11,5.19-.4,9.72-1.95,12.63-4.22v2.92l-3.3,2c-.07,0-1.68,1-2.2,1.35l.57.83-.57-.82a5.06,5.06,0,0,0-.71.57l-8.17,7.64a6.19,6.19,0,0,0,4,10.72h.21A5.77,5.77,0,0,0,26,80a26.27,26.27,0,0,1-4.7.57c-9,.3-16.47-3.72-16.89-9l.32-.31A1,1,0,0,0,5,70.53V55.38C8.5,57.74,13.82,59.15,19.61,59.15ZM3.47,72.42c1,5.23,8.2,9.15,16.87,9.15l1,0c8.36-.28,15.22-4,16.86-8.91a5.94,5.94,0,0,1,.86.75,1.1,1.1,0,0,0,0,.18v1.22C38,79.24,29.68,83,20.32,83,10.49,83,2.5,78.87,2.5,73.85a4.93,4.93,0,0,1,0-.54Zm22.69,7.51a6.19,6.19,0,0,0,2.95-1.54l1.82-1.81,5.81-3.17C35.11,76.42,31.14,78.84,26.16,79.93ZM19.5,86.35c-9,0-16.68-3.4-17.46-7.75l0-2.43C4,80.63,11.43,84,20.32,84,28.83,84,36.28,81,39,77.1v1C38.75,82.36,29.27,86.35,19.5,86.35Zm100.56-49-.52-2.25a3.16,3.16,0,0,0-2.37-2c-13-3.39-26.65-.2-40.74,9.49L37.7,70.6l-7.86,4.3-2.12,2a4.2,4.2,0,0,1-7.06-3.21A4.12,4.12,0,0,1,22,70.82l8.16-7.64a6,6,0,0,1,.49-.39c.38-.26,1.63-1,2.1-1.29l4-2.49-.06-.11L80,28.28c23.12-15.9,48.5-11.83,59.91-5.21A6.31,6.31,0,0,1,143,27.42l1.22,5.95c.25,1.52-4.07,4.53-11.43,5.77S120.33,39,120.06,37.36Zm21.63,5a23.83,23.83,0,0,1-7.33,2.36,23.45,23.45,0,0,1-7.7.16c-1.9-.33-2.83-1-2.91-1.41l-.34-2.22a30.16,30.16,0,0,0,9.68-.16,27.38,27.38,0,0,0,10.41-3.77l.46,2.5a1,1,0,0,0,0,.24C144.05,40.55,143.37,41.44,141.69,42.38Zm-112-16.85A3.47,3.47,0,0,0,31.4,26a3.38,3.38,0,0,0,.94-.13,3.6,3.6,0,0,0,2.56-4.28,3.37,3.37,0,0,0-1.56-2.12,3.48,3.48,0,0,0-2.68-.34,3.6,3.6,0,0,0-2.56,4.28A3.37,3.37,0,0,0,29.66,25.53Zm1.27-5.44A2.57,2.57,0,0,1,31.6,20a2.44,2.44,0,0,1,1.23.33,2.38,2.38,0,0,1,1.1,1.49,2.61,2.61,0,0,1-1.86,3.09,2.47,2.47,0,0,1-1.9-.24,2.38,2.38,0,0,1-1.1-1.49A2.61,2.61,0,0,1,30.93,20.09Z"/></g></svg>