<svg id="expand" xmlns="http://www.w3.org/2000/svg" viewBox="0 0 135 96"><defs><style>.cls-1{fill:#f2552c;}.cls-2{fill:#084464;}</style></defs><title>icons</title><g id="medium_copy" data-name="medium copy"><path class="cls-1" d="M128.05,46.4l-.42-.14-5.42-2.08-.56-.18a7.37,7.37,0,0,0-5.65.42l-.24.11s-8.16,4.61-13.5,18.64-2.93,23.72-2.93,23.72,2.31,3.76,4,4.56l.49.21,6.4,2.4c6.29,2.35,15.38-6.41,20.32-19.57S134.34,48.75,128.05,46.4Zm-.72,26.94c-4.12,11-11,18.61-15.41,17s-4.59-11.9-.46-22.91,11-18.62,15.41-17S131.46,62.32,127.33,73.34Z"/><path class="cls-2" d="M134.48,56.31c-.49-5.72-2.65-9.57-6.08-10.85l-.42-.14h0l-5.45-2.08-.53-.18a7.93,7.93,0,0,0-5.64.15c-.11-4-.84-7-2.07-8.23l-.2-.16a1.16,1.16,0,0,0-.35-.18L89.07,27.5C88,17.68,77.59,14.3,77.16,14.17L35.58.11a1,1,0,0,0-.46,0A41.17,41.17,0,0,0,5.64,20.35,40.79,40.79,0,0,0,1.26,51a1,1,0,0,0,.47.62L65.52,88.85c.44.29.86.53,1.28.76l.25.14.78.45h0c4.48,2.8,8.22,4.41,11.42,4.9a17.9,17.9,0,0,0,2.72.21c5.39,0,10.59-2.56,16.1-7.89l.69.32a8.78,8.78,0,0,0,4.15,4.63L109.84,95h0a7.2,7.2,0,0,0,2.52.45c6.55,0,14.49-8.33,19.08-20.6C133.88,68.34,135,61.76,134.48,56.31Zm-30.3,34.43-.45-.2a7,7,0,0,1-3.27-3.93.93.93,0,0,0-.26-.36C98.58,81,99.28,72.52,102.46,64c3.35-8.91,8.5-15.81,13.31-18.52a1,1,0,0,0,.41-.08l.22-.1a6.43,6.43,0,0,1,4.94-.4l1.58.6a17.69,17.69,0,0,0-6.23,4.1c-3.94,3.79-7.45,9.47-9.89,16-3.92,10.46-4.13,20.36-1,25.72Zm10.18-47.62-1.89-.51.27-.39a.54.54,0,0,0,.08-.41l-.93-3.75,1.24-1.36C113.64,37.46,114.24,39.55,114.36,43.12Zm-27.28,32a17.68,17.68,0,0,0,.78,4.27c-.68-.33-1.56-.75-2.32-1.07A10.94,10.94,0,0,1,83.26,72a33.32,33.32,0,0,1,2.3-14.31c3.34-8.89,9.11-15.22,13.77-15.58l2.91,1c-4.43,2.45-9.36,8-12.39,16.11A39.56,39.56,0,0,0,87.08,75.08Zm-12.86,2.8h0a.61.61,0,0,0-.19-.2L45.44,62.23,47.88,60,79.34,76.51l-3.51,4.1ZM40.1,64.34l31.09,16.8,1.14,1.94L40.75,65.71Zm31.34,15.8L39.82,63.05l1.78-1.76L73,78.27ZM49.07,58.4a22.53,22.53,0,0,1,1-12.63,22.08,22.08,0,0,1,9.73-11.64,15.63,15.63,0,0,1,13.23-1.28l.29.11h0l24.15,8.51C92.84,43,87.75,49,84.63,57.34a34.11,34.11,0,0,0-2.36,14.75,13.74,13.74,0,0,0,1.58,5.56,6.26,6.26,0,0,1-2.57-2.26,1.16,1.16,0,0,0-.4-.33Zm54.25-17L86.59,35.5l-.29-4.18,24.62,7,.87,3.51-.34.5-3.7-1A6.38,6.38,0,0,0,103.32,41.4Zm8.85-5.13-1,1.08-24.59-7,1.24-1.14h0Zm-25-7.94a.83.83,0,0,0,0,.15l-1.91,1.75a.51.51,0,0,0-.15.48.5.5,0,0,0,.16.26l.29,4.17L73.26,30.8v0a17.61,17.61,0,0,0-14.38,1.57A24,24,0,0,0,48.24,45.07a24.38,24.38,0,0,0-1,14.21l-2.71,2.45-2.77-1.49a.48.48,0,0,0-.58.08l-2.53,2.5a.51.51,0,0,0-.14.42.35.35,0,0,0,.06.14h0l1.22,2.55L36.32,69.1A38.7,38.7,0,0,1,39,35.31c7.76-13.45,22.69-21.22,37.18-19.38l.4.14C76.64,16.1,86.58,19.35,87.13,28.33Zm-79.75-7A39.12,39.12,0,0,1,35.17,2.08L69.64,13.73c-13,.81-25.46,8.53-32.42,20.58A40.87,40.87,0,0,0,33.77,68L3.1,50.14A38.74,38.74,0,0,1,7.38,21.35ZM68.76,88.43c-.23-.15-.46-.28-.68-.4L37,69.88l3.49-3.2,32.19,17.7L69,88.59l-.17-.1,0,0h0Zm10.79,4.69c-2.69-.41-5.86-1.73-9.65-4l4-4.68a.63.63,0,0,0,0-.66l-1.73-3L73.72,79l1.61,2.73a.49.49,0,0,0,.35.24h.08a.5.5,0,0,0,.33-.12l.11-.11,3.91-4.58a7.18,7.18,0,0,0,3.73,2.63,35.62,35.62,0,0,1,3.92,1.75,7.74,7.74,0,0,0,3.8,3h0l4.54,2C90.32,92,85.16,94,79.55,93.12ZM91.67,82.36v0a5.22,5.22,0,0,1-2.3-2.07,1.12,1.12,0,0,0-.16-.22A14.45,14.45,0,0,1,88.08,75,38.45,38.45,0,0,1,90.79,59.6c3.46-9.24,9.4-15.13,14-16.52a4.26,4.26,0,0,1,2.33.15l7.24,2c-4.77,3.12-9.59,9.82-12.84,18.5-3.12,8.31-3.9,16.44-2.52,22Zm37.9-8.22c-4.65,12.41-13.37,21.11-19,19s-6.52-14.4-1.87-26.81c2.34-6.23,5.68-11.64,9.41-15.23,2.78-2.67,5.48-4.07,7.79-4.07a5.3,5.3,0,0,1,1.83.32c2.66,1,4.36,4.25,4.79,9.15C132.94,61.64,131.9,67.91,129.57,74.14Zm-2.35-24.66c-2.52-.94-5.68.47-8.89,4A43.27,43.27,0,0,0,110.52,67c-4.39,11.71-3.93,22.35,1,24.21a4.35,4.35,0,0,0,1.56.28c4.86,0,11.19-7.3,15.14-17.83a43.43,43.43,0,0,0,3-15.35C131.2,53.58,129.75,50.43,127.22,49.48Zm-7.41,5.35c2.14-2.36,4.19-3.64,5.79-3.64a2.35,2.35,0,0,1,.6.08L114.43,63A35.81,35.81,0,0,1,119.81,54.83ZM112.4,67.74c.26-.71.54-1.4.83-2.08l13.93-13.94c1,.77,1.69,2.38,2,4.61L110.23,75.24A48.82,48.82,0,0,1,112.4,67.74Zm16.9-9.36a32,32,0,0,1-.59,6.38l-19.1,19.1a27.93,27.93,0,0,1,.31-6.9l19.34-19.33C129.27,57.88,129.29,58.12,129.3,58.38ZM113.39,89.49l10-10C120,85.63,116.08,89.29,113.39,89.49Zm13-16.5c-.48,1.26-1,2.45-1.51,3.59L112.16,89.31c-1.15-.51-2-2-2.38-4.21l18.56-18.55A52,52,0,0,1,126.4,73Z"/></g></svg>