<svg id="expand" xmlns="http://www.w3.org/2000/svg" viewBox="0 0 93 82"><defs><style>.cls-1{fill:#f2552c;}.cls-2{fill:#084464;}</style></defs><title>icons-52</title><g id="small_copy_2" data-name="small copy 2"><path class="cls-1" d="M44.93,27h6.14v2.39A3.07,3.07,0,0,1,48,32.5a3.07,3.07,0,0,1-3.07-3.07ZM67.28,14c0,7.15-8.47,12.75-19.28,12.75S28.72,21.15,28.72,14,37.19,1.25,48,1.25,67.28,6.85,67.28,14ZM46.39,14a2.18,2.18,0,0,0,3.22,0,2.18,2.18,0,0,0-3.22,0ZM34.23,16.67l7.55-2.81a5.38,5.38,0,0,1,3.91-4.78V6c-6.9.65-12.36,4.13-12.36,8A4.78,4.78,0,0,0,34.23,16.67Zm23.38,3.38L52.09,18a7,7,0,0,1-8.18,0l-5.52,2.06A21.91,21.91,0,0,0,48,22.14,21.91,21.91,0,0,0,57.61,20.05ZM62.67,14c0-3.89-5.46-7.37-12.36-8v3.1a5.38,5.38,0,0,1,3.91,4.78l7.55,2.81A4.78,4.78,0,0,0,62.67,14Z"/><path class="cls-2" d="M91.5,76H87.34C89.15,72.22,90,67.1,90,62s-.85-10.22-2.66-14H91.5a1,1,0,0,0,0-2H86.21c-1.66-2.46-3.88-4-6.71-4H68.25c-3.34,0-5.29,2.16-6.5,4H60V38.16A5.79,5.79,0,0,0,62,34V30a6.05,6.05,0,0,0-2.51-4.62c5.34-2.45,8.79-6.59,8.79-11.38C68.28,6.29,59.37.25,48,.25S27.72,6.29,27.72,14c0,4.79,3.46,8.93,8.79,11.38A6.05,6.05,0,0,0,34,30v4a5.79,5.79,0,0,0,2,4.16V46H26.5a1.19,1.19,0,0,0-.26,0c-1.66-2.49-3.89-4-6.74-4H8a1.09,1.09,0,0,0-.26,0,8.24,8.24,0,0,0-6,4H1a1,1,0,0,0,0,2H8.5c1.88,0,4.5,5.33,4.5,14S10.38,76,8.5,76H1.29a1,1,0,0,0,0,2h.48a8.24,8.24,0,0,0,6,4A1.09,1.09,0,0,0,8,82H19.5c2.85,0,5.08-1.56,6.74-4a1.19,1.19,0,0,0,.26,0H61.75c1.21,1.84,3.16,4,6.5,4H79.5c2.83,0,5-1.54,6.71-4H91.5a1,1,0,0,0,0-2ZM29.72,14c0-6.59,8-11.75,18.28-11.75S66.28,7.41,66.28,14,58.25,25.75,48,25.75,29.72,20.59,29.72,14ZM50.07,27.68v1.75a2.07,2.07,0,0,1-3.53,1.47,2.1,2.1,0,0,1-.61-1.47V27.68c.68.05,1.37.07,2.07.07S49.39,27.73,50.07,27.68ZM36,30c0-1.4,1-2.7,2.71-3.74a26.38,26.38,0,0,0,5.22,1.22v1.95a4.07,4.07,0,1,0,8.14,0V27.48a26.38,26.38,0,0,0,5.22-1.22C59,27.3,60,28.6,60,30v1.8c-1.51,2.71-6.31,4.7-12,4.7s-10.49-2-12-4.7Zm0,3.48c2.22,2.41,6.71,4,12,4s9.78-1.61,12-4V34a4,4,0,0,1-1.63,3,.73.73,0,0,0-.09.08c-2.12,1.75-6,3-10.28,3s-8.16-1.21-10.28-3a.73.73,0,0,0-.09-.08A4,4,0,0,1,36,34ZM58.49,47.84C58.22,60,52.25,72.5,49,72.5c-1.59,0-3.72-6.77-5.43-12.21C41.39,53.38,39.79,48.66,38,47.08A.24.24,0,0,0,38,47V39.65A20.3,20.3,0,0,0,48,42a20.3,20.3,0,0,0,10-2.35V47A1,1,0,0,0,58.49,47.84ZM8.5,80a5.59,5.59,0,0,1-4.22-2H8.5c4.22,0,6.5-8.24,6.5-16S12.72,46,8.5,46H4.28A5.59,5.59,0,0,1,8.5,44h2.33c4.58,2,6.67,10,6.67,18s-2.09,16-6.67,18Zm11,0H12.74c4-3.1,5.76-10.58,5.76-18s-1.81-14.9-5.76-18H19.5c5.84,0,8.5,9.33,8.5,18S25.34,80,19.5,80Zm42.8-4h-35C29.15,72.22,30,67.1,30,62s-.85-10.22-2.66-14H37a1,1,0,0,0,.42-.1c1.7,1.58,3.61,7.66,5.19,12.69,2.52,8,4.18,12.91,6.39,12.91,4.48,0,10.17-14,10.48-25.5h9c1.88,0,4.5,5.33,4.5,14s-2.62,14-4.5,14Zm8.55,4h-2.6a5.06,5.06,0,0,1-4-2H68.5c4.22,0,6.5-8.24,6.5-16s-2.28-16-6.5-16H64.25a5.06,5.06,0,0,1,4-2h2.6a7.9,7.9,0,0,1,3.42,3.26C76.32,50.6,77.5,56,77.5,62s-1.18,11.4-3.23,14.74A7.9,7.9,0,0,1,70.85,80Zm8.65,0H72.73a10.3,10.3,0,0,0,2.4-2.74C77.27,73.77,78.5,68.21,78.5,62s-1.23-11.77-3.37-15.26A10.3,10.3,0,0,0,72.73,44H79.5c5.84,0,8.5,9.33,8.5,18S85.34,80,79.5,80ZM48,12.29c1.39,0,2.61.8,2.61,1.71S49.39,15.71,48,15.71s-2.61-.8-2.61-1.71S46.61,12.29,48,12.29ZM53.22,14a4.78,4.78,0,0,1-.06.53l9,3.34A6.07,6.07,0,0,0,63.67,14c0-4.7-6.46-8.7-14.36-9.1V9.84C51.55,10.32,53.22,12,53.22,14ZM51.31,7.1C57.58,8,61.67,11.18,61.67,14a3.35,3.35,0,0,1-.35,1.44l-6.16-2.3a6.41,6.41,0,0,0-3.85-4.75ZM42.78,14c0-2,1.67-3.68,3.91-4.16V4.9c-7.9.4-14.36,4.4-14.36,9.1a6.07,6.07,0,0,0,1.55,3.87l9-3.34A4.78,4.78,0,0,1,42.78,14Zm-1.94-.86-6.16,2.3A3.35,3.35,0,0,1,34.33,14c0-2.82,4.09-6,10.36-6.9V8.39A6.41,6.41,0,0,0,40.84,13.14Zm19.09,6.7-8-3a5.91,5.91,0,0,1-7.8,0l-8,3A21.51,21.51,0,0,0,48,23.14,21.51,21.51,0,0,0,59.93,19.84Zm-16.16-.73a8,8,0,0,0,8.46,0l2.64,1A22.33,22.33,0,0,1,48,21.14a22.33,22.33,0,0,1-6.87-1.05Z"/></g></svg>