<svg id="expand" xmlns="http://www.w3.org/2000/svg" viewBox="0 0 161 141"><defs><style>.cls-1{fill:#f2552c;}.cls-2{fill:#084464;}</style></defs><title>icons</title><g id="big_copy" data-name="big copy"><path class="cls-1" d="M66.74,46.27V50c0,2.72-7.57,4.92-16.9,4.92s-16.9-2.2-16.9-4.92V46.27c0-2.25,5.15-4.14,12.2-4.74v4.29c0,.45.52.86,1.38,1.15a10.63,10.63,0,0,0,3.32.47c2.59,0,4.69-.72,4.69-1.62V41.53C61.58,42.13,66.74,44,66.74,46.27ZM131,5.28a19.45,19.45,0,0,0-2.06-.73,37.66,37.66,0,0,0-7.26-1.25V7.59c0,.9-2.1,1.62-4.69,1.62a10.68,10.68,0,0,1-3.32-.47c-.84-.3-1.37-.7-1.37-1.15V3.3A37.66,37.66,0,0,0,105,4.55a20.29,20.29,0,0,0-2.06.73C101.11,6.07,100,7,100,8V11.8c0,2.72,7.57,4.92,16.9,4.92s16.9-2.2,16.9-4.92V8C133.84,7,132.78,6.07,131,5.28Z"/><path class="cls-2" d="M161,20.86c-.52-6-10.95-11-26.21-13.19C134.33,4.55,128,2.87,122,2.33c-1.19-2-8.86-2-10.06,0-6.08.55-12.39,2.22-12.83,5.36C83.9,9.93,73.52,14.94,73,21V46.17q-2.59-.45-5.45-.81c-1.06-2.78-7-4.29-12.68-4.8-1.2-2-8.87-2-10.06,0-5.63.5-11.46,2-12.64,4.7C8.43,47.86.65,55.46,0,59.68v56.56l.09.19A16.41,16.41,0,0,0,7,123.64v12.78a2.54,2.54,0,0,0,1,2.09l2,1.42a1.81,1.81,0,0,0,1,.34,1.67,1.67,0,0,0,.58-.12v.11l10.55-1a1,1,0,0,0,.89-.86v-.05l3.57-8.77A167.65,167.65,0,0,0,50,131a156,156,0,0,0,21.44-1.32L75,138.31v.05a1,1,0,0,0,.89.86l10.55,1v-.11a1.67,1.67,0,0,0,.58.12,1.81,1.81,0,0,0,1-.34l2-1.42a2.54,2.54,0,0,0,1-2.09V124.23A22.94,22.94,0,0,0,98.16,119a123.51,123.51,0,0,0,18.84,1.4,124.63,124.63,0,0,0,18.36-1.31L139,128v0a1,1,0,0,0,.89.86l10.55,1.05v-.11a1.92,1.92,0,0,0,.58.11,1.74,1.74,0,0,0,1-.34l2-1.42a2.53,2.53,0,0,0,1-2.09V113.24c3.26-1.85,5.37-4,6-6.24l0-.13Zm-63,69h-.36c0,3.43-19.75,7.24-48.11,7.24C24,97.13,5.42,94,2,90.91V62c5.43,5.18,24.37,8.9,47.53,8.9,24.78,0,44.72-4.26,48.47-10ZM2,92.09c5.86,3.94,27.23,6,47.53,6,21.58,0,44.39-2.37,48.47-6.8v5.13h-.36c0,3.43-19.75,7.25-48.11,7.25C24,103.71,5.42,100.6,2,97.48ZM100,69.4c5.37.43,11.06.65,16.94.65,18.14,0,37.25-2.17,42.06-6.22v5.11c-1.75,3.27-18.52,6.68-42.06,6.68-6,0-11.64-.22-16.94-.64Zm1-59c2.9,2,9.55,3.12,15.9,3.12s13-1.08,15.9-3.12V11.8c0,1.37-5.46,3.92-15.9,3.92S101,13.17,101,11.8ZM112.75,4.2a9.5,9.5,0,0,0,4.19.82,9.5,9.5,0,0,0,4.19-.82V7.59c0,.33-1.43,1.12-4.19,1.12a10.27,10.27,0,0,1-3.15-.44c-.85-.3-1-.6-1-.68Zm4.19-2.43c2.7,0,4.16.78,4.19,1.11v0c0,.34-1.49,1.12-4.19,1.12s-4.17-.79-4.19-1.12h0C112.77,2.56,114.23,1.77,116.94,1.77Zm-5.19,2.59V7.59c0,.46.29,1.12,1.71,1.62a11.17,11.17,0,0,0,3.48.5c2.5,0,5.19-.66,5.19-2.12V4.36c7,.67,10.71,2.54,10.71,3.68V9c-1.7,1.78-7.75,3.44-15.9,3.44S102.74,10.81,101,9V8C101,6.9,104.76,5,111.75,4.36ZM99,9.72V11.8c0,3.89,9,5.92,17.9,5.92s17.9-2,17.9-5.92V9.7c14.48,2.14,23.25,6.69,24.08,10.88-2.09,4.75-18.43,9.47-42,9.47-23.25,0-39.46-4.6-41.89-9.28C75.76,16.49,84.51,11.89,99,9.72ZM75,22.39c4.62,5,21.39,8.66,41.94,8.66,20.74,0,37.62-3.7,42.06-8.8V62.37c-1.75,3.27-18.52,6.68-42.06,6.68-5.88,0-11.57-.22-16.94-.65V59.68c-.64-4.18-8.94-10-25-13.14ZM33.94,48.91c3.23,1.82,9.69,2.79,15.9,2.79s12.67-1,15.9-2.79V50c0,1.37-5.46,3.92-15.9,3.92S33.94,51.4,33.94,50Zm11.7-6.48a9.49,9.49,0,0,0,4.2.82A9.47,9.47,0,0,0,54,42.43v3.39c0,.33-1.43,1.12-4.19,1.12a10.33,10.33,0,0,1-3.16-.44c-.85-.29-1-.6-1-.68ZM49.84,40c2.72,0,4.19.8,4.19,1.12s-1.47,1.13-4.19,1.13-4.2-.8-4.2-1.13S47.11,40,49.84,40Zm-5.2,2.59v3.23c0,.48.3,1.14,1.72,1.62a11.08,11.08,0,0,0,3.48.5c2.5,0,5.19-.66,5.19-2.12V42.59c7,.67,10.71,2.54,10.71,3.68v1.47c-2.33,1.59-8.21,3-15.9,3s-13.57-1.37-15.9-3V46.27C33.94,45.13,37.66,43.26,44.64,42.59ZM31.94,47.3V50c0,3.89,9,5.92,17.9,5.92s17.9-2,17.9-5.92V47.4C86,49.71,95.64,55.33,97.64,59c-.15,5.28-19.44,10.91-48.11,10.91C23.62,69.88,5.38,65.28,2,60.5v-.59C2.52,57.09,9.23,49.89,31.94,47.3ZM11,138.17l-1.82-1.29a.76.76,0,0,1-.13-.46V124.73c.64.31,1.3.61,2,.9v12.21A1.28,1.28,0,0,1,11,138.17Zm5.59-3-3.54.27v-9a57.33,57.33,0,0,0,6.36,1.82Zm-3.57,3a2.66,2.66,0,0,0,0-.28v-.42l3.61-.28,1.24.49Zm8.47-1.21-3-1.19,2.88-7.08c1,.21,2.12.41,3.23.59ZM85,135.41l-3.54-.27-2.76-6.78q3.51-.78,6.3-1.7Zm-8.29-6.64,2.83,6.95-3,1.19-3.09-7.57C74.59,129.16,75.68,129,76.71,128.77Zm4.68,8.37,3.61.28v.42a2.66,2.66,0,0,0,0,.28l-4.88-.49Zm7.61-.72a.76.76,0,0,1-.13.46l-1.82,1.29a1.28,1.28,0,0,1,0-.33V126c.7-.26,1.37-.53,2-.8ZM50,129c-17,0-29.89-1.73-38.16-5.15-5-2.08-8.26-4.7-9.84-8V98.66c5.86,3.94,27.23,6,47.53,6,21.58,0,44.39-2.38,48.47-6.81v17.89C96.68,118.4,88.91,129,50,129Zm99-3.88-3.54-.28-2.88-7.07a62.75,62.75,0,0,0,6.42-1.85Zm-8.4-6.9,2.94,7.21-3,1.18-3.17-7.78C138.49,118.61,139.56,118.41,140.6,118.19Zm4.79,8.62,3.61.28v.42a2.4,2.4,0,0,0,0,.28l-4.88-.49Zm7.61-.72a.73.73,0,0,1-.13.46l-1.82,1.29a1.21,1.21,0,0,1-.05-.33V115.14c.7-.28,1.36-.57,2-.87Zm-36-7.65a122.73,122.73,0,0,1-17.5-1.23c.17-.29.31-.55.41-.77l.09-.2V76c5.31.42,11,.64,16.94.64,18.14,0,37.25-2.17,42.06-6.22v36.2C157.3,112.32,140.86,118.44,117,118.44ZM64,77H35a1,1,0,0,0-1,1V90a1,1,0,0,0,1,1H64a1,1,0,0,0,1-1V78A1,1,0,0,0,64,77Zm-1,7.06L58.06,89h-8l10-10H63ZM50.7,79h8l-10,10h-8ZM39.89,79,36,82.89V79ZM36,84.31,41.31,79h8l-10,10H36ZM59.47,89,63,85.47V89ZM102,54h29a1,1,0,0,0,1-1V41a1,1,0,0,0-1-1H102a1,1,0,0,0-1,1V53A1,1,0,0,0,102,54Zm1-6.65L108.35,42h8l-10,10H103ZM115.71,52h-8l10-10h8Zm10.8,0L130,48.51V52ZM130,47.1,125.1,52h-8l10-10H130ZM106.94,42,103,45.94V42Z"/></g></svg>