<svg id="expand" xmlns="http://www.w3.org/2000/svg" viewBox="0 0 65 97"><defs><style>.cls-1{fill:#f2552c;}.cls-2{fill:#084464;}</style></defs><title>icons-51</title><g id="small_copy_2" data-name="small copy 2"><path class="cls-1" d="M23,79c-6.62,0-12-6.73-12-15s5.38-15,12-15,12,6.73,12,15S29.62,79,23,79Zm2-4.36a7.66,7.66,0,0,0,3.33-2.48L25,68.83Zm-7.33-2.48A7.66,7.66,0,0,0,21,74.64V68.83ZM30.3,68.47a14.62,14.62,0,0,0,0-8.94l-3.15,3.15a5.53,5.53,0,0,1,0,2.64ZM15.7,59.53a14.62,14.62,0,0,0,0,8.94l3.15-3.15a5.52,5.52,0,0,1,0-2.64ZM23,63A1.64,1.64,0,0,0,23,65,1.64,1.64,0,0,0,23,63Zm2-3.87,3.33-3.33A7.66,7.66,0,0,0,25,53.36Zm-4,0V53.36a7.66,7.66,0,0,0-3.33,2.48Z"/><path class="cls-2" d="M65,48.38V41.1a1,1,0,0,0-.28-.68,5.58,5.58,0,0,0-2.72-3v-16A21.06,21.06,0,0,0,52.79,3.88,20.15,20.15,0,0,0,38.71.51h-.07A3.93,3.93,0,0,0,37.2.78a21,21,0,0,0-3.45,1L13.1,10.08A20.89,20.89,0,0,0,0,29.62V90.13c0,2.71,5.66,3.44,9,3.44s9-.73,9-3.45V78.77A10.9,10.9,0,0,0,23,80c4.09,0,7.75-2.35,10.13-6h.11a4.2,4.2,0,0,0,2.66-1l.1,0h2v.68c-1.42.8-3,2.07-3,4.26v6.79c0,1.9,1.17,3.32,3,4.37V92c0,3,6.22,4.35,12,4.35S62,95,62,92V89.1c1.83-1,3-2.47,3-4.37V77.94c0-2.19-1.58-3.46-3-4.26V52.74C63.83,51.7,65,50.27,65,48.38Zm-3-6.67V39.82a2.58,2.58,0,0,1,.94,1.89A1.07,1.07,0,0,0,63,42v1.14C61.39,45.76,55.48,47,49.92,47,44.53,47,38.83,45.84,37,43.42V41.08a3,3,0,0,1,1-1.4V42c0,3.83,10.15,4,12.18,4C55.87,46,62,44.67,62,41.71ZM38,37.29c-2.53,1.42-3.11,3.17-3.11,4.42a1.1,1.1,0,0,0,.11.44v6.23c0,1.89,1.17,3.32,3,4.36V55H37l-.12,0a4.71,4.71,0,0,0-3.64-2h-.82A12,12,0,0,0,23,48a10.9,10.9,0,0,0-5,1.23V28.76l20-5.45ZM51.67,5.54A19,19,0,0,1,60,21.36V37.85A.65.65,0,0,0,60,38v3.72c0,.67-3.44,2.31-9.82,2.31S40.18,42.7,40,42V22a1,1,0,0,0-1.26-1L37,21.51c-2.21-1.32-3.81-5.19-3.81-9.76a14.23,14.23,0,0,1,2.38-8.46A18.15,18.15,0,0,1,51.67,5.54ZM34,3.89a16.42,16.42,0,0,0-1.8,7.86c0,4.49,1.44,8.28,3.59,10.1L17,27c-2.23-.45-4-4.14-4-8.45a11.85,11.85,0,0,1,2-7ZM9,91.57c-4.44,0-6.79-1.07-7-1.44V29.62A18.9,18.9,0,0,1,13.39,12.14,14,14,0,0,0,12,18.5c0,4.46,1.7,8.1,4.06,9.17A.92.92,0,0,0,16,28V50.54A17.13,17.13,0,0,0,10,64a17.13,17.13,0,0,0,6,13.46V90s0,0,0,0C15.73,90.58,13.09,91.57,9,91.57ZM23,78c-6.08,0-11-6.27-11-14s4.92-14,11-14,11,6.27,11,14S29.08,78,23,78Zm11.45-6.44A18.81,18.81,0,0,0,36,64a18.62,18.62,0,0,0-2.2-8.9c1.78.59,3.55,3.87,3.55,8.4C37.35,67.47,36,70.49,34.45,71.56Zm3.1-.56a15,15,0,0,0,1.8-7.5A16,16,0,0,0,38.07,57H39a1.55,1.55,0,0,0,.21,0c1.47,1.22,4.77,2.33,9.4,3.79,3.56,1.12,8.92,2.81,8.92,3.88,0,2.32-8.92,6.55-17.69,6.85A1,1,0,0,0,39,71ZM60,74.07a.76.76,0,0,0,0,.21v3.8c0,.53-3.12,2.31-10,2.31s-10-1.78-10-2.31v-3.8a1,1,0,0,0,0-.17S40,74,40,74V72.49c8.6-.35,18.53-4.47,18.53-7.86,0-1.72-3.65-3-9.62-4.84-3.24-1-7.44-2.34-9-3.49A.94.94,0,0,0,40,56V53.65a30.89,30.89,0,0,0,10,1.47,30.89,30.89,0,0,0,10-1.47V73.94A.5.5,0,0,0,60,74.07Zm0,18c0,.6-3.44,2.36-10,2.36S40,92.64,40,92V90a30.89,30.89,0,0,0,10,1.47A30.89,30.89,0,0,0,60,90Zm3-7.3c0,3.12-6.54,4.75-13,4.75s-13-1.63-13-4.75V81.2a8,8,0,0,0,1.62,1.07c2.59,1.3,6.7,2,11.3,2s8.71-.75,11.29-2A7.77,7.77,0,0,0,63,81.06Zm0-6.79v1.6a5.48,5.48,0,0,1-2.24,1.84c-2.45,1.23-6.4,1.94-10.84,1.94s-8.4-.71-10.85-1.94A5.92,5.92,0,0,1,37,79.78V77.94a2.28,2.28,0,0,1,1-1.85v2c0,3,6.22,4.31,12,4.31S62,81,62,78.08v-2A2.28,2.28,0,0,1,63,77.94ZM50,53.12c-6.46,0-13-1.63-13-4.74V44.87C39.63,47.1,45.06,48,49.92,48s10.52-.9,13.08-3.24v3.65C63,51.49,56.46,53.12,50,53.12ZM29.65,55.94A8.53,8.53,0,0,0,24,52.08v8.13a3.22,3.22,0,0,1,.88.5ZM26,55a7.07,7.07,0,0,1,.95.8l-.95,1Zm-1.69,9c0,1.07-.61,2-1.31,2s-1.31-.93-1.31-2,.61-2,1.31-2S24.31,62.93,24.31,64Zm2,0A4.7,4.7,0,0,1,26,65.61l4.65,4.64a15.35,15.35,0,0,0,0-12.5L26,62.39A4.7,4.7,0,0,1,26.31,64Zm1.92-1,1.54-1.53a13.92,13.92,0,0,1,0,5L28.23,65a6.17,6.17,0,0,0,0-2ZM22,60.21V52.08a8.53,8.53,0,0,0-5.65,3.86l4.78,4.77A3,3,0,0,1,22,60.21Zm-2-3.45-.95-1A7.07,7.07,0,0,1,20,55Zm4,11v8.13a8.53,8.53,0,0,0,5.65-3.86l-4.77-4.77A3.22,3.22,0,0,1,24,67.79Zm2,3.45.95,1A7.07,7.07,0,0,1,26,73Zm-9.65.82A8.53,8.53,0,0,0,22,75.92V67.79a3,3,0,0,1-.87-.5ZM20,73a7.07,7.07,0,0,1-.95-.8l.95-1Zm-.31-9A4.7,4.7,0,0,1,20,62.39l-4.65-4.64a15.35,15.35,0,0,0,0,12.5L20,65.61A4.7,4.7,0,0,1,19.69,64Zm-1.92,1-1.54,1.53a13.92,13.92,0,0,1,0-5L17.77,63a6.17,6.17,0,0,0,0,2Z"/></g></svg>