<svg id="expand" xmlns="http://www.w3.org/2000/svg" viewBox="0 0 75 84"><defs><style>.cls-1{fill:#f2552c;}.cls-2{fill:#084464;}</style></defs><title>icons</title><g id="small_copy" data-name="small copy"><path class="cls-1" d="M74,8,5,19s0-7-4-8c0,0,43.57-7.08,65.9-9.55C70.6.91,73.25,5.08,74,8Z"/><path class="cls-2" d="M75,7.87a.48.48,0,0,0,0-.12C74.16,4.59,71.22-.17,66.79.46,44.69,2.9,1.28,9.94.84,10l-.13.05-.14,0a1.13,1.13,0,0,0-.2.13l-.09.08a.74.74,0,0,0-.17.25l0,0A.94.94,0,0,0,0,11V68a1,1,0,0,0,.37.78A1,1,0,0,0,1,69l.21,0L4,68.37V83a1,1,0,0,0,.38.78A1,1,0,0,0,5,84a.91.91,0,0,0,.23,0l69-16A1,1,0,0,0,75,67V8A.5.5,0,0,0,75,7.87ZM2,21.33l2-2v8.58l-2,2Zm0,10,2-2v8.58l-2,2Zm0,10,2-2v8.58l-2,2ZM3.94,18,2,19.91V13l1.72,3.44A14.08,14.08,0,0,1,3.94,18ZM2,51.33l2-2v8.58l-2,2Zm4-26.5v-5l2.6-.41v3.87L7.29,24.62ZM61.2,16v-3.9l1.28-1.28,1.32-.21v5Zm-13.8,2.2v-2.3l1.6-1.6V18Zm-13.8,2.2v-.7l4.6-4.6v4.56ZM18.8,17.81v5l-3.6.57v-5Zm6.31-1-.71.7v-.59Zm-2.71,2.7-1.6,1.6V17.49l1.6-.25Zm0,1.42v1.28l-1.53.25Zm2,1v-3l2.39-2.39L29,16.19v5Zm7.2-6.12v4.54l-.52.52H31v-5Zm5.4-.86-3.4,3.4V15.45Zm3.2-.51.6-.09v5l-.6.1ZM48.9,13l-1.5,1.5V13.25Zm-3.5,3.5L43,18.93l-.18,0V14l2.6-.42Zm-.74,2.15.74-.73v.62Zm6.34-6,3.6-.57v5l-3.6.57Zm8.2,0-2.6,2.6V11.79l2.6-.42Zm-2.6,4,2.6-2.6v2.22l-2.6.41ZM54,10.18c-.63-1.84-2-4.54-3.92-5.59,2.86-.39,5.65-.76,8.3-1.1l4.94,5.2Zm-.47.07-9.37,1.5C43.6,10,42.41,7.06,40.38,6l8.4-1.2Zm-9.8,1.56-4.42.71-.1,0a1,1,0,0,0-.43.1l-4.45.71c-.46-1.71-1.46-4.75-3.5-5.93,2.77-.42,5.6-.84,8.45-1.25Zm-9.79,1.57L30,14H30l-5.44.87c-.35-1.66-1.18-4.77-3.18-6.07L29.8,7.53Zm-9.8,1.56-9.41,1.5c-.25-1.62-.91-4.75-2.83-6.16L20.35,9ZM13.2,18.71l-2.6,2.6V19.12l2.6-.41Zm-2.6,4,2.6-2.6v3.55l-2.6.41Zm9.07,1.94a.5.5,0,0,0,.13,0,1,1,0,0,0,.45-.12L24,24V77.57l-9,2.08V25.42ZM25,23.82l9-1.43V75.25l-9,2.09Zm10-1.59,9-1.43V72.93L35,75Zm10-1.59,4.83-.77a1,1,0,0,0,.17,0,1,1,0,0,0,.48-.14L54,19.2V70.61L45,72.7ZM55,19l9-1.43V68.29l-9,2.09Zm10.8-8.72,2.6-.41v3.6l-1.63,1.63-1,.15Zm4.6-.73L73,9.17v5l-2.6.41ZM67,2.44a3.36,3.36,0,0,1,1.23.06l4.08,3.92c.13.26.24.52.34.78L63.84,8.61c-.69-1.87-2.08-4.28-3.93-5.32C62.45,3,64.85,2.68,67,2.44Zm-56.14,8,3.43,6.06L5.94,17.84c-.15-1.59-.63-4.44-2.22-6.26C5.41,11.3,7.89,10.91,10.9,10.44ZM2,66.76V61.33l2-2v7ZM6,27.33l.56-.57L14,25.58V79.89L6,81.74ZM73,66.21l-8,1.85V17.45l8-1.28Z"/></g></svg>